G04 #@! TF.GenerationSoftware,KiCad,Pcbnew,5.1.5+dfsg1-2build2*
G04 #@! TF.CreationDate,2021-01-26T14:35:44+01:00*
G04 #@! TF.ProjectId,PiStackMon,50695374-6163-46b4-9d6f-6e2e6b696361,rev?*
G04 #@! TF.SameCoordinates,Original*
G04 #@! TF.FileFunction,Soldermask,Bot*
G04 #@! TF.FilePolarity,Negative*
%FSLAX46Y46*%
G04 Gerber Fmt 4.6, Leading zero omitted, Abs format (unit mm)*
G04 Created by KiCad (PCBNEW 5.1.5+dfsg1-2build2) date 2021-01-26 14:35:44*
%MOMM*%
%LPD*%
G04 APERTURE LIST*
%ADD10C,2.600000*%
%ADD11R,2.600000X2.600000*%
%ADD12R,0.900000X0.800000*%
%ADD13O,1.700000X1.700000*%
%ADD14R,1.700000X1.700000*%
%ADD15C,0.150000*%
%ADD16R,0.800000X0.900000*%
%ADD17R,0.650000X1.060000*%
%ADD18C,1.600000*%
%ADD19R,1.600000X1.600000*%
G04 APERTURE END LIST*
D10*
X269750000Y-153920000D03*
D11*
X269750000Y-159000000D03*
D10*
X269750000Y-164500000D03*
D11*
X269750000Y-169580000D03*
D12*
X224750000Y-161000000D03*
X226750000Y-161950000D03*
X226750000Y-160050000D03*
D13*
X240310000Y-152960000D03*
D14*
X242850000Y-152960000D03*
D15*
G36*
X220010779Y-161338644D02*
G01*
X220033834Y-161342063D01*
X220056443Y-161347727D01*
X220078387Y-161355579D01*
X220099457Y-161365544D01*
X220119448Y-161377526D01*
X220138168Y-161391410D01*
X220155438Y-161407062D01*
X220171090Y-161424332D01*
X220184974Y-161443052D01*
X220196956Y-161463043D01*
X220206921Y-161484113D01*
X220214773Y-161506057D01*
X220220437Y-161528666D01*
X220223856Y-161551721D01*
X220225000Y-161575000D01*
X220225000Y-162075000D01*
X220223856Y-162098279D01*
X220220437Y-162121334D01*
X220214773Y-162143943D01*
X220206921Y-162165887D01*
X220196956Y-162186957D01*
X220184974Y-162206948D01*
X220171090Y-162225668D01*
X220155438Y-162242938D01*
X220138168Y-162258590D01*
X220119448Y-162272474D01*
X220099457Y-162284456D01*
X220078387Y-162294421D01*
X220056443Y-162302273D01*
X220033834Y-162307937D01*
X220010779Y-162311356D01*
X219987500Y-162312500D01*
X219512500Y-162312500D01*
X219489221Y-162311356D01*
X219466166Y-162307937D01*
X219443557Y-162302273D01*
X219421613Y-162294421D01*
X219400543Y-162284456D01*
X219380552Y-162272474D01*
X219361832Y-162258590D01*
X219344562Y-162242938D01*
X219328910Y-162225668D01*
X219315026Y-162206948D01*
X219303044Y-162186957D01*
X219293079Y-162165887D01*
X219285227Y-162143943D01*
X219279563Y-162121334D01*
X219276144Y-162098279D01*
X219275000Y-162075000D01*
X219275000Y-161575000D01*
X219276144Y-161551721D01*
X219279563Y-161528666D01*
X219285227Y-161506057D01*
X219293079Y-161484113D01*
X219303044Y-161463043D01*
X219315026Y-161443052D01*
X219328910Y-161424332D01*
X219344562Y-161407062D01*
X219361832Y-161391410D01*
X219380552Y-161377526D01*
X219400543Y-161365544D01*
X219421613Y-161355579D01*
X219443557Y-161347727D01*
X219466166Y-161342063D01*
X219489221Y-161338644D01*
X219512500Y-161337500D01*
X219987500Y-161337500D01*
X220010779Y-161338644D01*
G37*
G36*
X220010779Y-159513644D02*
G01*
X220033834Y-159517063D01*
X220056443Y-159522727D01*
X220078387Y-159530579D01*
X220099457Y-159540544D01*
X220119448Y-159552526D01*
X220138168Y-159566410D01*
X220155438Y-159582062D01*
X220171090Y-159599332D01*
X220184974Y-159618052D01*
X220196956Y-159638043D01*
X220206921Y-159659113D01*
X220214773Y-159681057D01*
X220220437Y-159703666D01*
X220223856Y-159726721D01*
X220225000Y-159750000D01*
X220225000Y-160250000D01*
X220223856Y-160273279D01*
X220220437Y-160296334D01*
X220214773Y-160318943D01*
X220206921Y-160340887D01*
X220196956Y-160361957D01*
X220184974Y-160381948D01*
X220171090Y-160400668D01*
X220155438Y-160417938D01*
X220138168Y-160433590D01*
X220119448Y-160447474D01*
X220099457Y-160459456D01*
X220078387Y-160469421D01*
X220056443Y-160477273D01*
X220033834Y-160482937D01*
X220010779Y-160486356D01*
X219987500Y-160487500D01*
X219512500Y-160487500D01*
X219489221Y-160486356D01*
X219466166Y-160482937D01*
X219443557Y-160477273D01*
X219421613Y-160469421D01*
X219400543Y-160459456D01*
X219380552Y-160447474D01*
X219361832Y-160433590D01*
X219344562Y-160417938D01*
X219328910Y-160400668D01*
X219315026Y-160381948D01*
X219303044Y-160361957D01*
X219293079Y-160340887D01*
X219285227Y-160318943D01*
X219279563Y-160296334D01*
X219276144Y-160273279D01*
X219275000Y-160250000D01*
X219275000Y-159750000D01*
X219276144Y-159726721D01*
X219279563Y-159703666D01*
X219285227Y-159681057D01*
X219293079Y-159659113D01*
X219303044Y-159638043D01*
X219315026Y-159618052D01*
X219328910Y-159599332D01*
X219344562Y-159582062D01*
X219361832Y-159566410D01*
X219380552Y-159552526D01*
X219400543Y-159540544D01*
X219421613Y-159530579D01*
X219443557Y-159522727D01*
X219466166Y-159517063D01*
X219489221Y-159513644D01*
X219512500Y-159512500D01*
X219987500Y-159512500D01*
X220010779Y-159513644D01*
G37*
D12*
X223250000Y-161000000D03*
X221250000Y-160050000D03*
X221250000Y-161950000D03*
D13*
X212370000Y-152960000D03*
X214910000Y-152960000D03*
D14*
X217450000Y-152960000D03*
D16*
X227000000Y-166500000D03*
X227950000Y-164500000D03*
X226050000Y-164500000D03*
D15*
G36*
X219760779Y-165426144D02*
G01*
X219783834Y-165429563D01*
X219806443Y-165435227D01*
X219828387Y-165443079D01*
X219849457Y-165453044D01*
X219869448Y-165465026D01*
X219888168Y-165478910D01*
X219905438Y-165494562D01*
X219921090Y-165511832D01*
X219934974Y-165530552D01*
X219946956Y-165550543D01*
X219956921Y-165571613D01*
X219964773Y-165593557D01*
X219970437Y-165616166D01*
X219973856Y-165639221D01*
X219975000Y-165662500D01*
X219975000Y-166162500D01*
X219973856Y-166185779D01*
X219970437Y-166208834D01*
X219964773Y-166231443D01*
X219956921Y-166253387D01*
X219946956Y-166274457D01*
X219934974Y-166294448D01*
X219921090Y-166313168D01*
X219905438Y-166330438D01*
X219888168Y-166346090D01*
X219869448Y-166359974D01*
X219849457Y-166371956D01*
X219828387Y-166381921D01*
X219806443Y-166389773D01*
X219783834Y-166395437D01*
X219760779Y-166398856D01*
X219737500Y-166400000D01*
X219262500Y-166400000D01*
X219239221Y-166398856D01*
X219216166Y-166395437D01*
X219193557Y-166389773D01*
X219171613Y-166381921D01*
X219150543Y-166371956D01*
X219130552Y-166359974D01*
X219111832Y-166346090D01*
X219094562Y-166330438D01*
X219078910Y-166313168D01*
X219065026Y-166294448D01*
X219053044Y-166274457D01*
X219043079Y-166253387D01*
X219035227Y-166231443D01*
X219029563Y-166208834D01*
X219026144Y-166185779D01*
X219025000Y-166162500D01*
X219025000Y-165662500D01*
X219026144Y-165639221D01*
X219029563Y-165616166D01*
X219035227Y-165593557D01*
X219043079Y-165571613D01*
X219053044Y-165550543D01*
X219065026Y-165530552D01*
X219078910Y-165511832D01*
X219094562Y-165494562D01*
X219111832Y-165478910D01*
X219130552Y-165465026D01*
X219150543Y-165453044D01*
X219171613Y-165443079D01*
X219193557Y-165435227D01*
X219216166Y-165429563D01*
X219239221Y-165426144D01*
X219262500Y-165425000D01*
X219737500Y-165425000D01*
X219760779Y-165426144D01*
G37*
G36*
X219760779Y-163601144D02*
G01*
X219783834Y-163604563D01*
X219806443Y-163610227D01*
X219828387Y-163618079D01*
X219849457Y-163628044D01*
X219869448Y-163640026D01*
X219888168Y-163653910D01*
X219905438Y-163669562D01*
X219921090Y-163686832D01*
X219934974Y-163705552D01*
X219946956Y-163725543D01*
X219956921Y-163746613D01*
X219964773Y-163768557D01*
X219970437Y-163791166D01*
X219973856Y-163814221D01*
X219975000Y-163837500D01*
X219975000Y-164337500D01*
X219973856Y-164360779D01*
X219970437Y-164383834D01*
X219964773Y-164406443D01*
X219956921Y-164428387D01*
X219946956Y-164449457D01*
X219934974Y-164469448D01*
X219921090Y-164488168D01*
X219905438Y-164505438D01*
X219888168Y-164521090D01*
X219869448Y-164534974D01*
X219849457Y-164546956D01*
X219828387Y-164556921D01*
X219806443Y-164564773D01*
X219783834Y-164570437D01*
X219760779Y-164573856D01*
X219737500Y-164575000D01*
X219262500Y-164575000D01*
X219239221Y-164573856D01*
X219216166Y-164570437D01*
X219193557Y-164564773D01*
X219171613Y-164556921D01*
X219150543Y-164546956D01*
X219130552Y-164534974D01*
X219111832Y-164521090D01*
X219094562Y-164505438D01*
X219078910Y-164488168D01*
X219065026Y-164469448D01*
X219053044Y-164449457D01*
X219043079Y-164428387D01*
X219035227Y-164406443D01*
X219029563Y-164383834D01*
X219026144Y-164360779D01*
X219025000Y-164337500D01*
X219025000Y-163837500D01*
X219026144Y-163814221D01*
X219029563Y-163791166D01*
X219035227Y-163768557D01*
X219043079Y-163746613D01*
X219053044Y-163725543D01*
X219065026Y-163705552D01*
X219078910Y-163686832D01*
X219094562Y-163669562D01*
X219111832Y-163653910D01*
X219130552Y-163640026D01*
X219150543Y-163628044D01*
X219171613Y-163618079D01*
X219193557Y-163610227D01*
X219216166Y-163604563D01*
X219239221Y-163601144D01*
X219262500Y-163600000D01*
X219737500Y-163600000D01*
X219760779Y-163601144D01*
G37*
G36*
X251110779Y-159526144D02*
G01*
X251133834Y-159529563D01*
X251156443Y-159535227D01*
X251178387Y-159543079D01*
X251199457Y-159553044D01*
X251219448Y-159565026D01*
X251238168Y-159578910D01*
X251255438Y-159594562D01*
X251271090Y-159611832D01*
X251284974Y-159630552D01*
X251296956Y-159650543D01*
X251306921Y-159671613D01*
X251314773Y-159693557D01*
X251320437Y-159716166D01*
X251323856Y-159739221D01*
X251325000Y-159762500D01*
X251325000Y-160237500D01*
X251323856Y-160260779D01*
X251320437Y-160283834D01*
X251314773Y-160306443D01*
X251306921Y-160328387D01*
X251296956Y-160349457D01*
X251284974Y-160369448D01*
X251271090Y-160388168D01*
X251255438Y-160405438D01*
X251238168Y-160421090D01*
X251219448Y-160434974D01*
X251199457Y-160446956D01*
X251178387Y-160456921D01*
X251156443Y-160464773D01*
X251133834Y-160470437D01*
X251110779Y-160473856D01*
X251087500Y-160475000D01*
X250587500Y-160475000D01*
X250564221Y-160473856D01*
X250541166Y-160470437D01*
X250518557Y-160464773D01*
X250496613Y-160456921D01*
X250475543Y-160446956D01*
X250455552Y-160434974D01*
X250436832Y-160421090D01*
X250419562Y-160405438D01*
X250403910Y-160388168D01*
X250390026Y-160369448D01*
X250378044Y-160349457D01*
X250368079Y-160328387D01*
X250360227Y-160306443D01*
X250354563Y-160283834D01*
X250351144Y-160260779D01*
X250350000Y-160237500D01*
X250350000Y-159762500D01*
X250351144Y-159739221D01*
X250354563Y-159716166D01*
X250360227Y-159693557D01*
X250368079Y-159671613D01*
X250378044Y-159650543D01*
X250390026Y-159630552D01*
X250403910Y-159611832D01*
X250419562Y-159594562D01*
X250436832Y-159578910D01*
X250455552Y-159565026D01*
X250475543Y-159553044D01*
X250496613Y-159543079D01*
X250518557Y-159535227D01*
X250541166Y-159529563D01*
X250564221Y-159526144D01*
X250587500Y-159525000D01*
X251087500Y-159525000D01*
X251110779Y-159526144D01*
G37*
G36*
X252935779Y-159526144D02*
G01*
X252958834Y-159529563D01*
X252981443Y-159535227D01*
X253003387Y-159543079D01*
X253024457Y-159553044D01*
X253044448Y-159565026D01*
X253063168Y-159578910D01*
X253080438Y-159594562D01*
X253096090Y-159611832D01*
X253109974Y-159630552D01*
X253121956Y-159650543D01*
X253131921Y-159671613D01*
X253139773Y-159693557D01*
X253145437Y-159716166D01*
X253148856Y-159739221D01*
X253150000Y-159762500D01*
X253150000Y-160237500D01*
X253148856Y-160260779D01*
X253145437Y-160283834D01*
X253139773Y-160306443D01*
X253131921Y-160328387D01*
X253121956Y-160349457D01*
X253109974Y-160369448D01*
X253096090Y-160388168D01*
X253080438Y-160405438D01*
X253063168Y-160421090D01*
X253044448Y-160434974D01*
X253024457Y-160446956D01*
X253003387Y-160456921D01*
X252981443Y-160464773D01*
X252958834Y-160470437D01*
X252935779Y-160473856D01*
X252912500Y-160475000D01*
X252412500Y-160475000D01*
X252389221Y-160473856D01*
X252366166Y-160470437D01*
X252343557Y-160464773D01*
X252321613Y-160456921D01*
X252300543Y-160446956D01*
X252280552Y-160434974D01*
X252261832Y-160421090D01*
X252244562Y-160405438D01*
X252228910Y-160388168D01*
X252215026Y-160369448D01*
X252203044Y-160349457D01*
X252193079Y-160328387D01*
X252185227Y-160306443D01*
X252179563Y-160283834D01*
X252176144Y-160260779D01*
X252175000Y-160237500D01*
X252175000Y-159762500D01*
X252176144Y-159739221D01*
X252179563Y-159716166D01*
X252185227Y-159693557D01*
X252193079Y-159671613D01*
X252203044Y-159650543D01*
X252215026Y-159630552D01*
X252228910Y-159611832D01*
X252244562Y-159594562D01*
X252261832Y-159578910D01*
X252280552Y-159565026D01*
X252300543Y-159553044D01*
X252321613Y-159543079D01*
X252343557Y-159535227D01*
X252366166Y-159529563D01*
X252389221Y-159526144D01*
X252412500Y-159525000D01*
X252912500Y-159525000D01*
X252935779Y-159526144D01*
G37*
G36*
X246284802Y-161225482D02*
G01*
X246294509Y-161226921D01*
X246304028Y-161229306D01*
X246313268Y-161232612D01*
X246322140Y-161236808D01*
X246330557Y-161241853D01*
X246338439Y-161247699D01*
X246345711Y-161254289D01*
X246352301Y-161261561D01*
X246358147Y-161269443D01*
X246363192Y-161277860D01*
X246367388Y-161286732D01*
X246370694Y-161295972D01*
X246373079Y-161305491D01*
X246374518Y-161315198D01*
X246375000Y-161325000D01*
X246375000Y-161525000D01*
X246374518Y-161534802D01*
X246373079Y-161544509D01*
X246370694Y-161554028D01*
X246367388Y-161563268D01*
X246363192Y-161572140D01*
X246358147Y-161580557D01*
X246352301Y-161588439D01*
X246345711Y-161595711D01*
X246338439Y-161602301D01*
X246330557Y-161608147D01*
X246322140Y-161613192D01*
X246313268Y-161617388D01*
X246304028Y-161620694D01*
X246294509Y-161623079D01*
X246284802Y-161624518D01*
X246275000Y-161625000D01*
X245000000Y-161625000D01*
X244990198Y-161624518D01*
X244980491Y-161623079D01*
X244970972Y-161620694D01*
X244961732Y-161617388D01*
X244952860Y-161613192D01*
X244944443Y-161608147D01*
X244936561Y-161602301D01*
X244929289Y-161595711D01*
X244922699Y-161588439D01*
X244916853Y-161580557D01*
X244911808Y-161572140D01*
X244907612Y-161563268D01*
X244904306Y-161554028D01*
X244901921Y-161544509D01*
X244900482Y-161534802D01*
X244900000Y-161525000D01*
X244900000Y-161325000D01*
X244900482Y-161315198D01*
X244901921Y-161305491D01*
X244904306Y-161295972D01*
X244907612Y-161286732D01*
X244911808Y-161277860D01*
X244916853Y-161269443D01*
X244922699Y-161261561D01*
X244929289Y-161254289D01*
X244936561Y-161247699D01*
X244944443Y-161241853D01*
X244952860Y-161236808D01*
X244961732Y-161232612D01*
X244970972Y-161229306D01*
X244980491Y-161226921D01*
X244990198Y-161225482D01*
X245000000Y-161225000D01*
X246275000Y-161225000D01*
X246284802Y-161225482D01*
G37*
G36*
X246284802Y-161875482D02*
G01*
X246294509Y-161876921D01*
X246304028Y-161879306D01*
X246313268Y-161882612D01*
X246322140Y-161886808D01*
X246330557Y-161891853D01*
X246338439Y-161897699D01*
X246345711Y-161904289D01*
X246352301Y-161911561D01*
X246358147Y-161919443D01*
X246363192Y-161927860D01*
X246367388Y-161936732D01*
X246370694Y-161945972D01*
X246373079Y-161955491D01*
X246374518Y-161965198D01*
X246375000Y-161975000D01*
X246375000Y-162175000D01*
X246374518Y-162184802D01*
X246373079Y-162194509D01*
X246370694Y-162204028D01*
X246367388Y-162213268D01*
X246363192Y-162222140D01*
X246358147Y-162230557D01*
X246352301Y-162238439D01*
X246345711Y-162245711D01*
X246338439Y-162252301D01*
X246330557Y-162258147D01*
X246322140Y-162263192D01*
X246313268Y-162267388D01*
X246304028Y-162270694D01*
X246294509Y-162273079D01*
X246284802Y-162274518D01*
X246275000Y-162275000D01*
X245000000Y-162275000D01*
X244990198Y-162274518D01*
X244980491Y-162273079D01*
X244970972Y-162270694D01*
X244961732Y-162267388D01*
X244952860Y-162263192D01*
X244944443Y-162258147D01*
X244936561Y-162252301D01*
X244929289Y-162245711D01*
X244922699Y-162238439D01*
X244916853Y-162230557D01*
X244911808Y-162222140D01*
X244907612Y-162213268D01*
X244904306Y-162204028D01*
X244901921Y-162194509D01*
X244900482Y-162184802D01*
X244900000Y-162175000D01*
X244900000Y-161975000D01*
X244900482Y-161965198D01*
X244901921Y-161955491D01*
X244904306Y-161945972D01*
X244907612Y-161936732D01*
X244911808Y-161927860D01*
X244916853Y-161919443D01*
X244922699Y-161911561D01*
X244929289Y-161904289D01*
X244936561Y-161897699D01*
X244944443Y-161891853D01*
X244952860Y-161886808D01*
X244961732Y-161882612D01*
X244970972Y-161879306D01*
X244980491Y-161876921D01*
X244990198Y-161875482D01*
X245000000Y-161875000D01*
X246275000Y-161875000D01*
X246284802Y-161875482D01*
G37*
G36*
X246284802Y-162525482D02*
G01*
X246294509Y-162526921D01*
X246304028Y-162529306D01*
X246313268Y-162532612D01*
X246322140Y-162536808D01*
X246330557Y-162541853D01*
X246338439Y-162547699D01*
X246345711Y-162554289D01*
X246352301Y-162561561D01*
X246358147Y-162569443D01*
X246363192Y-162577860D01*
X246367388Y-162586732D01*
X246370694Y-162595972D01*
X246373079Y-162605491D01*
X246374518Y-162615198D01*
X246375000Y-162625000D01*
X246375000Y-162825000D01*
X246374518Y-162834802D01*
X246373079Y-162844509D01*
X246370694Y-162854028D01*
X246367388Y-162863268D01*
X246363192Y-162872140D01*
X246358147Y-162880557D01*
X246352301Y-162888439D01*
X246345711Y-162895711D01*
X246338439Y-162902301D01*
X246330557Y-162908147D01*
X246322140Y-162913192D01*
X246313268Y-162917388D01*
X246304028Y-162920694D01*
X246294509Y-162923079D01*
X246284802Y-162924518D01*
X246275000Y-162925000D01*
X245000000Y-162925000D01*
X244990198Y-162924518D01*
X244980491Y-162923079D01*
X244970972Y-162920694D01*
X244961732Y-162917388D01*
X244952860Y-162913192D01*
X244944443Y-162908147D01*
X244936561Y-162902301D01*
X244929289Y-162895711D01*
X244922699Y-162888439D01*
X244916853Y-162880557D01*
X244911808Y-162872140D01*
X244907612Y-162863268D01*
X244904306Y-162854028D01*
X244901921Y-162844509D01*
X244900482Y-162834802D01*
X244900000Y-162825000D01*
X244900000Y-162625000D01*
X244900482Y-162615198D01*
X244901921Y-162605491D01*
X244904306Y-162595972D01*
X244907612Y-162586732D01*
X244911808Y-162577860D01*
X244916853Y-162569443D01*
X244922699Y-162561561D01*
X244929289Y-162554289D01*
X244936561Y-162547699D01*
X244944443Y-162541853D01*
X244952860Y-162536808D01*
X244961732Y-162532612D01*
X244970972Y-162529306D01*
X244980491Y-162526921D01*
X244990198Y-162525482D01*
X245000000Y-162525000D01*
X246275000Y-162525000D01*
X246284802Y-162525482D01*
G37*
G36*
X246284802Y-163175482D02*
G01*
X246294509Y-163176921D01*
X246304028Y-163179306D01*
X246313268Y-163182612D01*
X246322140Y-163186808D01*
X246330557Y-163191853D01*
X246338439Y-163197699D01*
X246345711Y-163204289D01*
X246352301Y-163211561D01*
X246358147Y-163219443D01*
X246363192Y-163227860D01*
X246367388Y-163236732D01*
X246370694Y-163245972D01*
X246373079Y-163255491D01*
X246374518Y-163265198D01*
X246375000Y-163275000D01*
X246375000Y-163475000D01*
X246374518Y-163484802D01*
X246373079Y-163494509D01*
X246370694Y-163504028D01*
X246367388Y-163513268D01*
X246363192Y-163522140D01*
X246358147Y-163530557D01*
X246352301Y-163538439D01*
X246345711Y-163545711D01*
X246338439Y-163552301D01*
X246330557Y-163558147D01*
X246322140Y-163563192D01*
X246313268Y-163567388D01*
X246304028Y-163570694D01*
X246294509Y-163573079D01*
X246284802Y-163574518D01*
X246275000Y-163575000D01*
X245000000Y-163575000D01*
X244990198Y-163574518D01*
X244980491Y-163573079D01*
X244970972Y-163570694D01*
X244961732Y-163567388D01*
X244952860Y-163563192D01*
X244944443Y-163558147D01*
X244936561Y-163552301D01*
X244929289Y-163545711D01*
X244922699Y-163538439D01*
X244916853Y-163530557D01*
X244911808Y-163522140D01*
X244907612Y-163513268D01*
X244904306Y-163504028D01*
X244901921Y-163494509D01*
X244900482Y-163484802D01*
X244900000Y-163475000D01*
X244900000Y-163275000D01*
X244900482Y-163265198D01*
X244901921Y-163255491D01*
X244904306Y-163245972D01*
X244907612Y-163236732D01*
X244911808Y-163227860D01*
X244916853Y-163219443D01*
X244922699Y-163211561D01*
X244929289Y-163204289D01*
X244936561Y-163197699D01*
X244944443Y-163191853D01*
X244952860Y-163186808D01*
X244961732Y-163182612D01*
X244970972Y-163179306D01*
X244980491Y-163176921D01*
X244990198Y-163175482D01*
X245000000Y-163175000D01*
X246275000Y-163175000D01*
X246284802Y-163175482D01*
G37*
G36*
X246284802Y-163825482D02*
G01*
X246294509Y-163826921D01*
X246304028Y-163829306D01*
X246313268Y-163832612D01*
X246322140Y-163836808D01*
X246330557Y-163841853D01*
X246338439Y-163847699D01*
X246345711Y-163854289D01*
X246352301Y-163861561D01*
X246358147Y-163869443D01*
X246363192Y-163877860D01*
X246367388Y-163886732D01*
X246370694Y-163895972D01*
X246373079Y-163905491D01*
X246374518Y-163915198D01*
X246375000Y-163925000D01*
X246375000Y-164125000D01*
X246374518Y-164134802D01*
X246373079Y-164144509D01*
X246370694Y-164154028D01*
X246367388Y-164163268D01*
X246363192Y-164172140D01*
X246358147Y-164180557D01*
X246352301Y-164188439D01*
X246345711Y-164195711D01*
X246338439Y-164202301D01*
X246330557Y-164208147D01*
X246322140Y-164213192D01*
X246313268Y-164217388D01*
X246304028Y-164220694D01*
X246294509Y-164223079D01*
X246284802Y-164224518D01*
X246275000Y-164225000D01*
X245000000Y-164225000D01*
X244990198Y-164224518D01*
X244980491Y-164223079D01*
X244970972Y-164220694D01*
X244961732Y-164217388D01*
X244952860Y-164213192D01*
X244944443Y-164208147D01*
X244936561Y-164202301D01*
X244929289Y-164195711D01*
X244922699Y-164188439D01*
X244916853Y-164180557D01*
X244911808Y-164172140D01*
X244907612Y-164163268D01*
X244904306Y-164154028D01*
X244901921Y-164144509D01*
X244900482Y-164134802D01*
X244900000Y-164125000D01*
X244900000Y-163925000D01*
X244900482Y-163915198D01*
X244901921Y-163905491D01*
X244904306Y-163895972D01*
X244907612Y-163886732D01*
X244911808Y-163877860D01*
X244916853Y-163869443D01*
X244922699Y-163861561D01*
X244929289Y-163854289D01*
X244936561Y-163847699D01*
X244944443Y-163841853D01*
X244952860Y-163836808D01*
X244961732Y-163832612D01*
X244970972Y-163829306D01*
X244980491Y-163826921D01*
X244990198Y-163825482D01*
X245000000Y-163825000D01*
X246275000Y-163825000D01*
X246284802Y-163825482D01*
G37*
G36*
X246284802Y-164475482D02*
G01*
X246294509Y-164476921D01*
X246304028Y-164479306D01*
X246313268Y-164482612D01*
X246322140Y-164486808D01*
X246330557Y-164491853D01*
X246338439Y-164497699D01*
X246345711Y-164504289D01*
X246352301Y-164511561D01*
X246358147Y-164519443D01*
X246363192Y-164527860D01*
X246367388Y-164536732D01*
X246370694Y-164545972D01*
X246373079Y-164555491D01*
X246374518Y-164565198D01*
X246375000Y-164575000D01*
X246375000Y-164775000D01*
X246374518Y-164784802D01*
X246373079Y-164794509D01*
X246370694Y-164804028D01*
X246367388Y-164813268D01*
X246363192Y-164822140D01*
X246358147Y-164830557D01*
X246352301Y-164838439D01*
X246345711Y-164845711D01*
X246338439Y-164852301D01*
X246330557Y-164858147D01*
X246322140Y-164863192D01*
X246313268Y-164867388D01*
X246304028Y-164870694D01*
X246294509Y-164873079D01*
X246284802Y-164874518D01*
X246275000Y-164875000D01*
X245000000Y-164875000D01*
X244990198Y-164874518D01*
X244980491Y-164873079D01*
X244970972Y-164870694D01*
X244961732Y-164867388D01*
X244952860Y-164863192D01*
X244944443Y-164858147D01*
X244936561Y-164852301D01*
X244929289Y-164845711D01*
X244922699Y-164838439D01*
X244916853Y-164830557D01*
X244911808Y-164822140D01*
X244907612Y-164813268D01*
X244904306Y-164804028D01*
X244901921Y-164794509D01*
X244900482Y-164784802D01*
X244900000Y-164775000D01*
X244900000Y-164575000D01*
X244900482Y-164565198D01*
X244901921Y-164555491D01*
X244904306Y-164545972D01*
X244907612Y-164536732D01*
X244911808Y-164527860D01*
X244916853Y-164519443D01*
X244922699Y-164511561D01*
X244929289Y-164504289D01*
X244936561Y-164497699D01*
X244944443Y-164491853D01*
X244952860Y-164486808D01*
X244961732Y-164482612D01*
X244970972Y-164479306D01*
X244980491Y-164476921D01*
X244990198Y-164475482D01*
X245000000Y-164475000D01*
X246275000Y-164475000D01*
X246284802Y-164475482D01*
G37*
G36*
X246284802Y-165125482D02*
G01*
X246294509Y-165126921D01*
X246304028Y-165129306D01*
X246313268Y-165132612D01*
X246322140Y-165136808D01*
X246330557Y-165141853D01*
X246338439Y-165147699D01*
X246345711Y-165154289D01*
X246352301Y-165161561D01*
X246358147Y-165169443D01*
X246363192Y-165177860D01*
X246367388Y-165186732D01*
X246370694Y-165195972D01*
X246373079Y-165205491D01*
X246374518Y-165215198D01*
X246375000Y-165225000D01*
X246375000Y-165425000D01*
X246374518Y-165434802D01*
X246373079Y-165444509D01*
X246370694Y-165454028D01*
X246367388Y-165463268D01*
X246363192Y-165472140D01*
X246358147Y-165480557D01*
X246352301Y-165488439D01*
X246345711Y-165495711D01*
X246338439Y-165502301D01*
X246330557Y-165508147D01*
X246322140Y-165513192D01*
X246313268Y-165517388D01*
X246304028Y-165520694D01*
X246294509Y-165523079D01*
X246284802Y-165524518D01*
X246275000Y-165525000D01*
X245000000Y-165525000D01*
X244990198Y-165524518D01*
X244980491Y-165523079D01*
X244970972Y-165520694D01*
X244961732Y-165517388D01*
X244952860Y-165513192D01*
X244944443Y-165508147D01*
X244936561Y-165502301D01*
X244929289Y-165495711D01*
X244922699Y-165488439D01*
X244916853Y-165480557D01*
X244911808Y-165472140D01*
X244907612Y-165463268D01*
X244904306Y-165454028D01*
X244901921Y-165444509D01*
X244900482Y-165434802D01*
X244900000Y-165425000D01*
X244900000Y-165225000D01*
X244900482Y-165215198D01*
X244901921Y-165205491D01*
X244904306Y-165195972D01*
X244907612Y-165186732D01*
X244911808Y-165177860D01*
X244916853Y-165169443D01*
X244922699Y-165161561D01*
X244929289Y-165154289D01*
X244936561Y-165147699D01*
X244944443Y-165141853D01*
X244952860Y-165136808D01*
X244961732Y-165132612D01*
X244970972Y-165129306D01*
X244980491Y-165126921D01*
X244990198Y-165125482D01*
X245000000Y-165125000D01*
X246275000Y-165125000D01*
X246284802Y-165125482D01*
G37*
G36*
X246284802Y-165775482D02*
G01*
X246294509Y-165776921D01*
X246304028Y-165779306D01*
X246313268Y-165782612D01*
X246322140Y-165786808D01*
X246330557Y-165791853D01*
X246338439Y-165797699D01*
X246345711Y-165804289D01*
X246352301Y-165811561D01*
X246358147Y-165819443D01*
X246363192Y-165827860D01*
X246367388Y-165836732D01*
X246370694Y-165845972D01*
X246373079Y-165855491D01*
X246374518Y-165865198D01*
X246375000Y-165875000D01*
X246375000Y-166075000D01*
X246374518Y-166084802D01*
X246373079Y-166094509D01*
X246370694Y-166104028D01*
X246367388Y-166113268D01*
X246363192Y-166122140D01*
X246358147Y-166130557D01*
X246352301Y-166138439D01*
X246345711Y-166145711D01*
X246338439Y-166152301D01*
X246330557Y-166158147D01*
X246322140Y-166163192D01*
X246313268Y-166167388D01*
X246304028Y-166170694D01*
X246294509Y-166173079D01*
X246284802Y-166174518D01*
X246275000Y-166175000D01*
X245000000Y-166175000D01*
X244990198Y-166174518D01*
X244980491Y-166173079D01*
X244970972Y-166170694D01*
X244961732Y-166167388D01*
X244952860Y-166163192D01*
X244944443Y-166158147D01*
X244936561Y-166152301D01*
X244929289Y-166145711D01*
X244922699Y-166138439D01*
X244916853Y-166130557D01*
X244911808Y-166122140D01*
X244907612Y-166113268D01*
X244904306Y-166104028D01*
X244901921Y-166094509D01*
X244900482Y-166084802D01*
X244900000Y-166075000D01*
X244900000Y-165875000D01*
X244900482Y-165865198D01*
X244901921Y-165855491D01*
X244904306Y-165845972D01*
X244907612Y-165836732D01*
X244911808Y-165827860D01*
X244916853Y-165819443D01*
X244922699Y-165811561D01*
X244929289Y-165804289D01*
X244936561Y-165797699D01*
X244944443Y-165791853D01*
X244952860Y-165786808D01*
X244961732Y-165782612D01*
X244970972Y-165779306D01*
X244980491Y-165776921D01*
X244990198Y-165775482D01*
X245000000Y-165775000D01*
X246275000Y-165775000D01*
X246284802Y-165775482D01*
G37*
G36*
X246284802Y-166425482D02*
G01*
X246294509Y-166426921D01*
X246304028Y-166429306D01*
X246313268Y-166432612D01*
X246322140Y-166436808D01*
X246330557Y-166441853D01*
X246338439Y-166447699D01*
X246345711Y-166454289D01*
X246352301Y-166461561D01*
X246358147Y-166469443D01*
X246363192Y-166477860D01*
X246367388Y-166486732D01*
X246370694Y-166495972D01*
X246373079Y-166505491D01*
X246374518Y-166515198D01*
X246375000Y-166525000D01*
X246375000Y-166725000D01*
X246374518Y-166734802D01*
X246373079Y-166744509D01*
X246370694Y-166754028D01*
X246367388Y-166763268D01*
X246363192Y-166772140D01*
X246358147Y-166780557D01*
X246352301Y-166788439D01*
X246345711Y-166795711D01*
X246338439Y-166802301D01*
X246330557Y-166808147D01*
X246322140Y-166813192D01*
X246313268Y-166817388D01*
X246304028Y-166820694D01*
X246294509Y-166823079D01*
X246284802Y-166824518D01*
X246275000Y-166825000D01*
X245000000Y-166825000D01*
X244990198Y-166824518D01*
X244980491Y-166823079D01*
X244970972Y-166820694D01*
X244961732Y-166817388D01*
X244952860Y-166813192D01*
X244944443Y-166808147D01*
X244936561Y-166802301D01*
X244929289Y-166795711D01*
X244922699Y-166788439D01*
X244916853Y-166780557D01*
X244911808Y-166772140D01*
X244907612Y-166763268D01*
X244904306Y-166754028D01*
X244901921Y-166744509D01*
X244900482Y-166734802D01*
X244900000Y-166725000D01*
X244900000Y-166525000D01*
X244900482Y-166515198D01*
X244901921Y-166505491D01*
X244904306Y-166495972D01*
X244907612Y-166486732D01*
X244911808Y-166477860D01*
X244916853Y-166469443D01*
X244922699Y-166461561D01*
X244929289Y-166454289D01*
X244936561Y-166447699D01*
X244944443Y-166441853D01*
X244952860Y-166436808D01*
X244961732Y-166432612D01*
X244970972Y-166429306D01*
X244980491Y-166426921D01*
X244990198Y-166425482D01*
X245000000Y-166425000D01*
X246275000Y-166425000D01*
X246284802Y-166425482D01*
G37*
G36*
X246284802Y-167075482D02*
G01*
X246294509Y-167076921D01*
X246304028Y-167079306D01*
X246313268Y-167082612D01*
X246322140Y-167086808D01*
X246330557Y-167091853D01*
X246338439Y-167097699D01*
X246345711Y-167104289D01*
X246352301Y-167111561D01*
X246358147Y-167119443D01*
X246363192Y-167127860D01*
X246367388Y-167136732D01*
X246370694Y-167145972D01*
X246373079Y-167155491D01*
X246374518Y-167165198D01*
X246375000Y-167175000D01*
X246375000Y-167375000D01*
X246374518Y-167384802D01*
X246373079Y-167394509D01*
X246370694Y-167404028D01*
X246367388Y-167413268D01*
X246363192Y-167422140D01*
X246358147Y-167430557D01*
X246352301Y-167438439D01*
X246345711Y-167445711D01*
X246338439Y-167452301D01*
X246330557Y-167458147D01*
X246322140Y-167463192D01*
X246313268Y-167467388D01*
X246304028Y-167470694D01*
X246294509Y-167473079D01*
X246284802Y-167474518D01*
X246275000Y-167475000D01*
X245000000Y-167475000D01*
X244990198Y-167474518D01*
X244980491Y-167473079D01*
X244970972Y-167470694D01*
X244961732Y-167467388D01*
X244952860Y-167463192D01*
X244944443Y-167458147D01*
X244936561Y-167452301D01*
X244929289Y-167445711D01*
X244922699Y-167438439D01*
X244916853Y-167430557D01*
X244911808Y-167422140D01*
X244907612Y-167413268D01*
X244904306Y-167404028D01*
X244901921Y-167394509D01*
X244900482Y-167384802D01*
X244900000Y-167375000D01*
X244900000Y-167175000D01*
X244900482Y-167165198D01*
X244901921Y-167155491D01*
X244904306Y-167145972D01*
X244907612Y-167136732D01*
X244911808Y-167127860D01*
X244916853Y-167119443D01*
X244922699Y-167111561D01*
X244929289Y-167104289D01*
X244936561Y-167097699D01*
X244944443Y-167091853D01*
X244952860Y-167086808D01*
X244961732Y-167082612D01*
X244970972Y-167079306D01*
X244980491Y-167076921D01*
X244990198Y-167075482D01*
X245000000Y-167075000D01*
X246275000Y-167075000D01*
X246284802Y-167075482D01*
G37*
G36*
X246284802Y-167725482D02*
G01*
X246294509Y-167726921D01*
X246304028Y-167729306D01*
X246313268Y-167732612D01*
X246322140Y-167736808D01*
X246330557Y-167741853D01*
X246338439Y-167747699D01*
X246345711Y-167754289D01*
X246352301Y-167761561D01*
X246358147Y-167769443D01*
X246363192Y-167777860D01*
X246367388Y-167786732D01*
X246370694Y-167795972D01*
X246373079Y-167805491D01*
X246374518Y-167815198D01*
X246375000Y-167825000D01*
X246375000Y-168025000D01*
X246374518Y-168034802D01*
X246373079Y-168044509D01*
X246370694Y-168054028D01*
X246367388Y-168063268D01*
X246363192Y-168072140D01*
X246358147Y-168080557D01*
X246352301Y-168088439D01*
X246345711Y-168095711D01*
X246338439Y-168102301D01*
X246330557Y-168108147D01*
X246322140Y-168113192D01*
X246313268Y-168117388D01*
X246304028Y-168120694D01*
X246294509Y-168123079D01*
X246284802Y-168124518D01*
X246275000Y-168125000D01*
X245000000Y-168125000D01*
X244990198Y-168124518D01*
X244980491Y-168123079D01*
X244970972Y-168120694D01*
X244961732Y-168117388D01*
X244952860Y-168113192D01*
X244944443Y-168108147D01*
X244936561Y-168102301D01*
X244929289Y-168095711D01*
X244922699Y-168088439D01*
X244916853Y-168080557D01*
X244911808Y-168072140D01*
X244907612Y-168063268D01*
X244904306Y-168054028D01*
X244901921Y-168044509D01*
X244900482Y-168034802D01*
X244900000Y-168025000D01*
X244900000Y-167825000D01*
X244900482Y-167815198D01*
X244901921Y-167805491D01*
X244904306Y-167795972D01*
X244907612Y-167786732D01*
X244911808Y-167777860D01*
X244916853Y-167769443D01*
X244922699Y-167761561D01*
X244929289Y-167754289D01*
X244936561Y-167747699D01*
X244944443Y-167741853D01*
X244952860Y-167736808D01*
X244961732Y-167732612D01*
X244970972Y-167729306D01*
X244980491Y-167726921D01*
X244990198Y-167725482D01*
X245000000Y-167725000D01*
X246275000Y-167725000D01*
X246284802Y-167725482D01*
G37*
G36*
X246284802Y-168375482D02*
G01*
X246294509Y-168376921D01*
X246304028Y-168379306D01*
X246313268Y-168382612D01*
X246322140Y-168386808D01*
X246330557Y-168391853D01*
X246338439Y-168397699D01*
X246345711Y-168404289D01*
X246352301Y-168411561D01*
X246358147Y-168419443D01*
X246363192Y-168427860D01*
X246367388Y-168436732D01*
X246370694Y-168445972D01*
X246373079Y-168455491D01*
X246374518Y-168465198D01*
X246375000Y-168475000D01*
X246375000Y-168675000D01*
X246374518Y-168684802D01*
X246373079Y-168694509D01*
X246370694Y-168704028D01*
X246367388Y-168713268D01*
X246363192Y-168722140D01*
X246358147Y-168730557D01*
X246352301Y-168738439D01*
X246345711Y-168745711D01*
X246338439Y-168752301D01*
X246330557Y-168758147D01*
X246322140Y-168763192D01*
X246313268Y-168767388D01*
X246304028Y-168770694D01*
X246294509Y-168773079D01*
X246284802Y-168774518D01*
X246275000Y-168775000D01*
X245000000Y-168775000D01*
X244990198Y-168774518D01*
X244980491Y-168773079D01*
X244970972Y-168770694D01*
X244961732Y-168767388D01*
X244952860Y-168763192D01*
X244944443Y-168758147D01*
X244936561Y-168752301D01*
X244929289Y-168745711D01*
X244922699Y-168738439D01*
X244916853Y-168730557D01*
X244911808Y-168722140D01*
X244907612Y-168713268D01*
X244904306Y-168704028D01*
X244901921Y-168694509D01*
X244900482Y-168684802D01*
X244900000Y-168675000D01*
X244900000Y-168475000D01*
X244900482Y-168465198D01*
X244901921Y-168455491D01*
X244904306Y-168445972D01*
X244907612Y-168436732D01*
X244911808Y-168427860D01*
X244916853Y-168419443D01*
X244922699Y-168411561D01*
X244929289Y-168404289D01*
X244936561Y-168397699D01*
X244944443Y-168391853D01*
X244952860Y-168386808D01*
X244961732Y-168382612D01*
X244970972Y-168379306D01*
X244980491Y-168376921D01*
X244990198Y-168375482D01*
X245000000Y-168375000D01*
X246275000Y-168375000D01*
X246284802Y-168375482D01*
G37*
G36*
X252009802Y-168375482D02*
G01*
X252019509Y-168376921D01*
X252029028Y-168379306D01*
X252038268Y-168382612D01*
X252047140Y-168386808D01*
X252055557Y-168391853D01*
X252063439Y-168397699D01*
X252070711Y-168404289D01*
X252077301Y-168411561D01*
X252083147Y-168419443D01*
X252088192Y-168427860D01*
X252092388Y-168436732D01*
X252095694Y-168445972D01*
X252098079Y-168455491D01*
X252099518Y-168465198D01*
X252100000Y-168475000D01*
X252100000Y-168675000D01*
X252099518Y-168684802D01*
X252098079Y-168694509D01*
X252095694Y-168704028D01*
X252092388Y-168713268D01*
X252088192Y-168722140D01*
X252083147Y-168730557D01*
X252077301Y-168738439D01*
X252070711Y-168745711D01*
X252063439Y-168752301D01*
X252055557Y-168758147D01*
X252047140Y-168763192D01*
X252038268Y-168767388D01*
X252029028Y-168770694D01*
X252019509Y-168773079D01*
X252009802Y-168774518D01*
X252000000Y-168775000D01*
X250725000Y-168775000D01*
X250715198Y-168774518D01*
X250705491Y-168773079D01*
X250695972Y-168770694D01*
X250686732Y-168767388D01*
X250677860Y-168763192D01*
X250669443Y-168758147D01*
X250661561Y-168752301D01*
X250654289Y-168745711D01*
X250647699Y-168738439D01*
X250641853Y-168730557D01*
X250636808Y-168722140D01*
X250632612Y-168713268D01*
X250629306Y-168704028D01*
X250626921Y-168694509D01*
X250625482Y-168684802D01*
X250625000Y-168675000D01*
X250625000Y-168475000D01*
X250625482Y-168465198D01*
X250626921Y-168455491D01*
X250629306Y-168445972D01*
X250632612Y-168436732D01*
X250636808Y-168427860D01*
X250641853Y-168419443D01*
X250647699Y-168411561D01*
X250654289Y-168404289D01*
X250661561Y-168397699D01*
X250669443Y-168391853D01*
X250677860Y-168386808D01*
X250686732Y-168382612D01*
X250695972Y-168379306D01*
X250705491Y-168376921D01*
X250715198Y-168375482D01*
X250725000Y-168375000D01*
X252000000Y-168375000D01*
X252009802Y-168375482D01*
G37*
G36*
X252009802Y-167725482D02*
G01*
X252019509Y-167726921D01*
X252029028Y-167729306D01*
X252038268Y-167732612D01*
X252047140Y-167736808D01*
X252055557Y-167741853D01*
X252063439Y-167747699D01*
X252070711Y-167754289D01*
X252077301Y-167761561D01*
X252083147Y-167769443D01*
X252088192Y-167777860D01*
X252092388Y-167786732D01*
X252095694Y-167795972D01*
X252098079Y-167805491D01*
X252099518Y-167815198D01*
X252100000Y-167825000D01*
X252100000Y-168025000D01*
X252099518Y-168034802D01*
X252098079Y-168044509D01*
X252095694Y-168054028D01*
X252092388Y-168063268D01*
X252088192Y-168072140D01*
X252083147Y-168080557D01*
X252077301Y-168088439D01*
X252070711Y-168095711D01*
X252063439Y-168102301D01*
X252055557Y-168108147D01*
X252047140Y-168113192D01*
X252038268Y-168117388D01*
X252029028Y-168120694D01*
X252019509Y-168123079D01*
X252009802Y-168124518D01*
X252000000Y-168125000D01*
X250725000Y-168125000D01*
X250715198Y-168124518D01*
X250705491Y-168123079D01*
X250695972Y-168120694D01*
X250686732Y-168117388D01*
X250677860Y-168113192D01*
X250669443Y-168108147D01*
X250661561Y-168102301D01*
X250654289Y-168095711D01*
X250647699Y-168088439D01*
X250641853Y-168080557D01*
X250636808Y-168072140D01*
X250632612Y-168063268D01*
X250629306Y-168054028D01*
X250626921Y-168044509D01*
X250625482Y-168034802D01*
X250625000Y-168025000D01*
X250625000Y-167825000D01*
X250625482Y-167815198D01*
X250626921Y-167805491D01*
X250629306Y-167795972D01*
X250632612Y-167786732D01*
X250636808Y-167777860D01*
X250641853Y-167769443D01*
X250647699Y-167761561D01*
X250654289Y-167754289D01*
X250661561Y-167747699D01*
X250669443Y-167741853D01*
X250677860Y-167736808D01*
X250686732Y-167732612D01*
X250695972Y-167729306D01*
X250705491Y-167726921D01*
X250715198Y-167725482D01*
X250725000Y-167725000D01*
X252000000Y-167725000D01*
X252009802Y-167725482D01*
G37*
G36*
X252009802Y-167075482D02*
G01*
X252019509Y-167076921D01*
X252029028Y-167079306D01*
X252038268Y-167082612D01*
X252047140Y-167086808D01*
X252055557Y-167091853D01*
X252063439Y-167097699D01*
X252070711Y-167104289D01*
X252077301Y-167111561D01*
X252083147Y-167119443D01*
X252088192Y-167127860D01*
X252092388Y-167136732D01*
X252095694Y-167145972D01*
X252098079Y-167155491D01*
X252099518Y-167165198D01*
X252100000Y-167175000D01*
X252100000Y-167375000D01*
X252099518Y-167384802D01*
X252098079Y-167394509D01*
X252095694Y-167404028D01*
X252092388Y-167413268D01*
X252088192Y-167422140D01*
X252083147Y-167430557D01*
X252077301Y-167438439D01*
X252070711Y-167445711D01*
X252063439Y-167452301D01*
X252055557Y-167458147D01*
X252047140Y-167463192D01*
X252038268Y-167467388D01*
X252029028Y-167470694D01*
X252019509Y-167473079D01*
X252009802Y-167474518D01*
X252000000Y-167475000D01*
X250725000Y-167475000D01*
X250715198Y-167474518D01*
X250705491Y-167473079D01*
X250695972Y-167470694D01*
X250686732Y-167467388D01*
X250677860Y-167463192D01*
X250669443Y-167458147D01*
X250661561Y-167452301D01*
X250654289Y-167445711D01*
X250647699Y-167438439D01*
X250641853Y-167430557D01*
X250636808Y-167422140D01*
X250632612Y-167413268D01*
X250629306Y-167404028D01*
X250626921Y-167394509D01*
X250625482Y-167384802D01*
X250625000Y-167375000D01*
X250625000Y-167175000D01*
X250625482Y-167165198D01*
X250626921Y-167155491D01*
X250629306Y-167145972D01*
X250632612Y-167136732D01*
X250636808Y-167127860D01*
X250641853Y-167119443D01*
X250647699Y-167111561D01*
X250654289Y-167104289D01*
X250661561Y-167097699D01*
X250669443Y-167091853D01*
X250677860Y-167086808D01*
X250686732Y-167082612D01*
X250695972Y-167079306D01*
X250705491Y-167076921D01*
X250715198Y-167075482D01*
X250725000Y-167075000D01*
X252000000Y-167075000D01*
X252009802Y-167075482D01*
G37*
G36*
X252009802Y-166425482D02*
G01*
X252019509Y-166426921D01*
X252029028Y-166429306D01*
X252038268Y-166432612D01*
X252047140Y-166436808D01*
X252055557Y-166441853D01*
X252063439Y-166447699D01*
X252070711Y-166454289D01*
X252077301Y-166461561D01*
X252083147Y-166469443D01*
X252088192Y-166477860D01*
X252092388Y-166486732D01*
X252095694Y-166495972D01*
X252098079Y-166505491D01*
X252099518Y-166515198D01*
X252100000Y-166525000D01*
X252100000Y-166725000D01*
X252099518Y-166734802D01*
X252098079Y-166744509D01*
X252095694Y-166754028D01*
X252092388Y-166763268D01*
X252088192Y-166772140D01*
X252083147Y-166780557D01*
X252077301Y-166788439D01*
X252070711Y-166795711D01*
X252063439Y-166802301D01*
X252055557Y-166808147D01*
X252047140Y-166813192D01*
X252038268Y-166817388D01*
X252029028Y-166820694D01*
X252019509Y-166823079D01*
X252009802Y-166824518D01*
X252000000Y-166825000D01*
X250725000Y-166825000D01*
X250715198Y-166824518D01*
X250705491Y-166823079D01*
X250695972Y-166820694D01*
X250686732Y-166817388D01*
X250677860Y-166813192D01*
X250669443Y-166808147D01*
X250661561Y-166802301D01*
X250654289Y-166795711D01*
X250647699Y-166788439D01*
X250641853Y-166780557D01*
X250636808Y-166772140D01*
X250632612Y-166763268D01*
X250629306Y-166754028D01*
X250626921Y-166744509D01*
X250625482Y-166734802D01*
X250625000Y-166725000D01*
X250625000Y-166525000D01*
X250625482Y-166515198D01*
X250626921Y-166505491D01*
X250629306Y-166495972D01*
X250632612Y-166486732D01*
X250636808Y-166477860D01*
X250641853Y-166469443D01*
X250647699Y-166461561D01*
X250654289Y-166454289D01*
X250661561Y-166447699D01*
X250669443Y-166441853D01*
X250677860Y-166436808D01*
X250686732Y-166432612D01*
X250695972Y-166429306D01*
X250705491Y-166426921D01*
X250715198Y-166425482D01*
X250725000Y-166425000D01*
X252000000Y-166425000D01*
X252009802Y-166425482D01*
G37*
G36*
X252009802Y-165775482D02*
G01*
X252019509Y-165776921D01*
X252029028Y-165779306D01*
X252038268Y-165782612D01*
X252047140Y-165786808D01*
X252055557Y-165791853D01*
X252063439Y-165797699D01*
X252070711Y-165804289D01*
X252077301Y-165811561D01*
X252083147Y-165819443D01*
X252088192Y-165827860D01*
X252092388Y-165836732D01*
X252095694Y-165845972D01*
X252098079Y-165855491D01*
X252099518Y-165865198D01*
X252100000Y-165875000D01*
X252100000Y-166075000D01*
X252099518Y-166084802D01*
X252098079Y-166094509D01*
X252095694Y-166104028D01*
X252092388Y-166113268D01*
X252088192Y-166122140D01*
X252083147Y-166130557D01*
X252077301Y-166138439D01*
X252070711Y-166145711D01*
X252063439Y-166152301D01*
X252055557Y-166158147D01*
X252047140Y-166163192D01*
X252038268Y-166167388D01*
X252029028Y-166170694D01*
X252019509Y-166173079D01*
X252009802Y-166174518D01*
X252000000Y-166175000D01*
X250725000Y-166175000D01*
X250715198Y-166174518D01*
X250705491Y-166173079D01*
X250695972Y-166170694D01*
X250686732Y-166167388D01*
X250677860Y-166163192D01*
X250669443Y-166158147D01*
X250661561Y-166152301D01*
X250654289Y-166145711D01*
X250647699Y-166138439D01*
X250641853Y-166130557D01*
X250636808Y-166122140D01*
X250632612Y-166113268D01*
X250629306Y-166104028D01*
X250626921Y-166094509D01*
X250625482Y-166084802D01*
X250625000Y-166075000D01*
X250625000Y-165875000D01*
X250625482Y-165865198D01*
X250626921Y-165855491D01*
X250629306Y-165845972D01*
X250632612Y-165836732D01*
X250636808Y-165827860D01*
X250641853Y-165819443D01*
X250647699Y-165811561D01*
X250654289Y-165804289D01*
X250661561Y-165797699D01*
X250669443Y-165791853D01*
X250677860Y-165786808D01*
X250686732Y-165782612D01*
X250695972Y-165779306D01*
X250705491Y-165776921D01*
X250715198Y-165775482D01*
X250725000Y-165775000D01*
X252000000Y-165775000D01*
X252009802Y-165775482D01*
G37*
G36*
X252009802Y-165125482D02*
G01*
X252019509Y-165126921D01*
X252029028Y-165129306D01*
X252038268Y-165132612D01*
X252047140Y-165136808D01*
X252055557Y-165141853D01*
X252063439Y-165147699D01*
X252070711Y-165154289D01*
X252077301Y-165161561D01*
X252083147Y-165169443D01*
X252088192Y-165177860D01*
X252092388Y-165186732D01*
X252095694Y-165195972D01*
X252098079Y-165205491D01*
X252099518Y-165215198D01*
X252100000Y-165225000D01*
X252100000Y-165425000D01*
X252099518Y-165434802D01*
X252098079Y-165444509D01*
X252095694Y-165454028D01*
X252092388Y-165463268D01*
X252088192Y-165472140D01*
X252083147Y-165480557D01*
X252077301Y-165488439D01*
X252070711Y-165495711D01*
X252063439Y-165502301D01*
X252055557Y-165508147D01*
X252047140Y-165513192D01*
X252038268Y-165517388D01*
X252029028Y-165520694D01*
X252019509Y-165523079D01*
X252009802Y-165524518D01*
X252000000Y-165525000D01*
X250725000Y-165525000D01*
X250715198Y-165524518D01*
X250705491Y-165523079D01*
X250695972Y-165520694D01*
X250686732Y-165517388D01*
X250677860Y-165513192D01*
X250669443Y-165508147D01*
X250661561Y-165502301D01*
X250654289Y-165495711D01*
X250647699Y-165488439D01*
X250641853Y-165480557D01*
X250636808Y-165472140D01*
X250632612Y-165463268D01*
X250629306Y-165454028D01*
X250626921Y-165444509D01*
X250625482Y-165434802D01*
X250625000Y-165425000D01*
X250625000Y-165225000D01*
X250625482Y-165215198D01*
X250626921Y-165205491D01*
X250629306Y-165195972D01*
X250632612Y-165186732D01*
X250636808Y-165177860D01*
X250641853Y-165169443D01*
X250647699Y-165161561D01*
X250654289Y-165154289D01*
X250661561Y-165147699D01*
X250669443Y-165141853D01*
X250677860Y-165136808D01*
X250686732Y-165132612D01*
X250695972Y-165129306D01*
X250705491Y-165126921D01*
X250715198Y-165125482D01*
X250725000Y-165125000D01*
X252000000Y-165125000D01*
X252009802Y-165125482D01*
G37*
G36*
X252009802Y-164475482D02*
G01*
X252019509Y-164476921D01*
X252029028Y-164479306D01*
X252038268Y-164482612D01*
X252047140Y-164486808D01*
X252055557Y-164491853D01*
X252063439Y-164497699D01*
X252070711Y-164504289D01*
X252077301Y-164511561D01*
X252083147Y-164519443D01*
X252088192Y-164527860D01*
X252092388Y-164536732D01*
X252095694Y-164545972D01*
X252098079Y-164555491D01*
X252099518Y-164565198D01*
X252100000Y-164575000D01*
X252100000Y-164775000D01*
X252099518Y-164784802D01*
X252098079Y-164794509D01*
X252095694Y-164804028D01*
X252092388Y-164813268D01*
X252088192Y-164822140D01*
X252083147Y-164830557D01*
X252077301Y-164838439D01*
X252070711Y-164845711D01*
X252063439Y-164852301D01*
X252055557Y-164858147D01*
X252047140Y-164863192D01*
X252038268Y-164867388D01*
X252029028Y-164870694D01*
X252019509Y-164873079D01*
X252009802Y-164874518D01*
X252000000Y-164875000D01*
X250725000Y-164875000D01*
X250715198Y-164874518D01*
X250705491Y-164873079D01*
X250695972Y-164870694D01*
X250686732Y-164867388D01*
X250677860Y-164863192D01*
X250669443Y-164858147D01*
X250661561Y-164852301D01*
X250654289Y-164845711D01*
X250647699Y-164838439D01*
X250641853Y-164830557D01*
X250636808Y-164822140D01*
X250632612Y-164813268D01*
X250629306Y-164804028D01*
X250626921Y-164794509D01*
X250625482Y-164784802D01*
X250625000Y-164775000D01*
X250625000Y-164575000D01*
X250625482Y-164565198D01*
X250626921Y-164555491D01*
X250629306Y-164545972D01*
X250632612Y-164536732D01*
X250636808Y-164527860D01*
X250641853Y-164519443D01*
X250647699Y-164511561D01*
X250654289Y-164504289D01*
X250661561Y-164497699D01*
X250669443Y-164491853D01*
X250677860Y-164486808D01*
X250686732Y-164482612D01*
X250695972Y-164479306D01*
X250705491Y-164476921D01*
X250715198Y-164475482D01*
X250725000Y-164475000D01*
X252000000Y-164475000D01*
X252009802Y-164475482D01*
G37*
G36*
X252009802Y-163825482D02*
G01*
X252019509Y-163826921D01*
X252029028Y-163829306D01*
X252038268Y-163832612D01*
X252047140Y-163836808D01*
X252055557Y-163841853D01*
X252063439Y-163847699D01*
X252070711Y-163854289D01*
X252077301Y-163861561D01*
X252083147Y-163869443D01*
X252088192Y-163877860D01*
X252092388Y-163886732D01*
X252095694Y-163895972D01*
X252098079Y-163905491D01*
X252099518Y-163915198D01*
X252100000Y-163925000D01*
X252100000Y-164125000D01*
X252099518Y-164134802D01*
X252098079Y-164144509D01*
X252095694Y-164154028D01*
X252092388Y-164163268D01*
X252088192Y-164172140D01*
X252083147Y-164180557D01*
X252077301Y-164188439D01*
X252070711Y-164195711D01*
X252063439Y-164202301D01*
X252055557Y-164208147D01*
X252047140Y-164213192D01*
X252038268Y-164217388D01*
X252029028Y-164220694D01*
X252019509Y-164223079D01*
X252009802Y-164224518D01*
X252000000Y-164225000D01*
X250725000Y-164225000D01*
X250715198Y-164224518D01*
X250705491Y-164223079D01*
X250695972Y-164220694D01*
X250686732Y-164217388D01*
X250677860Y-164213192D01*
X250669443Y-164208147D01*
X250661561Y-164202301D01*
X250654289Y-164195711D01*
X250647699Y-164188439D01*
X250641853Y-164180557D01*
X250636808Y-164172140D01*
X250632612Y-164163268D01*
X250629306Y-164154028D01*
X250626921Y-164144509D01*
X250625482Y-164134802D01*
X250625000Y-164125000D01*
X250625000Y-163925000D01*
X250625482Y-163915198D01*
X250626921Y-163905491D01*
X250629306Y-163895972D01*
X250632612Y-163886732D01*
X250636808Y-163877860D01*
X250641853Y-163869443D01*
X250647699Y-163861561D01*
X250654289Y-163854289D01*
X250661561Y-163847699D01*
X250669443Y-163841853D01*
X250677860Y-163836808D01*
X250686732Y-163832612D01*
X250695972Y-163829306D01*
X250705491Y-163826921D01*
X250715198Y-163825482D01*
X250725000Y-163825000D01*
X252000000Y-163825000D01*
X252009802Y-163825482D01*
G37*
G36*
X252009802Y-163175482D02*
G01*
X252019509Y-163176921D01*
X252029028Y-163179306D01*
X252038268Y-163182612D01*
X252047140Y-163186808D01*
X252055557Y-163191853D01*
X252063439Y-163197699D01*
X252070711Y-163204289D01*
X252077301Y-163211561D01*
X252083147Y-163219443D01*
X252088192Y-163227860D01*
X252092388Y-163236732D01*
X252095694Y-163245972D01*
X252098079Y-163255491D01*
X252099518Y-163265198D01*
X252100000Y-163275000D01*
X252100000Y-163475000D01*
X252099518Y-163484802D01*
X252098079Y-163494509D01*
X252095694Y-163504028D01*
X252092388Y-163513268D01*
X252088192Y-163522140D01*
X252083147Y-163530557D01*
X252077301Y-163538439D01*
X252070711Y-163545711D01*
X252063439Y-163552301D01*
X252055557Y-163558147D01*
X252047140Y-163563192D01*
X252038268Y-163567388D01*
X252029028Y-163570694D01*
X252019509Y-163573079D01*
X252009802Y-163574518D01*
X252000000Y-163575000D01*
X250725000Y-163575000D01*
X250715198Y-163574518D01*
X250705491Y-163573079D01*
X250695972Y-163570694D01*
X250686732Y-163567388D01*
X250677860Y-163563192D01*
X250669443Y-163558147D01*
X250661561Y-163552301D01*
X250654289Y-163545711D01*
X250647699Y-163538439D01*
X250641853Y-163530557D01*
X250636808Y-163522140D01*
X250632612Y-163513268D01*
X250629306Y-163504028D01*
X250626921Y-163494509D01*
X250625482Y-163484802D01*
X250625000Y-163475000D01*
X250625000Y-163275000D01*
X250625482Y-163265198D01*
X250626921Y-163255491D01*
X250629306Y-163245972D01*
X250632612Y-163236732D01*
X250636808Y-163227860D01*
X250641853Y-163219443D01*
X250647699Y-163211561D01*
X250654289Y-163204289D01*
X250661561Y-163197699D01*
X250669443Y-163191853D01*
X250677860Y-163186808D01*
X250686732Y-163182612D01*
X250695972Y-163179306D01*
X250705491Y-163176921D01*
X250715198Y-163175482D01*
X250725000Y-163175000D01*
X252000000Y-163175000D01*
X252009802Y-163175482D01*
G37*
G36*
X252009802Y-162525482D02*
G01*
X252019509Y-162526921D01*
X252029028Y-162529306D01*
X252038268Y-162532612D01*
X252047140Y-162536808D01*
X252055557Y-162541853D01*
X252063439Y-162547699D01*
X252070711Y-162554289D01*
X252077301Y-162561561D01*
X252083147Y-162569443D01*
X252088192Y-162577860D01*
X252092388Y-162586732D01*
X252095694Y-162595972D01*
X252098079Y-162605491D01*
X252099518Y-162615198D01*
X252100000Y-162625000D01*
X252100000Y-162825000D01*
X252099518Y-162834802D01*
X252098079Y-162844509D01*
X252095694Y-162854028D01*
X252092388Y-162863268D01*
X252088192Y-162872140D01*
X252083147Y-162880557D01*
X252077301Y-162888439D01*
X252070711Y-162895711D01*
X252063439Y-162902301D01*
X252055557Y-162908147D01*
X252047140Y-162913192D01*
X252038268Y-162917388D01*
X252029028Y-162920694D01*
X252019509Y-162923079D01*
X252009802Y-162924518D01*
X252000000Y-162925000D01*
X250725000Y-162925000D01*
X250715198Y-162924518D01*
X250705491Y-162923079D01*
X250695972Y-162920694D01*
X250686732Y-162917388D01*
X250677860Y-162913192D01*
X250669443Y-162908147D01*
X250661561Y-162902301D01*
X250654289Y-162895711D01*
X250647699Y-162888439D01*
X250641853Y-162880557D01*
X250636808Y-162872140D01*
X250632612Y-162863268D01*
X250629306Y-162854028D01*
X250626921Y-162844509D01*
X250625482Y-162834802D01*
X250625000Y-162825000D01*
X250625000Y-162625000D01*
X250625482Y-162615198D01*
X250626921Y-162605491D01*
X250629306Y-162595972D01*
X250632612Y-162586732D01*
X250636808Y-162577860D01*
X250641853Y-162569443D01*
X250647699Y-162561561D01*
X250654289Y-162554289D01*
X250661561Y-162547699D01*
X250669443Y-162541853D01*
X250677860Y-162536808D01*
X250686732Y-162532612D01*
X250695972Y-162529306D01*
X250705491Y-162526921D01*
X250715198Y-162525482D01*
X250725000Y-162525000D01*
X252000000Y-162525000D01*
X252009802Y-162525482D01*
G37*
G36*
X252009802Y-161875482D02*
G01*
X252019509Y-161876921D01*
X252029028Y-161879306D01*
X252038268Y-161882612D01*
X252047140Y-161886808D01*
X252055557Y-161891853D01*
X252063439Y-161897699D01*
X252070711Y-161904289D01*
X252077301Y-161911561D01*
X252083147Y-161919443D01*
X252088192Y-161927860D01*
X252092388Y-161936732D01*
X252095694Y-161945972D01*
X252098079Y-161955491D01*
X252099518Y-161965198D01*
X252100000Y-161975000D01*
X252100000Y-162175000D01*
X252099518Y-162184802D01*
X252098079Y-162194509D01*
X252095694Y-162204028D01*
X252092388Y-162213268D01*
X252088192Y-162222140D01*
X252083147Y-162230557D01*
X252077301Y-162238439D01*
X252070711Y-162245711D01*
X252063439Y-162252301D01*
X252055557Y-162258147D01*
X252047140Y-162263192D01*
X252038268Y-162267388D01*
X252029028Y-162270694D01*
X252019509Y-162273079D01*
X252009802Y-162274518D01*
X252000000Y-162275000D01*
X250725000Y-162275000D01*
X250715198Y-162274518D01*
X250705491Y-162273079D01*
X250695972Y-162270694D01*
X250686732Y-162267388D01*
X250677860Y-162263192D01*
X250669443Y-162258147D01*
X250661561Y-162252301D01*
X250654289Y-162245711D01*
X250647699Y-162238439D01*
X250641853Y-162230557D01*
X250636808Y-162222140D01*
X250632612Y-162213268D01*
X250629306Y-162204028D01*
X250626921Y-162194509D01*
X250625482Y-162184802D01*
X250625000Y-162175000D01*
X250625000Y-161975000D01*
X250625482Y-161965198D01*
X250626921Y-161955491D01*
X250629306Y-161945972D01*
X250632612Y-161936732D01*
X250636808Y-161927860D01*
X250641853Y-161919443D01*
X250647699Y-161911561D01*
X250654289Y-161904289D01*
X250661561Y-161897699D01*
X250669443Y-161891853D01*
X250677860Y-161886808D01*
X250686732Y-161882612D01*
X250695972Y-161879306D01*
X250705491Y-161876921D01*
X250715198Y-161875482D01*
X250725000Y-161875000D01*
X252000000Y-161875000D01*
X252009802Y-161875482D01*
G37*
G36*
X252009802Y-161225482D02*
G01*
X252019509Y-161226921D01*
X252029028Y-161229306D01*
X252038268Y-161232612D01*
X252047140Y-161236808D01*
X252055557Y-161241853D01*
X252063439Y-161247699D01*
X252070711Y-161254289D01*
X252077301Y-161261561D01*
X252083147Y-161269443D01*
X252088192Y-161277860D01*
X252092388Y-161286732D01*
X252095694Y-161295972D01*
X252098079Y-161305491D01*
X252099518Y-161315198D01*
X252100000Y-161325000D01*
X252100000Y-161525000D01*
X252099518Y-161534802D01*
X252098079Y-161544509D01*
X252095694Y-161554028D01*
X252092388Y-161563268D01*
X252088192Y-161572140D01*
X252083147Y-161580557D01*
X252077301Y-161588439D01*
X252070711Y-161595711D01*
X252063439Y-161602301D01*
X252055557Y-161608147D01*
X252047140Y-161613192D01*
X252038268Y-161617388D01*
X252029028Y-161620694D01*
X252019509Y-161623079D01*
X252009802Y-161624518D01*
X252000000Y-161625000D01*
X250725000Y-161625000D01*
X250715198Y-161624518D01*
X250705491Y-161623079D01*
X250695972Y-161620694D01*
X250686732Y-161617388D01*
X250677860Y-161613192D01*
X250669443Y-161608147D01*
X250661561Y-161602301D01*
X250654289Y-161595711D01*
X250647699Y-161588439D01*
X250641853Y-161580557D01*
X250636808Y-161572140D01*
X250632612Y-161563268D01*
X250629306Y-161554028D01*
X250626921Y-161544509D01*
X250625482Y-161534802D01*
X250625000Y-161525000D01*
X250625000Y-161325000D01*
X250625482Y-161315198D01*
X250626921Y-161305491D01*
X250629306Y-161295972D01*
X250632612Y-161286732D01*
X250636808Y-161277860D01*
X250641853Y-161269443D01*
X250647699Y-161261561D01*
X250654289Y-161254289D01*
X250661561Y-161247699D01*
X250669443Y-161241853D01*
X250677860Y-161236808D01*
X250686732Y-161232612D01*
X250695972Y-161229306D01*
X250705491Y-161226921D01*
X250715198Y-161225482D01*
X250725000Y-161225000D01*
X252000000Y-161225000D01*
X252009802Y-161225482D01*
G37*
D13*
X225070000Y-152960000D03*
X227610000Y-152960000D03*
X230150000Y-152960000D03*
X232690000Y-152960000D03*
X235230000Y-152960000D03*
D14*
X237770000Y-152960000D03*
D13*
X245390000Y-152960000D03*
X247930000Y-152960000D03*
X250470000Y-152960000D03*
X253010000Y-152960000D03*
X255550000Y-152960000D03*
X258090000Y-152960000D03*
D14*
X260630000Y-152960000D03*
D16*
X227000000Y-171000000D03*
X227950000Y-169000000D03*
X226050000Y-169000000D03*
D17*
X221050000Y-170850000D03*
X222950000Y-170850000D03*
X222950000Y-168650000D03*
X222000000Y-168650000D03*
X221050000Y-168650000D03*
D15*
G36*
X233185779Y-168526144D02*
G01*
X233208834Y-168529563D01*
X233231443Y-168535227D01*
X233253387Y-168543079D01*
X233274457Y-168553044D01*
X233294448Y-168565026D01*
X233313168Y-168578910D01*
X233330438Y-168594562D01*
X233346090Y-168611832D01*
X233359974Y-168630552D01*
X233371956Y-168650543D01*
X233381921Y-168671613D01*
X233389773Y-168693557D01*
X233395437Y-168716166D01*
X233398856Y-168739221D01*
X233400000Y-168762500D01*
X233400000Y-169237500D01*
X233398856Y-169260779D01*
X233395437Y-169283834D01*
X233389773Y-169306443D01*
X233381921Y-169328387D01*
X233371956Y-169349457D01*
X233359974Y-169369448D01*
X233346090Y-169388168D01*
X233330438Y-169405438D01*
X233313168Y-169421090D01*
X233294448Y-169434974D01*
X233274457Y-169446956D01*
X233253387Y-169456921D01*
X233231443Y-169464773D01*
X233208834Y-169470437D01*
X233185779Y-169473856D01*
X233162500Y-169475000D01*
X232662500Y-169475000D01*
X232639221Y-169473856D01*
X232616166Y-169470437D01*
X232593557Y-169464773D01*
X232571613Y-169456921D01*
X232550543Y-169446956D01*
X232530552Y-169434974D01*
X232511832Y-169421090D01*
X232494562Y-169405438D01*
X232478910Y-169388168D01*
X232465026Y-169369448D01*
X232453044Y-169349457D01*
X232443079Y-169328387D01*
X232435227Y-169306443D01*
X232429563Y-169283834D01*
X232426144Y-169260779D01*
X232425000Y-169237500D01*
X232425000Y-168762500D01*
X232426144Y-168739221D01*
X232429563Y-168716166D01*
X232435227Y-168693557D01*
X232443079Y-168671613D01*
X232453044Y-168650543D01*
X232465026Y-168630552D01*
X232478910Y-168611832D01*
X232494562Y-168594562D01*
X232511832Y-168578910D01*
X232530552Y-168565026D01*
X232550543Y-168553044D01*
X232571613Y-168543079D01*
X232593557Y-168535227D01*
X232616166Y-168529563D01*
X232639221Y-168526144D01*
X232662500Y-168525000D01*
X233162500Y-168525000D01*
X233185779Y-168526144D01*
G37*
G36*
X231360779Y-168526144D02*
G01*
X231383834Y-168529563D01*
X231406443Y-168535227D01*
X231428387Y-168543079D01*
X231449457Y-168553044D01*
X231469448Y-168565026D01*
X231488168Y-168578910D01*
X231505438Y-168594562D01*
X231521090Y-168611832D01*
X231534974Y-168630552D01*
X231546956Y-168650543D01*
X231556921Y-168671613D01*
X231564773Y-168693557D01*
X231570437Y-168716166D01*
X231573856Y-168739221D01*
X231575000Y-168762500D01*
X231575000Y-169237500D01*
X231573856Y-169260779D01*
X231570437Y-169283834D01*
X231564773Y-169306443D01*
X231556921Y-169328387D01*
X231546956Y-169349457D01*
X231534974Y-169369448D01*
X231521090Y-169388168D01*
X231505438Y-169405438D01*
X231488168Y-169421090D01*
X231469448Y-169434974D01*
X231449457Y-169446956D01*
X231428387Y-169456921D01*
X231406443Y-169464773D01*
X231383834Y-169470437D01*
X231360779Y-169473856D01*
X231337500Y-169475000D01*
X230837500Y-169475000D01*
X230814221Y-169473856D01*
X230791166Y-169470437D01*
X230768557Y-169464773D01*
X230746613Y-169456921D01*
X230725543Y-169446956D01*
X230705552Y-169434974D01*
X230686832Y-169421090D01*
X230669562Y-169405438D01*
X230653910Y-169388168D01*
X230640026Y-169369448D01*
X230628044Y-169349457D01*
X230618079Y-169328387D01*
X230610227Y-169306443D01*
X230604563Y-169283834D01*
X230601144Y-169260779D01*
X230600000Y-169237500D01*
X230600000Y-168762500D01*
X230601144Y-168739221D01*
X230604563Y-168716166D01*
X230610227Y-168693557D01*
X230618079Y-168671613D01*
X230628044Y-168650543D01*
X230640026Y-168630552D01*
X230653910Y-168611832D01*
X230669562Y-168594562D01*
X230686832Y-168578910D01*
X230705552Y-168565026D01*
X230725543Y-168553044D01*
X230746613Y-168543079D01*
X230768557Y-168535227D01*
X230791166Y-168529563D01*
X230814221Y-168526144D01*
X230837500Y-168525000D01*
X231337500Y-168525000D01*
X231360779Y-168526144D01*
G37*
G36*
X233185779Y-164026144D02*
G01*
X233208834Y-164029563D01*
X233231443Y-164035227D01*
X233253387Y-164043079D01*
X233274457Y-164053044D01*
X233294448Y-164065026D01*
X233313168Y-164078910D01*
X233330438Y-164094562D01*
X233346090Y-164111832D01*
X233359974Y-164130552D01*
X233371956Y-164150543D01*
X233381921Y-164171613D01*
X233389773Y-164193557D01*
X233395437Y-164216166D01*
X233398856Y-164239221D01*
X233400000Y-164262500D01*
X233400000Y-164737500D01*
X233398856Y-164760779D01*
X233395437Y-164783834D01*
X233389773Y-164806443D01*
X233381921Y-164828387D01*
X233371956Y-164849457D01*
X233359974Y-164869448D01*
X233346090Y-164888168D01*
X233330438Y-164905438D01*
X233313168Y-164921090D01*
X233294448Y-164934974D01*
X233274457Y-164946956D01*
X233253387Y-164956921D01*
X233231443Y-164964773D01*
X233208834Y-164970437D01*
X233185779Y-164973856D01*
X233162500Y-164975000D01*
X232662500Y-164975000D01*
X232639221Y-164973856D01*
X232616166Y-164970437D01*
X232593557Y-164964773D01*
X232571613Y-164956921D01*
X232550543Y-164946956D01*
X232530552Y-164934974D01*
X232511832Y-164921090D01*
X232494562Y-164905438D01*
X232478910Y-164888168D01*
X232465026Y-164869448D01*
X232453044Y-164849457D01*
X232443079Y-164828387D01*
X232435227Y-164806443D01*
X232429563Y-164783834D01*
X232426144Y-164760779D01*
X232425000Y-164737500D01*
X232425000Y-164262500D01*
X232426144Y-164239221D01*
X232429563Y-164216166D01*
X232435227Y-164193557D01*
X232443079Y-164171613D01*
X232453044Y-164150543D01*
X232465026Y-164130552D01*
X232478910Y-164111832D01*
X232494562Y-164094562D01*
X232511832Y-164078910D01*
X232530552Y-164065026D01*
X232550543Y-164053044D01*
X232571613Y-164043079D01*
X232593557Y-164035227D01*
X232616166Y-164029563D01*
X232639221Y-164026144D01*
X232662500Y-164025000D01*
X233162500Y-164025000D01*
X233185779Y-164026144D01*
G37*
G36*
X231360779Y-164026144D02*
G01*
X231383834Y-164029563D01*
X231406443Y-164035227D01*
X231428387Y-164043079D01*
X231449457Y-164053044D01*
X231469448Y-164065026D01*
X231488168Y-164078910D01*
X231505438Y-164094562D01*
X231521090Y-164111832D01*
X231534974Y-164130552D01*
X231546956Y-164150543D01*
X231556921Y-164171613D01*
X231564773Y-164193557D01*
X231570437Y-164216166D01*
X231573856Y-164239221D01*
X231575000Y-164262500D01*
X231575000Y-164737500D01*
X231573856Y-164760779D01*
X231570437Y-164783834D01*
X231564773Y-164806443D01*
X231556921Y-164828387D01*
X231546956Y-164849457D01*
X231534974Y-164869448D01*
X231521090Y-164888168D01*
X231505438Y-164905438D01*
X231488168Y-164921090D01*
X231469448Y-164934974D01*
X231449457Y-164946956D01*
X231428387Y-164956921D01*
X231406443Y-164964773D01*
X231383834Y-164970437D01*
X231360779Y-164973856D01*
X231337500Y-164975000D01*
X230837500Y-164975000D01*
X230814221Y-164973856D01*
X230791166Y-164970437D01*
X230768557Y-164964773D01*
X230746613Y-164956921D01*
X230725543Y-164946956D01*
X230705552Y-164934974D01*
X230686832Y-164921090D01*
X230669562Y-164905438D01*
X230653910Y-164888168D01*
X230640026Y-164869448D01*
X230628044Y-164849457D01*
X230618079Y-164828387D01*
X230610227Y-164806443D01*
X230604563Y-164783834D01*
X230601144Y-164760779D01*
X230600000Y-164737500D01*
X230600000Y-164262500D01*
X230601144Y-164239221D01*
X230604563Y-164216166D01*
X230610227Y-164193557D01*
X230618079Y-164171613D01*
X230628044Y-164150543D01*
X230640026Y-164130552D01*
X230653910Y-164111832D01*
X230669562Y-164094562D01*
X230686832Y-164078910D01*
X230705552Y-164065026D01*
X230725543Y-164053044D01*
X230746613Y-164043079D01*
X230768557Y-164035227D01*
X230791166Y-164029563D01*
X230814221Y-164026144D01*
X230837500Y-164025000D01*
X231337500Y-164025000D01*
X231360779Y-164026144D01*
G37*
G36*
X243760779Y-164926144D02*
G01*
X243783834Y-164929563D01*
X243806443Y-164935227D01*
X243828387Y-164943079D01*
X243849457Y-164953044D01*
X243869448Y-164965026D01*
X243888168Y-164978910D01*
X243905438Y-164994562D01*
X243921090Y-165011832D01*
X243934974Y-165030552D01*
X243946956Y-165050543D01*
X243956921Y-165071613D01*
X243964773Y-165093557D01*
X243970437Y-165116166D01*
X243973856Y-165139221D01*
X243975000Y-165162500D01*
X243975000Y-165662500D01*
X243973856Y-165685779D01*
X243970437Y-165708834D01*
X243964773Y-165731443D01*
X243956921Y-165753387D01*
X243946956Y-165774457D01*
X243934974Y-165794448D01*
X243921090Y-165813168D01*
X243905438Y-165830438D01*
X243888168Y-165846090D01*
X243869448Y-165859974D01*
X243849457Y-165871956D01*
X243828387Y-165881921D01*
X243806443Y-165889773D01*
X243783834Y-165895437D01*
X243760779Y-165898856D01*
X243737500Y-165900000D01*
X243262500Y-165900000D01*
X243239221Y-165898856D01*
X243216166Y-165895437D01*
X243193557Y-165889773D01*
X243171613Y-165881921D01*
X243150543Y-165871956D01*
X243130552Y-165859974D01*
X243111832Y-165846090D01*
X243094562Y-165830438D01*
X243078910Y-165813168D01*
X243065026Y-165794448D01*
X243053044Y-165774457D01*
X243043079Y-165753387D01*
X243035227Y-165731443D01*
X243029563Y-165708834D01*
X243026144Y-165685779D01*
X243025000Y-165662500D01*
X243025000Y-165162500D01*
X243026144Y-165139221D01*
X243029563Y-165116166D01*
X243035227Y-165093557D01*
X243043079Y-165071613D01*
X243053044Y-165050543D01*
X243065026Y-165030552D01*
X243078910Y-165011832D01*
X243094562Y-164994562D01*
X243111832Y-164978910D01*
X243130552Y-164965026D01*
X243150543Y-164953044D01*
X243171613Y-164943079D01*
X243193557Y-164935227D01*
X243216166Y-164929563D01*
X243239221Y-164926144D01*
X243262500Y-164925000D01*
X243737500Y-164925000D01*
X243760779Y-164926144D01*
G37*
G36*
X243760779Y-163101144D02*
G01*
X243783834Y-163104563D01*
X243806443Y-163110227D01*
X243828387Y-163118079D01*
X243849457Y-163128044D01*
X243869448Y-163140026D01*
X243888168Y-163153910D01*
X243905438Y-163169562D01*
X243921090Y-163186832D01*
X243934974Y-163205552D01*
X243946956Y-163225543D01*
X243956921Y-163246613D01*
X243964773Y-163268557D01*
X243970437Y-163291166D01*
X243973856Y-163314221D01*
X243975000Y-163337500D01*
X243975000Y-163837500D01*
X243973856Y-163860779D01*
X243970437Y-163883834D01*
X243964773Y-163906443D01*
X243956921Y-163928387D01*
X243946956Y-163949457D01*
X243934974Y-163969448D01*
X243921090Y-163988168D01*
X243905438Y-164005438D01*
X243888168Y-164021090D01*
X243869448Y-164034974D01*
X243849457Y-164046956D01*
X243828387Y-164056921D01*
X243806443Y-164064773D01*
X243783834Y-164070437D01*
X243760779Y-164073856D01*
X243737500Y-164075000D01*
X243262500Y-164075000D01*
X243239221Y-164073856D01*
X243216166Y-164070437D01*
X243193557Y-164064773D01*
X243171613Y-164056921D01*
X243150543Y-164046956D01*
X243130552Y-164034974D01*
X243111832Y-164021090D01*
X243094562Y-164005438D01*
X243078910Y-163988168D01*
X243065026Y-163969448D01*
X243053044Y-163949457D01*
X243043079Y-163928387D01*
X243035227Y-163906443D01*
X243029563Y-163883834D01*
X243026144Y-163860779D01*
X243025000Y-163837500D01*
X243025000Y-163337500D01*
X243026144Y-163314221D01*
X243029563Y-163291166D01*
X243035227Y-163268557D01*
X243043079Y-163246613D01*
X243053044Y-163225543D01*
X243065026Y-163205552D01*
X243078910Y-163186832D01*
X243094562Y-163169562D01*
X243111832Y-163153910D01*
X243130552Y-163140026D01*
X243150543Y-163128044D01*
X243171613Y-163118079D01*
X243193557Y-163110227D01*
X243216166Y-163104563D01*
X243239221Y-163101144D01*
X243262500Y-163100000D01*
X243737500Y-163100000D01*
X243760779Y-163101144D01*
G37*
G36*
X243760779Y-161426144D02*
G01*
X243783834Y-161429563D01*
X243806443Y-161435227D01*
X243828387Y-161443079D01*
X243849457Y-161453044D01*
X243869448Y-161465026D01*
X243888168Y-161478910D01*
X243905438Y-161494562D01*
X243921090Y-161511832D01*
X243934974Y-161530552D01*
X243946956Y-161550543D01*
X243956921Y-161571613D01*
X243964773Y-161593557D01*
X243970437Y-161616166D01*
X243973856Y-161639221D01*
X243975000Y-161662500D01*
X243975000Y-162162500D01*
X243973856Y-162185779D01*
X243970437Y-162208834D01*
X243964773Y-162231443D01*
X243956921Y-162253387D01*
X243946956Y-162274457D01*
X243934974Y-162294448D01*
X243921090Y-162313168D01*
X243905438Y-162330438D01*
X243888168Y-162346090D01*
X243869448Y-162359974D01*
X243849457Y-162371956D01*
X243828387Y-162381921D01*
X243806443Y-162389773D01*
X243783834Y-162395437D01*
X243760779Y-162398856D01*
X243737500Y-162400000D01*
X243262500Y-162400000D01*
X243239221Y-162398856D01*
X243216166Y-162395437D01*
X243193557Y-162389773D01*
X243171613Y-162381921D01*
X243150543Y-162371956D01*
X243130552Y-162359974D01*
X243111832Y-162346090D01*
X243094562Y-162330438D01*
X243078910Y-162313168D01*
X243065026Y-162294448D01*
X243053044Y-162274457D01*
X243043079Y-162253387D01*
X243035227Y-162231443D01*
X243029563Y-162208834D01*
X243026144Y-162185779D01*
X243025000Y-162162500D01*
X243025000Y-161662500D01*
X243026144Y-161639221D01*
X243029563Y-161616166D01*
X243035227Y-161593557D01*
X243043079Y-161571613D01*
X243053044Y-161550543D01*
X243065026Y-161530552D01*
X243078910Y-161511832D01*
X243094562Y-161494562D01*
X243111832Y-161478910D01*
X243130552Y-161465026D01*
X243150543Y-161453044D01*
X243171613Y-161443079D01*
X243193557Y-161435227D01*
X243216166Y-161429563D01*
X243239221Y-161426144D01*
X243262500Y-161425000D01*
X243737500Y-161425000D01*
X243760779Y-161426144D01*
G37*
G36*
X243760779Y-159601144D02*
G01*
X243783834Y-159604563D01*
X243806443Y-159610227D01*
X243828387Y-159618079D01*
X243849457Y-159628044D01*
X243869448Y-159640026D01*
X243888168Y-159653910D01*
X243905438Y-159669562D01*
X243921090Y-159686832D01*
X243934974Y-159705552D01*
X243946956Y-159725543D01*
X243956921Y-159746613D01*
X243964773Y-159768557D01*
X243970437Y-159791166D01*
X243973856Y-159814221D01*
X243975000Y-159837500D01*
X243975000Y-160337500D01*
X243973856Y-160360779D01*
X243970437Y-160383834D01*
X243964773Y-160406443D01*
X243956921Y-160428387D01*
X243946956Y-160449457D01*
X243934974Y-160469448D01*
X243921090Y-160488168D01*
X243905438Y-160505438D01*
X243888168Y-160521090D01*
X243869448Y-160534974D01*
X243849457Y-160546956D01*
X243828387Y-160556921D01*
X243806443Y-160564773D01*
X243783834Y-160570437D01*
X243760779Y-160573856D01*
X243737500Y-160575000D01*
X243262500Y-160575000D01*
X243239221Y-160573856D01*
X243216166Y-160570437D01*
X243193557Y-160564773D01*
X243171613Y-160556921D01*
X243150543Y-160546956D01*
X243130552Y-160534974D01*
X243111832Y-160521090D01*
X243094562Y-160505438D01*
X243078910Y-160488168D01*
X243065026Y-160469448D01*
X243053044Y-160449457D01*
X243043079Y-160428387D01*
X243035227Y-160406443D01*
X243029563Y-160383834D01*
X243026144Y-160360779D01*
X243025000Y-160337500D01*
X243025000Y-159837500D01*
X243026144Y-159814221D01*
X243029563Y-159791166D01*
X243035227Y-159768557D01*
X243043079Y-159746613D01*
X243053044Y-159725543D01*
X243065026Y-159705552D01*
X243078910Y-159686832D01*
X243094562Y-159669562D01*
X243111832Y-159653910D01*
X243130552Y-159640026D01*
X243150543Y-159628044D01*
X243171613Y-159618079D01*
X243193557Y-159610227D01*
X243216166Y-159604563D01*
X243239221Y-159601144D01*
X243262500Y-159600000D01*
X243737500Y-159600000D01*
X243760779Y-159601144D01*
G37*
G36*
X219760779Y-169926144D02*
G01*
X219783834Y-169929563D01*
X219806443Y-169935227D01*
X219828387Y-169943079D01*
X219849457Y-169953044D01*
X219869448Y-169965026D01*
X219888168Y-169978910D01*
X219905438Y-169994562D01*
X219921090Y-170011832D01*
X219934974Y-170030552D01*
X219946956Y-170050543D01*
X219956921Y-170071613D01*
X219964773Y-170093557D01*
X219970437Y-170116166D01*
X219973856Y-170139221D01*
X219975000Y-170162500D01*
X219975000Y-170662500D01*
X219973856Y-170685779D01*
X219970437Y-170708834D01*
X219964773Y-170731443D01*
X219956921Y-170753387D01*
X219946956Y-170774457D01*
X219934974Y-170794448D01*
X219921090Y-170813168D01*
X219905438Y-170830438D01*
X219888168Y-170846090D01*
X219869448Y-170859974D01*
X219849457Y-170871956D01*
X219828387Y-170881921D01*
X219806443Y-170889773D01*
X219783834Y-170895437D01*
X219760779Y-170898856D01*
X219737500Y-170900000D01*
X219262500Y-170900000D01*
X219239221Y-170898856D01*
X219216166Y-170895437D01*
X219193557Y-170889773D01*
X219171613Y-170881921D01*
X219150543Y-170871956D01*
X219130552Y-170859974D01*
X219111832Y-170846090D01*
X219094562Y-170830438D01*
X219078910Y-170813168D01*
X219065026Y-170794448D01*
X219053044Y-170774457D01*
X219043079Y-170753387D01*
X219035227Y-170731443D01*
X219029563Y-170708834D01*
X219026144Y-170685779D01*
X219025000Y-170662500D01*
X219025000Y-170162500D01*
X219026144Y-170139221D01*
X219029563Y-170116166D01*
X219035227Y-170093557D01*
X219043079Y-170071613D01*
X219053044Y-170050543D01*
X219065026Y-170030552D01*
X219078910Y-170011832D01*
X219094562Y-169994562D01*
X219111832Y-169978910D01*
X219130552Y-169965026D01*
X219150543Y-169953044D01*
X219171613Y-169943079D01*
X219193557Y-169935227D01*
X219216166Y-169929563D01*
X219239221Y-169926144D01*
X219262500Y-169925000D01*
X219737500Y-169925000D01*
X219760779Y-169926144D01*
G37*
G36*
X219760779Y-168101144D02*
G01*
X219783834Y-168104563D01*
X219806443Y-168110227D01*
X219828387Y-168118079D01*
X219849457Y-168128044D01*
X219869448Y-168140026D01*
X219888168Y-168153910D01*
X219905438Y-168169562D01*
X219921090Y-168186832D01*
X219934974Y-168205552D01*
X219946956Y-168225543D01*
X219956921Y-168246613D01*
X219964773Y-168268557D01*
X219970437Y-168291166D01*
X219973856Y-168314221D01*
X219975000Y-168337500D01*
X219975000Y-168837500D01*
X219973856Y-168860779D01*
X219970437Y-168883834D01*
X219964773Y-168906443D01*
X219956921Y-168928387D01*
X219946956Y-168949457D01*
X219934974Y-168969448D01*
X219921090Y-168988168D01*
X219905438Y-169005438D01*
X219888168Y-169021090D01*
X219869448Y-169034974D01*
X219849457Y-169046956D01*
X219828387Y-169056921D01*
X219806443Y-169064773D01*
X219783834Y-169070437D01*
X219760779Y-169073856D01*
X219737500Y-169075000D01*
X219262500Y-169075000D01*
X219239221Y-169073856D01*
X219216166Y-169070437D01*
X219193557Y-169064773D01*
X219171613Y-169056921D01*
X219150543Y-169046956D01*
X219130552Y-169034974D01*
X219111832Y-169021090D01*
X219094562Y-169005438D01*
X219078910Y-168988168D01*
X219065026Y-168969448D01*
X219053044Y-168949457D01*
X219043079Y-168928387D01*
X219035227Y-168906443D01*
X219029563Y-168883834D01*
X219026144Y-168860779D01*
X219025000Y-168837500D01*
X219025000Y-168337500D01*
X219026144Y-168314221D01*
X219029563Y-168291166D01*
X219035227Y-168268557D01*
X219043079Y-168246613D01*
X219053044Y-168225543D01*
X219065026Y-168205552D01*
X219078910Y-168186832D01*
X219094562Y-168169562D01*
X219111832Y-168153910D01*
X219130552Y-168140026D01*
X219150543Y-168128044D01*
X219171613Y-168118079D01*
X219193557Y-168110227D01*
X219216166Y-168104563D01*
X219239221Y-168101144D01*
X219262500Y-168100000D01*
X219737500Y-168100000D01*
X219760779Y-168101144D01*
G37*
G36*
X231360779Y-170526144D02*
G01*
X231383834Y-170529563D01*
X231406443Y-170535227D01*
X231428387Y-170543079D01*
X231449457Y-170553044D01*
X231469448Y-170565026D01*
X231488168Y-170578910D01*
X231505438Y-170594562D01*
X231521090Y-170611832D01*
X231534974Y-170630552D01*
X231546956Y-170650543D01*
X231556921Y-170671613D01*
X231564773Y-170693557D01*
X231570437Y-170716166D01*
X231573856Y-170739221D01*
X231575000Y-170762500D01*
X231575000Y-171237500D01*
X231573856Y-171260779D01*
X231570437Y-171283834D01*
X231564773Y-171306443D01*
X231556921Y-171328387D01*
X231546956Y-171349457D01*
X231534974Y-171369448D01*
X231521090Y-171388168D01*
X231505438Y-171405438D01*
X231488168Y-171421090D01*
X231469448Y-171434974D01*
X231449457Y-171446956D01*
X231428387Y-171456921D01*
X231406443Y-171464773D01*
X231383834Y-171470437D01*
X231360779Y-171473856D01*
X231337500Y-171475000D01*
X230837500Y-171475000D01*
X230814221Y-171473856D01*
X230791166Y-171470437D01*
X230768557Y-171464773D01*
X230746613Y-171456921D01*
X230725543Y-171446956D01*
X230705552Y-171434974D01*
X230686832Y-171421090D01*
X230669562Y-171405438D01*
X230653910Y-171388168D01*
X230640026Y-171369448D01*
X230628044Y-171349457D01*
X230618079Y-171328387D01*
X230610227Y-171306443D01*
X230604563Y-171283834D01*
X230601144Y-171260779D01*
X230600000Y-171237500D01*
X230600000Y-170762500D01*
X230601144Y-170739221D01*
X230604563Y-170716166D01*
X230610227Y-170693557D01*
X230618079Y-170671613D01*
X230628044Y-170650543D01*
X230640026Y-170630552D01*
X230653910Y-170611832D01*
X230669562Y-170594562D01*
X230686832Y-170578910D01*
X230705552Y-170565026D01*
X230725543Y-170553044D01*
X230746613Y-170543079D01*
X230768557Y-170535227D01*
X230791166Y-170529563D01*
X230814221Y-170526144D01*
X230837500Y-170525000D01*
X231337500Y-170525000D01*
X231360779Y-170526144D01*
G37*
G36*
X233185779Y-170526144D02*
G01*
X233208834Y-170529563D01*
X233231443Y-170535227D01*
X233253387Y-170543079D01*
X233274457Y-170553044D01*
X233294448Y-170565026D01*
X233313168Y-170578910D01*
X233330438Y-170594562D01*
X233346090Y-170611832D01*
X233359974Y-170630552D01*
X233371956Y-170650543D01*
X233381921Y-170671613D01*
X233389773Y-170693557D01*
X233395437Y-170716166D01*
X233398856Y-170739221D01*
X233400000Y-170762500D01*
X233400000Y-171237500D01*
X233398856Y-171260779D01*
X233395437Y-171283834D01*
X233389773Y-171306443D01*
X233381921Y-171328387D01*
X233371956Y-171349457D01*
X233359974Y-171369448D01*
X233346090Y-171388168D01*
X233330438Y-171405438D01*
X233313168Y-171421090D01*
X233294448Y-171434974D01*
X233274457Y-171446956D01*
X233253387Y-171456921D01*
X233231443Y-171464773D01*
X233208834Y-171470437D01*
X233185779Y-171473856D01*
X233162500Y-171475000D01*
X232662500Y-171475000D01*
X232639221Y-171473856D01*
X232616166Y-171470437D01*
X232593557Y-171464773D01*
X232571613Y-171456921D01*
X232550543Y-171446956D01*
X232530552Y-171434974D01*
X232511832Y-171421090D01*
X232494562Y-171405438D01*
X232478910Y-171388168D01*
X232465026Y-171369448D01*
X232453044Y-171349457D01*
X232443079Y-171328387D01*
X232435227Y-171306443D01*
X232429563Y-171283834D01*
X232426144Y-171260779D01*
X232425000Y-171237500D01*
X232425000Y-170762500D01*
X232426144Y-170739221D01*
X232429563Y-170716166D01*
X232435227Y-170693557D01*
X232443079Y-170671613D01*
X232453044Y-170650543D01*
X232465026Y-170630552D01*
X232478910Y-170611832D01*
X232494562Y-170594562D01*
X232511832Y-170578910D01*
X232530552Y-170565026D01*
X232550543Y-170553044D01*
X232571613Y-170543079D01*
X232593557Y-170535227D01*
X232616166Y-170529563D01*
X232639221Y-170526144D01*
X232662500Y-170525000D01*
X233162500Y-170525000D01*
X233185779Y-170526144D01*
G37*
D13*
X212370000Y-163120000D03*
D14*
X212370000Y-160580000D03*
D13*
X214910000Y-160580000D03*
D14*
X217450000Y-160580000D03*
D13*
X212370000Y-170740000D03*
X214910000Y-170740000D03*
D14*
X217450000Y-170740000D03*
D15*
G36*
X229760779Y-170326144D02*
G01*
X229783834Y-170329563D01*
X229806443Y-170335227D01*
X229828387Y-170343079D01*
X229849457Y-170353044D01*
X229869448Y-170365026D01*
X229888168Y-170378910D01*
X229905438Y-170394562D01*
X229921090Y-170411832D01*
X229934974Y-170430552D01*
X229946956Y-170450543D01*
X229956921Y-170471613D01*
X229964773Y-170493557D01*
X229970437Y-170516166D01*
X229973856Y-170539221D01*
X229975000Y-170562500D01*
X229975000Y-171162500D01*
X229973856Y-171185779D01*
X229970437Y-171208834D01*
X229964773Y-171231443D01*
X229956921Y-171253387D01*
X229946956Y-171274457D01*
X229934974Y-171294448D01*
X229921090Y-171313168D01*
X229905438Y-171330438D01*
X229888168Y-171346090D01*
X229869448Y-171359974D01*
X229849457Y-171371956D01*
X229828387Y-171381921D01*
X229806443Y-171389773D01*
X229783834Y-171395437D01*
X229760779Y-171398856D01*
X229737500Y-171400000D01*
X229262500Y-171400000D01*
X229239221Y-171398856D01*
X229216166Y-171395437D01*
X229193557Y-171389773D01*
X229171613Y-171381921D01*
X229150543Y-171371956D01*
X229130552Y-171359974D01*
X229111832Y-171346090D01*
X229094562Y-171330438D01*
X229078910Y-171313168D01*
X229065026Y-171294448D01*
X229053044Y-171274457D01*
X229043079Y-171253387D01*
X229035227Y-171231443D01*
X229029563Y-171208834D01*
X229026144Y-171185779D01*
X229025000Y-171162500D01*
X229025000Y-170562500D01*
X229026144Y-170539221D01*
X229029563Y-170516166D01*
X229035227Y-170493557D01*
X229043079Y-170471613D01*
X229053044Y-170450543D01*
X229065026Y-170430552D01*
X229078910Y-170411832D01*
X229094562Y-170394562D01*
X229111832Y-170378910D01*
X229130552Y-170365026D01*
X229150543Y-170353044D01*
X229171613Y-170343079D01*
X229193557Y-170335227D01*
X229216166Y-170329563D01*
X229239221Y-170326144D01*
X229262500Y-170325000D01*
X229737500Y-170325000D01*
X229760779Y-170326144D01*
G37*
G36*
X229760779Y-168601144D02*
G01*
X229783834Y-168604563D01*
X229806443Y-168610227D01*
X229828387Y-168618079D01*
X229849457Y-168628044D01*
X229869448Y-168640026D01*
X229888168Y-168653910D01*
X229905438Y-168669562D01*
X229921090Y-168686832D01*
X229934974Y-168705552D01*
X229946956Y-168725543D01*
X229956921Y-168746613D01*
X229964773Y-168768557D01*
X229970437Y-168791166D01*
X229973856Y-168814221D01*
X229975000Y-168837500D01*
X229975000Y-169437500D01*
X229973856Y-169460779D01*
X229970437Y-169483834D01*
X229964773Y-169506443D01*
X229956921Y-169528387D01*
X229946956Y-169549457D01*
X229934974Y-169569448D01*
X229921090Y-169588168D01*
X229905438Y-169605438D01*
X229888168Y-169621090D01*
X229869448Y-169634974D01*
X229849457Y-169646956D01*
X229828387Y-169656921D01*
X229806443Y-169664773D01*
X229783834Y-169670437D01*
X229760779Y-169673856D01*
X229737500Y-169675000D01*
X229262500Y-169675000D01*
X229239221Y-169673856D01*
X229216166Y-169670437D01*
X229193557Y-169664773D01*
X229171613Y-169656921D01*
X229150543Y-169646956D01*
X229130552Y-169634974D01*
X229111832Y-169621090D01*
X229094562Y-169605438D01*
X229078910Y-169588168D01*
X229065026Y-169569448D01*
X229053044Y-169549457D01*
X229043079Y-169528387D01*
X229035227Y-169506443D01*
X229029563Y-169483834D01*
X229026144Y-169460779D01*
X229025000Y-169437500D01*
X229025000Y-168837500D01*
X229026144Y-168814221D01*
X229029563Y-168791166D01*
X229035227Y-168768557D01*
X229043079Y-168746613D01*
X229053044Y-168725543D01*
X229065026Y-168705552D01*
X229078910Y-168686832D01*
X229094562Y-168669562D01*
X229111832Y-168653910D01*
X229130552Y-168640026D01*
X229150543Y-168628044D01*
X229171613Y-168618079D01*
X229193557Y-168610227D01*
X229216166Y-168604563D01*
X229239221Y-168601144D01*
X229262500Y-168600000D01*
X229737500Y-168600000D01*
X229760779Y-168601144D01*
G37*
G36*
X229760779Y-165826144D02*
G01*
X229783834Y-165829563D01*
X229806443Y-165835227D01*
X229828387Y-165843079D01*
X229849457Y-165853044D01*
X229869448Y-165865026D01*
X229888168Y-165878910D01*
X229905438Y-165894562D01*
X229921090Y-165911832D01*
X229934974Y-165930552D01*
X229946956Y-165950543D01*
X229956921Y-165971613D01*
X229964773Y-165993557D01*
X229970437Y-166016166D01*
X229973856Y-166039221D01*
X229975000Y-166062500D01*
X229975000Y-166662500D01*
X229973856Y-166685779D01*
X229970437Y-166708834D01*
X229964773Y-166731443D01*
X229956921Y-166753387D01*
X229946956Y-166774457D01*
X229934974Y-166794448D01*
X229921090Y-166813168D01*
X229905438Y-166830438D01*
X229888168Y-166846090D01*
X229869448Y-166859974D01*
X229849457Y-166871956D01*
X229828387Y-166881921D01*
X229806443Y-166889773D01*
X229783834Y-166895437D01*
X229760779Y-166898856D01*
X229737500Y-166900000D01*
X229262500Y-166900000D01*
X229239221Y-166898856D01*
X229216166Y-166895437D01*
X229193557Y-166889773D01*
X229171613Y-166881921D01*
X229150543Y-166871956D01*
X229130552Y-166859974D01*
X229111832Y-166846090D01*
X229094562Y-166830438D01*
X229078910Y-166813168D01*
X229065026Y-166794448D01*
X229053044Y-166774457D01*
X229043079Y-166753387D01*
X229035227Y-166731443D01*
X229029563Y-166708834D01*
X229026144Y-166685779D01*
X229025000Y-166662500D01*
X229025000Y-166062500D01*
X229026144Y-166039221D01*
X229029563Y-166016166D01*
X229035227Y-165993557D01*
X229043079Y-165971613D01*
X229053044Y-165950543D01*
X229065026Y-165930552D01*
X229078910Y-165911832D01*
X229094562Y-165894562D01*
X229111832Y-165878910D01*
X229130552Y-165865026D01*
X229150543Y-165853044D01*
X229171613Y-165843079D01*
X229193557Y-165835227D01*
X229216166Y-165829563D01*
X229239221Y-165826144D01*
X229262500Y-165825000D01*
X229737500Y-165825000D01*
X229760779Y-165826144D01*
G37*
G36*
X229760779Y-164101144D02*
G01*
X229783834Y-164104563D01*
X229806443Y-164110227D01*
X229828387Y-164118079D01*
X229849457Y-164128044D01*
X229869448Y-164140026D01*
X229888168Y-164153910D01*
X229905438Y-164169562D01*
X229921090Y-164186832D01*
X229934974Y-164205552D01*
X229946956Y-164225543D01*
X229956921Y-164246613D01*
X229964773Y-164268557D01*
X229970437Y-164291166D01*
X229973856Y-164314221D01*
X229975000Y-164337500D01*
X229975000Y-164937500D01*
X229973856Y-164960779D01*
X229970437Y-164983834D01*
X229964773Y-165006443D01*
X229956921Y-165028387D01*
X229946956Y-165049457D01*
X229934974Y-165069448D01*
X229921090Y-165088168D01*
X229905438Y-165105438D01*
X229888168Y-165121090D01*
X229869448Y-165134974D01*
X229849457Y-165146956D01*
X229828387Y-165156921D01*
X229806443Y-165164773D01*
X229783834Y-165170437D01*
X229760779Y-165173856D01*
X229737500Y-165175000D01*
X229262500Y-165175000D01*
X229239221Y-165173856D01*
X229216166Y-165170437D01*
X229193557Y-165164773D01*
X229171613Y-165156921D01*
X229150543Y-165146956D01*
X229130552Y-165134974D01*
X229111832Y-165121090D01*
X229094562Y-165105438D01*
X229078910Y-165088168D01*
X229065026Y-165069448D01*
X229053044Y-165049457D01*
X229043079Y-165028387D01*
X229035227Y-165006443D01*
X229029563Y-164983834D01*
X229026144Y-164960779D01*
X229025000Y-164937500D01*
X229025000Y-164337500D01*
X229026144Y-164314221D01*
X229029563Y-164291166D01*
X229035227Y-164268557D01*
X229043079Y-164246613D01*
X229053044Y-164225543D01*
X229065026Y-164205552D01*
X229078910Y-164186832D01*
X229094562Y-164169562D01*
X229111832Y-164153910D01*
X229130552Y-164140026D01*
X229150543Y-164128044D01*
X229171613Y-164118079D01*
X229193557Y-164110227D01*
X229216166Y-164104563D01*
X229239221Y-164101144D01*
X229262500Y-164100000D01*
X229737500Y-164100000D01*
X229760779Y-164101144D01*
G37*
G36*
X224760779Y-170326144D02*
G01*
X224783834Y-170329563D01*
X224806443Y-170335227D01*
X224828387Y-170343079D01*
X224849457Y-170353044D01*
X224869448Y-170365026D01*
X224888168Y-170378910D01*
X224905438Y-170394562D01*
X224921090Y-170411832D01*
X224934974Y-170430552D01*
X224946956Y-170450543D01*
X224956921Y-170471613D01*
X224964773Y-170493557D01*
X224970437Y-170516166D01*
X224973856Y-170539221D01*
X224975000Y-170562500D01*
X224975000Y-171162500D01*
X224973856Y-171185779D01*
X224970437Y-171208834D01*
X224964773Y-171231443D01*
X224956921Y-171253387D01*
X224946956Y-171274457D01*
X224934974Y-171294448D01*
X224921090Y-171313168D01*
X224905438Y-171330438D01*
X224888168Y-171346090D01*
X224869448Y-171359974D01*
X224849457Y-171371956D01*
X224828387Y-171381921D01*
X224806443Y-171389773D01*
X224783834Y-171395437D01*
X224760779Y-171398856D01*
X224737500Y-171400000D01*
X224262500Y-171400000D01*
X224239221Y-171398856D01*
X224216166Y-171395437D01*
X224193557Y-171389773D01*
X224171613Y-171381921D01*
X224150543Y-171371956D01*
X224130552Y-171359974D01*
X224111832Y-171346090D01*
X224094562Y-171330438D01*
X224078910Y-171313168D01*
X224065026Y-171294448D01*
X224053044Y-171274457D01*
X224043079Y-171253387D01*
X224035227Y-171231443D01*
X224029563Y-171208834D01*
X224026144Y-171185779D01*
X224025000Y-171162500D01*
X224025000Y-170562500D01*
X224026144Y-170539221D01*
X224029563Y-170516166D01*
X224035227Y-170493557D01*
X224043079Y-170471613D01*
X224053044Y-170450543D01*
X224065026Y-170430552D01*
X224078910Y-170411832D01*
X224094562Y-170394562D01*
X224111832Y-170378910D01*
X224130552Y-170365026D01*
X224150543Y-170353044D01*
X224171613Y-170343079D01*
X224193557Y-170335227D01*
X224216166Y-170329563D01*
X224239221Y-170326144D01*
X224262500Y-170325000D01*
X224737500Y-170325000D01*
X224760779Y-170326144D01*
G37*
G36*
X224760779Y-168601144D02*
G01*
X224783834Y-168604563D01*
X224806443Y-168610227D01*
X224828387Y-168618079D01*
X224849457Y-168628044D01*
X224869448Y-168640026D01*
X224888168Y-168653910D01*
X224905438Y-168669562D01*
X224921090Y-168686832D01*
X224934974Y-168705552D01*
X224946956Y-168725543D01*
X224956921Y-168746613D01*
X224964773Y-168768557D01*
X224970437Y-168791166D01*
X224973856Y-168814221D01*
X224975000Y-168837500D01*
X224975000Y-169437500D01*
X224973856Y-169460779D01*
X224970437Y-169483834D01*
X224964773Y-169506443D01*
X224956921Y-169528387D01*
X224946956Y-169549457D01*
X224934974Y-169569448D01*
X224921090Y-169588168D01*
X224905438Y-169605438D01*
X224888168Y-169621090D01*
X224869448Y-169634974D01*
X224849457Y-169646956D01*
X224828387Y-169656921D01*
X224806443Y-169664773D01*
X224783834Y-169670437D01*
X224760779Y-169673856D01*
X224737500Y-169675000D01*
X224262500Y-169675000D01*
X224239221Y-169673856D01*
X224216166Y-169670437D01*
X224193557Y-169664773D01*
X224171613Y-169656921D01*
X224150543Y-169646956D01*
X224130552Y-169634974D01*
X224111832Y-169621090D01*
X224094562Y-169605438D01*
X224078910Y-169588168D01*
X224065026Y-169569448D01*
X224053044Y-169549457D01*
X224043079Y-169528387D01*
X224035227Y-169506443D01*
X224029563Y-169483834D01*
X224026144Y-169460779D01*
X224025000Y-169437500D01*
X224025000Y-168837500D01*
X224026144Y-168814221D01*
X224029563Y-168791166D01*
X224035227Y-168768557D01*
X224043079Y-168746613D01*
X224053044Y-168725543D01*
X224065026Y-168705552D01*
X224078910Y-168686832D01*
X224094562Y-168669562D01*
X224111832Y-168653910D01*
X224130552Y-168640026D01*
X224150543Y-168628044D01*
X224171613Y-168618079D01*
X224193557Y-168610227D01*
X224216166Y-168604563D01*
X224239221Y-168601144D01*
X224262500Y-168600000D01*
X224737500Y-168600000D01*
X224760779Y-168601144D01*
G37*
G36*
X224760779Y-165826144D02*
G01*
X224783834Y-165829563D01*
X224806443Y-165835227D01*
X224828387Y-165843079D01*
X224849457Y-165853044D01*
X224869448Y-165865026D01*
X224888168Y-165878910D01*
X224905438Y-165894562D01*
X224921090Y-165911832D01*
X224934974Y-165930552D01*
X224946956Y-165950543D01*
X224956921Y-165971613D01*
X224964773Y-165993557D01*
X224970437Y-166016166D01*
X224973856Y-166039221D01*
X224975000Y-166062500D01*
X224975000Y-166662500D01*
X224973856Y-166685779D01*
X224970437Y-166708834D01*
X224964773Y-166731443D01*
X224956921Y-166753387D01*
X224946956Y-166774457D01*
X224934974Y-166794448D01*
X224921090Y-166813168D01*
X224905438Y-166830438D01*
X224888168Y-166846090D01*
X224869448Y-166859974D01*
X224849457Y-166871956D01*
X224828387Y-166881921D01*
X224806443Y-166889773D01*
X224783834Y-166895437D01*
X224760779Y-166898856D01*
X224737500Y-166900000D01*
X224262500Y-166900000D01*
X224239221Y-166898856D01*
X224216166Y-166895437D01*
X224193557Y-166889773D01*
X224171613Y-166881921D01*
X224150543Y-166871956D01*
X224130552Y-166859974D01*
X224111832Y-166846090D01*
X224094562Y-166830438D01*
X224078910Y-166813168D01*
X224065026Y-166794448D01*
X224053044Y-166774457D01*
X224043079Y-166753387D01*
X224035227Y-166731443D01*
X224029563Y-166708834D01*
X224026144Y-166685779D01*
X224025000Y-166662500D01*
X224025000Y-166062500D01*
X224026144Y-166039221D01*
X224029563Y-166016166D01*
X224035227Y-165993557D01*
X224043079Y-165971613D01*
X224053044Y-165950543D01*
X224065026Y-165930552D01*
X224078910Y-165911832D01*
X224094562Y-165894562D01*
X224111832Y-165878910D01*
X224130552Y-165865026D01*
X224150543Y-165853044D01*
X224171613Y-165843079D01*
X224193557Y-165835227D01*
X224216166Y-165829563D01*
X224239221Y-165826144D01*
X224262500Y-165825000D01*
X224737500Y-165825000D01*
X224760779Y-165826144D01*
G37*
G36*
X224760779Y-164101144D02*
G01*
X224783834Y-164104563D01*
X224806443Y-164110227D01*
X224828387Y-164118079D01*
X224849457Y-164128044D01*
X224869448Y-164140026D01*
X224888168Y-164153910D01*
X224905438Y-164169562D01*
X224921090Y-164186832D01*
X224934974Y-164205552D01*
X224946956Y-164225543D01*
X224956921Y-164246613D01*
X224964773Y-164268557D01*
X224970437Y-164291166D01*
X224973856Y-164314221D01*
X224975000Y-164337500D01*
X224975000Y-164937500D01*
X224973856Y-164960779D01*
X224970437Y-164983834D01*
X224964773Y-165006443D01*
X224956921Y-165028387D01*
X224946956Y-165049457D01*
X224934974Y-165069448D01*
X224921090Y-165088168D01*
X224905438Y-165105438D01*
X224888168Y-165121090D01*
X224869448Y-165134974D01*
X224849457Y-165146956D01*
X224828387Y-165156921D01*
X224806443Y-165164773D01*
X224783834Y-165170437D01*
X224760779Y-165173856D01*
X224737500Y-165175000D01*
X224262500Y-165175000D01*
X224239221Y-165173856D01*
X224216166Y-165170437D01*
X224193557Y-165164773D01*
X224171613Y-165156921D01*
X224150543Y-165146956D01*
X224130552Y-165134974D01*
X224111832Y-165121090D01*
X224094562Y-165105438D01*
X224078910Y-165088168D01*
X224065026Y-165069448D01*
X224053044Y-165049457D01*
X224043079Y-165028387D01*
X224035227Y-165006443D01*
X224029563Y-164983834D01*
X224026144Y-164960779D01*
X224025000Y-164937500D01*
X224025000Y-164337500D01*
X224026144Y-164314221D01*
X224029563Y-164291166D01*
X224035227Y-164268557D01*
X224043079Y-164246613D01*
X224053044Y-164225543D01*
X224065026Y-164205552D01*
X224078910Y-164186832D01*
X224094562Y-164169562D01*
X224111832Y-164153910D01*
X224130552Y-164140026D01*
X224150543Y-164128044D01*
X224171613Y-164118079D01*
X224193557Y-164110227D01*
X224216166Y-164104563D01*
X224239221Y-164101144D01*
X224262500Y-164100000D01*
X224737500Y-164100000D01*
X224760779Y-164101144D01*
G37*
G36*
X251685779Y-170026144D02*
G01*
X251708834Y-170029563D01*
X251731443Y-170035227D01*
X251753387Y-170043079D01*
X251774457Y-170053044D01*
X251794448Y-170065026D01*
X251813168Y-170078910D01*
X251830438Y-170094562D01*
X251846090Y-170111832D01*
X251859974Y-170130552D01*
X251871956Y-170150543D01*
X251881921Y-170171613D01*
X251889773Y-170193557D01*
X251895437Y-170216166D01*
X251898856Y-170239221D01*
X251900000Y-170262500D01*
X251900000Y-170737500D01*
X251898856Y-170760779D01*
X251895437Y-170783834D01*
X251889773Y-170806443D01*
X251881921Y-170828387D01*
X251871956Y-170849457D01*
X251859974Y-170869448D01*
X251846090Y-170888168D01*
X251830438Y-170905438D01*
X251813168Y-170921090D01*
X251794448Y-170934974D01*
X251774457Y-170946956D01*
X251753387Y-170956921D01*
X251731443Y-170964773D01*
X251708834Y-170970437D01*
X251685779Y-170973856D01*
X251662500Y-170975000D01*
X251162500Y-170975000D01*
X251139221Y-170973856D01*
X251116166Y-170970437D01*
X251093557Y-170964773D01*
X251071613Y-170956921D01*
X251050543Y-170946956D01*
X251030552Y-170934974D01*
X251011832Y-170921090D01*
X250994562Y-170905438D01*
X250978910Y-170888168D01*
X250965026Y-170869448D01*
X250953044Y-170849457D01*
X250943079Y-170828387D01*
X250935227Y-170806443D01*
X250929563Y-170783834D01*
X250926144Y-170760779D01*
X250925000Y-170737500D01*
X250925000Y-170262500D01*
X250926144Y-170239221D01*
X250929563Y-170216166D01*
X250935227Y-170193557D01*
X250943079Y-170171613D01*
X250953044Y-170150543D01*
X250965026Y-170130552D01*
X250978910Y-170111832D01*
X250994562Y-170094562D01*
X251011832Y-170078910D01*
X251030552Y-170065026D01*
X251050543Y-170053044D01*
X251071613Y-170043079D01*
X251093557Y-170035227D01*
X251116166Y-170029563D01*
X251139221Y-170026144D01*
X251162500Y-170025000D01*
X251662500Y-170025000D01*
X251685779Y-170026144D01*
G37*
G36*
X249860779Y-170026144D02*
G01*
X249883834Y-170029563D01*
X249906443Y-170035227D01*
X249928387Y-170043079D01*
X249949457Y-170053044D01*
X249969448Y-170065026D01*
X249988168Y-170078910D01*
X250005438Y-170094562D01*
X250021090Y-170111832D01*
X250034974Y-170130552D01*
X250046956Y-170150543D01*
X250056921Y-170171613D01*
X250064773Y-170193557D01*
X250070437Y-170216166D01*
X250073856Y-170239221D01*
X250075000Y-170262500D01*
X250075000Y-170737500D01*
X250073856Y-170760779D01*
X250070437Y-170783834D01*
X250064773Y-170806443D01*
X250056921Y-170828387D01*
X250046956Y-170849457D01*
X250034974Y-170869448D01*
X250021090Y-170888168D01*
X250005438Y-170905438D01*
X249988168Y-170921090D01*
X249969448Y-170934974D01*
X249949457Y-170946956D01*
X249928387Y-170956921D01*
X249906443Y-170964773D01*
X249883834Y-170970437D01*
X249860779Y-170973856D01*
X249837500Y-170975000D01*
X249337500Y-170975000D01*
X249314221Y-170973856D01*
X249291166Y-170970437D01*
X249268557Y-170964773D01*
X249246613Y-170956921D01*
X249225543Y-170946956D01*
X249205552Y-170934974D01*
X249186832Y-170921090D01*
X249169562Y-170905438D01*
X249153910Y-170888168D01*
X249140026Y-170869448D01*
X249128044Y-170849457D01*
X249118079Y-170828387D01*
X249110227Y-170806443D01*
X249104563Y-170783834D01*
X249101144Y-170760779D01*
X249100000Y-170737500D01*
X249100000Y-170262500D01*
X249101144Y-170239221D01*
X249104563Y-170216166D01*
X249110227Y-170193557D01*
X249118079Y-170171613D01*
X249128044Y-170150543D01*
X249140026Y-170130552D01*
X249153910Y-170111832D01*
X249169562Y-170094562D01*
X249186832Y-170078910D01*
X249205552Y-170065026D01*
X249225543Y-170053044D01*
X249246613Y-170043079D01*
X249268557Y-170035227D01*
X249291166Y-170029563D01*
X249314221Y-170026144D01*
X249337500Y-170025000D01*
X249837500Y-170025000D01*
X249860779Y-170026144D01*
G37*
G36*
X235675977Y-160030662D02*
G01*
X235689325Y-160032642D01*
X235702414Y-160035921D01*
X235715119Y-160040467D01*
X235727317Y-160046236D01*
X235738891Y-160053173D01*
X235749729Y-160061211D01*
X235759727Y-160070273D01*
X235768789Y-160080271D01*
X235776827Y-160091109D01*
X235783764Y-160102683D01*
X235789533Y-160114881D01*
X235794079Y-160127586D01*
X235797358Y-160140675D01*
X235799338Y-160154023D01*
X235800000Y-160167500D01*
X235800000Y-160442500D01*
X235799338Y-160455977D01*
X235797358Y-160469325D01*
X235794079Y-160482414D01*
X235789533Y-160495119D01*
X235783764Y-160507317D01*
X235776827Y-160518891D01*
X235768789Y-160529729D01*
X235759727Y-160539727D01*
X235749729Y-160548789D01*
X235738891Y-160556827D01*
X235727317Y-160563764D01*
X235715119Y-160569533D01*
X235702414Y-160574079D01*
X235689325Y-160577358D01*
X235675977Y-160579338D01*
X235662500Y-160580000D01*
X234337500Y-160580000D01*
X234324023Y-160579338D01*
X234310675Y-160577358D01*
X234297586Y-160574079D01*
X234284881Y-160569533D01*
X234272683Y-160563764D01*
X234261109Y-160556827D01*
X234250271Y-160548789D01*
X234240273Y-160539727D01*
X234231211Y-160529729D01*
X234223173Y-160518891D01*
X234216236Y-160507317D01*
X234210467Y-160495119D01*
X234205921Y-160482414D01*
X234202642Y-160469325D01*
X234200662Y-160455977D01*
X234200000Y-160442500D01*
X234200000Y-160167500D01*
X234200662Y-160154023D01*
X234202642Y-160140675D01*
X234205921Y-160127586D01*
X234210467Y-160114881D01*
X234216236Y-160102683D01*
X234223173Y-160091109D01*
X234231211Y-160080271D01*
X234240273Y-160070273D01*
X234250271Y-160061211D01*
X234261109Y-160053173D01*
X234272683Y-160046236D01*
X234284881Y-160040467D01*
X234297586Y-160035921D01*
X234310675Y-160032642D01*
X234324023Y-160030662D01*
X234337500Y-160030000D01*
X235662500Y-160030000D01*
X235675977Y-160030662D01*
G37*
G36*
X235675977Y-161300662D02*
G01*
X235689325Y-161302642D01*
X235702414Y-161305921D01*
X235715119Y-161310467D01*
X235727317Y-161316236D01*
X235738891Y-161323173D01*
X235749729Y-161331211D01*
X235759727Y-161340273D01*
X235768789Y-161350271D01*
X235776827Y-161361109D01*
X235783764Y-161372683D01*
X235789533Y-161384881D01*
X235794079Y-161397586D01*
X235797358Y-161410675D01*
X235799338Y-161424023D01*
X235800000Y-161437500D01*
X235800000Y-161712500D01*
X235799338Y-161725977D01*
X235797358Y-161739325D01*
X235794079Y-161752414D01*
X235789533Y-161765119D01*
X235783764Y-161777317D01*
X235776827Y-161788891D01*
X235768789Y-161799729D01*
X235759727Y-161809727D01*
X235749729Y-161818789D01*
X235738891Y-161826827D01*
X235727317Y-161833764D01*
X235715119Y-161839533D01*
X235702414Y-161844079D01*
X235689325Y-161847358D01*
X235675977Y-161849338D01*
X235662500Y-161850000D01*
X234337500Y-161850000D01*
X234324023Y-161849338D01*
X234310675Y-161847358D01*
X234297586Y-161844079D01*
X234284881Y-161839533D01*
X234272683Y-161833764D01*
X234261109Y-161826827D01*
X234250271Y-161818789D01*
X234240273Y-161809727D01*
X234231211Y-161799729D01*
X234223173Y-161788891D01*
X234216236Y-161777317D01*
X234210467Y-161765119D01*
X234205921Y-161752414D01*
X234202642Y-161739325D01*
X234200662Y-161725977D01*
X234200000Y-161712500D01*
X234200000Y-161437500D01*
X234200662Y-161424023D01*
X234202642Y-161410675D01*
X234205921Y-161397586D01*
X234210467Y-161384881D01*
X234216236Y-161372683D01*
X234223173Y-161361109D01*
X234231211Y-161350271D01*
X234240273Y-161340273D01*
X234250271Y-161331211D01*
X234261109Y-161323173D01*
X234272683Y-161316236D01*
X234284881Y-161310467D01*
X234297586Y-161305921D01*
X234310675Y-161302642D01*
X234324023Y-161300662D01*
X234337500Y-161300000D01*
X235662500Y-161300000D01*
X235675977Y-161300662D01*
G37*
G36*
X235675977Y-162570662D02*
G01*
X235689325Y-162572642D01*
X235702414Y-162575921D01*
X235715119Y-162580467D01*
X235727317Y-162586236D01*
X235738891Y-162593173D01*
X235749729Y-162601211D01*
X235759727Y-162610273D01*
X235768789Y-162620271D01*
X235776827Y-162631109D01*
X235783764Y-162642683D01*
X235789533Y-162654881D01*
X235794079Y-162667586D01*
X235797358Y-162680675D01*
X235799338Y-162694023D01*
X235800000Y-162707500D01*
X235800000Y-162982500D01*
X235799338Y-162995977D01*
X235797358Y-163009325D01*
X235794079Y-163022414D01*
X235789533Y-163035119D01*
X235783764Y-163047317D01*
X235776827Y-163058891D01*
X235768789Y-163069729D01*
X235759727Y-163079727D01*
X235749729Y-163088789D01*
X235738891Y-163096827D01*
X235727317Y-163103764D01*
X235715119Y-163109533D01*
X235702414Y-163114079D01*
X235689325Y-163117358D01*
X235675977Y-163119338D01*
X235662500Y-163120000D01*
X234337500Y-163120000D01*
X234324023Y-163119338D01*
X234310675Y-163117358D01*
X234297586Y-163114079D01*
X234284881Y-163109533D01*
X234272683Y-163103764D01*
X234261109Y-163096827D01*
X234250271Y-163088789D01*
X234240273Y-163079727D01*
X234231211Y-163069729D01*
X234223173Y-163058891D01*
X234216236Y-163047317D01*
X234210467Y-163035119D01*
X234205921Y-163022414D01*
X234202642Y-163009325D01*
X234200662Y-162995977D01*
X234200000Y-162982500D01*
X234200000Y-162707500D01*
X234200662Y-162694023D01*
X234202642Y-162680675D01*
X234205921Y-162667586D01*
X234210467Y-162654881D01*
X234216236Y-162642683D01*
X234223173Y-162631109D01*
X234231211Y-162620271D01*
X234240273Y-162610273D01*
X234250271Y-162601211D01*
X234261109Y-162593173D01*
X234272683Y-162586236D01*
X234284881Y-162580467D01*
X234297586Y-162575921D01*
X234310675Y-162572642D01*
X234324023Y-162570662D01*
X234337500Y-162570000D01*
X235662500Y-162570000D01*
X235675977Y-162570662D01*
G37*
G36*
X235675977Y-163840662D02*
G01*
X235689325Y-163842642D01*
X235702414Y-163845921D01*
X235715119Y-163850467D01*
X235727317Y-163856236D01*
X235738891Y-163863173D01*
X235749729Y-163871211D01*
X235759727Y-163880273D01*
X235768789Y-163890271D01*
X235776827Y-163901109D01*
X235783764Y-163912683D01*
X235789533Y-163924881D01*
X235794079Y-163937586D01*
X235797358Y-163950675D01*
X235799338Y-163964023D01*
X235800000Y-163977500D01*
X235800000Y-164252500D01*
X235799338Y-164265977D01*
X235797358Y-164279325D01*
X235794079Y-164292414D01*
X235789533Y-164305119D01*
X235783764Y-164317317D01*
X235776827Y-164328891D01*
X235768789Y-164339729D01*
X235759727Y-164349727D01*
X235749729Y-164358789D01*
X235738891Y-164366827D01*
X235727317Y-164373764D01*
X235715119Y-164379533D01*
X235702414Y-164384079D01*
X235689325Y-164387358D01*
X235675977Y-164389338D01*
X235662500Y-164390000D01*
X234337500Y-164390000D01*
X234324023Y-164389338D01*
X234310675Y-164387358D01*
X234297586Y-164384079D01*
X234284881Y-164379533D01*
X234272683Y-164373764D01*
X234261109Y-164366827D01*
X234250271Y-164358789D01*
X234240273Y-164349727D01*
X234231211Y-164339729D01*
X234223173Y-164328891D01*
X234216236Y-164317317D01*
X234210467Y-164305119D01*
X234205921Y-164292414D01*
X234202642Y-164279325D01*
X234200662Y-164265977D01*
X234200000Y-164252500D01*
X234200000Y-163977500D01*
X234200662Y-163964023D01*
X234202642Y-163950675D01*
X234205921Y-163937586D01*
X234210467Y-163924881D01*
X234216236Y-163912683D01*
X234223173Y-163901109D01*
X234231211Y-163890271D01*
X234240273Y-163880273D01*
X234250271Y-163871211D01*
X234261109Y-163863173D01*
X234272683Y-163856236D01*
X234284881Y-163850467D01*
X234297586Y-163845921D01*
X234310675Y-163842642D01*
X234324023Y-163840662D01*
X234337500Y-163840000D01*
X235662500Y-163840000D01*
X235675977Y-163840662D01*
G37*
G36*
X235675977Y-165110662D02*
G01*
X235689325Y-165112642D01*
X235702414Y-165115921D01*
X235715119Y-165120467D01*
X235727317Y-165126236D01*
X235738891Y-165133173D01*
X235749729Y-165141211D01*
X235759727Y-165150273D01*
X235768789Y-165160271D01*
X235776827Y-165171109D01*
X235783764Y-165182683D01*
X235789533Y-165194881D01*
X235794079Y-165207586D01*
X235797358Y-165220675D01*
X235799338Y-165234023D01*
X235800000Y-165247500D01*
X235800000Y-165522500D01*
X235799338Y-165535977D01*
X235797358Y-165549325D01*
X235794079Y-165562414D01*
X235789533Y-165575119D01*
X235783764Y-165587317D01*
X235776827Y-165598891D01*
X235768789Y-165609729D01*
X235759727Y-165619727D01*
X235749729Y-165628789D01*
X235738891Y-165636827D01*
X235727317Y-165643764D01*
X235715119Y-165649533D01*
X235702414Y-165654079D01*
X235689325Y-165657358D01*
X235675977Y-165659338D01*
X235662500Y-165660000D01*
X234337500Y-165660000D01*
X234324023Y-165659338D01*
X234310675Y-165657358D01*
X234297586Y-165654079D01*
X234284881Y-165649533D01*
X234272683Y-165643764D01*
X234261109Y-165636827D01*
X234250271Y-165628789D01*
X234240273Y-165619727D01*
X234231211Y-165609729D01*
X234223173Y-165598891D01*
X234216236Y-165587317D01*
X234210467Y-165575119D01*
X234205921Y-165562414D01*
X234202642Y-165549325D01*
X234200662Y-165535977D01*
X234200000Y-165522500D01*
X234200000Y-165247500D01*
X234200662Y-165234023D01*
X234202642Y-165220675D01*
X234205921Y-165207586D01*
X234210467Y-165194881D01*
X234216236Y-165182683D01*
X234223173Y-165171109D01*
X234231211Y-165160271D01*
X234240273Y-165150273D01*
X234250271Y-165141211D01*
X234261109Y-165133173D01*
X234272683Y-165126236D01*
X234284881Y-165120467D01*
X234297586Y-165115921D01*
X234310675Y-165112642D01*
X234324023Y-165110662D01*
X234337500Y-165110000D01*
X235662500Y-165110000D01*
X235675977Y-165110662D01*
G37*
G36*
X235675977Y-166380662D02*
G01*
X235689325Y-166382642D01*
X235702414Y-166385921D01*
X235715119Y-166390467D01*
X235727317Y-166396236D01*
X235738891Y-166403173D01*
X235749729Y-166411211D01*
X235759727Y-166420273D01*
X235768789Y-166430271D01*
X235776827Y-166441109D01*
X235783764Y-166452683D01*
X235789533Y-166464881D01*
X235794079Y-166477586D01*
X235797358Y-166490675D01*
X235799338Y-166504023D01*
X235800000Y-166517500D01*
X235800000Y-166792500D01*
X235799338Y-166805977D01*
X235797358Y-166819325D01*
X235794079Y-166832414D01*
X235789533Y-166845119D01*
X235783764Y-166857317D01*
X235776827Y-166868891D01*
X235768789Y-166879729D01*
X235759727Y-166889727D01*
X235749729Y-166898789D01*
X235738891Y-166906827D01*
X235727317Y-166913764D01*
X235715119Y-166919533D01*
X235702414Y-166924079D01*
X235689325Y-166927358D01*
X235675977Y-166929338D01*
X235662500Y-166930000D01*
X234337500Y-166930000D01*
X234324023Y-166929338D01*
X234310675Y-166927358D01*
X234297586Y-166924079D01*
X234284881Y-166919533D01*
X234272683Y-166913764D01*
X234261109Y-166906827D01*
X234250271Y-166898789D01*
X234240273Y-166889727D01*
X234231211Y-166879729D01*
X234223173Y-166868891D01*
X234216236Y-166857317D01*
X234210467Y-166845119D01*
X234205921Y-166832414D01*
X234202642Y-166819325D01*
X234200662Y-166805977D01*
X234200000Y-166792500D01*
X234200000Y-166517500D01*
X234200662Y-166504023D01*
X234202642Y-166490675D01*
X234205921Y-166477586D01*
X234210467Y-166464881D01*
X234216236Y-166452683D01*
X234223173Y-166441109D01*
X234231211Y-166430271D01*
X234240273Y-166420273D01*
X234250271Y-166411211D01*
X234261109Y-166403173D01*
X234272683Y-166396236D01*
X234284881Y-166390467D01*
X234297586Y-166385921D01*
X234310675Y-166382642D01*
X234324023Y-166380662D01*
X234337500Y-166380000D01*
X235662500Y-166380000D01*
X235675977Y-166380662D01*
G37*
G36*
X235675977Y-167650662D02*
G01*
X235689325Y-167652642D01*
X235702414Y-167655921D01*
X235715119Y-167660467D01*
X235727317Y-167666236D01*
X235738891Y-167673173D01*
X235749729Y-167681211D01*
X235759727Y-167690273D01*
X235768789Y-167700271D01*
X235776827Y-167711109D01*
X235783764Y-167722683D01*
X235789533Y-167734881D01*
X235794079Y-167747586D01*
X235797358Y-167760675D01*
X235799338Y-167774023D01*
X235800000Y-167787500D01*
X235800000Y-168062500D01*
X235799338Y-168075977D01*
X235797358Y-168089325D01*
X235794079Y-168102414D01*
X235789533Y-168115119D01*
X235783764Y-168127317D01*
X235776827Y-168138891D01*
X235768789Y-168149729D01*
X235759727Y-168159727D01*
X235749729Y-168168789D01*
X235738891Y-168176827D01*
X235727317Y-168183764D01*
X235715119Y-168189533D01*
X235702414Y-168194079D01*
X235689325Y-168197358D01*
X235675977Y-168199338D01*
X235662500Y-168200000D01*
X234337500Y-168200000D01*
X234324023Y-168199338D01*
X234310675Y-168197358D01*
X234297586Y-168194079D01*
X234284881Y-168189533D01*
X234272683Y-168183764D01*
X234261109Y-168176827D01*
X234250271Y-168168789D01*
X234240273Y-168159727D01*
X234231211Y-168149729D01*
X234223173Y-168138891D01*
X234216236Y-168127317D01*
X234210467Y-168115119D01*
X234205921Y-168102414D01*
X234202642Y-168089325D01*
X234200662Y-168075977D01*
X234200000Y-168062500D01*
X234200000Y-167787500D01*
X234200662Y-167774023D01*
X234202642Y-167760675D01*
X234205921Y-167747586D01*
X234210467Y-167734881D01*
X234216236Y-167722683D01*
X234223173Y-167711109D01*
X234231211Y-167700271D01*
X234240273Y-167690273D01*
X234250271Y-167681211D01*
X234261109Y-167673173D01*
X234272683Y-167666236D01*
X234284881Y-167660467D01*
X234297586Y-167655921D01*
X234310675Y-167652642D01*
X234324023Y-167650662D01*
X234337500Y-167650000D01*
X235662500Y-167650000D01*
X235675977Y-167650662D01*
G37*
G36*
X235675977Y-168920662D02*
G01*
X235689325Y-168922642D01*
X235702414Y-168925921D01*
X235715119Y-168930467D01*
X235727317Y-168936236D01*
X235738891Y-168943173D01*
X235749729Y-168951211D01*
X235759727Y-168960273D01*
X235768789Y-168970271D01*
X235776827Y-168981109D01*
X235783764Y-168992683D01*
X235789533Y-169004881D01*
X235794079Y-169017586D01*
X235797358Y-169030675D01*
X235799338Y-169044023D01*
X235800000Y-169057500D01*
X235800000Y-169332500D01*
X235799338Y-169345977D01*
X235797358Y-169359325D01*
X235794079Y-169372414D01*
X235789533Y-169385119D01*
X235783764Y-169397317D01*
X235776827Y-169408891D01*
X235768789Y-169419729D01*
X235759727Y-169429727D01*
X235749729Y-169438789D01*
X235738891Y-169446827D01*
X235727317Y-169453764D01*
X235715119Y-169459533D01*
X235702414Y-169464079D01*
X235689325Y-169467358D01*
X235675977Y-169469338D01*
X235662500Y-169470000D01*
X234337500Y-169470000D01*
X234324023Y-169469338D01*
X234310675Y-169467358D01*
X234297586Y-169464079D01*
X234284881Y-169459533D01*
X234272683Y-169453764D01*
X234261109Y-169446827D01*
X234250271Y-169438789D01*
X234240273Y-169429727D01*
X234231211Y-169419729D01*
X234223173Y-169408891D01*
X234216236Y-169397317D01*
X234210467Y-169385119D01*
X234205921Y-169372414D01*
X234202642Y-169359325D01*
X234200662Y-169345977D01*
X234200000Y-169332500D01*
X234200000Y-169057500D01*
X234200662Y-169044023D01*
X234202642Y-169030675D01*
X234205921Y-169017586D01*
X234210467Y-169004881D01*
X234216236Y-168992683D01*
X234223173Y-168981109D01*
X234231211Y-168970271D01*
X234240273Y-168960273D01*
X234250271Y-168951211D01*
X234261109Y-168943173D01*
X234272683Y-168936236D01*
X234284881Y-168930467D01*
X234297586Y-168925921D01*
X234310675Y-168922642D01*
X234324023Y-168920662D01*
X234337500Y-168920000D01*
X235662500Y-168920000D01*
X235675977Y-168920662D01*
G37*
G36*
X242175977Y-168920662D02*
G01*
X242189325Y-168922642D01*
X242202414Y-168925921D01*
X242215119Y-168930467D01*
X242227317Y-168936236D01*
X242238891Y-168943173D01*
X242249729Y-168951211D01*
X242259727Y-168960273D01*
X242268789Y-168970271D01*
X242276827Y-168981109D01*
X242283764Y-168992683D01*
X242289533Y-169004881D01*
X242294079Y-169017586D01*
X242297358Y-169030675D01*
X242299338Y-169044023D01*
X242300000Y-169057500D01*
X242300000Y-169332500D01*
X242299338Y-169345977D01*
X242297358Y-169359325D01*
X242294079Y-169372414D01*
X242289533Y-169385119D01*
X242283764Y-169397317D01*
X242276827Y-169408891D01*
X242268789Y-169419729D01*
X242259727Y-169429727D01*
X242249729Y-169438789D01*
X242238891Y-169446827D01*
X242227317Y-169453764D01*
X242215119Y-169459533D01*
X242202414Y-169464079D01*
X242189325Y-169467358D01*
X242175977Y-169469338D01*
X242162500Y-169470000D01*
X240837500Y-169470000D01*
X240824023Y-169469338D01*
X240810675Y-169467358D01*
X240797586Y-169464079D01*
X240784881Y-169459533D01*
X240772683Y-169453764D01*
X240761109Y-169446827D01*
X240750271Y-169438789D01*
X240740273Y-169429727D01*
X240731211Y-169419729D01*
X240723173Y-169408891D01*
X240716236Y-169397317D01*
X240710467Y-169385119D01*
X240705921Y-169372414D01*
X240702642Y-169359325D01*
X240700662Y-169345977D01*
X240700000Y-169332500D01*
X240700000Y-169057500D01*
X240700662Y-169044023D01*
X240702642Y-169030675D01*
X240705921Y-169017586D01*
X240710467Y-169004881D01*
X240716236Y-168992683D01*
X240723173Y-168981109D01*
X240731211Y-168970271D01*
X240740273Y-168960273D01*
X240750271Y-168951211D01*
X240761109Y-168943173D01*
X240772683Y-168936236D01*
X240784881Y-168930467D01*
X240797586Y-168925921D01*
X240810675Y-168922642D01*
X240824023Y-168920662D01*
X240837500Y-168920000D01*
X242162500Y-168920000D01*
X242175977Y-168920662D01*
G37*
G36*
X242175977Y-167650662D02*
G01*
X242189325Y-167652642D01*
X242202414Y-167655921D01*
X242215119Y-167660467D01*
X242227317Y-167666236D01*
X242238891Y-167673173D01*
X242249729Y-167681211D01*
X242259727Y-167690273D01*
X242268789Y-167700271D01*
X242276827Y-167711109D01*
X242283764Y-167722683D01*
X242289533Y-167734881D01*
X242294079Y-167747586D01*
X242297358Y-167760675D01*
X242299338Y-167774023D01*
X242300000Y-167787500D01*
X242300000Y-168062500D01*
X242299338Y-168075977D01*
X242297358Y-168089325D01*
X242294079Y-168102414D01*
X242289533Y-168115119D01*
X242283764Y-168127317D01*
X242276827Y-168138891D01*
X242268789Y-168149729D01*
X242259727Y-168159727D01*
X242249729Y-168168789D01*
X242238891Y-168176827D01*
X242227317Y-168183764D01*
X242215119Y-168189533D01*
X242202414Y-168194079D01*
X242189325Y-168197358D01*
X242175977Y-168199338D01*
X242162500Y-168200000D01*
X240837500Y-168200000D01*
X240824023Y-168199338D01*
X240810675Y-168197358D01*
X240797586Y-168194079D01*
X240784881Y-168189533D01*
X240772683Y-168183764D01*
X240761109Y-168176827D01*
X240750271Y-168168789D01*
X240740273Y-168159727D01*
X240731211Y-168149729D01*
X240723173Y-168138891D01*
X240716236Y-168127317D01*
X240710467Y-168115119D01*
X240705921Y-168102414D01*
X240702642Y-168089325D01*
X240700662Y-168075977D01*
X240700000Y-168062500D01*
X240700000Y-167787500D01*
X240700662Y-167774023D01*
X240702642Y-167760675D01*
X240705921Y-167747586D01*
X240710467Y-167734881D01*
X240716236Y-167722683D01*
X240723173Y-167711109D01*
X240731211Y-167700271D01*
X240740273Y-167690273D01*
X240750271Y-167681211D01*
X240761109Y-167673173D01*
X240772683Y-167666236D01*
X240784881Y-167660467D01*
X240797586Y-167655921D01*
X240810675Y-167652642D01*
X240824023Y-167650662D01*
X240837500Y-167650000D01*
X242162500Y-167650000D01*
X242175977Y-167650662D01*
G37*
G36*
X242175977Y-166380662D02*
G01*
X242189325Y-166382642D01*
X242202414Y-166385921D01*
X242215119Y-166390467D01*
X242227317Y-166396236D01*
X242238891Y-166403173D01*
X242249729Y-166411211D01*
X242259727Y-166420273D01*
X242268789Y-166430271D01*
X242276827Y-166441109D01*
X242283764Y-166452683D01*
X242289533Y-166464881D01*
X242294079Y-166477586D01*
X242297358Y-166490675D01*
X242299338Y-166504023D01*
X242300000Y-166517500D01*
X242300000Y-166792500D01*
X242299338Y-166805977D01*
X242297358Y-166819325D01*
X242294079Y-166832414D01*
X242289533Y-166845119D01*
X242283764Y-166857317D01*
X242276827Y-166868891D01*
X242268789Y-166879729D01*
X242259727Y-166889727D01*
X242249729Y-166898789D01*
X242238891Y-166906827D01*
X242227317Y-166913764D01*
X242215119Y-166919533D01*
X242202414Y-166924079D01*
X242189325Y-166927358D01*
X242175977Y-166929338D01*
X242162500Y-166930000D01*
X240837500Y-166930000D01*
X240824023Y-166929338D01*
X240810675Y-166927358D01*
X240797586Y-166924079D01*
X240784881Y-166919533D01*
X240772683Y-166913764D01*
X240761109Y-166906827D01*
X240750271Y-166898789D01*
X240740273Y-166889727D01*
X240731211Y-166879729D01*
X240723173Y-166868891D01*
X240716236Y-166857317D01*
X240710467Y-166845119D01*
X240705921Y-166832414D01*
X240702642Y-166819325D01*
X240700662Y-166805977D01*
X240700000Y-166792500D01*
X240700000Y-166517500D01*
X240700662Y-166504023D01*
X240702642Y-166490675D01*
X240705921Y-166477586D01*
X240710467Y-166464881D01*
X240716236Y-166452683D01*
X240723173Y-166441109D01*
X240731211Y-166430271D01*
X240740273Y-166420273D01*
X240750271Y-166411211D01*
X240761109Y-166403173D01*
X240772683Y-166396236D01*
X240784881Y-166390467D01*
X240797586Y-166385921D01*
X240810675Y-166382642D01*
X240824023Y-166380662D01*
X240837500Y-166380000D01*
X242162500Y-166380000D01*
X242175977Y-166380662D01*
G37*
G36*
X242175977Y-165110662D02*
G01*
X242189325Y-165112642D01*
X242202414Y-165115921D01*
X242215119Y-165120467D01*
X242227317Y-165126236D01*
X242238891Y-165133173D01*
X242249729Y-165141211D01*
X242259727Y-165150273D01*
X242268789Y-165160271D01*
X242276827Y-165171109D01*
X242283764Y-165182683D01*
X242289533Y-165194881D01*
X242294079Y-165207586D01*
X242297358Y-165220675D01*
X242299338Y-165234023D01*
X242300000Y-165247500D01*
X242300000Y-165522500D01*
X242299338Y-165535977D01*
X242297358Y-165549325D01*
X242294079Y-165562414D01*
X242289533Y-165575119D01*
X242283764Y-165587317D01*
X242276827Y-165598891D01*
X242268789Y-165609729D01*
X242259727Y-165619727D01*
X242249729Y-165628789D01*
X242238891Y-165636827D01*
X242227317Y-165643764D01*
X242215119Y-165649533D01*
X242202414Y-165654079D01*
X242189325Y-165657358D01*
X242175977Y-165659338D01*
X242162500Y-165660000D01*
X240837500Y-165660000D01*
X240824023Y-165659338D01*
X240810675Y-165657358D01*
X240797586Y-165654079D01*
X240784881Y-165649533D01*
X240772683Y-165643764D01*
X240761109Y-165636827D01*
X240750271Y-165628789D01*
X240740273Y-165619727D01*
X240731211Y-165609729D01*
X240723173Y-165598891D01*
X240716236Y-165587317D01*
X240710467Y-165575119D01*
X240705921Y-165562414D01*
X240702642Y-165549325D01*
X240700662Y-165535977D01*
X240700000Y-165522500D01*
X240700000Y-165247500D01*
X240700662Y-165234023D01*
X240702642Y-165220675D01*
X240705921Y-165207586D01*
X240710467Y-165194881D01*
X240716236Y-165182683D01*
X240723173Y-165171109D01*
X240731211Y-165160271D01*
X240740273Y-165150273D01*
X240750271Y-165141211D01*
X240761109Y-165133173D01*
X240772683Y-165126236D01*
X240784881Y-165120467D01*
X240797586Y-165115921D01*
X240810675Y-165112642D01*
X240824023Y-165110662D01*
X240837500Y-165110000D01*
X242162500Y-165110000D01*
X242175977Y-165110662D01*
G37*
G36*
X242175977Y-163840662D02*
G01*
X242189325Y-163842642D01*
X242202414Y-163845921D01*
X242215119Y-163850467D01*
X242227317Y-163856236D01*
X242238891Y-163863173D01*
X242249729Y-163871211D01*
X242259727Y-163880273D01*
X242268789Y-163890271D01*
X242276827Y-163901109D01*
X242283764Y-163912683D01*
X242289533Y-163924881D01*
X242294079Y-163937586D01*
X242297358Y-163950675D01*
X242299338Y-163964023D01*
X242300000Y-163977500D01*
X242300000Y-164252500D01*
X242299338Y-164265977D01*
X242297358Y-164279325D01*
X242294079Y-164292414D01*
X242289533Y-164305119D01*
X242283764Y-164317317D01*
X242276827Y-164328891D01*
X242268789Y-164339729D01*
X242259727Y-164349727D01*
X242249729Y-164358789D01*
X242238891Y-164366827D01*
X242227317Y-164373764D01*
X242215119Y-164379533D01*
X242202414Y-164384079D01*
X242189325Y-164387358D01*
X242175977Y-164389338D01*
X242162500Y-164390000D01*
X240837500Y-164390000D01*
X240824023Y-164389338D01*
X240810675Y-164387358D01*
X240797586Y-164384079D01*
X240784881Y-164379533D01*
X240772683Y-164373764D01*
X240761109Y-164366827D01*
X240750271Y-164358789D01*
X240740273Y-164349727D01*
X240731211Y-164339729D01*
X240723173Y-164328891D01*
X240716236Y-164317317D01*
X240710467Y-164305119D01*
X240705921Y-164292414D01*
X240702642Y-164279325D01*
X240700662Y-164265977D01*
X240700000Y-164252500D01*
X240700000Y-163977500D01*
X240700662Y-163964023D01*
X240702642Y-163950675D01*
X240705921Y-163937586D01*
X240710467Y-163924881D01*
X240716236Y-163912683D01*
X240723173Y-163901109D01*
X240731211Y-163890271D01*
X240740273Y-163880273D01*
X240750271Y-163871211D01*
X240761109Y-163863173D01*
X240772683Y-163856236D01*
X240784881Y-163850467D01*
X240797586Y-163845921D01*
X240810675Y-163842642D01*
X240824023Y-163840662D01*
X240837500Y-163840000D01*
X242162500Y-163840000D01*
X242175977Y-163840662D01*
G37*
G36*
X242175977Y-162570662D02*
G01*
X242189325Y-162572642D01*
X242202414Y-162575921D01*
X242215119Y-162580467D01*
X242227317Y-162586236D01*
X242238891Y-162593173D01*
X242249729Y-162601211D01*
X242259727Y-162610273D01*
X242268789Y-162620271D01*
X242276827Y-162631109D01*
X242283764Y-162642683D01*
X242289533Y-162654881D01*
X242294079Y-162667586D01*
X242297358Y-162680675D01*
X242299338Y-162694023D01*
X242300000Y-162707500D01*
X242300000Y-162982500D01*
X242299338Y-162995977D01*
X242297358Y-163009325D01*
X242294079Y-163022414D01*
X242289533Y-163035119D01*
X242283764Y-163047317D01*
X242276827Y-163058891D01*
X242268789Y-163069729D01*
X242259727Y-163079727D01*
X242249729Y-163088789D01*
X242238891Y-163096827D01*
X242227317Y-163103764D01*
X242215119Y-163109533D01*
X242202414Y-163114079D01*
X242189325Y-163117358D01*
X242175977Y-163119338D01*
X242162500Y-163120000D01*
X240837500Y-163120000D01*
X240824023Y-163119338D01*
X240810675Y-163117358D01*
X240797586Y-163114079D01*
X240784881Y-163109533D01*
X240772683Y-163103764D01*
X240761109Y-163096827D01*
X240750271Y-163088789D01*
X240740273Y-163079727D01*
X240731211Y-163069729D01*
X240723173Y-163058891D01*
X240716236Y-163047317D01*
X240710467Y-163035119D01*
X240705921Y-163022414D01*
X240702642Y-163009325D01*
X240700662Y-162995977D01*
X240700000Y-162982500D01*
X240700000Y-162707500D01*
X240700662Y-162694023D01*
X240702642Y-162680675D01*
X240705921Y-162667586D01*
X240710467Y-162654881D01*
X240716236Y-162642683D01*
X240723173Y-162631109D01*
X240731211Y-162620271D01*
X240740273Y-162610273D01*
X240750271Y-162601211D01*
X240761109Y-162593173D01*
X240772683Y-162586236D01*
X240784881Y-162580467D01*
X240797586Y-162575921D01*
X240810675Y-162572642D01*
X240824023Y-162570662D01*
X240837500Y-162570000D01*
X242162500Y-162570000D01*
X242175977Y-162570662D01*
G37*
G36*
X242175977Y-161300662D02*
G01*
X242189325Y-161302642D01*
X242202414Y-161305921D01*
X242215119Y-161310467D01*
X242227317Y-161316236D01*
X242238891Y-161323173D01*
X242249729Y-161331211D01*
X242259727Y-161340273D01*
X242268789Y-161350271D01*
X242276827Y-161361109D01*
X242283764Y-161372683D01*
X242289533Y-161384881D01*
X242294079Y-161397586D01*
X242297358Y-161410675D01*
X242299338Y-161424023D01*
X242300000Y-161437500D01*
X242300000Y-161712500D01*
X242299338Y-161725977D01*
X242297358Y-161739325D01*
X242294079Y-161752414D01*
X242289533Y-161765119D01*
X242283764Y-161777317D01*
X242276827Y-161788891D01*
X242268789Y-161799729D01*
X242259727Y-161809727D01*
X242249729Y-161818789D01*
X242238891Y-161826827D01*
X242227317Y-161833764D01*
X242215119Y-161839533D01*
X242202414Y-161844079D01*
X242189325Y-161847358D01*
X242175977Y-161849338D01*
X242162500Y-161850000D01*
X240837500Y-161850000D01*
X240824023Y-161849338D01*
X240810675Y-161847358D01*
X240797586Y-161844079D01*
X240784881Y-161839533D01*
X240772683Y-161833764D01*
X240761109Y-161826827D01*
X240750271Y-161818789D01*
X240740273Y-161809727D01*
X240731211Y-161799729D01*
X240723173Y-161788891D01*
X240716236Y-161777317D01*
X240710467Y-161765119D01*
X240705921Y-161752414D01*
X240702642Y-161739325D01*
X240700662Y-161725977D01*
X240700000Y-161712500D01*
X240700000Y-161437500D01*
X240700662Y-161424023D01*
X240702642Y-161410675D01*
X240705921Y-161397586D01*
X240710467Y-161384881D01*
X240716236Y-161372683D01*
X240723173Y-161361109D01*
X240731211Y-161350271D01*
X240740273Y-161340273D01*
X240750271Y-161331211D01*
X240761109Y-161323173D01*
X240772683Y-161316236D01*
X240784881Y-161310467D01*
X240797586Y-161305921D01*
X240810675Y-161302642D01*
X240824023Y-161300662D01*
X240837500Y-161300000D01*
X242162500Y-161300000D01*
X242175977Y-161300662D01*
G37*
G36*
X242175977Y-160030662D02*
G01*
X242189325Y-160032642D01*
X242202414Y-160035921D01*
X242215119Y-160040467D01*
X242227317Y-160046236D01*
X242238891Y-160053173D01*
X242249729Y-160061211D01*
X242259727Y-160070273D01*
X242268789Y-160080271D01*
X242276827Y-160091109D01*
X242283764Y-160102683D01*
X242289533Y-160114881D01*
X242294079Y-160127586D01*
X242297358Y-160140675D01*
X242299338Y-160154023D01*
X242300000Y-160167500D01*
X242300000Y-160442500D01*
X242299338Y-160455977D01*
X242297358Y-160469325D01*
X242294079Y-160482414D01*
X242289533Y-160495119D01*
X242283764Y-160507317D01*
X242276827Y-160518891D01*
X242268789Y-160529729D01*
X242259727Y-160539727D01*
X242249729Y-160548789D01*
X242238891Y-160556827D01*
X242227317Y-160563764D01*
X242215119Y-160569533D01*
X242202414Y-160574079D01*
X242189325Y-160577358D01*
X242175977Y-160579338D01*
X242162500Y-160580000D01*
X240837500Y-160580000D01*
X240824023Y-160579338D01*
X240810675Y-160577358D01*
X240797586Y-160574079D01*
X240784881Y-160569533D01*
X240772683Y-160563764D01*
X240761109Y-160556827D01*
X240750271Y-160548789D01*
X240740273Y-160539727D01*
X240731211Y-160529729D01*
X240723173Y-160518891D01*
X240716236Y-160507317D01*
X240710467Y-160495119D01*
X240705921Y-160482414D01*
X240702642Y-160469325D01*
X240700662Y-160455977D01*
X240700000Y-160442500D01*
X240700000Y-160167500D01*
X240700662Y-160154023D01*
X240702642Y-160140675D01*
X240705921Y-160127586D01*
X240710467Y-160114881D01*
X240716236Y-160102683D01*
X240723173Y-160091109D01*
X240731211Y-160080271D01*
X240740273Y-160070273D01*
X240750271Y-160061211D01*
X240761109Y-160053173D01*
X240772683Y-160046236D01*
X240784881Y-160040467D01*
X240797586Y-160035921D01*
X240810675Y-160032642D01*
X240824023Y-160030662D01*
X240837500Y-160030000D01*
X242162500Y-160030000D01*
X242175977Y-160030662D01*
G37*
G36*
X231360779Y-166026144D02*
G01*
X231383834Y-166029563D01*
X231406443Y-166035227D01*
X231428387Y-166043079D01*
X231449457Y-166053044D01*
X231469448Y-166065026D01*
X231488168Y-166078910D01*
X231505438Y-166094562D01*
X231521090Y-166111832D01*
X231534974Y-166130552D01*
X231546956Y-166150543D01*
X231556921Y-166171613D01*
X231564773Y-166193557D01*
X231570437Y-166216166D01*
X231573856Y-166239221D01*
X231575000Y-166262500D01*
X231575000Y-166737500D01*
X231573856Y-166760779D01*
X231570437Y-166783834D01*
X231564773Y-166806443D01*
X231556921Y-166828387D01*
X231546956Y-166849457D01*
X231534974Y-166869448D01*
X231521090Y-166888168D01*
X231505438Y-166905438D01*
X231488168Y-166921090D01*
X231469448Y-166934974D01*
X231449457Y-166946956D01*
X231428387Y-166956921D01*
X231406443Y-166964773D01*
X231383834Y-166970437D01*
X231360779Y-166973856D01*
X231337500Y-166975000D01*
X230837500Y-166975000D01*
X230814221Y-166973856D01*
X230791166Y-166970437D01*
X230768557Y-166964773D01*
X230746613Y-166956921D01*
X230725543Y-166946956D01*
X230705552Y-166934974D01*
X230686832Y-166921090D01*
X230669562Y-166905438D01*
X230653910Y-166888168D01*
X230640026Y-166869448D01*
X230628044Y-166849457D01*
X230618079Y-166828387D01*
X230610227Y-166806443D01*
X230604563Y-166783834D01*
X230601144Y-166760779D01*
X230600000Y-166737500D01*
X230600000Y-166262500D01*
X230601144Y-166239221D01*
X230604563Y-166216166D01*
X230610227Y-166193557D01*
X230618079Y-166171613D01*
X230628044Y-166150543D01*
X230640026Y-166130552D01*
X230653910Y-166111832D01*
X230669562Y-166094562D01*
X230686832Y-166078910D01*
X230705552Y-166065026D01*
X230725543Y-166053044D01*
X230746613Y-166043079D01*
X230768557Y-166035227D01*
X230791166Y-166029563D01*
X230814221Y-166026144D01*
X230837500Y-166025000D01*
X231337500Y-166025000D01*
X231360779Y-166026144D01*
G37*
G36*
X233185779Y-166026144D02*
G01*
X233208834Y-166029563D01*
X233231443Y-166035227D01*
X233253387Y-166043079D01*
X233274457Y-166053044D01*
X233294448Y-166065026D01*
X233313168Y-166078910D01*
X233330438Y-166094562D01*
X233346090Y-166111832D01*
X233359974Y-166130552D01*
X233371956Y-166150543D01*
X233381921Y-166171613D01*
X233389773Y-166193557D01*
X233395437Y-166216166D01*
X233398856Y-166239221D01*
X233400000Y-166262500D01*
X233400000Y-166737500D01*
X233398856Y-166760779D01*
X233395437Y-166783834D01*
X233389773Y-166806443D01*
X233381921Y-166828387D01*
X233371956Y-166849457D01*
X233359974Y-166869448D01*
X233346090Y-166888168D01*
X233330438Y-166905438D01*
X233313168Y-166921090D01*
X233294448Y-166934974D01*
X233274457Y-166946956D01*
X233253387Y-166956921D01*
X233231443Y-166964773D01*
X233208834Y-166970437D01*
X233185779Y-166973856D01*
X233162500Y-166975000D01*
X232662500Y-166975000D01*
X232639221Y-166973856D01*
X232616166Y-166970437D01*
X232593557Y-166964773D01*
X232571613Y-166956921D01*
X232550543Y-166946956D01*
X232530552Y-166934974D01*
X232511832Y-166921090D01*
X232494562Y-166905438D01*
X232478910Y-166888168D01*
X232465026Y-166869448D01*
X232453044Y-166849457D01*
X232443079Y-166828387D01*
X232435227Y-166806443D01*
X232429563Y-166783834D01*
X232426144Y-166760779D01*
X232425000Y-166737500D01*
X232425000Y-166262500D01*
X232426144Y-166239221D01*
X232429563Y-166216166D01*
X232435227Y-166193557D01*
X232443079Y-166171613D01*
X232453044Y-166150543D01*
X232465026Y-166130552D01*
X232478910Y-166111832D01*
X232494562Y-166094562D01*
X232511832Y-166078910D01*
X232530552Y-166065026D01*
X232550543Y-166053044D01*
X232571613Y-166043079D01*
X232593557Y-166035227D01*
X232616166Y-166029563D01*
X232639221Y-166026144D01*
X232662500Y-166025000D01*
X233162500Y-166025000D01*
X233185779Y-166026144D01*
G37*
G36*
X243610779Y-170026144D02*
G01*
X243633834Y-170029563D01*
X243656443Y-170035227D01*
X243678387Y-170043079D01*
X243699457Y-170053044D01*
X243719448Y-170065026D01*
X243738168Y-170078910D01*
X243755438Y-170094562D01*
X243771090Y-170111832D01*
X243784974Y-170130552D01*
X243796956Y-170150543D01*
X243806921Y-170171613D01*
X243814773Y-170193557D01*
X243820437Y-170216166D01*
X243823856Y-170239221D01*
X243825000Y-170262500D01*
X243825000Y-170737500D01*
X243823856Y-170760779D01*
X243820437Y-170783834D01*
X243814773Y-170806443D01*
X243806921Y-170828387D01*
X243796956Y-170849457D01*
X243784974Y-170869448D01*
X243771090Y-170888168D01*
X243755438Y-170905438D01*
X243738168Y-170921090D01*
X243719448Y-170934974D01*
X243699457Y-170946956D01*
X243678387Y-170956921D01*
X243656443Y-170964773D01*
X243633834Y-170970437D01*
X243610779Y-170973856D01*
X243587500Y-170975000D01*
X243087500Y-170975000D01*
X243064221Y-170973856D01*
X243041166Y-170970437D01*
X243018557Y-170964773D01*
X242996613Y-170956921D01*
X242975543Y-170946956D01*
X242955552Y-170934974D01*
X242936832Y-170921090D01*
X242919562Y-170905438D01*
X242903910Y-170888168D01*
X242890026Y-170869448D01*
X242878044Y-170849457D01*
X242868079Y-170828387D01*
X242860227Y-170806443D01*
X242854563Y-170783834D01*
X242851144Y-170760779D01*
X242850000Y-170737500D01*
X242850000Y-170262500D01*
X242851144Y-170239221D01*
X242854563Y-170216166D01*
X242860227Y-170193557D01*
X242868079Y-170171613D01*
X242878044Y-170150543D01*
X242890026Y-170130552D01*
X242903910Y-170111832D01*
X242919562Y-170094562D01*
X242936832Y-170078910D01*
X242955552Y-170065026D01*
X242975543Y-170053044D01*
X242996613Y-170043079D01*
X243018557Y-170035227D01*
X243041166Y-170029563D01*
X243064221Y-170026144D01*
X243087500Y-170025000D01*
X243587500Y-170025000D01*
X243610779Y-170026144D01*
G37*
G36*
X245435779Y-170026144D02*
G01*
X245458834Y-170029563D01*
X245481443Y-170035227D01*
X245503387Y-170043079D01*
X245524457Y-170053044D01*
X245544448Y-170065026D01*
X245563168Y-170078910D01*
X245580438Y-170094562D01*
X245596090Y-170111832D01*
X245609974Y-170130552D01*
X245621956Y-170150543D01*
X245631921Y-170171613D01*
X245639773Y-170193557D01*
X245645437Y-170216166D01*
X245648856Y-170239221D01*
X245650000Y-170262500D01*
X245650000Y-170737500D01*
X245648856Y-170760779D01*
X245645437Y-170783834D01*
X245639773Y-170806443D01*
X245631921Y-170828387D01*
X245621956Y-170849457D01*
X245609974Y-170869448D01*
X245596090Y-170888168D01*
X245580438Y-170905438D01*
X245563168Y-170921090D01*
X245544448Y-170934974D01*
X245524457Y-170946956D01*
X245503387Y-170956921D01*
X245481443Y-170964773D01*
X245458834Y-170970437D01*
X245435779Y-170973856D01*
X245412500Y-170975000D01*
X244912500Y-170975000D01*
X244889221Y-170973856D01*
X244866166Y-170970437D01*
X244843557Y-170964773D01*
X244821613Y-170956921D01*
X244800543Y-170946956D01*
X244780552Y-170934974D01*
X244761832Y-170921090D01*
X244744562Y-170905438D01*
X244728910Y-170888168D01*
X244715026Y-170869448D01*
X244703044Y-170849457D01*
X244693079Y-170828387D01*
X244685227Y-170806443D01*
X244679563Y-170783834D01*
X244676144Y-170760779D01*
X244675000Y-170737500D01*
X244675000Y-170262500D01*
X244676144Y-170239221D01*
X244679563Y-170216166D01*
X244685227Y-170193557D01*
X244693079Y-170171613D01*
X244703044Y-170150543D01*
X244715026Y-170130552D01*
X244728910Y-170111832D01*
X244744562Y-170094562D01*
X244761832Y-170078910D01*
X244780552Y-170065026D01*
X244800543Y-170053044D01*
X244821613Y-170043079D01*
X244843557Y-170035227D01*
X244866166Y-170029563D01*
X244889221Y-170026144D01*
X244912500Y-170025000D01*
X245412500Y-170025000D01*
X245435779Y-170026144D01*
G37*
D17*
X221050000Y-166350000D03*
X222950000Y-166350000D03*
X222950000Y-164150000D03*
X222000000Y-164150000D03*
X221050000Y-164150000D03*
D13*
X212370000Y-165660000D03*
X214910000Y-165660000D03*
D14*
X217450000Y-165660000D03*
D15*
G36*
X243760779Y-166601144D02*
G01*
X243783834Y-166604563D01*
X243806443Y-166610227D01*
X243828387Y-166618079D01*
X243849457Y-166628044D01*
X243869448Y-166640026D01*
X243888168Y-166653910D01*
X243905438Y-166669562D01*
X243921090Y-166686832D01*
X243934974Y-166705552D01*
X243946956Y-166725543D01*
X243956921Y-166746613D01*
X243964773Y-166768557D01*
X243970437Y-166791166D01*
X243973856Y-166814221D01*
X243975000Y-166837500D01*
X243975000Y-167337500D01*
X243973856Y-167360779D01*
X243970437Y-167383834D01*
X243964773Y-167406443D01*
X243956921Y-167428387D01*
X243946956Y-167449457D01*
X243934974Y-167469448D01*
X243921090Y-167488168D01*
X243905438Y-167505438D01*
X243888168Y-167521090D01*
X243869448Y-167534974D01*
X243849457Y-167546956D01*
X243828387Y-167556921D01*
X243806443Y-167564773D01*
X243783834Y-167570437D01*
X243760779Y-167573856D01*
X243737500Y-167575000D01*
X243262500Y-167575000D01*
X243239221Y-167573856D01*
X243216166Y-167570437D01*
X243193557Y-167564773D01*
X243171613Y-167556921D01*
X243150543Y-167546956D01*
X243130552Y-167534974D01*
X243111832Y-167521090D01*
X243094562Y-167505438D01*
X243078910Y-167488168D01*
X243065026Y-167469448D01*
X243053044Y-167449457D01*
X243043079Y-167428387D01*
X243035227Y-167406443D01*
X243029563Y-167383834D01*
X243026144Y-167360779D01*
X243025000Y-167337500D01*
X243025000Y-166837500D01*
X243026144Y-166814221D01*
X243029563Y-166791166D01*
X243035227Y-166768557D01*
X243043079Y-166746613D01*
X243053044Y-166725543D01*
X243065026Y-166705552D01*
X243078910Y-166686832D01*
X243094562Y-166669562D01*
X243111832Y-166653910D01*
X243130552Y-166640026D01*
X243150543Y-166628044D01*
X243171613Y-166618079D01*
X243193557Y-166610227D01*
X243216166Y-166604563D01*
X243239221Y-166601144D01*
X243262500Y-166600000D01*
X243737500Y-166600000D01*
X243760779Y-166601144D01*
G37*
G36*
X243760779Y-168426144D02*
G01*
X243783834Y-168429563D01*
X243806443Y-168435227D01*
X243828387Y-168443079D01*
X243849457Y-168453044D01*
X243869448Y-168465026D01*
X243888168Y-168478910D01*
X243905438Y-168494562D01*
X243921090Y-168511832D01*
X243934974Y-168530552D01*
X243946956Y-168550543D01*
X243956921Y-168571613D01*
X243964773Y-168593557D01*
X243970437Y-168616166D01*
X243973856Y-168639221D01*
X243975000Y-168662500D01*
X243975000Y-169162500D01*
X243973856Y-169185779D01*
X243970437Y-169208834D01*
X243964773Y-169231443D01*
X243956921Y-169253387D01*
X243946956Y-169274457D01*
X243934974Y-169294448D01*
X243921090Y-169313168D01*
X243905438Y-169330438D01*
X243888168Y-169346090D01*
X243869448Y-169359974D01*
X243849457Y-169371956D01*
X243828387Y-169381921D01*
X243806443Y-169389773D01*
X243783834Y-169395437D01*
X243760779Y-169398856D01*
X243737500Y-169400000D01*
X243262500Y-169400000D01*
X243239221Y-169398856D01*
X243216166Y-169395437D01*
X243193557Y-169389773D01*
X243171613Y-169381921D01*
X243150543Y-169371956D01*
X243130552Y-169359974D01*
X243111832Y-169346090D01*
X243094562Y-169330438D01*
X243078910Y-169313168D01*
X243065026Y-169294448D01*
X243053044Y-169274457D01*
X243043079Y-169253387D01*
X243035227Y-169231443D01*
X243029563Y-169208834D01*
X243026144Y-169185779D01*
X243025000Y-169162500D01*
X243025000Y-168662500D01*
X243026144Y-168639221D01*
X243029563Y-168616166D01*
X243035227Y-168593557D01*
X243043079Y-168571613D01*
X243053044Y-168550543D01*
X243065026Y-168530552D01*
X243078910Y-168511832D01*
X243094562Y-168494562D01*
X243111832Y-168478910D01*
X243130552Y-168465026D01*
X243150543Y-168453044D01*
X243171613Y-168443079D01*
X243193557Y-168435227D01*
X243216166Y-168429563D01*
X243239221Y-168426144D01*
X243262500Y-168425000D01*
X243737500Y-168425000D01*
X243760779Y-168426144D01*
G37*
G36*
X245360779Y-159526144D02*
G01*
X245383834Y-159529563D01*
X245406443Y-159535227D01*
X245428387Y-159543079D01*
X245449457Y-159553044D01*
X245469448Y-159565026D01*
X245488168Y-159578910D01*
X245505438Y-159594562D01*
X245521090Y-159611832D01*
X245534974Y-159630552D01*
X245546956Y-159650543D01*
X245556921Y-159671613D01*
X245564773Y-159693557D01*
X245570437Y-159716166D01*
X245573856Y-159739221D01*
X245575000Y-159762500D01*
X245575000Y-160237500D01*
X245573856Y-160260779D01*
X245570437Y-160283834D01*
X245564773Y-160306443D01*
X245556921Y-160328387D01*
X245546956Y-160349457D01*
X245534974Y-160369448D01*
X245521090Y-160388168D01*
X245505438Y-160405438D01*
X245488168Y-160421090D01*
X245469448Y-160434974D01*
X245449457Y-160446956D01*
X245428387Y-160456921D01*
X245406443Y-160464773D01*
X245383834Y-160470437D01*
X245360779Y-160473856D01*
X245337500Y-160475000D01*
X244837500Y-160475000D01*
X244814221Y-160473856D01*
X244791166Y-160470437D01*
X244768557Y-160464773D01*
X244746613Y-160456921D01*
X244725543Y-160446956D01*
X244705552Y-160434974D01*
X244686832Y-160421090D01*
X244669562Y-160405438D01*
X244653910Y-160388168D01*
X244640026Y-160369448D01*
X244628044Y-160349457D01*
X244618079Y-160328387D01*
X244610227Y-160306443D01*
X244604563Y-160283834D01*
X244601144Y-160260779D01*
X244600000Y-160237500D01*
X244600000Y-159762500D01*
X244601144Y-159739221D01*
X244604563Y-159716166D01*
X244610227Y-159693557D01*
X244618079Y-159671613D01*
X244628044Y-159650543D01*
X244640026Y-159630552D01*
X244653910Y-159611832D01*
X244669562Y-159594562D01*
X244686832Y-159578910D01*
X244705552Y-159565026D01*
X244725543Y-159553044D01*
X244746613Y-159543079D01*
X244768557Y-159535227D01*
X244791166Y-159529563D01*
X244814221Y-159526144D01*
X244837500Y-159525000D01*
X245337500Y-159525000D01*
X245360779Y-159526144D01*
G37*
G36*
X247185779Y-159526144D02*
G01*
X247208834Y-159529563D01*
X247231443Y-159535227D01*
X247253387Y-159543079D01*
X247274457Y-159553044D01*
X247294448Y-159565026D01*
X247313168Y-159578910D01*
X247330438Y-159594562D01*
X247346090Y-159611832D01*
X247359974Y-159630552D01*
X247371956Y-159650543D01*
X247381921Y-159671613D01*
X247389773Y-159693557D01*
X247395437Y-159716166D01*
X247398856Y-159739221D01*
X247400000Y-159762500D01*
X247400000Y-160237500D01*
X247398856Y-160260779D01*
X247395437Y-160283834D01*
X247389773Y-160306443D01*
X247381921Y-160328387D01*
X247371956Y-160349457D01*
X247359974Y-160369448D01*
X247346090Y-160388168D01*
X247330438Y-160405438D01*
X247313168Y-160421090D01*
X247294448Y-160434974D01*
X247274457Y-160446956D01*
X247253387Y-160456921D01*
X247231443Y-160464773D01*
X247208834Y-160470437D01*
X247185779Y-160473856D01*
X247162500Y-160475000D01*
X246662500Y-160475000D01*
X246639221Y-160473856D01*
X246616166Y-160470437D01*
X246593557Y-160464773D01*
X246571613Y-160456921D01*
X246550543Y-160446956D01*
X246530552Y-160434974D01*
X246511832Y-160421090D01*
X246494562Y-160405438D01*
X246478910Y-160388168D01*
X246465026Y-160369448D01*
X246453044Y-160349457D01*
X246443079Y-160328387D01*
X246435227Y-160306443D01*
X246429563Y-160283834D01*
X246426144Y-160260779D01*
X246425000Y-160237500D01*
X246425000Y-159762500D01*
X246426144Y-159739221D01*
X246429563Y-159716166D01*
X246435227Y-159693557D01*
X246443079Y-159671613D01*
X246453044Y-159650543D01*
X246465026Y-159630552D01*
X246478910Y-159611832D01*
X246494562Y-159594562D01*
X246511832Y-159578910D01*
X246530552Y-159565026D01*
X246550543Y-159553044D01*
X246571613Y-159543079D01*
X246593557Y-159535227D01*
X246616166Y-159529563D01*
X246639221Y-159526144D01*
X246662500Y-159525000D01*
X247162500Y-159525000D01*
X247185779Y-159526144D01*
G37*
D13*
X257960000Y-170000000D03*
D14*
X260500000Y-170000000D03*
D18*
X259500000Y-162000000D03*
D19*
X259500000Y-165500000D03*
D15*
G36*
X256974504Y-166576204D02*
G01*
X256998773Y-166579804D01*
X257022571Y-166585765D01*
X257045671Y-166594030D01*
X257067849Y-166604520D01*
X257088893Y-166617133D01*
X257108598Y-166631747D01*
X257126777Y-166648223D01*
X257143253Y-166666402D01*
X257157867Y-166686107D01*
X257170480Y-166707151D01*
X257180970Y-166729329D01*
X257189235Y-166752429D01*
X257195196Y-166776227D01*
X257198796Y-166800496D01*
X257200000Y-166825000D01*
X257200000Y-167625000D01*
X257198796Y-167649504D01*
X257195196Y-167673773D01*
X257189235Y-167697571D01*
X257180970Y-167720671D01*
X257170480Y-167742849D01*
X257157867Y-167763893D01*
X257143253Y-167783598D01*
X257126777Y-167801777D01*
X257108598Y-167818253D01*
X257088893Y-167832867D01*
X257067849Y-167845480D01*
X257045671Y-167855970D01*
X257022571Y-167864235D01*
X256998773Y-167870196D01*
X256974504Y-167873796D01*
X256950000Y-167875000D01*
X254050000Y-167875000D01*
X254025496Y-167873796D01*
X254001227Y-167870196D01*
X253977429Y-167864235D01*
X253954329Y-167855970D01*
X253932151Y-167845480D01*
X253911107Y-167832867D01*
X253891402Y-167818253D01*
X253873223Y-167801777D01*
X253856747Y-167783598D01*
X253842133Y-167763893D01*
X253829520Y-167742849D01*
X253819030Y-167720671D01*
X253810765Y-167697571D01*
X253804804Y-167673773D01*
X253801204Y-167649504D01*
X253800000Y-167625000D01*
X253800000Y-166825000D01*
X253801204Y-166800496D01*
X253804804Y-166776227D01*
X253810765Y-166752429D01*
X253819030Y-166729329D01*
X253829520Y-166707151D01*
X253842133Y-166686107D01*
X253856747Y-166666402D01*
X253873223Y-166648223D01*
X253891402Y-166631747D01*
X253911107Y-166617133D01*
X253932151Y-166604520D01*
X253954329Y-166594030D01*
X253977429Y-166585765D01*
X254001227Y-166579804D01*
X254025496Y-166576204D01*
X254050000Y-166575000D01*
X256950000Y-166575000D01*
X256974504Y-166576204D01*
G37*
G36*
X256974504Y-162126204D02*
G01*
X256998773Y-162129804D01*
X257022571Y-162135765D01*
X257045671Y-162144030D01*
X257067849Y-162154520D01*
X257088893Y-162167133D01*
X257108598Y-162181747D01*
X257126777Y-162198223D01*
X257143253Y-162216402D01*
X257157867Y-162236107D01*
X257170480Y-162257151D01*
X257180970Y-162279329D01*
X257189235Y-162302429D01*
X257195196Y-162326227D01*
X257198796Y-162350496D01*
X257200000Y-162375000D01*
X257200000Y-163175000D01*
X257198796Y-163199504D01*
X257195196Y-163223773D01*
X257189235Y-163247571D01*
X257180970Y-163270671D01*
X257170480Y-163292849D01*
X257157867Y-163313893D01*
X257143253Y-163333598D01*
X257126777Y-163351777D01*
X257108598Y-163368253D01*
X257088893Y-163382867D01*
X257067849Y-163395480D01*
X257045671Y-163405970D01*
X257022571Y-163414235D01*
X256998773Y-163420196D01*
X256974504Y-163423796D01*
X256950000Y-163425000D01*
X254050000Y-163425000D01*
X254025496Y-163423796D01*
X254001227Y-163420196D01*
X253977429Y-163414235D01*
X253954329Y-163405970D01*
X253932151Y-163395480D01*
X253911107Y-163382867D01*
X253891402Y-163368253D01*
X253873223Y-163351777D01*
X253856747Y-163333598D01*
X253842133Y-163313893D01*
X253829520Y-163292849D01*
X253819030Y-163270671D01*
X253810765Y-163247571D01*
X253804804Y-163223773D01*
X253801204Y-163199504D01*
X253800000Y-163175000D01*
X253800000Y-162375000D01*
X253801204Y-162350496D01*
X253804804Y-162326227D01*
X253810765Y-162302429D01*
X253819030Y-162279329D01*
X253829520Y-162257151D01*
X253842133Y-162236107D01*
X253856747Y-162216402D01*
X253873223Y-162198223D01*
X253891402Y-162181747D01*
X253911107Y-162167133D01*
X253932151Y-162154520D01*
X253954329Y-162144030D01*
X253977429Y-162135765D01*
X254001227Y-162129804D01*
X254025496Y-162126204D01*
X254050000Y-162125000D01*
X256950000Y-162125000D01*
X256974504Y-162126204D01*
G37*
G36*
X222185779Y-153026144D02*
G01*
X222208834Y-153029563D01*
X222231443Y-153035227D01*
X222253387Y-153043079D01*
X222274457Y-153053044D01*
X222294448Y-153065026D01*
X222313168Y-153078910D01*
X222330438Y-153094562D01*
X222346090Y-153111832D01*
X222359974Y-153130552D01*
X222371956Y-153150543D01*
X222381921Y-153171613D01*
X222389773Y-153193557D01*
X222395437Y-153216166D01*
X222398856Y-153239221D01*
X222400000Y-153262500D01*
X222400000Y-153737500D01*
X222398856Y-153760779D01*
X222395437Y-153783834D01*
X222389773Y-153806443D01*
X222381921Y-153828387D01*
X222371956Y-153849457D01*
X222359974Y-153869448D01*
X222346090Y-153888168D01*
X222330438Y-153905438D01*
X222313168Y-153921090D01*
X222294448Y-153934974D01*
X222274457Y-153946956D01*
X222253387Y-153956921D01*
X222231443Y-153964773D01*
X222208834Y-153970437D01*
X222185779Y-153973856D01*
X222162500Y-153975000D01*
X221562500Y-153975000D01*
X221539221Y-153973856D01*
X221516166Y-153970437D01*
X221493557Y-153964773D01*
X221471613Y-153956921D01*
X221450543Y-153946956D01*
X221430552Y-153934974D01*
X221411832Y-153921090D01*
X221394562Y-153905438D01*
X221378910Y-153888168D01*
X221365026Y-153869448D01*
X221353044Y-153849457D01*
X221343079Y-153828387D01*
X221335227Y-153806443D01*
X221329563Y-153783834D01*
X221326144Y-153760779D01*
X221325000Y-153737500D01*
X221325000Y-153262500D01*
X221326144Y-153239221D01*
X221329563Y-153216166D01*
X221335227Y-153193557D01*
X221343079Y-153171613D01*
X221353044Y-153150543D01*
X221365026Y-153130552D01*
X221378910Y-153111832D01*
X221394562Y-153094562D01*
X221411832Y-153078910D01*
X221430552Y-153065026D01*
X221450543Y-153053044D01*
X221471613Y-153043079D01*
X221493557Y-153035227D01*
X221516166Y-153029563D01*
X221539221Y-153026144D01*
X221562500Y-153025000D01*
X222162500Y-153025000D01*
X222185779Y-153026144D01*
G37*
G36*
X220460779Y-153026144D02*
G01*
X220483834Y-153029563D01*
X220506443Y-153035227D01*
X220528387Y-153043079D01*
X220549457Y-153053044D01*
X220569448Y-153065026D01*
X220588168Y-153078910D01*
X220605438Y-153094562D01*
X220621090Y-153111832D01*
X220634974Y-153130552D01*
X220646956Y-153150543D01*
X220656921Y-153171613D01*
X220664773Y-153193557D01*
X220670437Y-153216166D01*
X220673856Y-153239221D01*
X220675000Y-153262500D01*
X220675000Y-153737500D01*
X220673856Y-153760779D01*
X220670437Y-153783834D01*
X220664773Y-153806443D01*
X220656921Y-153828387D01*
X220646956Y-153849457D01*
X220634974Y-153869448D01*
X220621090Y-153888168D01*
X220605438Y-153905438D01*
X220588168Y-153921090D01*
X220569448Y-153934974D01*
X220549457Y-153946956D01*
X220528387Y-153956921D01*
X220506443Y-153964773D01*
X220483834Y-153970437D01*
X220460779Y-153973856D01*
X220437500Y-153975000D01*
X219837500Y-153975000D01*
X219814221Y-153973856D01*
X219791166Y-153970437D01*
X219768557Y-153964773D01*
X219746613Y-153956921D01*
X219725543Y-153946956D01*
X219705552Y-153934974D01*
X219686832Y-153921090D01*
X219669562Y-153905438D01*
X219653910Y-153888168D01*
X219640026Y-153869448D01*
X219628044Y-153849457D01*
X219618079Y-153828387D01*
X219610227Y-153806443D01*
X219604563Y-153783834D01*
X219601144Y-153760779D01*
X219600000Y-153737500D01*
X219600000Y-153262500D01*
X219601144Y-153239221D01*
X219604563Y-153216166D01*
X219610227Y-153193557D01*
X219618079Y-153171613D01*
X219628044Y-153150543D01*
X219640026Y-153130552D01*
X219653910Y-153111832D01*
X219669562Y-153094562D01*
X219686832Y-153078910D01*
X219705552Y-153065026D01*
X219725543Y-153053044D01*
X219746613Y-153043079D01*
X219768557Y-153035227D01*
X219791166Y-153029563D01*
X219814221Y-153026144D01*
X219837500Y-153025000D01*
X220437500Y-153025000D01*
X220460779Y-153026144D01*
G37*
G36*
X222185779Y-151526144D02*
G01*
X222208834Y-151529563D01*
X222231443Y-151535227D01*
X222253387Y-151543079D01*
X222274457Y-151553044D01*
X222294448Y-151565026D01*
X222313168Y-151578910D01*
X222330438Y-151594562D01*
X222346090Y-151611832D01*
X222359974Y-151630552D01*
X222371956Y-151650543D01*
X222381921Y-151671613D01*
X222389773Y-151693557D01*
X222395437Y-151716166D01*
X222398856Y-151739221D01*
X222400000Y-151762500D01*
X222400000Y-152237500D01*
X222398856Y-152260779D01*
X222395437Y-152283834D01*
X222389773Y-152306443D01*
X222381921Y-152328387D01*
X222371956Y-152349457D01*
X222359974Y-152369448D01*
X222346090Y-152388168D01*
X222330438Y-152405438D01*
X222313168Y-152421090D01*
X222294448Y-152434974D01*
X222274457Y-152446956D01*
X222253387Y-152456921D01*
X222231443Y-152464773D01*
X222208834Y-152470437D01*
X222185779Y-152473856D01*
X222162500Y-152475000D01*
X221662500Y-152475000D01*
X221639221Y-152473856D01*
X221616166Y-152470437D01*
X221593557Y-152464773D01*
X221571613Y-152456921D01*
X221550543Y-152446956D01*
X221530552Y-152434974D01*
X221511832Y-152421090D01*
X221494562Y-152405438D01*
X221478910Y-152388168D01*
X221465026Y-152369448D01*
X221453044Y-152349457D01*
X221443079Y-152328387D01*
X221435227Y-152306443D01*
X221429563Y-152283834D01*
X221426144Y-152260779D01*
X221425000Y-152237500D01*
X221425000Y-151762500D01*
X221426144Y-151739221D01*
X221429563Y-151716166D01*
X221435227Y-151693557D01*
X221443079Y-151671613D01*
X221453044Y-151650543D01*
X221465026Y-151630552D01*
X221478910Y-151611832D01*
X221494562Y-151594562D01*
X221511832Y-151578910D01*
X221530552Y-151565026D01*
X221550543Y-151553044D01*
X221571613Y-151543079D01*
X221593557Y-151535227D01*
X221616166Y-151529563D01*
X221639221Y-151526144D01*
X221662500Y-151525000D01*
X222162500Y-151525000D01*
X222185779Y-151526144D01*
G37*
G36*
X220360779Y-151526144D02*
G01*
X220383834Y-151529563D01*
X220406443Y-151535227D01*
X220428387Y-151543079D01*
X220449457Y-151553044D01*
X220469448Y-151565026D01*
X220488168Y-151578910D01*
X220505438Y-151594562D01*
X220521090Y-151611832D01*
X220534974Y-151630552D01*
X220546956Y-151650543D01*
X220556921Y-151671613D01*
X220564773Y-151693557D01*
X220570437Y-151716166D01*
X220573856Y-151739221D01*
X220575000Y-151762500D01*
X220575000Y-152237500D01*
X220573856Y-152260779D01*
X220570437Y-152283834D01*
X220564773Y-152306443D01*
X220556921Y-152328387D01*
X220546956Y-152349457D01*
X220534974Y-152369448D01*
X220521090Y-152388168D01*
X220505438Y-152405438D01*
X220488168Y-152421090D01*
X220469448Y-152434974D01*
X220449457Y-152446956D01*
X220428387Y-152456921D01*
X220406443Y-152464773D01*
X220383834Y-152470437D01*
X220360779Y-152473856D01*
X220337500Y-152475000D01*
X219837500Y-152475000D01*
X219814221Y-152473856D01*
X219791166Y-152470437D01*
X219768557Y-152464773D01*
X219746613Y-152456921D01*
X219725543Y-152446956D01*
X219705552Y-152434974D01*
X219686832Y-152421090D01*
X219669562Y-152405438D01*
X219653910Y-152388168D01*
X219640026Y-152369448D01*
X219628044Y-152349457D01*
X219618079Y-152328387D01*
X219610227Y-152306443D01*
X219604563Y-152283834D01*
X219601144Y-152260779D01*
X219600000Y-152237500D01*
X219600000Y-151762500D01*
X219601144Y-151739221D01*
X219604563Y-151716166D01*
X219610227Y-151693557D01*
X219618079Y-151671613D01*
X219628044Y-151650543D01*
X219640026Y-151630552D01*
X219653910Y-151611832D01*
X219669562Y-151594562D01*
X219686832Y-151578910D01*
X219705552Y-151565026D01*
X219725543Y-151553044D01*
X219746613Y-151543079D01*
X219768557Y-151535227D01*
X219791166Y-151529563D01*
X219814221Y-151526144D01*
X219837500Y-151525000D01*
X220337500Y-151525000D01*
X220360779Y-151526144D01*
G37*
D14*
X260630000Y-155500000D03*
D13*
X260630000Y-158040000D03*
X258090000Y-155500000D03*
X258090000Y-158040000D03*
X255550000Y-155500000D03*
X255550000Y-158040000D03*
X253010000Y-155500000D03*
X253010000Y-158040000D03*
X250470000Y-155500000D03*
X250470000Y-158040000D03*
X247930000Y-155500000D03*
X247930000Y-158040000D03*
X245390000Y-155500000D03*
X245390000Y-158040000D03*
X242850000Y-155500000D03*
X242850000Y-158040000D03*
X240310000Y-155500000D03*
X240310000Y-158040000D03*
X237770000Y-155500000D03*
X237770000Y-158040000D03*
X235230000Y-155500000D03*
X235230000Y-158040000D03*
X232690000Y-155500000D03*
X232690000Y-158040000D03*
X230150000Y-155500000D03*
X230150000Y-158040000D03*
X227610000Y-155500000D03*
X227610000Y-158040000D03*
X225070000Y-155500000D03*
X225070000Y-158040000D03*
X222530000Y-155500000D03*
X222530000Y-158040000D03*
X219990000Y-155500000D03*
X219990000Y-158040000D03*
X217450000Y-155500000D03*
X217450000Y-158040000D03*
X214910000Y-155500000D03*
X214910000Y-158040000D03*
X212370000Y-155500000D03*
X212370000Y-158040000D03*
M02*
