G04 #@! TF.GenerationSoftware,KiCad,Pcbnew,5.1.5+dfsg1-2build2*
G04 #@! TF.CreationDate,2021-01-26T14:35:44+01:00*
G04 #@! TF.ProjectId,PiStackMon,50695374-6163-46b4-9d6f-6e2e6b696361,rev?*
G04 #@! TF.SameCoordinates,Original*
G04 #@! TF.FileFunction,Soldermask,Top*
G04 #@! TF.FilePolarity,Negative*
%FSLAX46Y46*%
G04 Gerber Fmt 4.6, Leading zero omitted, Abs format (unit mm)*
G04 Created by KiCad (PCBNEW 5.1.5+dfsg1-2build2) date 2021-01-26 14:35:44*
%MOMM*%
%LPD*%
G04 APERTURE LIST*
%ADD10C,2.600000*%
%ADD11R,2.600000X2.600000*%
%ADD12O,1.700000X1.700000*%
%ADD13R,1.700000X1.700000*%
%ADD14C,0.150000*%
%ADD15R,0.930000X0.500000*%
%ADD16C,1.600000*%
%ADD17R,1.600000X1.600000*%
G04 APERTURE END LIST*
D10*
X269750000Y-153920000D03*
D11*
X269750000Y-159000000D03*
D10*
X269750000Y-164500000D03*
D11*
X269750000Y-169580000D03*
D12*
X240310000Y-152960000D03*
D13*
X242850000Y-152960000D03*
D12*
X212370000Y-152960000D03*
X214910000Y-152960000D03*
D13*
X217450000Y-152960000D03*
D14*
G36*
X224709755Y-165025961D02*
G01*
X224719134Y-165028806D01*
X224727779Y-165033427D01*
X224735355Y-165039645D01*
X224741573Y-165047221D01*
X224746194Y-165055866D01*
X224749039Y-165065245D01*
X224750000Y-165075000D01*
X224750000Y-165475000D01*
X224749039Y-165484755D01*
X224746194Y-165494134D01*
X224741573Y-165502779D01*
X224735355Y-165510355D01*
X224727779Y-165516573D01*
X224719134Y-165521194D01*
X224709755Y-165524039D01*
X224700000Y-165525000D01*
X224130000Y-165525000D01*
X224130000Y-165675000D01*
X224700000Y-165675000D01*
X224709755Y-165675961D01*
X224719134Y-165678806D01*
X224727779Y-165683427D01*
X224735355Y-165689645D01*
X224741573Y-165697221D01*
X224746194Y-165705866D01*
X224749039Y-165715245D01*
X224750000Y-165725000D01*
X224750000Y-166125000D01*
X224749039Y-166134755D01*
X224746194Y-166144134D01*
X224741573Y-166152779D01*
X224735355Y-166160355D01*
X224727779Y-166166573D01*
X224719134Y-166171194D01*
X224709755Y-166174039D01*
X224700000Y-166175000D01*
X224130000Y-166175000D01*
X224130000Y-166325000D01*
X224700000Y-166325000D01*
X224709755Y-166325961D01*
X224719134Y-166328806D01*
X224727779Y-166333427D01*
X224735355Y-166339645D01*
X224741573Y-166347221D01*
X224746194Y-166355866D01*
X224749039Y-166365245D01*
X224750000Y-166375000D01*
X224750000Y-166775000D01*
X224749039Y-166784755D01*
X224746194Y-166794134D01*
X224741573Y-166802779D01*
X224735355Y-166810355D01*
X224727779Y-166816573D01*
X224719134Y-166821194D01*
X224709755Y-166824039D01*
X224700000Y-166825000D01*
X224130000Y-166825000D01*
X224130000Y-166975000D01*
X224700000Y-166975000D01*
X224709755Y-166975961D01*
X224719134Y-166978806D01*
X224727779Y-166983427D01*
X224735355Y-166989645D01*
X224741573Y-166997221D01*
X224746194Y-167005866D01*
X224749039Y-167015245D01*
X224750000Y-167025000D01*
X224750000Y-167425000D01*
X224749039Y-167434755D01*
X224746194Y-167444134D01*
X224741573Y-167452779D01*
X224735355Y-167460355D01*
X224727779Y-167466573D01*
X224719134Y-167471194D01*
X224709755Y-167474039D01*
X224700000Y-167475000D01*
X224080000Y-167475000D01*
X224070245Y-167474039D01*
X224060866Y-167471194D01*
X224052221Y-167466573D01*
X224044645Y-167460355D01*
X224038427Y-167452779D01*
X224033806Y-167444134D01*
X224030961Y-167434755D01*
X224030000Y-167425000D01*
X222230000Y-167425000D01*
X222220245Y-167424039D01*
X222210866Y-167421194D01*
X222202221Y-167416573D01*
X222194645Y-167410355D01*
X222188427Y-167402779D01*
X222183806Y-167394134D01*
X222180961Y-167384755D01*
X222180000Y-167375000D01*
X222180000Y-165125000D01*
X222180961Y-165115245D01*
X222183806Y-165105866D01*
X222188427Y-165097221D01*
X222194645Y-165089645D01*
X222202221Y-165083427D01*
X222210866Y-165078806D01*
X222220245Y-165075961D01*
X222230000Y-165075000D01*
X224030000Y-165075000D01*
X224030961Y-165065245D01*
X224033806Y-165055866D01*
X224038427Y-165047221D01*
X224044645Y-165039645D01*
X224052221Y-165033427D01*
X224060866Y-165028806D01*
X224070245Y-165025961D01*
X224080000Y-165025000D01*
X224700000Y-165025000D01*
X224709755Y-165025961D01*
G37*
D15*
X221215000Y-167225000D03*
X221215000Y-166575000D03*
X221215000Y-165275000D03*
X221215000Y-165925000D03*
D12*
X225070000Y-152960000D03*
X227610000Y-152960000D03*
X230150000Y-152960000D03*
X232690000Y-152960000D03*
X235230000Y-152960000D03*
D13*
X237770000Y-152960000D03*
D12*
X245390000Y-152960000D03*
X247930000Y-152960000D03*
X250470000Y-152960000D03*
X253010000Y-152960000D03*
X255550000Y-152960000D03*
X258090000Y-152960000D03*
D13*
X260630000Y-152960000D03*
D14*
G36*
X224709755Y-169275961D02*
G01*
X224719134Y-169278806D01*
X224727779Y-169283427D01*
X224735355Y-169289645D01*
X224741573Y-169297221D01*
X224746194Y-169305866D01*
X224749039Y-169315245D01*
X224750000Y-169325000D01*
X224750000Y-169725000D01*
X224749039Y-169734755D01*
X224746194Y-169744134D01*
X224741573Y-169752779D01*
X224735355Y-169760355D01*
X224727779Y-169766573D01*
X224719134Y-169771194D01*
X224709755Y-169774039D01*
X224700000Y-169775000D01*
X224130000Y-169775000D01*
X224130000Y-169925000D01*
X224700000Y-169925000D01*
X224709755Y-169925961D01*
X224719134Y-169928806D01*
X224727779Y-169933427D01*
X224735355Y-169939645D01*
X224741573Y-169947221D01*
X224746194Y-169955866D01*
X224749039Y-169965245D01*
X224750000Y-169975000D01*
X224750000Y-170375000D01*
X224749039Y-170384755D01*
X224746194Y-170394134D01*
X224741573Y-170402779D01*
X224735355Y-170410355D01*
X224727779Y-170416573D01*
X224719134Y-170421194D01*
X224709755Y-170424039D01*
X224700000Y-170425000D01*
X224130000Y-170425000D01*
X224130000Y-170575000D01*
X224700000Y-170575000D01*
X224709755Y-170575961D01*
X224719134Y-170578806D01*
X224727779Y-170583427D01*
X224735355Y-170589645D01*
X224741573Y-170597221D01*
X224746194Y-170605866D01*
X224749039Y-170615245D01*
X224750000Y-170625000D01*
X224750000Y-171025000D01*
X224749039Y-171034755D01*
X224746194Y-171044134D01*
X224741573Y-171052779D01*
X224735355Y-171060355D01*
X224727779Y-171066573D01*
X224719134Y-171071194D01*
X224709755Y-171074039D01*
X224700000Y-171075000D01*
X224130000Y-171075000D01*
X224130000Y-171225000D01*
X224700000Y-171225000D01*
X224709755Y-171225961D01*
X224719134Y-171228806D01*
X224727779Y-171233427D01*
X224735355Y-171239645D01*
X224741573Y-171247221D01*
X224746194Y-171255866D01*
X224749039Y-171265245D01*
X224750000Y-171275000D01*
X224750000Y-171675000D01*
X224749039Y-171684755D01*
X224746194Y-171694134D01*
X224741573Y-171702779D01*
X224735355Y-171710355D01*
X224727779Y-171716573D01*
X224719134Y-171721194D01*
X224709755Y-171724039D01*
X224700000Y-171725000D01*
X224080000Y-171725000D01*
X224070245Y-171724039D01*
X224060866Y-171721194D01*
X224052221Y-171716573D01*
X224044645Y-171710355D01*
X224038427Y-171702779D01*
X224033806Y-171694134D01*
X224030961Y-171684755D01*
X224030000Y-171675000D01*
X222230000Y-171675000D01*
X222220245Y-171674039D01*
X222210866Y-171671194D01*
X222202221Y-171666573D01*
X222194645Y-171660355D01*
X222188427Y-171652779D01*
X222183806Y-171644134D01*
X222180961Y-171634755D01*
X222180000Y-171625000D01*
X222180000Y-169375000D01*
X222180961Y-169365245D01*
X222183806Y-169355866D01*
X222188427Y-169347221D01*
X222194645Y-169339645D01*
X222202221Y-169333427D01*
X222210866Y-169328806D01*
X222220245Y-169325961D01*
X222230000Y-169325000D01*
X224030000Y-169325000D01*
X224030961Y-169315245D01*
X224033806Y-169305866D01*
X224038427Y-169297221D01*
X224044645Y-169289645D01*
X224052221Y-169283427D01*
X224060866Y-169278806D01*
X224070245Y-169275961D01*
X224080000Y-169275000D01*
X224700000Y-169275000D01*
X224709755Y-169275961D01*
G37*
D15*
X221215000Y-171475000D03*
X221215000Y-170825000D03*
X221215000Y-169525000D03*
X221215000Y-170175000D03*
D12*
X212370000Y-163120000D03*
D13*
X212370000Y-160580000D03*
D12*
X214910000Y-160580000D03*
D13*
X217450000Y-160580000D03*
D12*
X212370000Y-170740000D03*
X214910000Y-170740000D03*
D13*
X217450000Y-170740000D03*
D12*
X212370000Y-165660000D03*
X214910000Y-165660000D03*
D13*
X217450000Y-165660000D03*
D14*
G36*
X249685779Y-166026144D02*
G01*
X249708834Y-166029563D01*
X249731443Y-166035227D01*
X249753387Y-166043079D01*
X249774457Y-166053044D01*
X249794448Y-166065026D01*
X249813168Y-166078910D01*
X249830438Y-166094562D01*
X249846090Y-166111832D01*
X249859974Y-166130552D01*
X249871956Y-166150543D01*
X249881921Y-166171613D01*
X249889773Y-166193557D01*
X249895437Y-166216166D01*
X249898856Y-166239221D01*
X249900000Y-166262500D01*
X249900000Y-166737500D01*
X249898856Y-166760779D01*
X249895437Y-166783834D01*
X249889773Y-166806443D01*
X249881921Y-166828387D01*
X249871956Y-166849457D01*
X249859974Y-166869448D01*
X249846090Y-166888168D01*
X249830438Y-166905438D01*
X249813168Y-166921090D01*
X249794448Y-166934974D01*
X249774457Y-166946956D01*
X249753387Y-166956921D01*
X249731443Y-166964773D01*
X249708834Y-166970437D01*
X249685779Y-166973856D01*
X249662500Y-166975000D01*
X249087500Y-166975000D01*
X249064221Y-166973856D01*
X249041166Y-166970437D01*
X249018557Y-166964773D01*
X248996613Y-166956921D01*
X248975543Y-166946956D01*
X248955552Y-166934974D01*
X248936832Y-166921090D01*
X248919562Y-166905438D01*
X248903910Y-166888168D01*
X248890026Y-166869448D01*
X248878044Y-166849457D01*
X248868079Y-166828387D01*
X248860227Y-166806443D01*
X248854563Y-166783834D01*
X248851144Y-166760779D01*
X248850000Y-166737500D01*
X248850000Y-166262500D01*
X248851144Y-166239221D01*
X248854563Y-166216166D01*
X248860227Y-166193557D01*
X248868079Y-166171613D01*
X248878044Y-166150543D01*
X248890026Y-166130552D01*
X248903910Y-166111832D01*
X248919562Y-166094562D01*
X248936832Y-166078910D01*
X248955552Y-166065026D01*
X248975543Y-166053044D01*
X248996613Y-166043079D01*
X249018557Y-166035227D01*
X249041166Y-166029563D01*
X249064221Y-166026144D01*
X249087500Y-166025000D01*
X249662500Y-166025000D01*
X249685779Y-166026144D01*
G37*
G36*
X251435779Y-166026144D02*
G01*
X251458834Y-166029563D01*
X251481443Y-166035227D01*
X251503387Y-166043079D01*
X251524457Y-166053044D01*
X251544448Y-166065026D01*
X251563168Y-166078910D01*
X251580438Y-166094562D01*
X251596090Y-166111832D01*
X251609974Y-166130552D01*
X251621956Y-166150543D01*
X251631921Y-166171613D01*
X251639773Y-166193557D01*
X251645437Y-166216166D01*
X251648856Y-166239221D01*
X251650000Y-166262500D01*
X251650000Y-166737500D01*
X251648856Y-166760779D01*
X251645437Y-166783834D01*
X251639773Y-166806443D01*
X251631921Y-166828387D01*
X251621956Y-166849457D01*
X251609974Y-166869448D01*
X251596090Y-166888168D01*
X251580438Y-166905438D01*
X251563168Y-166921090D01*
X251544448Y-166934974D01*
X251524457Y-166946956D01*
X251503387Y-166956921D01*
X251481443Y-166964773D01*
X251458834Y-166970437D01*
X251435779Y-166973856D01*
X251412500Y-166975000D01*
X250837500Y-166975000D01*
X250814221Y-166973856D01*
X250791166Y-166970437D01*
X250768557Y-166964773D01*
X250746613Y-166956921D01*
X250725543Y-166946956D01*
X250705552Y-166934974D01*
X250686832Y-166921090D01*
X250669562Y-166905438D01*
X250653910Y-166888168D01*
X250640026Y-166869448D01*
X250628044Y-166849457D01*
X250618079Y-166828387D01*
X250610227Y-166806443D01*
X250604563Y-166783834D01*
X250601144Y-166760779D01*
X250600000Y-166737500D01*
X250600000Y-166262500D01*
X250601144Y-166239221D01*
X250604563Y-166216166D01*
X250610227Y-166193557D01*
X250618079Y-166171613D01*
X250628044Y-166150543D01*
X250640026Y-166130552D01*
X250653910Y-166111832D01*
X250669562Y-166094562D01*
X250686832Y-166078910D01*
X250705552Y-166065026D01*
X250725543Y-166053044D01*
X250746613Y-166043079D01*
X250768557Y-166035227D01*
X250791166Y-166029563D01*
X250814221Y-166026144D01*
X250837500Y-166025000D01*
X251412500Y-166025000D01*
X251435779Y-166026144D01*
G37*
G36*
X249685779Y-164026144D02*
G01*
X249708834Y-164029563D01*
X249731443Y-164035227D01*
X249753387Y-164043079D01*
X249774457Y-164053044D01*
X249794448Y-164065026D01*
X249813168Y-164078910D01*
X249830438Y-164094562D01*
X249846090Y-164111832D01*
X249859974Y-164130552D01*
X249871956Y-164150543D01*
X249881921Y-164171613D01*
X249889773Y-164193557D01*
X249895437Y-164216166D01*
X249898856Y-164239221D01*
X249900000Y-164262500D01*
X249900000Y-164737500D01*
X249898856Y-164760779D01*
X249895437Y-164783834D01*
X249889773Y-164806443D01*
X249881921Y-164828387D01*
X249871956Y-164849457D01*
X249859974Y-164869448D01*
X249846090Y-164888168D01*
X249830438Y-164905438D01*
X249813168Y-164921090D01*
X249794448Y-164934974D01*
X249774457Y-164946956D01*
X249753387Y-164956921D01*
X249731443Y-164964773D01*
X249708834Y-164970437D01*
X249685779Y-164973856D01*
X249662500Y-164975000D01*
X249087500Y-164975000D01*
X249064221Y-164973856D01*
X249041166Y-164970437D01*
X249018557Y-164964773D01*
X248996613Y-164956921D01*
X248975543Y-164946956D01*
X248955552Y-164934974D01*
X248936832Y-164921090D01*
X248919562Y-164905438D01*
X248903910Y-164888168D01*
X248890026Y-164869448D01*
X248878044Y-164849457D01*
X248868079Y-164828387D01*
X248860227Y-164806443D01*
X248854563Y-164783834D01*
X248851144Y-164760779D01*
X248850000Y-164737500D01*
X248850000Y-164262500D01*
X248851144Y-164239221D01*
X248854563Y-164216166D01*
X248860227Y-164193557D01*
X248868079Y-164171613D01*
X248878044Y-164150543D01*
X248890026Y-164130552D01*
X248903910Y-164111832D01*
X248919562Y-164094562D01*
X248936832Y-164078910D01*
X248955552Y-164065026D01*
X248975543Y-164053044D01*
X248996613Y-164043079D01*
X249018557Y-164035227D01*
X249041166Y-164029563D01*
X249064221Y-164026144D01*
X249087500Y-164025000D01*
X249662500Y-164025000D01*
X249685779Y-164026144D01*
G37*
G36*
X251435779Y-164026144D02*
G01*
X251458834Y-164029563D01*
X251481443Y-164035227D01*
X251503387Y-164043079D01*
X251524457Y-164053044D01*
X251544448Y-164065026D01*
X251563168Y-164078910D01*
X251580438Y-164094562D01*
X251596090Y-164111832D01*
X251609974Y-164130552D01*
X251621956Y-164150543D01*
X251631921Y-164171613D01*
X251639773Y-164193557D01*
X251645437Y-164216166D01*
X251648856Y-164239221D01*
X251650000Y-164262500D01*
X251650000Y-164737500D01*
X251648856Y-164760779D01*
X251645437Y-164783834D01*
X251639773Y-164806443D01*
X251631921Y-164828387D01*
X251621956Y-164849457D01*
X251609974Y-164869448D01*
X251596090Y-164888168D01*
X251580438Y-164905438D01*
X251563168Y-164921090D01*
X251544448Y-164934974D01*
X251524457Y-164946956D01*
X251503387Y-164956921D01*
X251481443Y-164964773D01*
X251458834Y-164970437D01*
X251435779Y-164973856D01*
X251412500Y-164975000D01*
X250837500Y-164975000D01*
X250814221Y-164973856D01*
X250791166Y-164970437D01*
X250768557Y-164964773D01*
X250746613Y-164956921D01*
X250725543Y-164946956D01*
X250705552Y-164934974D01*
X250686832Y-164921090D01*
X250669562Y-164905438D01*
X250653910Y-164888168D01*
X250640026Y-164869448D01*
X250628044Y-164849457D01*
X250618079Y-164828387D01*
X250610227Y-164806443D01*
X250604563Y-164783834D01*
X250601144Y-164760779D01*
X250600000Y-164737500D01*
X250600000Y-164262500D01*
X250601144Y-164239221D01*
X250604563Y-164216166D01*
X250610227Y-164193557D01*
X250618079Y-164171613D01*
X250628044Y-164150543D01*
X250640026Y-164130552D01*
X250653910Y-164111832D01*
X250669562Y-164094562D01*
X250686832Y-164078910D01*
X250705552Y-164065026D01*
X250725543Y-164053044D01*
X250746613Y-164043079D01*
X250768557Y-164035227D01*
X250791166Y-164029563D01*
X250814221Y-164026144D01*
X250837500Y-164025000D01*
X251412500Y-164025000D01*
X251435779Y-164026144D01*
G37*
G36*
X253685779Y-170026144D02*
G01*
X253708834Y-170029563D01*
X253731443Y-170035227D01*
X253753387Y-170043079D01*
X253774457Y-170053044D01*
X253794448Y-170065026D01*
X253813168Y-170078910D01*
X253830438Y-170094562D01*
X253846090Y-170111832D01*
X253859974Y-170130552D01*
X253871956Y-170150543D01*
X253881921Y-170171613D01*
X253889773Y-170193557D01*
X253895437Y-170216166D01*
X253898856Y-170239221D01*
X253900000Y-170262500D01*
X253900000Y-170737500D01*
X253898856Y-170760779D01*
X253895437Y-170783834D01*
X253889773Y-170806443D01*
X253881921Y-170828387D01*
X253871956Y-170849457D01*
X253859974Y-170869448D01*
X253846090Y-170888168D01*
X253830438Y-170905438D01*
X253813168Y-170921090D01*
X253794448Y-170934974D01*
X253774457Y-170946956D01*
X253753387Y-170956921D01*
X253731443Y-170964773D01*
X253708834Y-170970437D01*
X253685779Y-170973856D01*
X253662500Y-170975000D01*
X253087500Y-170975000D01*
X253064221Y-170973856D01*
X253041166Y-170970437D01*
X253018557Y-170964773D01*
X252996613Y-170956921D01*
X252975543Y-170946956D01*
X252955552Y-170934974D01*
X252936832Y-170921090D01*
X252919562Y-170905438D01*
X252903910Y-170888168D01*
X252890026Y-170869448D01*
X252878044Y-170849457D01*
X252868079Y-170828387D01*
X252860227Y-170806443D01*
X252854563Y-170783834D01*
X252851144Y-170760779D01*
X252850000Y-170737500D01*
X252850000Y-170262500D01*
X252851144Y-170239221D01*
X252854563Y-170216166D01*
X252860227Y-170193557D01*
X252868079Y-170171613D01*
X252878044Y-170150543D01*
X252890026Y-170130552D01*
X252903910Y-170111832D01*
X252919562Y-170094562D01*
X252936832Y-170078910D01*
X252955552Y-170065026D01*
X252975543Y-170053044D01*
X252996613Y-170043079D01*
X253018557Y-170035227D01*
X253041166Y-170029563D01*
X253064221Y-170026144D01*
X253087500Y-170025000D01*
X253662500Y-170025000D01*
X253685779Y-170026144D01*
G37*
G36*
X255435779Y-170026144D02*
G01*
X255458834Y-170029563D01*
X255481443Y-170035227D01*
X255503387Y-170043079D01*
X255524457Y-170053044D01*
X255544448Y-170065026D01*
X255563168Y-170078910D01*
X255580438Y-170094562D01*
X255596090Y-170111832D01*
X255609974Y-170130552D01*
X255621956Y-170150543D01*
X255631921Y-170171613D01*
X255639773Y-170193557D01*
X255645437Y-170216166D01*
X255648856Y-170239221D01*
X255650000Y-170262500D01*
X255650000Y-170737500D01*
X255648856Y-170760779D01*
X255645437Y-170783834D01*
X255639773Y-170806443D01*
X255631921Y-170828387D01*
X255621956Y-170849457D01*
X255609974Y-170869448D01*
X255596090Y-170888168D01*
X255580438Y-170905438D01*
X255563168Y-170921090D01*
X255544448Y-170934974D01*
X255524457Y-170946956D01*
X255503387Y-170956921D01*
X255481443Y-170964773D01*
X255458834Y-170970437D01*
X255435779Y-170973856D01*
X255412500Y-170975000D01*
X254837500Y-170975000D01*
X254814221Y-170973856D01*
X254791166Y-170970437D01*
X254768557Y-170964773D01*
X254746613Y-170956921D01*
X254725543Y-170946956D01*
X254705552Y-170934974D01*
X254686832Y-170921090D01*
X254669562Y-170905438D01*
X254653910Y-170888168D01*
X254640026Y-170869448D01*
X254628044Y-170849457D01*
X254618079Y-170828387D01*
X254610227Y-170806443D01*
X254604563Y-170783834D01*
X254601144Y-170760779D01*
X254600000Y-170737500D01*
X254600000Y-170262500D01*
X254601144Y-170239221D01*
X254604563Y-170216166D01*
X254610227Y-170193557D01*
X254618079Y-170171613D01*
X254628044Y-170150543D01*
X254640026Y-170130552D01*
X254653910Y-170111832D01*
X254669562Y-170094562D01*
X254686832Y-170078910D01*
X254705552Y-170065026D01*
X254725543Y-170053044D01*
X254746613Y-170043079D01*
X254768557Y-170035227D01*
X254791166Y-170029563D01*
X254814221Y-170026144D01*
X254837500Y-170025000D01*
X255412500Y-170025000D01*
X255435779Y-170026144D01*
G37*
G36*
X249685779Y-170026144D02*
G01*
X249708834Y-170029563D01*
X249731443Y-170035227D01*
X249753387Y-170043079D01*
X249774457Y-170053044D01*
X249794448Y-170065026D01*
X249813168Y-170078910D01*
X249830438Y-170094562D01*
X249846090Y-170111832D01*
X249859974Y-170130552D01*
X249871956Y-170150543D01*
X249881921Y-170171613D01*
X249889773Y-170193557D01*
X249895437Y-170216166D01*
X249898856Y-170239221D01*
X249900000Y-170262500D01*
X249900000Y-170737500D01*
X249898856Y-170760779D01*
X249895437Y-170783834D01*
X249889773Y-170806443D01*
X249881921Y-170828387D01*
X249871956Y-170849457D01*
X249859974Y-170869448D01*
X249846090Y-170888168D01*
X249830438Y-170905438D01*
X249813168Y-170921090D01*
X249794448Y-170934974D01*
X249774457Y-170946956D01*
X249753387Y-170956921D01*
X249731443Y-170964773D01*
X249708834Y-170970437D01*
X249685779Y-170973856D01*
X249662500Y-170975000D01*
X249087500Y-170975000D01*
X249064221Y-170973856D01*
X249041166Y-170970437D01*
X249018557Y-170964773D01*
X248996613Y-170956921D01*
X248975543Y-170946956D01*
X248955552Y-170934974D01*
X248936832Y-170921090D01*
X248919562Y-170905438D01*
X248903910Y-170888168D01*
X248890026Y-170869448D01*
X248878044Y-170849457D01*
X248868079Y-170828387D01*
X248860227Y-170806443D01*
X248854563Y-170783834D01*
X248851144Y-170760779D01*
X248850000Y-170737500D01*
X248850000Y-170262500D01*
X248851144Y-170239221D01*
X248854563Y-170216166D01*
X248860227Y-170193557D01*
X248868079Y-170171613D01*
X248878044Y-170150543D01*
X248890026Y-170130552D01*
X248903910Y-170111832D01*
X248919562Y-170094562D01*
X248936832Y-170078910D01*
X248955552Y-170065026D01*
X248975543Y-170053044D01*
X248996613Y-170043079D01*
X249018557Y-170035227D01*
X249041166Y-170029563D01*
X249064221Y-170026144D01*
X249087500Y-170025000D01*
X249662500Y-170025000D01*
X249685779Y-170026144D01*
G37*
G36*
X251435779Y-170026144D02*
G01*
X251458834Y-170029563D01*
X251481443Y-170035227D01*
X251503387Y-170043079D01*
X251524457Y-170053044D01*
X251544448Y-170065026D01*
X251563168Y-170078910D01*
X251580438Y-170094562D01*
X251596090Y-170111832D01*
X251609974Y-170130552D01*
X251621956Y-170150543D01*
X251631921Y-170171613D01*
X251639773Y-170193557D01*
X251645437Y-170216166D01*
X251648856Y-170239221D01*
X251650000Y-170262500D01*
X251650000Y-170737500D01*
X251648856Y-170760779D01*
X251645437Y-170783834D01*
X251639773Y-170806443D01*
X251631921Y-170828387D01*
X251621956Y-170849457D01*
X251609974Y-170869448D01*
X251596090Y-170888168D01*
X251580438Y-170905438D01*
X251563168Y-170921090D01*
X251544448Y-170934974D01*
X251524457Y-170946956D01*
X251503387Y-170956921D01*
X251481443Y-170964773D01*
X251458834Y-170970437D01*
X251435779Y-170973856D01*
X251412500Y-170975000D01*
X250837500Y-170975000D01*
X250814221Y-170973856D01*
X250791166Y-170970437D01*
X250768557Y-170964773D01*
X250746613Y-170956921D01*
X250725543Y-170946956D01*
X250705552Y-170934974D01*
X250686832Y-170921090D01*
X250669562Y-170905438D01*
X250653910Y-170888168D01*
X250640026Y-170869448D01*
X250628044Y-170849457D01*
X250618079Y-170828387D01*
X250610227Y-170806443D01*
X250604563Y-170783834D01*
X250601144Y-170760779D01*
X250600000Y-170737500D01*
X250600000Y-170262500D01*
X250601144Y-170239221D01*
X250604563Y-170216166D01*
X250610227Y-170193557D01*
X250618079Y-170171613D01*
X250628044Y-170150543D01*
X250640026Y-170130552D01*
X250653910Y-170111832D01*
X250669562Y-170094562D01*
X250686832Y-170078910D01*
X250705552Y-170065026D01*
X250725543Y-170053044D01*
X250746613Y-170043079D01*
X250768557Y-170035227D01*
X250791166Y-170029563D01*
X250814221Y-170026144D01*
X250837500Y-170025000D01*
X251412500Y-170025000D01*
X251435779Y-170026144D01*
G37*
G36*
X249685779Y-168026144D02*
G01*
X249708834Y-168029563D01*
X249731443Y-168035227D01*
X249753387Y-168043079D01*
X249774457Y-168053044D01*
X249794448Y-168065026D01*
X249813168Y-168078910D01*
X249830438Y-168094562D01*
X249846090Y-168111832D01*
X249859974Y-168130552D01*
X249871956Y-168150543D01*
X249881921Y-168171613D01*
X249889773Y-168193557D01*
X249895437Y-168216166D01*
X249898856Y-168239221D01*
X249900000Y-168262500D01*
X249900000Y-168737500D01*
X249898856Y-168760779D01*
X249895437Y-168783834D01*
X249889773Y-168806443D01*
X249881921Y-168828387D01*
X249871956Y-168849457D01*
X249859974Y-168869448D01*
X249846090Y-168888168D01*
X249830438Y-168905438D01*
X249813168Y-168921090D01*
X249794448Y-168934974D01*
X249774457Y-168946956D01*
X249753387Y-168956921D01*
X249731443Y-168964773D01*
X249708834Y-168970437D01*
X249685779Y-168973856D01*
X249662500Y-168975000D01*
X249087500Y-168975000D01*
X249064221Y-168973856D01*
X249041166Y-168970437D01*
X249018557Y-168964773D01*
X248996613Y-168956921D01*
X248975543Y-168946956D01*
X248955552Y-168934974D01*
X248936832Y-168921090D01*
X248919562Y-168905438D01*
X248903910Y-168888168D01*
X248890026Y-168869448D01*
X248878044Y-168849457D01*
X248868079Y-168828387D01*
X248860227Y-168806443D01*
X248854563Y-168783834D01*
X248851144Y-168760779D01*
X248850000Y-168737500D01*
X248850000Y-168262500D01*
X248851144Y-168239221D01*
X248854563Y-168216166D01*
X248860227Y-168193557D01*
X248868079Y-168171613D01*
X248878044Y-168150543D01*
X248890026Y-168130552D01*
X248903910Y-168111832D01*
X248919562Y-168094562D01*
X248936832Y-168078910D01*
X248955552Y-168065026D01*
X248975543Y-168053044D01*
X248996613Y-168043079D01*
X249018557Y-168035227D01*
X249041166Y-168029563D01*
X249064221Y-168026144D01*
X249087500Y-168025000D01*
X249662500Y-168025000D01*
X249685779Y-168026144D01*
G37*
G36*
X251435779Y-168026144D02*
G01*
X251458834Y-168029563D01*
X251481443Y-168035227D01*
X251503387Y-168043079D01*
X251524457Y-168053044D01*
X251544448Y-168065026D01*
X251563168Y-168078910D01*
X251580438Y-168094562D01*
X251596090Y-168111832D01*
X251609974Y-168130552D01*
X251621956Y-168150543D01*
X251631921Y-168171613D01*
X251639773Y-168193557D01*
X251645437Y-168216166D01*
X251648856Y-168239221D01*
X251650000Y-168262500D01*
X251650000Y-168737500D01*
X251648856Y-168760779D01*
X251645437Y-168783834D01*
X251639773Y-168806443D01*
X251631921Y-168828387D01*
X251621956Y-168849457D01*
X251609974Y-168869448D01*
X251596090Y-168888168D01*
X251580438Y-168905438D01*
X251563168Y-168921090D01*
X251544448Y-168934974D01*
X251524457Y-168946956D01*
X251503387Y-168956921D01*
X251481443Y-168964773D01*
X251458834Y-168970437D01*
X251435779Y-168973856D01*
X251412500Y-168975000D01*
X250837500Y-168975000D01*
X250814221Y-168973856D01*
X250791166Y-168970437D01*
X250768557Y-168964773D01*
X250746613Y-168956921D01*
X250725543Y-168946956D01*
X250705552Y-168934974D01*
X250686832Y-168921090D01*
X250669562Y-168905438D01*
X250653910Y-168888168D01*
X250640026Y-168869448D01*
X250628044Y-168849457D01*
X250618079Y-168828387D01*
X250610227Y-168806443D01*
X250604563Y-168783834D01*
X250601144Y-168760779D01*
X250600000Y-168737500D01*
X250600000Y-168262500D01*
X250601144Y-168239221D01*
X250604563Y-168216166D01*
X250610227Y-168193557D01*
X250618079Y-168171613D01*
X250628044Y-168150543D01*
X250640026Y-168130552D01*
X250653910Y-168111832D01*
X250669562Y-168094562D01*
X250686832Y-168078910D01*
X250705552Y-168065026D01*
X250725543Y-168053044D01*
X250746613Y-168043079D01*
X250768557Y-168035227D01*
X250791166Y-168029563D01*
X250814221Y-168026144D01*
X250837500Y-168025000D01*
X251412500Y-168025000D01*
X251435779Y-168026144D01*
G37*
D12*
X257960000Y-170000000D03*
D13*
X260500000Y-170000000D03*
D16*
X259500000Y-162000000D03*
D17*
X259500000Y-165500000D03*
D14*
G36*
X249685779Y-162026144D02*
G01*
X249708834Y-162029563D01*
X249731443Y-162035227D01*
X249753387Y-162043079D01*
X249774457Y-162053044D01*
X249794448Y-162065026D01*
X249813168Y-162078910D01*
X249830438Y-162094562D01*
X249846090Y-162111832D01*
X249859974Y-162130552D01*
X249871956Y-162150543D01*
X249881921Y-162171613D01*
X249889773Y-162193557D01*
X249895437Y-162216166D01*
X249898856Y-162239221D01*
X249900000Y-162262500D01*
X249900000Y-162737500D01*
X249898856Y-162760779D01*
X249895437Y-162783834D01*
X249889773Y-162806443D01*
X249881921Y-162828387D01*
X249871956Y-162849457D01*
X249859974Y-162869448D01*
X249846090Y-162888168D01*
X249830438Y-162905438D01*
X249813168Y-162921090D01*
X249794448Y-162934974D01*
X249774457Y-162946956D01*
X249753387Y-162956921D01*
X249731443Y-162964773D01*
X249708834Y-162970437D01*
X249685779Y-162973856D01*
X249662500Y-162975000D01*
X249087500Y-162975000D01*
X249064221Y-162973856D01*
X249041166Y-162970437D01*
X249018557Y-162964773D01*
X248996613Y-162956921D01*
X248975543Y-162946956D01*
X248955552Y-162934974D01*
X248936832Y-162921090D01*
X248919562Y-162905438D01*
X248903910Y-162888168D01*
X248890026Y-162869448D01*
X248878044Y-162849457D01*
X248868079Y-162828387D01*
X248860227Y-162806443D01*
X248854563Y-162783834D01*
X248851144Y-162760779D01*
X248850000Y-162737500D01*
X248850000Y-162262500D01*
X248851144Y-162239221D01*
X248854563Y-162216166D01*
X248860227Y-162193557D01*
X248868079Y-162171613D01*
X248878044Y-162150543D01*
X248890026Y-162130552D01*
X248903910Y-162111832D01*
X248919562Y-162094562D01*
X248936832Y-162078910D01*
X248955552Y-162065026D01*
X248975543Y-162053044D01*
X248996613Y-162043079D01*
X249018557Y-162035227D01*
X249041166Y-162029563D01*
X249064221Y-162026144D01*
X249087500Y-162025000D01*
X249662500Y-162025000D01*
X249685779Y-162026144D01*
G37*
G36*
X251435779Y-162026144D02*
G01*
X251458834Y-162029563D01*
X251481443Y-162035227D01*
X251503387Y-162043079D01*
X251524457Y-162053044D01*
X251544448Y-162065026D01*
X251563168Y-162078910D01*
X251580438Y-162094562D01*
X251596090Y-162111832D01*
X251609974Y-162130552D01*
X251621956Y-162150543D01*
X251631921Y-162171613D01*
X251639773Y-162193557D01*
X251645437Y-162216166D01*
X251648856Y-162239221D01*
X251650000Y-162262500D01*
X251650000Y-162737500D01*
X251648856Y-162760779D01*
X251645437Y-162783834D01*
X251639773Y-162806443D01*
X251631921Y-162828387D01*
X251621956Y-162849457D01*
X251609974Y-162869448D01*
X251596090Y-162888168D01*
X251580438Y-162905438D01*
X251563168Y-162921090D01*
X251544448Y-162934974D01*
X251524457Y-162946956D01*
X251503387Y-162956921D01*
X251481443Y-162964773D01*
X251458834Y-162970437D01*
X251435779Y-162973856D01*
X251412500Y-162975000D01*
X250837500Y-162975000D01*
X250814221Y-162973856D01*
X250791166Y-162970437D01*
X250768557Y-162964773D01*
X250746613Y-162956921D01*
X250725543Y-162946956D01*
X250705552Y-162934974D01*
X250686832Y-162921090D01*
X250669562Y-162905438D01*
X250653910Y-162888168D01*
X250640026Y-162869448D01*
X250628044Y-162849457D01*
X250618079Y-162828387D01*
X250610227Y-162806443D01*
X250604563Y-162783834D01*
X250601144Y-162760779D01*
X250600000Y-162737500D01*
X250600000Y-162262500D01*
X250601144Y-162239221D01*
X250604563Y-162216166D01*
X250610227Y-162193557D01*
X250618079Y-162171613D01*
X250628044Y-162150543D01*
X250640026Y-162130552D01*
X250653910Y-162111832D01*
X250669562Y-162094562D01*
X250686832Y-162078910D01*
X250705552Y-162065026D01*
X250725543Y-162053044D01*
X250746613Y-162043079D01*
X250768557Y-162035227D01*
X250791166Y-162029563D01*
X250814221Y-162026144D01*
X250837500Y-162025000D01*
X251412500Y-162025000D01*
X251435779Y-162026144D01*
G37*
G36*
X240685779Y-170026144D02*
G01*
X240708834Y-170029563D01*
X240731443Y-170035227D01*
X240753387Y-170043079D01*
X240774457Y-170053044D01*
X240794448Y-170065026D01*
X240813168Y-170078910D01*
X240830438Y-170094562D01*
X240846090Y-170111832D01*
X240859974Y-170130552D01*
X240871956Y-170150543D01*
X240881921Y-170171613D01*
X240889773Y-170193557D01*
X240895437Y-170216166D01*
X240898856Y-170239221D01*
X240900000Y-170262500D01*
X240900000Y-170737500D01*
X240898856Y-170760779D01*
X240895437Y-170783834D01*
X240889773Y-170806443D01*
X240881921Y-170828387D01*
X240871956Y-170849457D01*
X240859974Y-170869448D01*
X240846090Y-170888168D01*
X240830438Y-170905438D01*
X240813168Y-170921090D01*
X240794448Y-170934974D01*
X240774457Y-170946956D01*
X240753387Y-170956921D01*
X240731443Y-170964773D01*
X240708834Y-170970437D01*
X240685779Y-170973856D01*
X240662500Y-170975000D01*
X240087500Y-170975000D01*
X240064221Y-170973856D01*
X240041166Y-170970437D01*
X240018557Y-170964773D01*
X239996613Y-170956921D01*
X239975543Y-170946956D01*
X239955552Y-170934974D01*
X239936832Y-170921090D01*
X239919562Y-170905438D01*
X239903910Y-170888168D01*
X239890026Y-170869448D01*
X239878044Y-170849457D01*
X239868079Y-170828387D01*
X239860227Y-170806443D01*
X239854563Y-170783834D01*
X239851144Y-170760779D01*
X239850000Y-170737500D01*
X239850000Y-170262500D01*
X239851144Y-170239221D01*
X239854563Y-170216166D01*
X239860227Y-170193557D01*
X239868079Y-170171613D01*
X239878044Y-170150543D01*
X239890026Y-170130552D01*
X239903910Y-170111832D01*
X239919562Y-170094562D01*
X239936832Y-170078910D01*
X239955552Y-170065026D01*
X239975543Y-170053044D01*
X239996613Y-170043079D01*
X240018557Y-170035227D01*
X240041166Y-170029563D01*
X240064221Y-170026144D01*
X240087500Y-170025000D01*
X240662500Y-170025000D01*
X240685779Y-170026144D01*
G37*
G36*
X242435779Y-170026144D02*
G01*
X242458834Y-170029563D01*
X242481443Y-170035227D01*
X242503387Y-170043079D01*
X242524457Y-170053044D01*
X242544448Y-170065026D01*
X242563168Y-170078910D01*
X242580438Y-170094562D01*
X242596090Y-170111832D01*
X242609974Y-170130552D01*
X242621956Y-170150543D01*
X242631921Y-170171613D01*
X242639773Y-170193557D01*
X242645437Y-170216166D01*
X242648856Y-170239221D01*
X242650000Y-170262500D01*
X242650000Y-170737500D01*
X242648856Y-170760779D01*
X242645437Y-170783834D01*
X242639773Y-170806443D01*
X242631921Y-170828387D01*
X242621956Y-170849457D01*
X242609974Y-170869448D01*
X242596090Y-170888168D01*
X242580438Y-170905438D01*
X242563168Y-170921090D01*
X242544448Y-170934974D01*
X242524457Y-170946956D01*
X242503387Y-170956921D01*
X242481443Y-170964773D01*
X242458834Y-170970437D01*
X242435779Y-170973856D01*
X242412500Y-170975000D01*
X241837500Y-170975000D01*
X241814221Y-170973856D01*
X241791166Y-170970437D01*
X241768557Y-170964773D01*
X241746613Y-170956921D01*
X241725543Y-170946956D01*
X241705552Y-170934974D01*
X241686832Y-170921090D01*
X241669562Y-170905438D01*
X241653910Y-170888168D01*
X241640026Y-170869448D01*
X241628044Y-170849457D01*
X241618079Y-170828387D01*
X241610227Y-170806443D01*
X241604563Y-170783834D01*
X241601144Y-170760779D01*
X241600000Y-170737500D01*
X241600000Y-170262500D01*
X241601144Y-170239221D01*
X241604563Y-170216166D01*
X241610227Y-170193557D01*
X241618079Y-170171613D01*
X241628044Y-170150543D01*
X241640026Y-170130552D01*
X241653910Y-170111832D01*
X241669562Y-170094562D01*
X241686832Y-170078910D01*
X241705552Y-170065026D01*
X241725543Y-170053044D01*
X241746613Y-170043079D01*
X241768557Y-170035227D01*
X241791166Y-170029563D01*
X241814221Y-170026144D01*
X241837500Y-170025000D01*
X242412500Y-170025000D01*
X242435779Y-170026144D01*
G37*
G36*
X240685779Y-168026144D02*
G01*
X240708834Y-168029563D01*
X240731443Y-168035227D01*
X240753387Y-168043079D01*
X240774457Y-168053044D01*
X240794448Y-168065026D01*
X240813168Y-168078910D01*
X240830438Y-168094562D01*
X240846090Y-168111832D01*
X240859974Y-168130552D01*
X240871956Y-168150543D01*
X240881921Y-168171613D01*
X240889773Y-168193557D01*
X240895437Y-168216166D01*
X240898856Y-168239221D01*
X240900000Y-168262500D01*
X240900000Y-168737500D01*
X240898856Y-168760779D01*
X240895437Y-168783834D01*
X240889773Y-168806443D01*
X240881921Y-168828387D01*
X240871956Y-168849457D01*
X240859974Y-168869448D01*
X240846090Y-168888168D01*
X240830438Y-168905438D01*
X240813168Y-168921090D01*
X240794448Y-168934974D01*
X240774457Y-168946956D01*
X240753387Y-168956921D01*
X240731443Y-168964773D01*
X240708834Y-168970437D01*
X240685779Y-168973856D01*
X240662500Y-168975000D01*
X240087500Y-168975000D01*
X240064221Y-168973856D01*
X240041166Y-168970437D01*
X240018557Y-168964773D01*
X239996613Y-168956921D01*
X239975543Y-168946956D01*
X239955552Y-168934974D01*
X239936832Y-168921090D01*
X239919562Y-168905438D01*
X239903910Y-168888168D01*
X239890026Y-168869448D01*
X239878044Y-168849457D01*
X239868079Y-168828387D01*
X239860227Y-168806443D01*
X239854563Y-168783834D01*
X239851144Y-168760779D01*
X239850000Y-168737500D01*
X239850000Y-168262500D01*
X239851144Y-168239221D01*
X239854563Y-168216166D01*
X239860227Y-168193557D01*
X239868079Y-168171613D01*
X239878044Y-168150543D01*
X239890026Y-168130552D01*
X239903910Y-168111832D01*
X239919562Y-168094562D01*
X239936832Y-168078910D01*
X239955552Y-168065026D01*
X239975543Y-168053044D01*
X239996613Y-168043079D01*
X240018557Y-168035227D01*
X240041166Y-168029563D01*
X240064221Y-168026144D01*
X240087500Y-168025000D01*
X240662500Y-168025000D01*
X240685779Y-168026144D01*
G37*
G36*
X242435779Y-168026144D02*
G01*
X242458834Y-168029563D01*
X242481443Y-168035227D01*
X242503387Y-168043079D01*
X242524457Y-168053044D01*
X242544448Y-168065026D01*
X242563168Y-168078910D01*
X242580438Y-168094562D01*
X242596090Y-168111832D01*
X242609974Y-168130552D01*
X242621956Y-168150543D01*
X242631921Y-168171613D01*
X242639773Y-168193557D01*
X242645437Y-168216166D01*
X242648856Y-168239221D01*
X242650000Y-168262500D01*
X242650000Y-168737500D01*
X242648856Y-168760779D01*
X242645437Y-168783834D01*
X242639773Y-168806443D01*
X242631921Y-168828387D01*
X242621956Y-168849457D01*
X242609974Y-168869448D01*
X242596090Y-168888168D01*
X242580438Y-168905438D01*
X242563168Y-168921090D01*
X242544448Y-168934974D01*
X242524457Y-168946956D01*
X242503387Y-168956921D01*
X242481443Y-168964773D01*
X242458834Y-168970437D01*
X242435779Y-168973856D01*
X242412500Y-168975000D01*
X241837500Y-168975000D01*
X241814221Y-168973856D01*
X241791166Y-168970437D01*
X241768557Y-168964773D01*
X241746613Y-168956921D01*
X241725543Y-168946956D01*
X241705552Y-168934974D01*
X241686832Y-168921090D01*
X241669562Y-168905438D01*
X241653910Y-168888168D01*
X241640026Y-168869448D01*
X241628044Y-168849457D01*
X241618079Y-168828387D01*
X241610227Y-168806443D01*
X241604563Y-168783834D01*
X241601144Y-168760779D01*
X241600000Y-168737500D01*
X241600000Y-168262500D01*
X241601144Y-168239221D01*
X241604563Y-168216166D01*
X241610227Y-168193557D01*
X241618079Y-168171613D01*
X241628044Y-168150543D01*
X241640026Y-168130552D01*
X241653910Y-168111832D01*
X241669562Y-168094562D01*
X241686832Y-168078910D01*
X241705552Y-168065026D01*
X241725543Y-168053044D01*
X241746613Y-168043079D01*
X241768557Y-168035227D01*
X241791166Y-168029563D01*
X241814221Y-168026144D01*
X241837500Y-168025000D01*
X242412500Y-168025000D01*
X242435779Y-168026144D01*
G37*
G36*
X240685779Y-166026144D02*
G01*
X240708834Y-166029563D01*
X240731443Y-166035227D01*
X240753387Y-166043079D01*
X240774457Y-166053044D01*
X240794448Y-166065026D01*
X240813168Y-166078910D01*
X240830438Y-166094562D01*
X240846090Y-166111832D01*
X240859974Y-166130552D01*
X240871956Y-166150543D01*
X240881921Y-166171613D01*
X240889773Y-166193557D01*
X240895437Y-166216166D01*
X240898856Y-166239221D01*
X240900000Y-166262500D01*
X240900000Y-166737500D01*
X240898856Y-166760779D01*
X240895437Y-166783834D01*
X240889773Y-166806443D01*
X240881921Y-166828387D01*
X240871956Y-166849457D01*
X240859974Y-166869448D01*
X240846090Y-166888168D01*
X240830438Y-166905438D01*
X240813168Y-166921090D01*
X240794448Y-166934974D01*
X240774457Y-166946956D01*
X240753387Y-166956921D01*
X240731443Y-166964773D01*
X240708834Y-166970437D01*
X240685779Y-166973856D01*
X240662500Y-166975000D01*
X240087500Y-166975000D01*
X240064221Y-166973856D01*
X240041166Y-166970437D01*
X240018557Y-166964773D01*
X239996613Y-166956921D01*
X239975543Y-166946956D01*
X239955552Y-166934974D01*
X239936832Y-166921090D01*
X239919562Y-166905438D01*
X239903910Y-166888168D01*
X239890026Y-166869448D01*
X239878044Y-166849457D01*
X239868079Y-166828387D01*
X239860227Y-166806443D01*
X239854563Y-166783834D01*
X239851144Y-166760779D01*
X239850000Y-166737500D01*
X239850000Y-166262500D01*
X239851144Y-166239221D01*
X239854563Y-166216166D01*
X239860227Y-166193557D01*
X239868079Y-166171613D01*
X239878044Y-166150543D01*
X239890026Y-166130552D01*
X239903910Y-166111832D01*
X239919562Y-166094562D01*
X239936832Y-166078910D01*
X239955552Y-166065026D01*
X239975543Y-166053044D01*
X239996613Y-166043079D01*
X240018557Y-166035227D01*
X240041166Y-166029563D01*
X240064221Y-166026144D01*
X240087500Y-166025000D01*
X240662500Y-166025000D01*
X240685779Y-166026144D01*
G37*
G36*
X242435779Y-166026144D02*
G01*
X242458834Y-166029563D01*
X242481443Y-166035227D01*
X242503387Y-166043079D01*
X242524457Y-166053044D01*
X242544448Y-166065026D01*
X242563168Y-166078910D01*
X242580438Y-166094562D01*
X242596090Y-166111832D01*
X242609974Y-166130552D01*
X242621956Y-166150543D01*
X242631921Y-166171613D01*
X242639773Y-166193557D01*
X242645437Y-166216166D01*
X242648856Y-166239221D01*
X242650000Y-166262500D01*
X242650000Y-166737500D01*
X242648856Y-166760779D01*
X242645437Y-166783834D01*
X242639773Y-166806443D01*
X242631921Y-166828387D01*
X242621956Y-166849457D01*
X242609974Y-166869448D01*
X242596090Y-166888168D01*
X242580438Y-166905438D01*
X242563168Y-166921090D01*
X242544448Y-166934974D01*
X242524457Y-166946956D01*
X242503387Y-166956921D01*
X242481443Y-166964773D01*
X242458834Y-166970437D01*
X242435779Y-166973856D01*
X242412500Y-166975000D01*
X241837500Y-166975000D01*
X241814221Y-166973856D01*
X241791166Y-166970437D01*
X241768557Y-166964773D01*
X241746613Y-166956921D01*
X241725543Y-166946956D01*
X241705552Y-166934974D01*
X241686832Y-166921090D01*
X241669562Y-166905438D01*
X241653910Y-166888168D01*
X241640026Y-166869448D01*
X241628044Y-166849457D01*
X241618079Y-166828387D01*
X241610227Y-166806443D01*
X241604563Y-166783834D01*
X241601144Y-166760779D01*
X241600000Y-166737500D01*
X241600000Y-166262500D01*
X241601144Y-166239221D01*
X241604563Y-166216166D01*
X241610227Y-166193557D01*
X241618079Y-166171613D01*
X241628044Y-166150543D01*
X241640026Y-166130552D01*
X241653910Y-166111832D01*
X241669562Y-166094562D01*
X241686832Y-166078910D01*
X241705552Y-166065026D01*
X241725543Y-166053044D01*
X241746613Y-166043079D01*
X241768557Y-166035227D01*
X241791166Y-166029563D01*
X241814221Y-166026144D01*
X241837500Y-166025000D01*
X242412500Y-166025000D01*
X242435779Y-166026144D01*
G37*
G36*
X240685779Y-164026144D02*
G01*
X240708834Y-164029563D01*
X240731443Y-164035227D01*
X240753387Y-164043079D01*
X240774457Y-164053044D01*
X240794448Y-164065026D01*
X240813168Y-164078910D01*
X240830438Y-164094562D01*
X240846090Y-164111832D01*
X240859974Y-164130552D01*
X240871956Y-164150543D01*
X240881921Y-164171613D01*
X240889773Y-164193557D01*
X240895437Y-164216166D01*
X240898856Y-164239221D01*
X240900000Y-164262500D01*
X240900000Y-164737500D01*
X240898856Y-164760779D01*
X240895437Y-164783834D01*
X240889773Y-164806443D01*
X240881921Y-164828387D01*
X240871956Y-164849457D01*
X240859974Y-164869448D01*
X240846090Y-164888168D01*
X240830438Y-164905438D01*
X240813168Y-164921090D01*
X240794448Y-164934974D01*
X240774457Y-164946956D01*
X240753387Y-164956921D01*
X240731443Y-164964773D01*
X240708834Y-164970437D01*
X240685779Y-164973856D01*
X240662500Y-164975000D01*
X240087500Y-164975000D01*
X240064221Y-164973856D01*
X240041166Y-164970437D01*
X240018557Y-164964773D01*
X239996613Y-164956921D01*
X239975543Y-164946956D01*
X239955552Y-164934974D01*
X239936832Y-164921090D01*
X239919562Y-164905438D01*
X239903910Y-164888168D01*
X239890026Y-164869448D01*
X239878044Y-164849457D01*
X239868079Y-164828387D01*
X239860227Y-164806443D01*
X239854563Y-164783834D01*
X239851144Y-164760779D01*
X239850000Y-164737500D01*
X239850000Y-164262500D01*
X239851144Y-164239221D01*
X239854563Y-164216166D01*
X239860227Y-164193557D01*
X239868079Y-164171613D01*
X239878044Y-164150543D01*
X239890026Y-164130552D01*
X239903910Y-164111832D01*
X239919562Y-164094562D01*
X239936832Y-164078910D01*
X239955552Y-164065026D01*
X239975543Y-164053044D01*
X239996613Y-164043079D01*
X240018557Y-164035227D01*
X240041166Y-164029563D01*
X240064221Y-164026144D01*
X240087500Y-164025000D01*
X240662500Y-164025000D01*
X240685779Y-164026144D01*
G37*
G36*
X242435779Y-164026144D02*
G01*
X242458834Y-164029563D01*
X242481443Y-164035227D01*
X242503387Y-164043079D01*
X242524457Y-164053044D01*
X242544448Y-164065026D01*
X242563168Y-164078910D01*
X242580438Y-164094562D01*
X242596090Y-164111832D01*
X242609974Y-164130552D01*
X242621956Y-164150543D01*
X242631921Y-164171613D01*
X242639773Y-164193557D01*
X242645437Y-164216166D01*
X242648856Y-164239221D01*
X242650000Y-164262500D01*
X242650000Y-164737500D01*
X242648856Y-164760779D01*
X242645437Y-164783834D01*
X242639773Y-164806443D01*
X242631921Y-164828387D01*
X242621956Y-164849457D01*
X242609974Y-164869448D01*
X242596090Y-164888168D01*
X242580438Y-164905438D01*
X242563168Y-164921090D01*
X242544448Y-164934974D01*
X242524457Y-164946956D01*
X242503387Y-164956921D01*
X242481443Y-164964773D01*
X242458834Y-164970437D01*
X242435779Y-164973856D01*
X242412500Y-164975000D01*
X241837500Y-164975000D01*
X241814221Y-164973856D01*
X241791166Y-164970437D01*
X241768557Y-164964773D01*
X241746613Y-164956921D01*
X241725543Y-164946956D01*
X241705552Y-164934974D01*
X241686832Y-164921090D01*
X241669562Y-164905438D01*
X241653910Y-164888168D01*
X241640026Y-164869448D01*
X241628044Y-164849457D01*
X241618079Y-164828387D01*
X241610227Y-164806443D01*
X241604563Y-164783834D01*
X241601144Y-164760779D01*
X241600000Y-164737500D01*
X241600000Y-164262500D01*
X241601144Y-164239221D01*
X241604563Y-164216166D01*
X241610227Y-164193557D01*
X241618079Y-164171613D01*
X241628044Y-164150543D01*
X241640026Y-164130552D01*
X241653910Y-164111832D01*
X241669562Y-164094562D01*
X241686832Y-164078910D01*
X241705552Y-164065026D01*
X241725543Y-164053044D01*
X241746613Y-164043079D01*
X241768557Y-164035227D01*
X241791166Y-164029563D01*
X241814221Y-164026144D01*
X241837500Y-164025000D01*
X242412500Y-164025000D01*
X242435779Y-164026144D01*
G37*
G36*
X240685779Y-162026144D02*
G01*
X240708834Y-162029563D01*
X240731443Y-162035227D01*
X240753387Y-162043079D01*
X240774457Y-162053044D01*
X240794448Y-162065026D01*
X240813168Y-162078910D01*
X240830438Y-162094562D01*
X240846090Y-162111832D01*
X240859974Y-162130552D01*
X240871956Y-162150543D01*
X240881921Y-162171613D01*
X240889773Y-162193557D01*
X240895437Y-162216166D01*
X240898856Y-162239221D01*
X240900000Y-162262500D01*
X240900000Y-162737500D01*
X240898856Y-162760779D01*
X240895437Y-162783834D01*
X240889773Y-162806443D01*
X240881921Y-162828387D01*
X240871956Y-162849457D01*
X240859974Y-162869448D01*
X240846090Y-162888168D01*
X240830438Y-162905438D01*
X240813168Y-162921090D01*
X240794448Y-162934974D01*
X240774457Y-162946956D01*
X240753387Y-162956921D01*
X240731443Y-162964773D01*
X240708834Y-162970437D01*
X240685779Y-162973856D01*
X240662500Y-162975000D01*
X240087500Y-162975000D01*
X240064221Y-162973856D01*
X240041166Y-162970437D01*
X240018557Y-162964773D01*
X239996613Y-162956921D01*
X239975543Y-162946956D01*
X239955552Y-162934974D01*
X239936832Y-162921090D01*
X239919562Y-162905438D01*
X239903910Y-162888168D01*
X239890026Y-162869448D01*
X239878044Y-162849457D01*
X239868079Y-162828387D01*
X239860227Y-162806443D01*
X239854563Y-162783834D01*
X239851144Y-162760779D01*
X239850000Y-162737500D01*
X239850000Y-162262500D01*
X239851144Y-162239221D01*
X239854563Y-162216166D01*
X239860227Y-162193557D01*
X239868079Y-162171613D01*
X239878044Y-162150543D01*
X239890026Y-162130552D01*
X239903910Y-162111832D01*
X239919562Y-162094562D01*
X239936832Y-162078910D01*
X239955552Y-162065026D01*
X239975543Y-162053044D01*
X239996613Y-162043079D01*
X240018557Y-162035227D01*
X240041166Y-162029563D01*
X240064221Y-162026144D01*
X240087500Y-162025000D01*
X240662500Y-162025000D01*
X240685779Y-162026144D01*
G37*
G36*
X242435779Y-162026144D02*
G01*
X242458834Y-162029563D01*
X242481443Y-162035227D01*
X242503387Y-162043079D01*
X242524457Y-162053044D01*
X242544448Y-162065026D01*
X242563168Y-162078910D01*
X242580438Y-162094562D01*
X242596090Y-162111832D01*
X242609974Y-162130552D01*
X242621956Y-162150543D01*
X242631921Y-162171613D01*
X242639773Y-162193557D01*
X242645437Y-162216166D01*
X242648856Y-162239221D01*
X242650000Y-162262500D01*
X242650000Y-162737500D01*
X242648856Y-162760779D01*
X242645437Y-162783834D01*
X242639773Y-162806443D01*
X242631921Y-162828387D01*
X242621956Y-162849457D01*
X242609974Y-162869448D01*
X242596090Y-162888168D01*
X242580438Y-162905438D01*
X242563168Y-162921090D01*
X242544448Y-162934974D01*
X242524457Y-162946956D01*
X242503387Y-162956921D01*
X242481443Y-162964773D01*
X242458834Y-162970437D01*
X242435779Y-162973856D01*
X242412500Y-162975000D01*
X241837500Y-162975000D01*
X241814221Y-162973856D01*
X241791166Y-162970437D01*
X241768557Y-162964773D01*
X241746613Y-162956921D01*
X241725543Y-162946956D01*
X241705552Y-162934974D01*
X241686832Y-162921090D01*
X241669562Y-162905438D01*
X241653910Y-162888168D01*
X241640026Y-162869448D01*
X241628044Y-162849457D01*
X241618079Y-162828387D01*
X241610227Y-162806443D01*
X241604563Y-162783834D01*
X241601144Y-162760779D01*
X241600000Y-162737500D01*
X241600000Y-162262500D01*
X241601144Y-162239221D01*
X241604563Y-162216166D01*
X241610227Y-162193557D01*
X241618079Y-162171613D01*
X241628044Y-162150543D01*
X241640026Y-162130552D01*
X241653910Y-162111832D01*
X241669562Y-162094562D01*
X241686832Y-162078910D01*
X241705552Y-162065026D01*
X241725543Y-162053044D01*
X241746613Y-162043079D01*
X241768557Y-162035227D01*
X241791166Y-162029563D01*
X241814221Y-162026144D01*
X241837500Y-162025000D01*
X242412500Y-162025000D01*
X242435779Y-162026144D01*
G37*
G36*
X231685779Y-162026144D02*
G01*
X231708834Y-162029563D01*
X231731443Y-162035227D01*
X231753387Y-162043079D01*
X231774457Y-162053044D01*
X231794448Y-162065026D01*
X231813168Y-162078910D01*
X231830438Y-162094562D01*
X231846090Y-162111832D01*
X231859974Y-162130552D01*
X231871956Y-162150543D01*
X231881921Y-162171613D01*
X231889773Y-162193557D01*
X231895437Y-162216166D01*
X231898856Y-162239221D01*
X231900000Y-162262500D01*
X231900000Y-162737500D01*
X231898856Y-162760779D01*
X231895437Y-162783834D01*
X231889773Y-162806443D01*
X231881921Y-162828387D01*
X231871956Y-162849457D01*
X231859974Y-162869448D01*
X231846090Y-162888168D01*
X231830438Y-162905438D01*
X231813168Y-162921090D01*
X231794448Y-162934974D01*
X231774457Y-162946956D01*
X231753387Y-162956921D01*
X231731443Y-162964773D01*
X231708834Y-162970437D01*
X231685779Y-162973856D01*
X231662500Y-162975000D01*
X231087500Y-162975000D01*
X231064221Y-162973856D01*
X231041166Y-162970437D01*
X231018557Y-162964773D01*
X230996613Y-162956921D01*
X230975543Y-162946956D01*
X230955552Y-162934974D01*
X230936832Y-162921090D01*
X230919562Y-162905438D01*
X230903910Y-162888168D01*
X230890026Y-162869448D01*
X230878044Y-162849457D01*
X230868079Y-162828387D01*
X230860227Y-162806443D01*
X230854563Y-162783834D01*
X230851144Y-162760779D01*
X230850000Y-162737500D01*
X230850000Y-162262500D01*
X230851144Y-162239221D01*
X230854563Y-162216166D01*
X230860227Y-162193557D01*
X230868079Y-162171613D01*
X230878044Y-162150543D01*
X230890026Y-162130552D01*
X230903910Y-162111832D01*
X230919562Y-162094562D01*
X230936832Y-162078910D01*
X230955552Y-162065026D01*
X230975543Y-162053044D01*
X230996613Y-162043079D01*
X231018557Y-162035227D01*
X231041166Y-162029563D01*
X231064221Y-162026144D01*
X231087500Y-162025000D01*
X231662500Y-162025000D01*
X231685779Y-162026144D01*
G37*
G36*
X233435779Y-162026144D02*
G01*
X233458834Y-162029563D01*
X233481443Y-162035227D01*
X233503387Y-162043079D01*
X233524457Y-162053044D01*
X233544448Y-162065026D01*
X233563168Y-162078910D01*
X233580438Y-162094562D01*
X233596090Y-162111832D01*
X233609974Y-162130552D01*
X233621956Y-162150543D01*
X233631921Y-162171613D01*
X233639773Y-162193557D01*
X233645437Y-162216166D01*
X233648856Y-162239221D01*
X233650000Y-162262500D01*
X233650000Y-162737500D01*
X233648856Y-162760779D01*
X233645437Y-162783834D01*
X233639773Y-162806443D01*
X233631921Y-162828387D01*
X233621956Y-162849457D01*
X233609974Y-162869448D01*
X233596090Y-162888168D01*
X233580438Y-162905438D01*
X233563168Y-162921090D01*
X233544448Y-162934974D01*
X233524457Y-162946956D01*
X233503387Y-162956921D01*
X233481443Y-162964773D01*
X233458834Y-162970437D01*
X233435779Y-162973856D01*
X233412500Y-162975000D01*
X232837500Y-162975000D01*
X232814221Y-162973856D01*
X232791166Y-162970437D01*
X232768557Y-162964773D01*
X232746613Y-162956921D01*
X232725543Y-162946956D01*
X232705552Y-162934974D01*
X232686832Y-162921090D01*
X232669562Y-162905438D01*
X232653910Y-162888168D01*
X232640026Y-162869448D01*
X232628044Y-162849457D01*
X232618079Y-162828387D01*
X232610227Y-162806443D01*
X232604563Y-162783834D01*
X232601144Y-162760779D01*
X232600000Y-162737500D01*
X232600000Y-162262500D01*
X232601144Y-162239221D01*
X232604563Y-162216166D01*
X232610227Y-162193557D01*
X232618079Y-162171613D01*
X232628044Y-162150543D01*
X232640026Y-162130552D01*
X232653910Y-162111832D01*
X232669562Y-162094562D01*
X232686832Y-162078910D01*
X232705552Y-162065026D01*
X232725543Y-162053044D01*
X232746613Y-162043079D01*
X232768557Y-162035227D01*
X232791166Y-162029563D01*
X232814221Y-162026144D01*
X232837500Y-162025000D01*
X233412500Y-162025000D01*
X233435779Y-162026144D01*
G37*
G36*
X231685779Y-164026144D02*
G01*
X231708834Y-164029563D01*
X231731443Y-164035227D01*
X231753387Y-164043079D01*
X231774457Y-164053044D01*
X231794448Y-164065026D01*
X231813168Y-164078910D01*
X231830438Y-164094562D01*
X231846090Y-164111832D01*
X231859974Y-164130552D01*
X231871956Y-164150543D01*
X231881921Y-164171613D01*
X231889773Y-164193557D01*
X231895437Y-164216166D01*
X231898856Y-164239221D01*
X231900000Y-164262500D01*
X231900000Y-164737500D01*
X231898856Y-164760779D01*
X231895437Y-164783834D01*
X231889773Y-164806443D01*
X231881921Y-164828387D01*
X231871956Y-164849457D01*
X231859974Y-164869448D01*
X231846090Y-164888168D01*
X231830438Y-164905438D01*
X231813168Y-164921090D01*
X231794448Y-164934974D01*
X231774457Y-164946956D01*
X231753387Y-164956921D01*
X231731443Y-164964773D01*
X231708834Y-164970437D01*
X231685779Y-164973856D01*
X231662500Y-164975000D01*
X231087500Y-164975000D01*
X231064221Y-164973856D01*
X231041166Y-164970437D01*
X231018557Y-164964773D01*
X230996613Y-164956921D01*
X230975543Y-164946956D01*
X230955552Y-164934974D01*
X230936832Y-164921090D01*
X230919562Y-164905438D01*
X230903910Y-164888168D01*
X230890026Y-164869448D01*
X230878044Y-164849457D01*
X230868079Y-164828387D01*
X230860227Y-164806443D01*
X230854563Y-164783834D01*
X230851144Y-164760779D01*
X230850000Y-164737500D01*
X230850000Y-164262500D01*
X230851144Y-164239221D01*
X230854563Y-164216166D01*
X230860227Y-164193557D01*
X230868079Y-164171613D01*
X230878044Y-164150543D01*
X230890026Y-164130552D01*
X230903910Y-164111832D01*
X230919562Y-164094562D01*
X230936832Y-164078910D01*
X230955552Y-164065026D01*
X230975543Y-164053044D01*
X230996613Y-164043079D01*
X231018557Y-164035227D01*
X231041166Y-164029563D01*
X231064221Y-164026144D01*
X231087500Y-164025000D01*
X231662500Y-164025000D01*
X231685779Y-164026144D01*
G37*
G36*
X233435779Y-164026144D02*
G01*
X233458834Y-164029563D01*
X233481443Y-164035227D01*
X233503387Y-164043079D01*
X233524457Y-164053044D01*
X233544448Y-164065026D01*
X233563168Y-164078910D01*
X233580438Y-164094562D01*
X233596090Y-164111832D01*
X233609974Y-164130552D01*
X233621956Y-164150543D01*
X233631921Y-164171613D01*
X233639773Y-164193557D01*
X233645437Y-164216166D01*
X233648856Y-164239221D01*
X233650000Y-164262500D01*
X233650000Y-164737500D01*
X233648856Y-164760779D01*
X233645437Y-164783834D01*
X233639773Y-164806443D01*
X233631921Y-164828387D01*
X233621956Y-164849457D01*
X233609974Y-164869448D01*
X233596090Y-164888168D01*
X233580438Y-164905438D01*
X233563168Y-164921090D01*
X233544448Y-164934974D01*
X233524457Y-164946956D01*
X233503387Y-164956921D01*
X233481443Y-164964773D01*
X233458834Y-164970437D01*
X233435779Y-164973856D01*
X233412500Y-164975000D01*
X232837500Y-164975000D01*
X232814221Y-164973856D01*
X232791166Y-164970437D01*
X232768557Y-164964773D01*
X232746613Y-164956921D01*
X232725543Y-164946956D01*
X232705552Y-164934974D01*
X232686832Y-164921090D01*
X232669562Y-164905438D01*
X232653910Y-164888168D01*
X232640026Y-164869448D01*
X232628044Y-164849457D01*
X232618079Y-164828387D01*
X232610227Y-164806443D01*
X232604563Y-164783834D01*
X232601144Y-164760779D01*
X232600000Y-164737500D01*
X232600000Y-164262500D01*
X232601144Y-164239221D01*
X232604563Y-164216166D01*
X232610227Y-164193557D01*
X232618079Y-164171613D01*
X232628044Y-164150543D01*
X232640026Y-164130552D01*
X232653910Y-164111832D01*
X232669562Y-164094562D01*
X232686832Y-164078910D01*
X232705552Y-164065026D01*
X232725543Y-164053044D01*
X232746613Y-164043079D01*
X232768557Y-164035227D01*
X232791166Y-164029563D01*
X232814221Y-164026144D01*
X232837500Y-164025000D01*
X233412500Y-164025000D01*
X233435779Y-164026144D01*
G37*
G36*
X231685779Y-166026144D02*
G01*
X231708834Y-166029563D01*
X231731443Y-166035227D01*
X231753387Y-166043079D01*
X231774457Y-166053044D01*
X231794448Y-166065026D01*
X231813168Y-166078910D01*
X231830438Y-166094562D01*
X231846090Y-166111832D01*
X231859974Y-166130552D01*
X231871956Y-166150543D01*
X231881921Y-166171613D01*
X231889773Y-166193557D01*
X231895437Y-166216166D01*
X231898856Y-166239221D01*
X231900000Y-166262500D01*
X231900000Y-166737500D01*
X231898856Y-166760779D01*
X231895437Y-166783834D01*
X231889773Y-166806443D01*
X231881921Y-166828387D01*
X231871956Y-166849457D01*
X231859974Y-166869448D01*
X231846090Y-166888168D01*
X231830438Y-166905438D01*
X231813168Y-166921090D01*
X231794448Y-166934974D01*
X231774457Y-166946956D01*
X231753387Y-166956921D01*
X231731443Y-166964773D01*
X231708834Y-166970437D01*
X231685779Y-166973856D01*
X231662500Y-166975000D01*
X231087500Y-166975000D01*
X231064221Y-166973856D01*
X231041166Y-166970437D01*
X231018557Y-166964773D01*
X230996613Y-166956921D01*
X230975543Y-166946956D01*
X230955552Y-166934974D01*
X230936832Y-166921090D01*
X230919562Y-166905438D01*
X230903910Y-166888168D01*
X230890026Y-166869448D01*
X230878044Y-166849457D01*
X230868079Y-166828387D01*
X230860227Y-166806443D01*
X230854563Y-166783834D01*
X230851144Y-166760779D01*
X230850000Y-166737500D01*
X230850000Y-166262500D01*
X230851144Y-166239221D01*
X230854563Y-166216166D01*
X230860227Y-166193557D01*
X230868079Y-166171613D01*
X230878044Y-166150543D01*
X230890026Y-166130552D01*
X230903910Y-166111832D01*
X230919562Y-166094562D01*
X230936832Y-166078910D01*
X230955552Y-166065026D01*
X230975543Y-166053044D01*
X230996613Y-166043079D01*
X231018557Y-166035227D01*
X231041166Y-166029563D01*
X231064221Y-166026144D01*
X231087500Y-166025000D01*
X231662500Y-166025000D01*
X231685779Y-166026144D01*
G37*
G36*
X233435779Y-166026144D02*
G01*
X233458834Y-166029563D01*
X233481443Y-166035227D01*
X233503387Y-166043079D01*
X233524457Y-166053044D01*
X233544448Y-166065026D01*
X233563168Y-166078910D01*
X233580438Y-166094562D01*
X233596090Y-166111832D01*
X233609974Y-166130552D01*
X233621956Y-166150543D01*
X233631921Y-166171613D01*
X233639773Y-166193557D01*
X233645437Y-166216166D01*
X233648856Y-166239221D01*
X233650000Y-166262500D01*
X233650000Y-166737500D01*
X233648856Y-166760779D01*
X233645437Y-166783834D01*
X233639773Y-166806443D01*
X233631921Y-166828387D01*
X233621956Y-166849457D01*
X233609974Y-166869448D01*
X233596090Y-166888168D01*
X233580438Y-166905438D01*
X233563168Y-166921090D01*
X233544448Y-166934974D01*
X233524457Y-166946956D01*
X233503387Y-166956921D01*
X233481443Y-166964773D01*
X233458834Y-166970437D01*
X233435779Y-166973856D01*
X233412500Y-166975000D01*
X232837500Y-166975000D01*
X232814221Y-166973856D01*
X232791166Y-166970437D01*
X232768557Y-166964773D01*
X232746613Y-166956921D01*
X232725543Y-166946956D01*
X232705552Y-166934974D01*
X232686832Y-166921090D01*
X232669562Y-166905438D01*
X232653910Y-166888168D01*
X232640026Y-166869448D01*
X232628044Y-166849457D01*
X232618079Y-166828387D01*
X232610227Y-166806443D01*
X232604563Y-166783834D01*
X232601144Y-166760779D01*
X232600000Y-166737500D01*
X232600000Y-166262500D01*
X232601144Y-166239221D01*
X232604563Y-166216166D01*
X232610227Y-166193557D01*
X232618079Y-166171613D01*
X232628044Y-166150543D01*
X232640026Y-166130552D01*
X232653910Y-166111832D01*
X232669562Y-166094562D01*
X232686832Y-166078910D01*
X232705552Y-166065026D01*
X232725543Y-166053044D01*
X232746613Y-166043079D01*
X232768557Y-166035227D01*
X232791166Y-166029563D01*
X232814221Y-166026144D01*
X232837500Y-166025000D01*
X233412500Y-166025000D01*
X233435779Y-166026144D01*
G37*
G36*
X231685779Y-168026144D02*
G01*
X231708834Y-168029563D01*
X231731443Y-168035227D01*
X231753387Y-168043079D01*
X231774457Y-168053044D01*
X231794448Y-168065026D01*
X231813168Y-168078910D01*
X231830438Y-168094562D01*
X231846090Y-168111832D01*
X231859974Y-168130552D01*
X231871956Y-168150543D01*
X231881921Y-168171613D01*
X231889773Y-168193557D01*
X231895437Y-168216166D01*
X231898856Y-168239221D01*
X231900000Y-168262500D01*
X231900000Y-168737500D01*
X231898856Y-168760779D01*
X231895437Y-168783834D01*
X231889773Y-168806443D01*
X231881921Y-168828387D01*
X231871956Y-168849457D01*
X231859974Y-168869448D01*
X231846090Y-168888168D01*
X231830438Y-168905438D01*
X231813168Y-168921090D01*
X231794448Y-168934974D01*
X231774457Y-168946956D01*
X231753387Y-168956921D01*
X231731443Y-168964773D01*
X231708834Y-168970437D01*
X231685779Y-168973856D01*
X231662500Y-168975000D01*
X231087500Y-168975000D01*
X231064221Y-168973856D01*
X231041166Y-168970437D01*
X231018557Y-168964773D01*
X230996613Y-168956921D01*
X230975543Y-168946956D01*
X230955552Y-168934974D01*
X230936832Y-168921090D01*
X230919562Y-168905438D01*
X230903910Y-168888168D01*
X230890026Y-168869448D01*
X230878044Y-168849457D01*
X230868079Y-168828387D01*
X230860227Y-168806443D01*
X230854563Y-168783834D01*
X230851144Y-168760779D01*
X230850000Y-168737500D01*
X230850000Y-168262500D01*
X230851144Y-168239221D01*
X230854563Y-168216166D01*
X230860227Y-168193557D01*
X230868079Y-168171613D01*
X230878044Y-168150543D01*
X230890026Y-168130552D01*
X230903910Y-168111832D01*
X230919562Y-168094562D01*
X230936832Y-168078910D01*
X230955552Y-168065026D01*
X230975543Y-168053044D01*
X230996613Y-168043079D01*
X231018557Y-168035227D01*
X231041166Y-168029563D01*
X231064221Y-168026144D01*
X231087500Y-168025000D01*
X231662500Y-168025000D01*
X231685779Y-168026144D01*
G37*
G36*
X233435779Y-168026144D02*
G01*
X233458834Y-168029563D01*
X233481443Y-168035227D01*
X233503387Y-168043079D01*
X233524457Y-168053044D01*
X233544448Y-168065026D01*
X233563168Y-168078910D01*
X233580438Y-168094562D01*
X233596090Y-168111832D01*
X233609974Y-168130552D01*
X233621956Y-168150543D01*
X233631921Y-168171613D01*
X233639773Y-168193557D01*
X233645437Y-168216166D01*
X233648856Y-168239221D01*
X233650000Y-168262500D01*
X233650000Y-168737500D01*
X233648856Y-168760779D01*
X233645437Y-168783834D01*
X233639773Y-168806443D01*
X233631921Y-168828387D01*
X233621956Y-168849457D01*
X233609974Y-168869448D01*
X233596090Y-168888168D01*
X233580438Y-168905438D01*
X233563168Y-168921090D01*
X233544448Y-168934974D01*
X233524457Y-168946956D01*
X233503387Y-168956921D01*
X233481443Y-168964773D01*
X233458834Y-168970437D01*
X233435779Y-168973856D01*
X233412500Y-168975000D01*
X232837500Y-168975000D01*
X232814221Y-168973856D01*
X232791166Y-168970437D01*
X232768557Y-168964773D01*
X232746613Y-168956921D01*
X232725543Y-168946956D01*
X232705552Y-168934974D01*
X232686832Y-168921090D01*
X232669562Y-168905438D01*
X232653910Y-168888168D01*
X232640026Y-168869448D01*
X232628044Y-168849457D01*
X232618079Y-168828387D01*
X232610227Y-168806443D01*
X232604563Y-168783834D01*
X232601144Y-168760779D01*
X232600000Y-168737500D01*
X232600000Y-168262500D01*
X232601144Y-168239221D01*
X232604563Y-168216166D01*
X232610227Y-168193557D01*
X232618079Y-168171613D01*
X232628044Y-168150543D01*
X232640026Y-168130552D01*
X232653910Y-168111832D01*
X232669562Y-168094562D01*
X232686832Y-168078910D01*
X232705552Y-168065026D01*
X232725543Y-168053044D01*
X232746613Y-168043079D01*
X232768557Y-168035227D01*
X232791166Y-168029563D01*
X232814221Y-168026144D01*
X232837500Y-168025000D01*
X233412500Y-168025000D01*
X233435779Y-168026144D01*
G37*
G36*
X231685779Y-170026144D02*
G01*
X231708834Y-170029563D01*
X231731443Y-170035227D01*
X231753387Y-170043079D01*
X231774457Y-170053044D01*
X231794448Y-170065026D01*
X231813168Y-170078910D01*
X231830438Y-170094562D01*
X231846090Y-170111832D01*
X231859974Y-170130552D01*
X231871956Y-170150543D01*
X231881921Y-170171613D01*
X231889773Y-170193557D01*
X231895437Y-170216166D01*
X231898856Y-170239221D01*
X231900000Y-170262500D01*
X231900000Y-170737500D01*
X231898856Y-170760779D01*
X231895437Y-170783834D01*
X231889773Y-170806443D01*
X231881921Y-170828387D01*
X231871956Y-170849457D01*
X231859974Y-170869448D01*
X231846090Y-170888168D01*
X231830438Y-170905438D01*
X231813168Y-170921090D01*
X231794448Y-170934974D01*
X231774457Y-170946956D01*
X231753387Y-170956921D01*
X231731443Y-170964773D01*
X231708834Y-170970437D01*
X231685779Y-170973856D01*
X231662500Y-170975000D01*
X231087500Y-170975000D01*
X231064221Y-170973856D01*
X231041166Y-170970437D01*
X231018557Y-170964773D01*
X230996613Y-170956921D01*
X230975543Y-170946956D01*
X230955552Y-170934974D01*
X230936832Y-170921090D01*
X230919562Y-170905438D01*
X230903910Y-170888168D01*
X230890026Y-170869448D01*
X230878044Y-170849457D01*
X230868079Y-170828387D01*
X230860227Y-170806443D01*
X230854563Y-170783834D01*
X230851144Y-170760779D01*
X230850000Y-170737500D01*
X230850000Y-170262500D01*
X230851144Y-170239221D01*
X230854563Y-170216166D01*
X230860227Y-170193557D01*
X230868079Y-170171613D01*
X230878044Y-170150543D01*
X230890026Y-170130552D01*
X230903910Y-170111832D01*
X230919562Y-170094562D01*
X230936832Y-170078910D01*
X230955552Y-170065026D01*
X230975543Y-170053044D01*
X230996613Y-170043079D01*
X231018557Y-170035227D01*
X231041166Y-170029563D01*
X231064221Y-170026144D01*
X231087500Y-170025000D01*
X231662500Y-170025000D01*
X231685779Y-170026144D01*
G37*
G36*
X233435779Y-170026144D02*
G01*
X233458834Y-170029563D01*
X233481443Y-170035227D01*
X233503387Y-170043079D01*
X233524457Y-170053044D01*
X233544448Y-170065026D01*
X233563168Y-170078910D01*
X233580438Y-170094562D01*
X233596090Y-170111832D01*
X233609974Y-170130552D01*
X233621956Y-170150543D01*
X233631921Y-170171613D01*
X233639773Y-170193557D01*
X233645437Y-170216166D01*
X233648856Y-170239221D01*
X233650000Y-170262500D01*
X233650000Y-170737500D01*
X233648856Y-170760779D01*
X233645437Y-170783834D01*
X233639773Y-170806443D01*
X233631921Y-170828387D01*
X233621956Y-170849457D01*
X233609974Y-170869448D01*
X233596090Y-170888168D01*
X233580438Y-170905438D01*
X233563168Y-170921090D01*
X233544448Y-170934974D01*
X233524457Y-170946956D01*
X233503387Y-170956921D01*
X233481443Y-170964773D01*
X233458834Y-170970437D01*
X233435779Y-170973856D01*
X233412500Y-170975000D01*
X232837500Y-170975000D01*
X232814221Y-170973856D01*
X232791166Y-170970437D01*
X232768557Y-170964773D01*
X232746613Y-170956921D01*
X232725543Y-170946956D01*
X232705552Y-170934974D01*
X232686832Y-170921090D01*
X232669562Y-170905438D01*
X232653910Y-170888168D01*
X232640026Y-170869448D01*
X232628044Y-170849457D01*
X232618079Y-170828387D01*
X232610227Y-170806443D01*
X232604563Y-170783834D01*
X232601144Y-170760779D01*
X232600000Y-170737500D01*
X232600000Y-170262500D01*
X232601144Y-170239221D01*
X232604563Y-170216166D01*
X232610227Y-170193557D01*
X232618079Y-170171613D01*
X232628044Y-170150543D01*
X232640026Y-170130552D01*
X232653910Y-170111832D01*
X232669562Y-170094562D01*
X232686832Y-170078910D01*
X232705552Y-170065026D01*
X232725543Y-170053044D01*
X232746613Y-170043079D01*
X232768557Y-170035227D01*
X232791166Y-170029563D01*
X232814221Y-170026144D01*
X232837500Y-170025000D01*
X233412500Y-170025000D01*
X233435779Y-170026144D01*
G37*
D13*
X260630000Y-155500000D03*
D12*
X260630000Y-158040000D03*
X258090000Y-155500000D03*
X258090000Y-158040000D03*
X255550000Y-155500000D03*
X255550000Y-158040000D03*
X253010000Y-155500000D03*
X253010000Y-158040000D03*
X250470000Y-155500000D03*
X250470000Y-158040000D03*
X247930000Y-155500000D03*
X247930000Y-158040000D03*
X245390000Y-155500000D03*
X245390000Y-158040000D03*
X242850000Y-155500000D03*
X242850000Y-158040000D03*
X240310000Y-155500000D03*
X240310000Y-158040000D03*
X237770000Y-155500000D03*
X237770000Y-158040000D03*
X235230000Y-155500000D03*
X235230000Y-158040000D03*
X232690000Y-155500000D03*
X232690000Y-158040000D03*
X230150000Y-155500000D03*
X230150000Y-158040000D03*
X227610000Y-155500000D03*
X227610000Y-158040000D03*
X225070000Y-155500000D03*
X225070000Y-158040000D03*
X222530000Y-155500000D03*
X222530000Y-158040000D03*
X219990000Y-155500000D03*
X219990000Y-158040000D03*
X217450000Y-155500000D03*
X217450000Y-158040000D03*
X214910000Y-155500000D03*
X214910000Y-158040000D03*
X212370000Y-155500000D03*
X212370000Y-158040000D03*
M02*
