M48
INCH,TZ
T1C0.0118
T2C0.0236
T3C0.0315
T4C0.0394
T5C0.0512
%
G90
G05
T1
X86417Y-65748
X86417Y-67520
X89862Y-65054
X89862Y-66875
X89961Y-64075
X90256Y-62894
X90256Y-63484
X90256Y-63839
X90551Y-63189
X94390Y-64370
X94390Y-65157
X94390Y-65945
X94390Y-66732
X94390Y-67520
X94980Y-61713
X96555Y-66634
X97047Y-66732
X97047Y-67126
X97247Y-64373
X97343Y-64862
X97343Y-65256
X97441Y-63976
X98228Y-66732
X98425Y-65157
X99311Y-67126
X99508Y-64567
X99508Y-64961
X99508Y-65354
X99606Y-65945
X100197Y-62992
T2
X99606Y-64075
T3
X102165Y-63780
X102165Y-65157
T4
X88610Y-60220
X89610Y-60220
X90610Y-60220
X91610Y-60220
X92610Y-60220
X93610Y-60220
X101559Y-66929
X102559Y-66929
X94610Y-60220
X95610Y-60220
X83610Y-65220
X84610Y-65220
X85610Y-65220
X83610Y-63220
X83610Y-64220
X84610Y-63220
X85610Y-63220
X83610Y-60220
X84610Y-60220
X85610Y-60220
X83610Y-61220
X83610Y-62220
X84610Y-61220
X84610Y-62220
X85610Y-61220
X85610Y-62220
X86610Y-61220
X86610Y-62220
X87610Y-61220
X87610Y-62220
X88610Y-61220
X88610Y-62220
X89610Y-61220
X89610Y-62220
X90610Y-61220
X90610Y-62220
X91610Y-61220
X91610Y-62220
X92610Y-61220
X92610Y-62220
X93610Y-61220
X93610Y-62220
X94610Y-61220
X94610Y-62220
X95610Y-61220
X95610Y-62220
X96610Y-61220
X96610Y-62220
X97610Y-61220
X97610Y-62220
X98610Y-61220
X98610Y-62220
X99610Y-61220
X99610Y-62220
X100610Y-61220
X100610Y-62220
X101610Y-61220
X101610Y-62220
X102610Y-61220
X102610Y-62220
X96610Y-60220
X97610Y-60220
X98610Y-60220
X99610Y-60220
X100610Y-60220
X101610Y-60220
X102610Y-60220
X83610Y-67220
X84610Y-67220
X85610Y-67220
T5
X106201Y-64764
X106201Y-66764
X106201Y-60598
X106201Y-62598
T0
M30
