M48
; DRILL file {KiCad (6.0.1)} date Sun 13 Feb 2022 16:15:42 CET
; FORMAT={-:-/ absolute / inch / decimal}
; #@! TF.CreationDate,2022-02-13T16:15:42+01:00
; #@! TF.GenerationSoftware,Kicad,Pcbnew,(6.0.1)
; #@! TF.FileFunction,Plated,1,2,PTH
FMAT,2
INCH
; #@! TA.AperFunction,Plated,PTH,ViaDrill
T1C0.0118
; #@! TA.AperFunction,Plated,PTH,ComponentDrill
T2C0.0394
; #@! TA.AperFunction,Plated,PTH,ComponentDrill
T3C0.0512
; #@! TA.AperFunction,Plated,PTH,ComponentDrill
T4C0.0630
%
G90
G05
T1
X1.2795Y-1.4764
X1.2795Y-1.5551
X1.2795Y-1.6339
X1.2795Y-1.7126
X1.2795Y-1.7913
X1.6339Y-1.4764
X1.6339Y-1.5551
X1.6339Y-1.6339
X1.6339Y-1.7126
X1.6339Y-1.7913
X1.9193Y-1.4173
X2.0177Y-1.3878
X2.1161Y-1.4764
X2.1211Y-1.6585
X2.1358Y-1.3878
X2.1506Y-1.7913
X2.1555Y-1.4764
X2.1555Y-1.5157
X2.1555Y-1.5551
X2.1555Y-1.6339
X2.1949Y-1.5551
X2.1949Y-1.6535
X2.2146Y-1.4567
X2.2166Y-1.6308
X2.2343Y-1.4862
X2.2343Y-1.6043
X2.3425Y-1.7913
X2.3524Y-1.4961
X2.3819Y-1.4961
X2.4114Y-1.4961
X2.4311Y-1.3583
T2
X0.9713Y-1.189
X1.0713Y-1.189
X1.0713Y-1.289
X1.1713Y-1.189
X1.1713Y-1.289
X1.2713Y-1.189
X1.2713Y-1.289
X1.3713Y-1.189
X1.3713Y-1.289
X1.4713Y-1.189
X1.4713Y-1.289
X1.5713Y-1.189
X1.5713Y-1.289
X1.6713Y-1.189
X1.6713Y-1.289
X1.7713Y-1.189
X1.7713Y-1.289
X1.8713Y-1.189
X1.8713Y-1.289
X1.9713Y-1.189
X1.9713Y-1.289
X2.0713Y-1.189
X2.0713Y-1.289
X2.1713Y-1.189
X2.1713Y-1.289
X2.2713Y-1.189
X2.2713Y-1.289
X2.3713Y-1.189
X2.3713Y-1.289
X2.4713Y-1.189
X2.4713Y-1.289
X2.5295Y-1.6628
X2.5295Y-1.7628
X2.5713Y-1.189
X2.5713Y-1.289
X2.6713Y-1.189
X2.6713Y-1.289
X2.7713Y-1.189
X2.7713Y-1.289
X2.8713Y-1.189
X2.8713Y-1.289
X2.99Y-1.2894
X2.9906Y-1.189
X3.09Y-1.2894
X3.0906Y-1.189
X3.19Y-1.2894
X3.1906Y-1.189
T3
X2.8661Y-1.5045
X2.8661Y-1.7045
T4
X2.6969Y-1.5945
X2.815Y-1.4094
X2.9331Y-1.5945
T0
M30
