%TF.GenerationSoftware,KiCad,Pcbnew,(6.0.1)*%
%TF.CreationDate,2022-02-13T16:15:42+01:00*%
%TF.ProjectId,PiStackMon_lite,50695374-6163-46b4-9d6f-6e5f6c697465,rev?*%
%TF.SameCoordinates,Original*%
%TF.FileFunction,Legend,Bot*%
%TF.FilePolarity,Positive*%
%FSLAX46Y46*%
G04 Gerber Fmt 4.6, Leading zero omitted, Abs format (unit mm)*
G04 Created by KiCad (PCBNEW (6.0.1)) date 2022-02-13 16:15:42*
%MOMM*%
%LPD*%
G01*
G04 APERTURE LIST*
%ADD10C,0.150000*%
%ADD11C,0.200000*%
%ADD12C,0.160000*%
%ADD13C,0.010000*%
%ADD14C,0.120000*%
G04 APERTURE END LIST*
D10*
X74260000Y-42830000D02*
X74300000Y-34200000D01*
X23300000Y-34200000D02*
X23300000Y-42830000D01*
X74300000Y-34200000D02*
X23300000Y-34200000D01*
D11*
X33369047Y-34952380D02*
X33369047Y-35666666D01*
X33416666Y-35809523D01*
X33511904Y-35904761D01*
X33654761Y-35952380D01*
X33750000Y-35952380D01*
X32416666Y-35952380D02*
X32892857Y-35952380D01*
X32892857Y-34952380D01*
X31511904Y-35857142D02*
X31559523Y-35904761D01*
X31702380Y-35952380D01*
X31797619Y-35952380D01*
X31940476Y-35904761D01*
X32035714Y-35809523D01*
X32083333Y-35714285D01*
X32130952Y-35523809D01*
X32130952Y-35380952D01*
X32083333Y-35190476D01*
X32035714Y-35095238D01*
X31940476Y-35000000D01*
X31797619Y-34952380D01*
X31702380Y-34952380D01*
X31559523Y-35000000D01*
X31511904Y-35047619D01*
X30797619Y-34952380D02*
X30797619Y-35666666D01*
X30845238Y-35809523D01*
X30940476Y-35904761D01*
X31083333Y-35952380D01*
X31178571Y-35952380D01*
X29845238Y-35952380D02*
X30321428Y-35952380D01*
X30321428Y-34952380D01*
X28940476Y-35857142D02*
X28988095Y-35904761D01*
X29130952Y-35952380D01*
X29226190Y-35952380D01*
X29369047Y-35904761D01*
X29464285Y-35809523D01*
X29511904Y-35714285D01*
X29559523Y-35523809D01*
X29559523Y-35380952D01*
X29511904Y-35190476D01*
X29464285Y-35095238D01*
X29369047Y-35000000D01*
X29226190Y-34952380D01*
X29130952Y-34952380D01*
X28988095Y-35000000D01*
X28940476Y-35047619D01*
X28226190Y-34952380D02*
X28226190Y-35666666D01*
X28273809Y-35809523D01*
X28369047Y-35904761D01*
X28511904Y-35952380D01*
X28607142Y-35952380D01*
X27273809Y-35952380D02*
X27750000Y-35952380D01*
X27750000Y-34952380D01*
X26369047Y-35857142D02*
X26416666Y-35904761D01*
X26559523Y-35952380D01*
X26654761Y-35952380D01*
X26797619Y-35904761D01*
X26892857Y-35809523D01*
X26940476Y-35714285D01*
X26988095Y-35523809D01*
X26988095Y-35380952D01*
X26940476Y-35190476D01*
X26892857Y-35095238D01*
X26797619Y-35000000D01*
X26654761Y-34952380D01*
X26559523Y-34952380D01*
X26416666Y-35000000D01*
X26369047Y-35047619D01*
X25654761Y-34952380D02*
X25654761Y-35666666D01*
X25702380Y-35809523D01*
X25797619Y-35904761D01*
X25940476Y-35952380D01*
X26035714Y-35952380D01*
X24702380Y-35952380D02*
X25178571Y-35952380D01*
X25178571Y-34952380D01*
X23797619Y-35857142D02*
X23845238Y-35904761D01*
X23988095Y-35952380D01*
X24083333Y-35952380D01*
X24226190Y-35904761D01*
X24321428Y-35809523D01*
X24369047Y-35714285D01*
X24416666Y-35523809D01*
X24416666Y-35380952D01*
X24369047Y-35190476D01*
X24321428Y-35095238D01*
X24226190Y-35000000D01*
X24083333Y-34952380D01*
X23988095Y-34952380D01*
X23845238Y-35000000D01*
X23797619Y-35047619D01*
D12*
X50407904Y-44897380D02*
X50407904Y-43897380D01*
X50026952Y-43897380D01*
X49931714Y-43945000D01*
X49884095Y-43992619D01*
X49836476Y-44087857D01*
X49836476Y-44230714D01*
X49884095Y-44325952D01*
X49931714Y-44373571D01*
X50026952Y-44421190D01*
X50407904Y-44421190D01*
X49407904Y-44897380D02*
X49407904Y-44230714D01*
X49407904Y-43897380D02*
X49455523Y-43945000D01*
X49407904Y-43992619D01*
X49360285Y-43945000D01*
X49407904Y-43897380D01*
X49407904Y-43992619D01*
X48979333Y-44849761D02*
X48836476Y-44897380D01*
X48598380Y-44897380D01*
X48503142Y-44849761D01*
X48455523Y-44802142D01*
X48407904Y-44706904D01*
X48407904Y-44611666D01*
X48455523Y-44516428D01*
X48503142Y-44468809D01*
X48598380Y-44421190D01*
X48788857Y-44373571D01*
X48884095Y-44325952D01*
X48931714Y-44278333D01*
X48979333Y-44183095D01*
X48979333Y-44087857D01*
X48931714Y-43992619D01*
X48884095Y-43945000D01*
X48788857Y-43897380D01*
X48550761Y-43897380D01*
X48407904Y-43945000D01*
X48122190Y-44230714D02*
X47741238Y-44230714D01*
X47979333Y-43897380D02*
X47979333Y-44754523D01*
X47931714Y-44849761D01*
X47836476Y-44897380D01*
X47741238Y-44897380D01*
X46979333Y-44897380D02*
X46979333Y-44373571D01*
X47026952Y-44278333D01*
X47122190Y-44230714D01*
X47312666Y-44230714D01*
X47407904Y-44278333D01*
X46979333Y-44849761D02*
X47074571Y-44897380D01*
X47312666Y-44897380D01*
X47407904Y-44849761D01*
X47455523Y-44754523D01*
X47455523Y-44659285D01*
X47407904Y-44564047D01*
X47312666Y-44516428D01*
X47074571Y-44516428D01*
X46979333Y-44468809D01*
X46074571Y-44849761D02*
X46169809Y-44897380D01*
X46360285Y-44897380D01*
X46455523Y-44849761D01*
X46503142Y-44802142D01*
X46550761Y-44706904D01*
X46550761Y-44421190D01*
X46503142Y-44325952D01*
X46455523Y-44278333D01*
X46360285Y-44230714D01*
X46169809Y-44230714D01*
X46074571Y-44278333D01*
X45646000Y-44897380D02*
X45646000Y-43897380D01*
X45550761Y-44516428D02*
X45265047Y-44897380D01*
X45265047Y-44230714D02*
X45646000Y-44611666D01*
X44836476Y-44897380D02*
X44836476Y-43897380D01*
X44503142Y-44611666D01*
X44169809Y-43897380D01*
X44169809Y-44897380D01*
X43550761Y-44897380D02*
X43646000Y-44849761D01*
X43693619Y-44802142D01*
X43741238Y-44706904D01*
X43741238Y-44421190D01*
X43693619Y-44325952D01*
X43646000Y-44278333D01*
X43550761Y-44230714D01*
X43407904Y-44230714D01*
X43312666Y-44278333D01*
X43265047Y-44325952D01*
X43217428Y-44421190D01*
X43217428Y-44706904D01*
X43265047Y-44802142D01*
X43312666Y-44849761D01*
X43407904Y-44897380D01*
X43550761Y-44897380D01*
X42788857Y-44230714D02*
X42788857Y-44897380D01*
X42788857Y-44325952D02*
X42741238Y-44278333D01*
X42646000Y-44230714D01*
X42503142Y-44230714D01*
X42407904Y-44278333D01*
X42360285Y-44373571D01*
X42360285Y-44897380D01*
X40646000Y-44897380D02*
X41122190Y-44897380D01*
X41122190Y-43897380D01*
X40312666Y-44897380D02*
X40312666Y-44230714D01*
X40312666Y-43897380D02*
X40360285Y-43945000D01*
X40312666Y-43992619D01*
X40265047Y-43945000D01*
X40312666Y-43897380D01*
X40312666Y-43992619D01*
X39979333Y-44230714D02*
X39598380Y-44230714D01*
X39836476Y-43897380D02*
X39836476Y-44754523D01*
X39788857Y-44849761D01*
X39693619Y-44897380D01*
X39598380Y-44897380D01*
X38884095Y-44849761D02*
X38979333Y-44897380D01*
X39169809Y-44897380D01*
X39265047Y-44849761D01*
X39312666Y-44754523D01*
X39312666Y-44373571D01*
X39265047Y-44278333D01*
X39169809Y-44230714D01*
X38979333Y-44230714D01*
X38884095Y-44278333D01*
X38836476Y-44373571D01*
X38836476Y-44468809D01*
X39312666Y-44564047D01*
X50407904Y-46507380D02*
X50407904Y-45507380D01*
X50407904Y-45888333D02*
X50312666Y-45840714D01*
X50122190Y-45840714D01*
X50026952Y-45888333D01*
X49979333Y-45935952D01*
X49931714Y-46031190D01*
X49931714Y-46316904D01*
X49979333Y-46412142D01*
X50026952Y-46459761D01*
X50122190Y-46507380D01*
X50312666Y-46507380D01*
X50407904Y-46459761D01*
X49598380Y-45840714D02*
X49360285Y-46507380D01*
X49122190Y-45840714D02*
X49360285Y-46507380D01*
X49455523Y-46745476D01*
X49503142Y-46793095D01*
X49598380Y-46840714D01*
X48122190Y-45507380D02*
X47550761Y-45507380D01*
X47836476Y-46507380D02*
X47836476Y-45507380D01*
X47074571Y-46507380D02*
X47169809Y-46459761D01*
X47217428Y-46412142D01*
X47265047Y-46316904D01*
X47265047Y-46031190D01*
X47217428Y-45935952D01*
X47169809Y-45888333D01*
X47074571Y-45840714D01*
X46931714Y-45840714D01*
X46836476Y-45888333D01*
X46788857Y-45935952D01*
X46741238Y-46031190D01*
X46741238Y-46316904D01*
X46788857Y-46412142D01*
X46836476Y-46459761D01*
X46931714Y-46507380D01*
X47074571Y-46507380D01*
X46312666Y-46507380D02*
X46312666Y-45840714D01*
X46312666Y-45935952D02*
X46265047Y-45888333D01*
X46169809Y-45840714D01*
X46026952Y-45840714D01*
X45931714Y-45888333D01*
X45884095Y-45983571D01*
X45884095Y-46507380D01*
X45884095Y-45983571D02*
X45836476Y-45888333D01*
X45741238Y-45840714D01*
X45598380Y-45840714D01*
X45503142Y-45888333D01*
X45455523Y-45983571D01*
X45455523Y-46507380D01*
X44265047Y-46459761D02*
X44122190Y-46507380D01*
X43884095Y-46507380D01*
X43788857Y-46459761D01*
X43741238Y-46412142D01*
X43693619Y-46316904D01*
X43693619Y-46221666D01*
X43741238Y-46126428D01*
X43788857Y-46078809D01*
X43884095Y-46031190D01*
X44074571Y-45983571D01*
X44169809Y-45935952D01*
X44217428Y-45888333D01*
X44265047Y-45793095D01*
X44265047Y-45697857D01*
X44217428Y-45602619D01*
X44169809Y-45555000D01*
X44074571Y-45507380D01*
X43836476Y-45507380D01*
X43693619Y-45555000D01*
X43360285Y-45840714D02*
X42836476Y-45840714D01*
X43360285Y-46507380D01*
X42836476Y-46507380D01*
X42026952Y-46459761D02*
X42122190Y-46507380D01*
X42312666Y-46507380D01*
X42407904Y-46459761D01*
X42455523Y-46412142D01*
X42503142Y-46316904D01*
X42503142Y-46031190D01*
X42455523Y-45935952D01*
X42407904Y-45888333D01*
X42312666Y-45840714D01*
X42122190Y-45840714D01*
X42026952Y-45888333D01*
X41693619Y-45840714D02*
X41169809Y-45840714D01*
X41693619Y-46507380D01*
X41169809Y-46507380D01*
X40407904Y-46459761D02*
X40503142Y-46507380D01*
X40693619Y-46507380D01*
X40788857Y-46459761D01*
X40836476Y-46364523D01*
X40836476Y-45983571D01*
X40788857Y-45888333D01*
X40693619Y-45840714D01*
X40503142Y-45840714D01*
X40407904Y-45888333D01*
X40360285Y-45983571D01*
X40360285Y-46078809D01*
X40836476Y-46174047D01*
X39979333Y-46459761D02*
X39884095Y-46507380D01*
X39693619Y-46507380D01*
X39598380Y-46459761D01*
X39550761Y-46364523D01*
X39550761Y-46316904D01*
X39598380Y-46221666D01*
X39693619Y-46174047D01*
X39836476Y-46174047D01*
X39931714Y-46126428D01*
X39979333Y-46031190D01*
X39979333Y-45983571D01*
X39931714Y-45888333D01*
X39836476Y-45840714D01*
X39693619Y-45840714D01*
X39598380Y-45888333D01*
X39122190Y-45840714D02*
X39122190Y-46507380D01*
X39122190Y-45935952D02*
X39074571Y-45888333D01*
X38979333Y-45840714D01*
X38836476Y-45840714D01*
X38741238Y-45888333D01*
X38693619Y-45983571D01*
X38693619Y-46507380D01*
X38312666Y-45840714D02*
X38074571Y-46507380D01*
X37836476Y-45840714D02*
X38074571Y-46507380D01*
X38169809Y-46745476D01*
X38217428Y-46793095D01*
X38312666Y-46840714D01*
X36741238Y-45602619D02*
X36693619Y-45555000D01*
X36598380Y-45507380D01*
X36360285Y-45507380D01*
X36265047Y-45555000D01*
X36217428Y-45602619D01*
X36169809Y-45697857D01*
X36169809Y-45793095D01*
X36217428Y-45935952D01*
X36788857Y-46507380D01*
X36169809Y-46507380D01*
X35550761Y-45507380D02*
X35455523Y-45507380D01*
X35360285Y-45555000D01*
X35312666Y-45602619D01*
X35265047Y-45697857D01*
X35217428Y-45888333D01*
X35217428Y-46126428D01*
X35265047Y-46316904D01*
X35312666Y-46412142D01*
X35360285Y-46459761D01*
X35455523Y-46507380D01*
X35550761Y-46507380D01*
X35646000Y-46459761D01*
X35693619Y-46412142D01*
X35741238Y-46316904D01*
X35788857Y-46126428D01*
X35788857Y-45888333D01*
X35741238Y-45697857D01*
X35693619Y-45602619D01*
X35646000Y-45555000D01*
X35550761Y-45507380D01*
X34836476Y-45602619D02*
X34788857Y-45555000D01*
X34693619Y-45507380D01*
X34455523Y-45507380D01*
X34360285Y-45555000D01*
X34312666Y-45602619D01*
X34265047Y-45697857D01*
X34265047Y-45793095D01*
X34312666Y-45935952D01*
X34884095Y-46507380D01*
X34265047Y-46507380D01*
X33884095Y-45602619D02*
X33836476Y-45555000D01*
X33741238Y-45507380D01*
X33503142Y-45507380D01*
X33407904Y-45555000D01*
X33360285Y-45602619D01*
X33312666Y-45697857D01*
X33312666Y-45793095D01*
X33360285Y-45935952D01*
X33931714Y-46507380D01*
X33312666Y-46507380D01*
D13*
%TO.C,LOGO1*%
X79254012Y-43469002D02*
X79222717Y-43483950D01*
X79222717Y-43483950D02*
X79192409Y-43505541D01*
X79192409Y-43505541D02*
X79169318Y-43530391D01*
X79169318Y-43530391D02*
X79152500Y-43562087D01*
X79152500Y-43562087D02*
X79141006Y-43604214D01*
X79141006Y-43604214D02*
X79133891Y-43660358D01*
X79133891Y-43660358D02*
X79130207Y-43734106D01*
X79130207Y-43734106D02*
X79129008Y-43829044D01*
X79129008Y-43829044D02*
X79128989Y-43838985D01*
X79128989Y-43838985D02*
X79128713Y-44062179D01*
X79128713Y-44062179D02*
X79267030Y-44062179D01*
X79267030Y-44062179D02*
X79267030Y-43856418D01*
X79267030Y-43856418D02*
X79267128Y-43780189D01*
X79267128Y-43780189D02*
X79267809Y-43724939D01*
X79267809Y-43724939D02*
X79269651Y-43686501D01*
X79269651Y-43686501D02*
X79273233Y-43660706D01*
X79273233Y-43660706D02*
X79279132Y-43643384D01*
X79279132Y-43643384D02*
X79287927Y-43630368D01*
X79287927Y-43630368D02*
X79300180Y-43617507D01*
X79300180Y-43617507D02*
X79343047Y-43589873D01*
X79343047Y-43589873D02*
X79389843Y-43584745D01*
X79389843Y-43584745D02*
X79434424Y-43602217D01*
X79434424Y-43602217D02*
X79449928Y-43615221D01*
X79449928Y-43615221D02*
X79461310Y-43627447D01*
X79461310Y-43627447D02*
X79469481Y-43640540D01*
X79469481Y-43640540D02*
X79474974Y-43658615D01*
X79474974Y-43658615D02*
X79478320Y-43685787D01*
X79478320Y-43685787D02*
X79480051Y-43726170D01*
X79480051Y-43726170D02*
X79480697Y-43783879D01*
X79480697Y-43783879D02*
X79480792Y-43854132D01*
X79480792Y-43854132D02*
X79480792Y-44062179D01*
X79480792Y-44062179D02*
X79619109Y-44062179D01*
X79619109Y-44062179D02*
X79619109Y-43458614D01*
X79619109Y-43458614D02*
X79549950Y-43458614D01*
X79549950Y-43458614D02*
X79508428Y-43460256D01*
X79508428Y-43460256D02*
X79487006Y-43466087D01*
X79487006Y-43466087D02*
X79480795Y-43477461D01*
X79480795Y-43477461D02*
X79480792Y-43477798D01*
X79480792Y-43477798D02*
X79477910Y-43488938D01*
X79477910Y-43488938D02*
X79465199Y-43487674D01*
X79465199Y-43487674D02*
X79439926Y-43475434D01*
X79439926Y-43475434D02*
X79382605Y-43457424D01*
X79382605Y-43457424D02*
X79317037Y-43455421D01*
X79317037Y-43455421D02*
X79254012Y-43469002D01*
X79254012Y-43469002D02*
X79254012Y-43469002D01*
G36*
X79382605Y-43457424D02*
G01*
X79439926Y-43475434D01*
X79465199Y-43487674D01*
X79477910Y-43488938D01*
X79480792Y-43477798D01*
X79480795Y-43477461D01*
X79487006Y-43466087D01*
X79508428Y-43460256D01*
X79549950Y-43458614D01*
X79619109Y-43458614D01*
X79619109Y-44062179D01*
X79480792Y-44062179D01*
X79480792Y-43854132D01*
X79480697Y-43783879D01*
X79480051Y-43726170D01*
X79478320Y-43685787D01*
X79474974Y-43658615D01*
X79469481Y-43640540D01*
X79461310Y-43627447D01*
X79449928Y-43615221D01*
X79434424Y-43602217D01*
X79389843Y-43584745D01*
X79343047Y-43589873D01*
X79300180Y-43617507D01*
X79287927Y-43630368D01*
X79279132Y-43643384D01*
X79273233Y-43660706D01*
X79269651Y-43686501D01*
X79267809Y-43724939D01*
X79267128Y-43780189D01*
X79267030Y-43856418D01*
X79267030Y-44062179D01*
X79128713Y-44062179D01*
X79128989Y-43838985D01*
X79129008Y-43829044D01*
X79130207Y-43734106D01*
X79133891Y-43660358D01*
X79141006Y-43604214D01*
X79152500Y-43562087D01*
X79169318Y-43530391D01*
X79192409Y-43505541D01*
X79222717Y-43483950D01*
X79254012Y-43469002D01*
X79317037Y-43455421D01*
X79382605Y-43457424D01*
G37*
X79382605Y-43457424D02*
X79439926Y-43475434D01*
X79465199Y-43487674D01*
X79477910Y-43488938D01*
X79480792Y-43477798D01*
X79480795Y-43477461D01*
X79487006Y-43466087D01*
X79508428Y-43460256D01*
X79549950Y-43458614D01*
X79619109Y-43458614D01*
X79619109Y-44062179D01*
X79480792Y-44062179D01*
X79480792Y-43854132D01*
X79480697Y-43783879D01*
X79480051Y-43726170D01*
X79478320Y-43685787D01*
X79474974Y-43658615D01*
X79469481Y-43640540D01*
X79461310Y-43627447D01*
X79449928Y-43615221D01*
X79434424Y-43602217D01*
X79389843Y-43584745D01*
X79343047Y-43589873D01*
X79300180Y-43617507D01*
X79287927Y-43630368D01*
X79279132Y-43643384D01*
X79273233Y-43660706D01*
X79269651Y-43686501D01*
X79267809Y-43724939D01*
X79267128Y-43780189D01*
X79267030Y-43856418D01*
X79267030Y-44062179D01*
X79128713Y-44062179D01*
X79128989Y-43838985D01*
X79129008Y-43829044D01*
X79130207Y-43734106D01*
X79133891Y-43660358D01*
X79141006Y-43604214D01*
X79152500Y-43562087D01*
X79169318Y-43530391D01*
X79192409Y-43505541D01*
X79222717Y-43483950D01*
X79254012Y-43469002D01*
X79317037Y-43455421D01*
X79382605Y-43457424D01*
X78218476Y-44404237D02*
X78168745Y-44407971D01*
X78168745Y-44407971D02*
X78038709Y-44797773D01*
X78038709Y-44797773D02*
X78018322Y-44728614D01*
X78018322Y-44728614D02*
X78006054Y-44685874D01*
X78006054Y-44685874D02*
X77989915Y-44628115D01*
X77989915Y-44628115D02*
X77972488Y-44564625D01*
X77972488Y-44564625D02*
X77963274Y-44530570D01*
X77963274Y-44530570D02*
X77928612Y-44401683D01*
X77928612Y-44401683D02*
X77785609Y-44401683D01*
X77785609Y-44401683D02*
X77828354Y-44536857D01*
X77828354Y-44536857D02*
X77849404Y-44603342D01*
X77849404Y-44603342D02*
X77874833Y-44683539D01*
X77874833Y-44683539D02*
X77901390Y-44767193D01*
X77901390Y-44767193D02*
X77925098Y-44841782D01*
X77925098Y-44841782D02*
X77979098Y-45011535D01*
X77979098Y-45011535D02*
X78037402Y-45015328D01*
X78037402Y-45015328D02*
X78095705Y-45019122D01*
X78095705Y-45019122D02*
X78127321Y-44914734D01*
X78127321Y-44914734D02*
X78146818Y-44849889D01*
X78146818Y-44849889D02*
X78168096Y-44778400D01*
X78168096Y-44778400D02*
X78186692Y-44715263D01*
X78186692Y-44715263D02*
X78187426Y-44712750D01*
X78187426Y-44712750D02*
X78201316Y-44669969D01*
X78201316Y-44669969D02*
X78213571Y-44640779D01*
X78213571Y-44640779D02*
X78222154Y-44629741D01*
X78222154Y-44629741D02*
X78223918Y-44631018D01*
X78223918Y-44631018D02*
X78230109Y-44648130D01*
X78230109Y-44648130D02*
X78241872Y-44684787D01*
X78241872Y-44684787D02*
X78257775Y-44736378D01*
X78257775Y-44736378D02*
X78276386Y-44798294D01*
X78276386Y-44798294D02*
X78286457Y-44832352D01*
X78286457Y-44832352D02*
X78340993Y-45017822D01*
X78340993Y-45017822D02*
X78456736Y-45017822D01*
X78456736Y-45017822D02*
X78549263Y-44725471D01*
X78549263Y-44725471D02*
X78575256Y-44643462D01*
X78575256Y-44643462D02*
X78598934Y-44568987D01*
X78598934Y-44568987D02*
X78619180Y-44505544D01*
X78619180Y-44505544D02*
X78634874Y-44456632D01*
X78634874Y-44456632D02*
X78644898Y-44425749D01*
X78644898Y-44425749D02*
X78647945Y-44416726D01*
X78647945Y-44416726D02*
X78645533Y-44407487D01*
X78645533Y-44407487D02*
X78626592Y-44403441D01*
X78626592Y-44403441D02*
X78587177Y-44403846D01*
X78587177Y-44403846D02*
X78581007Y-44404152D01*
X78581007Y-44404152D02*
X78507914Y-44407971D01*
X78507914Y-44407971D02*
X78460043Y-44584010D01*
X78460043Y-44584010D02*
X78442447Y-44648211D01*
X78442447Y-44648211D02*
X78426723Y-44704649D01*
X78426723Y-44704649D02*
X78414254Y-44748422D01*
X78414254Y-44748422D02*
X78406426Y-44774630D01*
X78406426Y-44774630D02*
X78404980Y-44778903D01*
X78404980Y-44778903D02*
X78398986Y-44773990D01*
X78398986Y-44773990D02*
X78386899Y-44748532D01*
X78386899Y-44748532D02*
X78370107Y-44705997D01*
X78370107Y-44705997D02*
X78349997Y-44649850D01*
X78349997Y-44649850D02*
X78332997Y-44599130D01*
X78332997Y-44599130D02*
X78268206Y-44400504D01*
X78268206Y-44400504D02*
X78218476Y-44404237D01*
X78218476Y-44404237D02*
X78218476Y-44404237D01*
G36*
X78332997Y-44599130D02*
G01*
X78349997Y-44649850D01*
X78370107Y-44705997D01*
X78386899Y-44748532D01*
X78398986Y-44773990D01*
X78404980Y-44778903D01*
X78406426Y-44774630D01*
X78414254Y-44748422D01*
X78426723Y-44704649D01*
X78442447Y-44648211D01*
X78460043Y-44584010D01*
X78507914Y-44407971D01*
X78581007Y-44404152D01*
X78587177Y-44403846D01*
X78626592Y-44403441D01*
X78645533Y-44407487D01*
X78647945Y-44416726D01*
X78644898Y-44425749D01*
X78634874Y-44456632D01*
X78619180Y-44505544D01*
X78598934Y-44568987D01*
X78575256Y-44643462D01*
X78549263Y-44725471D01*
X78456736Y-45017822D01*
X78340993Y-45017822D01*
X78286457Y-44832352D01*
X78276386Y-44798294D01*
X78257775Y-44736378D01*
X78241872Y-44684787D01*
X78230109Y-44648130D01*
X78223918Y-44631018D01*
X78222154Y-44629741D01*
X78213571Y-44640779D01*
X78201316Y-44669969D01*
X78187426Y-44712750D01*
X78186692Y-44715263D01*
X78168096Y-44778400D01*
X78146818Y-44849889D01*
X78127321Y-44914734D01*
X78095705Y-45019122D01*
X78037402Y-45015328D01*
X77979098Y-45011535D01*
X77925098Y-44841782D01*
X77901390Y-44767193D01*
X77874833Y-44683539D01*
X77849404Y-44603342D01*
X77828354Y-44536857D01*
X77785609Y-44401683D01*
X77928612Y-44401683D01*
X77963274Y-44530570D01*
X77972488Y-44564625D01*
X77989915Y-44628115D01*
X78006054Y-44685874D01*
X78018322Y-44728614D01*
X78038709Y-44797773D01*
X78168745Y-44407971D01*
X78218476Y-44404237D01*
X78268206Y-44400504D01*
X78332997Y-44599130D01*
G37*
X78332997Y-44599130D02*
X78349997Y-44649850D01*
X78370107Y-44705997D01*
X78386899Y-44748532D01*
X78398986Y-44773990D01*
X78404980Y-44778903D01*
X78406426Y-44774630D01*
X78414254Y-44748422D01*
X78426723Y-44704649D01*
X78442447Y-44648211D01*
X78460043Y-44584010D01*
X78507914Y-44407971D01*
X78581007Y-44404152D01*
X78587177Y-44403846D01*
X78626592Y-44403441D01*
X78645533Y-44407487D01*
X78647945Y-44416726D01*
X78644898Y-44425749D01*
X78634874Y-44456632D01*
X78619180Y-44505544D01*
X78598934Y-44568987D01*
X78575256Y-44643462D01*
X78549263Y-44725471D01*
X78456736Y-45017822D01*
X78340993Y-45017822D01*
X78286457Y-44832352D01*
X78276386Y-44798294D01*
X78257775Y-44736378D01*
X78241872Y-44684787D01*
X78230109Y-44648130D01*
X78223918Y-44631018D01*
X78222154Y-44629741D01*
X78213571Y-44640779D01*
X78201316Y-44669969D01*
X78187426Y-44712750D01*
X78186692Y-44715263D01*
X78168096Y-44778400D01*
X78146818Y-44849889D01*
X78127321Y-44914734D01*
X78095705Y-45019122D01*
X78037402Y-45015328D01*
X77979098Y-45011535D01*
X77925098Y-44841782D01*
X77901390Y-44767193D01*
X77874833Y-44683539D01*
X77849404Y-44603342D01*
X77828354Y-44536857D01*
X77785609Y-44401683D01*
X77928612Y-44401683D01*
X77963274Y-44530570D01*
X77972488Y-44564625D01*
X77989915Y-44628115D01*
X78006054Y-44685874D01*
X78018322Y-44728614D01*
X78038709Y-44797773D01*
X78168745Y-44407971D01*
X78218476Y-44404237D01*
X78268206Y-44400504D01*
X78332997Y-44599130D01*
X79856699Y-43472614D02*
X79844168Y-43478514D01*
X79844168Y-43478514D02*
X79800799Y-43510283D01*
X79800799Y-43510283D02*
X79759790Y-43556646D01*
X79759790Y-43556646D02*
X79729168Y-43607696D01*
X79729168Y-43607696D02*
X79720459Y-43631166D01*
X79720459Y-43631166D02*
X79712512Y-43673091D01*
X79712512Y-43673091D02*
X79707774Y-43723757D01*
X79707774Y-43723757D02*
X79707199Y-43744679D01*
X79707199Y-43744679D02*
X79707129Y-43810693D01*
X79707129Y-43810693D02*
X80087083Y-43810693D01*
X80087083Y-43810693D02*
X80078983Y-43845273D01*
X80078983Y-43845273D02*
X80059104Y-43886170D01*
X80059104Y-43886170D02*
X80024347Y-43921514D01*
X80024347Y-43921514D02*
X79982998Y-43944282D01*
X79982998Y-43944282D02*
X79956649Y-43949010D01*
X79956649Y-43949010D02*
X79920916Y-43943273D01*
X79920916Y-43943273D02*
X79878282Y-43928882D01*
X79878282Y-43928882D02*
X79863799Y-43922262D01*
X79863799Y-43922262D02*
X79810240Y-43895513D01*
X79810240Y-43895513D02*
X79764533Y-43930376D01*
X79764533Y-43930376D02*
X79738158Y-43953955D01*
X79738158Y-43953955D02*
X79724124Y-43973417D01*
X79724124Y-43973417D02*
X79723414Y-43979129D01*
X79723414Y-43979129D02*
X79735951Y-43992973D01*
X79735951Y-43992973D02*
X79763428Y-44014012D01*
X79763428Y-44014012D02*
X79788366Y-44030425D01*
X79788366Y-44030425D02*
X79855664Y-44059930D01*
X79855664Y-44059930D02*
X79931110Y-44073284D01*
X79931110Y-44073284D02*
X80005888Y-44069812D01*
X80005888Y-44069812D02*
X80065495Y-44051663D01*
X80065495Y-44051663D02*
X80126941Y-44012784D01*
X80126941Y-44012784D02*
X80170608Y-43961595D01*
X80170608Y-43961595D02*
X80197926Y-43895367D01*
X80197926Y-43895367D02*
X80210322Y-43811371D01*
X80210322Y-43811371D02*
X80211421Y-43772936D01*
X80211421Y-43772936D02*
X80207022Y-43684861D01*
X80207022Y-43684861D02*
X80206482Y-43682299D01*
X80206482Y-43682299D02*
X80080582Y-43682299D01*
X80080582Y-43682299D02*
X80077115Y-43690558D01*
X80077115Y-43690558D02*
X80062863Y-43695113D01*
X80062863Y-43695113D02*
X80033470Y-43697065D01*
X80033470Y-43697065D02*
X79984575Y-43697517D01*
X79984575Y-43697517D02*
X79965748Y-43697525D01*
X79965748Y-43697525D02*
X79908467Y-43696843D01*
X79908467Y-43696843D02*
X79872141Y-43694364D01*
X79872141Y-43694364D02*
X79852604Y-43689443D01*
X79852604Y-43689443D02*
X79845690Y-43681434D01*
X79845690Y-43681434D02*
X79845445Y-43678862D01*
X79845445Y-43678862D02*
X79853336Y-43658423D01*
X79853336Y-43658423D02*
X79873085Y-43629789D01*
X79873085Y-43629789D02*
X79881575Y-43619763D01*
X79881575Y-43619763D02*
X79913094Y-43591408D01*
X79913094Y-43591408D02*
X79945949Y-43580259D01*
X79945949Y-43580259D02*
X79963651Y-43579327D01*
X79963651Y-43579327D02*
X80011539Y-43590981D01*
X80011539Y-43590981D02*
X80051699Y-43622285D01*
X80051699Y-43622285D02*
X80077173Y-43667752D01*
X80077173Y-43667752D02*
X80077625Y-43669233D01*
X80077625Y-43669233D02*
X80080582Y-43682299D01*
X80080582Y-43682299D02*
X80206482Y-43682299D01*
X80206482Y-43682299D02*
X80192392Y-43615510D01*
X80192392Y-43615510D02*
X80166038Y-43560025D01*
X80166038Y-43560025D02*
X80133807Y-43520639D01*
X80133807Y-43520639D02*
X80074217Y-43477931D01*
X80074217Y-43477931D02*
X80004168Y-43455109D01*
X80004168Y-43455109D02*
X79929661Y-43453046D01*
X79929661Y-43453046D02*
X79856699Y-43472614D01*
X79856699Y-43472614D02*
X79856699Y-43472614D01*
G36*
X80211421Y-43772936D02*
G01*
X80210322Y-43811371D01*
X80197926Y-43895367D01*
X80170608Y-43961595D01*
X80126941Y-44012784D01*
X80065495Y-44051663D01*
X80005888Y-44069812D01*
X79931110Y-44073284D01*
X79855664Y-44059930D01*
X79788366Y-44030425D01*
X79763428Y-44014012D01*
X79735951Y-43992973D01*
X79723414Y-43979129D01*
X79724124Y-43973417D01*
X79738158Y-43953955D01*
X79764533Y-43930376D01*
X79810240Y-43895513D01*
X79863799Y-43922262D01*
X79878282Y-43928882D01*
X79920916Y-43943273D01*
X79956649Y-43949010D01*
X79982998Y-43944282D01*
X80024347Y-43921514D01*
X80059104Y-43886170D01*
X80078983Y-43845273D01*
X80087083Y-43810693D01*
X79707129Y-43810693D01*
X79707199Y-43744679D01*
X79707774Y-43723757D01*
X79711972Y-43678862D01*
X79845445Y-43678862D01*
X79845690Y-43681434D01*
X79852604Y-43689443D01*
X79872141Y-43694364D01*
X79908467Y-43696843D01*
X79965748Y-43697525D01*
X79984575Y-43697517D01*
X80033470Y-43697065D01*
X80062863Y-43695113D01*
X80077115Y-43690558D01*
X80080582Y-43682299D01*
X80077625Y-43669233D01*
X80077173Y-43667752D01*
X80051699Y-43622285D01*
X80011539Y-43590981D01*
X79963651Y-43579327D01*
X79945949Y-43580259D01*
X79913094Y-43591408D01*
X79881575Y-43619763D01*
X79873085Y-43629789D01*
X79853336Y-43658423D01*
X79845445Y-43678862D01*
X79711972Y-43678862D01*
X79712512Y-43673091D01*
X79720459Y-43631166D01*
X79729168Y-43607696D01*
X79759790Y-43556646D01*
X79800799Y-43510283D01*
X79844168Y-43478514D01*
X79856699Y-43472614D01*
X79929661Y-43453046D01*
X80004168Y-43455109D01*
X80074217Y-43477931D01*
X80133807Y-43520639D01*
X80166038Y-43560025D01*
X80192392Y-43615510D01*
X80206482Y-43682299D01*
X80207022Y-43684861D01*
X80211421Y-43772936D01*
G37*
X80211421Y-43772936D02*
X80210322Y-43811371D01*
X80197926Y-43895367D01*
X80170608Y-43961595D01*
X80126941Y-44012784D01*
X80065495Y-44051663D01*
X80005888Y-44069812D01*
X79931110Y-44073284D01*
X79855664Y-44059930D01*
X79788366Y-44030425D01*
X79763428Y-44014012D01*
X79735951Y-43992973D01*
X79723414Y-43979129D01*
X79724124Y-43973417D01*
X79738158Y-43953955D01*
X79764533Y-43930376D01*
X79810240Y-43895513D01*
X79863799Y-43922262D01*
X79878282Y-43928882D01*
X79920916Y-43943273D01*
X79956649Y-43949010D01*
X79982998Y-43944282D01*
X80024347Y-43921514D01*
X80059104Y-43886170D01*
X80078983Y-43845273D01*
X80087083Y-43810693D01*
X79707129Y-43810693D01*
X79707199Y-43744679D01*
X79707774Y-43723757D01*
X79711972Y-43678862D01*
X79845445Y-43678862D01*
X79845690Y-43681434D01*
X79852604Y-43689443D01*
X79872141Y-43694364D01*
X79908467Y-43696843D01*
X79965748Y-43697525D01*
X79984575Y-43697517D01*
X80033470Y-43697065D01*
X80062863Y-43695113D01*
X80077115Y-43690558D01*
X80080582Y-43682299D01*
X80077625Y-43669233D01*
X80077173Y-43667752D01*
X80051699Y-43622285D01*
X80011539Y-43590981D01*
X79963651Y-43579327D01*
X79945949Y-43580259D01*
X79913094Y-43591408D01*
X79881575Y-43619763D01*
X79873085Y-43629789D01*
X79853336Y-43658423D01*
X79845445Y-43678862D01*
X79711972Y-43678862D01*
X79712512Y-43673091D01*
X79720459Y-43631166D01*
X79729168Y-43607696D01*
X79759790Y-43556646D01*
X79800799Y-43510283D01*
X79844168Y-43478514D01*
X79856699Y-43472614D01*
X79929661Y-43453046D01*
X80004168Y-43455109D01*
X80074217Y-43477931D01*
X80133807Y-43520639D01*
X80166038Y-43560025D01*
X80192392Y-43615510D01*
X80206482Y-43682299D01*
X80207022Y-43684861D01*
X80211421Y-43772936D01*
X79884210Y-44406555D02*
X79825055Y-44422339D01*
X79825055Y-44422339D02*
X79780023Y-44450948D01*
X79780023Y-44450948D02*
X79748246Y-44488419D01*
X79748246Y-44488419D02*
X79738366Y-44504411D01*
X79738366Y-44504411D02*
X79731073Y-44521163D01*
X79731073Y-44521163D02*
X79725974Y-44542592D01*
X79725974Y-44542592D02*
X79722679Y-44572616D01*
X79722679Y-44572616D02*
X79720797Y-44615154D01*
X79720797Y-44615154D02*
X79719937Y-44674122D01*
X79719937Y-44674122D02*
X79719707Y-44753440D01*
X79719707Y-44753440D02*
X79719703Y-44774484D01*
X79719703Y-44774484D02*
X79719703Y-45017822D01*
X79719703Y-45017822D02*
X79780059Y-45017822D01*
X79780059Y-45017822D02*
X79818557Y-45015126D01*
X79818557Y-45015126D02*
X79847023Y-45008295D01*
X79847023Y-45008295D02*
X79854155Y-45004083D01*
X79854155Y-45004083D02*
X79873652Y-44996813D01*
X79873652Y-44996813D02*
X79893566Y-45004083D01*
X79893566Y-45004083D02*
X79926353Y-45013160D01*
X79926353Y-45013160D02*
X79973978Y-45016813D01*
X79973978Y-45016813D02*
X80026764Y-45015228D01*
X80026764Y-45015228D02*
X80075036Y-45008589D01*
X80075036Y-45008589D02*
X80103218Y-45000072D01*
X80103218Y-45000072D02*
X80157753Y-44965063D01*
X80157753Y-44965063D02*
X80191835Y-44916479D01*
X80191835Y-44916479D02*
X80207157Y-44851882D01*
X80207157Y-44851882D02*
X80207299Y-44850223D01*
X80207299Y-44850223D02*
X80205955Y-44821566D01*
X80205955Y-44821566D02*
X80084356Y-44821566D01*
X80084356Y-44821566D02*
X80073726Y-44854161D01*
X80073726Y-44854161D02*
X80056410Y-44872505D01*
X80056410Y-44872505D02*
X80021652Y-44886379D01*
X80021652Y-44886379D02*
X79975773Y-44891917D01*
X79975773Y-44891917D02*
X79928988Y-44889191D01*
X79928988Y-44889191D02*
X79891514Y-44878274D01*
X79891514Y-44878274D02*
X79881015Y-44871269D01*
X79881015Y-44871269D02*
X79862668Y-44838904D01*
X79862668Y-44838904D02*
X79858020Y-44802111D01*
X79858020Y-44802111D02*
X79858020Y-44753763D01*
X79858020Y-44753763D02*
X79927582Y-44753763D01*
X79927582Y-44753763D02*
X79993667Y-44758850D01*
X79993667Y-44758850D02*
X80043764Y-44773263D01*
X80043764Y-44773263D02*
X80074929Y-44795729D01*
X80074929Y-44795729D02*
X80084356Y-44821566D01*
X80084356Y-44821566D02*
X80205955Y-44821566D01*
X80205955Y-44821566D02*
X80203987Y-44779647D01*
X80203987Y-44779647D02*
X80180710Y-44723845D01*
X80180710Y-44723845D02*
X80136948Y-44681647D01*
X80136948Y-44681647D02*
X80130899Y-44677808D01*
X80130899Y-44677808D02*
X80104907Y-44665309D01*
X80104907Y-44665309D02*
X80072735Y-44657740D01*
X80072735Y-44657740D02*
X80027760Y-44654061D01*
X80027760Y-44654061D02*
X79974331Y-44653216D01*
X79974331Y-44653216D02*
X79858020Y-44653169D01*
X79858020Y-44653169D02*
X79858020Y-44604411D01*
X79858020Y-44604411D02*
X79862953Y-44566581D01*
X79862953Y-44566581D02*
X79875543Y-44541236D01*
X79875543Y-44541236D02*
X79877017Y-44539887D01*
X79877017Y-44539887D02*
X79905034Y-44528800D01*
X79905034Y-44528800D02*
X79947326Y-44524503D01*
X79947326Y-44524503D02*
X79994064Y-44526615D01*
X79994064Y-44526615D02*
X80035418Y-44534756D01*
X80035418Y-44534756D02*
X80059957Y-44546965D01*
X80059957Y-44546965D02*
X80073253Y-44556746D01*
X80073253Y-44556746D02*
X80087294Y-44558613D01*
X80087294Y-44558613D02*
X80106671Y-44550600D01*
X80106671Y-44550600D02*
X80135976Y-44530739D01*
X80135976Y-44530739D02*
X80179803Y-44497063D01*
X80179803Y-44497063D02*
X80183825Y-44493909D01*
X80183825Y-44493909D02*
X80181764Y-44482236D01*
X80181764Y-44482236D02*
X80164568Y-44462822D01*
X80164568Y-44462822D02*
X80138433Y-44441248D01*
X80138433Y-44441248D02*
X80109552Y-44423096D01*
X80109552Y-44423096D02*
X80100478Y-44418809D01*
X80100478Y-44418809D02*
X80067380Y-44410256D01*
X80067380Y-44410256D02*
X80018880Y-44404155D01*
X80018880Y-44404155D02*
X79964695Y-44401708D01*
X79964695Y-44401708D02*
X79962161Y-44401703D01*
X79962161Y-44401703D02*
X79884210Y-44406555D01*
X79884210Y-44406555D02*
X79884210Y-44406555D01*
G36*
X80207157Y-44851882D02*
G01*
X80191835Y-44916479D01*
X80157753Y-44965063D01*
X80103218Y-45000072D01*
X80075036Y-45008589D01*
X80026764Y-45015228D01*
X79973978Y-45016813D01*
X79926353Y-45013160D01*
X79893566Y-45004083D01*
X79873652Y-44996813D01*
X79854155Y-45004083D01*
X79847023Y-45008295D01*
X79818557Y-45015126D01*
X79780059Y-45017822D01*
X79719703Y-45017822D01*
X79719703Y-44802111D01*
X79858020Y-44802111D01*
X79862668Y-44838904D01*
X79881015Y-44871269D01*
X79891514Y-44878274D01*
X79928988Y-44889191D01*
X79975773Y-44891917D01*
X80021652Y-44886379D01*
X80056410Y-44872505D01*
X80073726Y-44854161D01*
X80084356Y-44821566D01*
X80074929Y-44795729D01*
X80043764Y-44773263D01*
X79993667Y-44758850D01*
X79927582Y-44753763D01*
X79858020Y-44753763D01*
X79858020Y-44802111D01*
X79719703Y-44802111D01*
X79719703Y-44774484D01*
X79719707Y-44753440D01*
X79719937Y-44674122D01*
X79720797Y-44615154D01*
X79722679Y-44572616D01*
X79725974Y-44542592D01*
X79731073Y-44521163D01*
X79738366Y-44504411D01*
X79748246Y-44488419D01*
X79780023Y-44450948D01*
X79825055Y-44422339D01*
X79884210Y-44406555D01*
X79962161Y-44401703D01*
X79964695Y-44401708D01*
X80018880Y-44404155D01*
X80067380Y-44410256D01*
X80100478Y-44418809D01*
X80109552Y-44423096D01*
X80138433Y-44441248D01*
X80164568Y-44462822D01*
X80181764Y-44482236D01*
X80183825Y-44493909D01*
X80179803Y-44497063D01*
X80135976Y-44530739D01*
X80106671Y-44550600D01*
X80087294Y-44558613D01*
X80073253Y-44556746D01*
X80059957Y-44546965D01*
X80035418Y-44534756D01*
X79994064Y-44526615D01*
X79947326Y-44524503D01*
X79905034Y-44528800D01*
X79877017Y-44539887D01*
X79875543Y-44541236D01*
X79862953Y-44566581D01*
X79858020Y-44604411D01*
X79858020Y-44653169D01*
X79974331Y-44653216D01*
X80027760Y-44654061D01*
X80072735Y-44657740D01*
X80104907Y-44665309D01*
X80130899Y-44677808D01*
X80136948Y-44681647D01*
X80180710Y-44723845D01*
X80203987Y-44779647D01*
X80205955Y-44821566D01*
X80207299Y-44850223D01*
X80207157Y-44851882D01*
G37*
X80207157Y-44851882D02*
X80191835Y-44916479D01*
X80157753Y-44965063D01*
X80103218Y-45000072D01*
X80075036Y-45008589D01*
X80026764Y-45015228D01*
X79973978Y-45016813D01*
X79926353Y-45013160D01*
X79893566Y-45004083D01*
X79873652Y-44996813D01*
X79854155Y-45004083D01*
X79847023Y-45008295D01*
X79818557Y-45015126D01*
X79780059Y-45017822D01*
X79719703Y-45017822D01*
X79719703Y-44802111D01*
X79858020Y-44802111D01*
X79862668Y-44838904D01*
X79881015Y-44871269D01*
X79891514Y-44878274D01*
X79928988Y-44889191D01*
X79975773Y-44891917D01*
X80021652Y-44886379D01*
X80056410Y-44872505D01*
X80073726Y-44854161D01*
X80084356Y-44821566D01*
X80074929Y-44795729D01*
X80043764Y-44773263D01*
X79993667Y-44758850D01*
X79927582Y-44753763D01*
X79858020Y-44753763D01*
X79858020Y-44802111D01*
X79719703Y-44802111D01*
X79719703Y-44774484D01*
X79719707Y-44753440D01*
X79719937Y-44674122D01*
X79720797Y-44615154D01*
X79722679Y-44572616D01*
X79725974Y-44542592D01*
X79731073Y-44521163D01*
X79738366Y-44504411D01*
X79748246Y-44488419D01*
X79780023Y-44450948D01*
X79825055Y-44422339D01*
X79884210Y-44406555D01*
X79962161Y-44401703D01*
X79964695Y-44401708D01*
X80018880Y-44404155D01*
X80067380Y-44410256D01*
X80100478Y-44418809D01*
X80109552Y-44423096D01*
X80138433Y-44441248D01*
X80164568Y-44462822D01*
X80181764Y-44482236D01*
X80183825Y-44493909D01*
X80179803Y-44497063D01*
X80135976Y-44530739D01*
X80106671Y-44550600D01*
X80087294Y-44558613D01*
X80073253Y-44556746D01*
X80059957Y-44546965D01*
X80035418Y-44534756D01*
X79994064Y-44526615D01*
X79947326Y-44524503D01*
X79905034Y-44528800D01*
X79877017Y-44539887D01*
X79875543Y-44541236D01*
X79862953Y-44566581D01*
X79858020Y-44604411D01*
X79858020Y-44653169D01*
X79974331Y-44653216D01*
X80027760Y-44654061D01*
X80072735Y-44657740D01*
X80104907Y-44665309D01*
X80130899Y-44677808D01*
X80136948Y-44681647D01*
X80180710Y-44723845D01*
X80203987Y-44779647D01*
X80205955Y-44821566D01*
X80207299Y-44850223D01*
X80207157Y-44851882D01*
X77506633Y-43654342D02*
X77505445Y-43746563D01*
X77505445Y-43746563D02*
X77501103Y-43816610D01*
X77501103Y-43816610D02*
X77492442Y-43867381D01*
X77492442Y-43867381D02*
X77478296Y-43901772D01*
X77478296Y-43901772D02*
X77457500Y-43922679D01*
X77457500Y-43922679D02*
X77428890Y-43933000D01*
X77428890Y-43933000D02*
X77393465Y-43935636D01*
X77393465Y-43935636D02*
X77356364Y-43932682D01*
X77356364Y-43932682D02*
X77328182Y-43921889D01*
X77328182Y-43921889D02*
X77307757Y-43900360D01*
X77307757Y-43900360D02*
X77293921Y-43865199D01*
X77293921Y-43865199D02*
X77285509Y-43813510D01*
X77285509Y-43813510D02*
X77281357Y-43742394D01*
X77281357Y-43742394D02*
X77280297Y-43654342D01*
X77280297Y-43654342D02*
X77280297Y-43458614D01*
X77280297Y-43458614D02*
X77141980Y-43458614D01*
X77141980Y-43458614D02*
X77141980Y-44062179D01*
X77141980Y-44062179D02*
X77211138Y-44062179D01*
X77211138Y-44062179D02*
X77252830Y-44060489D01*
X77252830Y-44060489D02*
X77274299Y-44054556D01*
X77274299Y-44054556D02*
X77280297Y-44043293D01*
X77280297Y-44043293D02*
X77283909Y-44033261D01*
X77283909Y-44033261D02*
X77298286Y-44035383D01*
X77298286Y-44035383D02*
X77327264Y-44049580D01*
X77327264Y-44049580D02*
X77393681Y-44071480D01*
X77393681Y-44071480D02*
X77464125Y-44069928D01*
X77464125Y-44069928D02*
X77531623Y-44046147D01*
X77531623Y-44046147D02*
X77563767Y-44027362D01*
X77563767Y-44027362D02*
X77588285Y-44007022D01*
X77588285Y-44007022D02*
X77606196Y-43981573D01*
X77606196Y-43981573D02*
X77618521Y-43947458D01*
X77618521Y-43947458D02*
X77626277Y-43901121D01*
X77626277Y-43901121D02*
X77630484Y-43839007D01*
X77630484Y-43839007D02*
X77632160Y-43757561D01*
X77632160Y-43757561D02*
X77632376Y-43694578D01*
X77632376Y-43694578D02*
X77632376Y-43458614D01*
X77632376Y-43458614D02*
X77506633Y-43458614D01*
X77506633Y-43458614D02*
X77506633Y-43654342D01*
X77506633Y-43654342D02*
X77506633Y-43654342D01*
G36*
X77280297Y-43654342D02*
G01*
X77281357Y-43742394D01*
X77285509Y-43813510D01*
X77293921Y-43865199D01*
X77307757Y-43900360D01*
X77328182Y-43921889D01*
X77356364Y-43932682D01*
X77393465Y-43935636D01*
X77428890Y-43933000D01*
X77457500Y-43922679D01*
X77478296Y-43901772D01*
X77492442Y-43867381D01*
X77501103Y-43816610D01*
X77505445Y-43746563D01*
X77506633Y-43654342D01*
X77506633Y-43458614D01*
X77632376Y-43458614D01*
X77632376Y-43694578D01*
X77632160Y-43757561D01*
X77630484Y-43839007D01*
X77626277Y-43901121D01*
X77618521Y-43947458D01*
X77606196Y-43981573D01*
X77588285Y-44007022D01*
X77563767Y-44027362D01*
X77531623Y-44046147D01*
X77464125Y-44069928D01*
X77393681Y-44071480D01*
X77327264Y-44049580D01*
X77298286Y-44035383D01*
X77283909Y-44033261D01*
X77280297Y-44043293D01*
X77274299Y-44054556D01*
X77252830Y-44060489D01*
X77211138Y-44062179D01*
X77141980Y-44062179D01*
X77141980Y-43458614D01*
X77280297Y-43458614D01*
X77280297Y-43654342D01*
G37*
X77280297Y-43654342D02*
X77281357Y-43742394D01*
X77285509Y-43813510D01*
X77293921Y-43865199D01*
X77307757Y-43900360D01*
X77328182Y-43921889D01*
X77356364Y-43932682D01*
X77393465Y-43935636D01*
X77428890Y-43933000D01*
X77457500Y-43922679D01*
X77478296Y-43901772D01*
X77492442Y-43867381D01*
X77501103Y-43816610D01*
X77505445Y-43746563D01*
X77506633Y-43654342D01*
X77506633Y-43458614D01*
X77632376Y-43458614D01*
X77632376Y-43694578D01*
X77632160Y-43757561D01*
X77630484Y-43839007D01*
X77626277Y-43901121D01*
X77618521Y-43947458D01*
X77606196Y-43981573D01*
X77588285Y-44007022D01*
X77563767Y-44027362D01*
X77531623Y-44046147D01*
X77464125Y-44069928D01*
X77393681Y-44071480D01*
X77327264Y-44049580D01*
X77298286Y-44035383D01*
X77283909Y-44033261D01*
X77280297Y-44043293D01*
X77274299Y-44054556D01*
X77252830Y-44060489D01*
X77211138Y-44062179D01*
X77141980Y-44062179D01*
X77141980Y-43458614D01*
X77280297Y-43458614D01*
X77280297Y-43654342D01*
X76700540Y-43458030D02*
X76657289Y-43471245D01*
X76657289Y-43471245D02*
X76629442Y-43487941D01*
X76629442Y-43487941D02*
X76620371Y-43501145D01*
X76620371Y-43501145D02*
X76622868Y-43516797D01*
X76622868Y-43516797D02*
X76639069Y-43541385D01*
X76639069Y-43541385D02*
X76652768Y-43558800D01*
X76652768Y-43558800D02*
X76681008Y-43590283D01*
X76681008Y-43590283D02*
X76702225Y-43603529D01*
X76702225Y-43603529D02*
X76720312Y-43602664D01*
X76720312Y-43602664D02*
X76773965Y-43589010D01*
X76773965Y-43589010D02*
X76813370Y-43589630D01*
X76813370Y-43589630D02*
X76845368Y-43605104D01*
X76845368Y-43605104D02*
X76856110Y-43614161D01*
X76856110Y-43614161D02*
X76890495Y-43646027D01*
X76890495Y-43646027D02*
X76890495Y-44062179D01*
X76890495Y-44062179D02*
X77028812Y-44062179D01*
X77028812Y-44062179D02*
X77028812Y-43458614D01*
X77028812Y-43458614D02*
X76959653Y-43458614D01*
X76959653Y-43458614D02*
X76918131Y-43460256D01*
X76918131Y-43460256D02*
X76896709Y-43466087D01*
X76896709Y-43466087D02*
X76890498Y-43477461D01*
X76890498Y-43477461D02*
X76890495Y-43477798D01*
X76890495Y-43477798D02*
X76887561Y-43489713D01*
X76887561Y-43489713D02*
X76874296Y-43488159D01*
X76874296Y-43488159D02*
X76855916Y-43479563D01*
X76855916Y-43479563D02*
X76817954Y-43463568D01*
X76817954Y-43463568D02*
X76787128Y-43453945D01*
X76787128Y-43453945D02*
X76747464Y-43451478D01*
X76747464Y-43451478D02*
X76700540Y-43458030D01*
X76700540Y-43458030D02*
X76700540Y-43458030D01*
G36*
X76787128Y-43453945D02*
G01*
X76817954Y-43463568D01*
X76855916Y-43479563D01*
X76874296Y-43488159D01*
X76887561Y-43489713D01*
X76890495Y-43477798D01*
X76890498Y-43477461D01*
X76896709Y-43466087D01*
X76918131Y-43460256D01*
X76959653Y-43458614D01*
X77028812Y-43458614D01*
X77028812Y-44062179D01*
X76890495Y-44062179D01*
X76890495Y-43646027D01*
X76856110Y-43614161D01*
X76845368Y-43605104D01*
X76813370Y-43589630D01*
X76773965Y-43589010D01*
X76720312Y-43602664D01*
X76702225Y-43603529D01*
X76681008Y-43590283D01*
X76652768Y-43558800D01*
X76639069Y-43541385D01*
X76622868Y-43516797D01*
X76620371Y-43501145D01*
X76629442Y-43487941D01*
X76657289Y-43471245D01*
X76700540Y-43458030D01*
X76747464Y-43451478D01*
X76787128Y-43453945D01*
G37*
X76787128Y-43453945D02*
X76817954Y-43463568D01*
X76855916Y-43479563D01*
X76874296Y-43488159D01*
X76887561Y-43489713D01*
X76890495Y-43477798D01*
X76890498Y-43477461D01*
X76896709Y-43466087D01*
X76918131Y-43460256D01*
X76959653Y-43458614D01*
X77028812Y-43458614D01*
X77028812Y-44062179D01*
X76890495Y-44062179D01*
X76890495Y-43646027D01*
X76856110Y-43614161D01*
X76845368Y-43605104D01*
X76813370Y-43589630D01*
X76773965Y-43589010D01*
X76720312Y-43602664D01*
X76702225Y-43603529D01*
X76681008Y-43590283D01*
X76652768Y-43558800D01*
X76639069Y-43541385D01*
X76622868Y-43516797D01*
X76620371Y-43501145D01*
X76629442Y-43487941D01*
X76657289Y-43471245D01*
X76700540Y-43458030D01*
X76747464Y-43451478D01*
X76787128Y-43453945D01*
X76864745Y-44401486D02*
X76816405Y-44411015D01*
X76816405Y-44411015D02*
X76788886Y-44425125D01*
X76788886Y-44425125D02*
X76759936Y-44448568D01*
X76759936Y-44448568D02*
X76801124Y-44500571D01*
X76801124Y-44500571D02*
X76826518Y-44532064D01*
X76826518Y-44532064D02*
X76843762Y-44547428D01*
X76843762Y-44547428D02*
X76860898Y-44549776D01*
X76860898Y-44549776D02*
X76885973Y-44542217D01*
X76885973Y-44542217D02*
X76897743Y-44537941D01*
X76897743Y-44537941D02*
X76945730Y-44531631D01*
X76945730Y-44531631D02*
X76989676Y-44545156D01*
X76989676Y-44545156D02*
X77021940Y-44575710D01*
X77021940Y-44575710D02*
X77027181Y-44585452D01*
X77027181Y-44585452D02*
X77032888Y-44611258D01*
X77032888Y-44611258D02*
X77037294Y-44658817D01*
X77037294Y-44658817D02*
X77040189Y-44724758D01*
X77040189Y-44724758D02*
X77041369Y-44805710D01*
X77041369Y-44805710D02*
X77041386Y-44817226D01*
X77041386Y-44817226D02*
X77041386Y-45017822D01*
X77041386Y-45017822D02*
X77179703Y-45017822D01*
X77179703Y-45017822D02*
X77179703Y-44401683D01*
X77179703Y-44401683D02*
X77110544Y-44401683D01*
X77110544Y-44401683D02*
X77070667Y-44402725D01*
X77070667Y-44402725D02*
X77049893Y-44407358D01*
X77049893Y-44407358D02*
X77042211Y-44417849D01*
X77042211Y-44417849D02*
X77041386Y-44427745D01*
X77041386Y-44427745D02*
X77041386Y-44453806D01*
X77041386Y-44453806D02*
X77008255Y-44427745D01*
X77008255Y-44427745D02*
X76970265Y-44409965D01*
X76970265Y-44409965D02*
X76919230Y-44401174D01*
X76919230Y-44401174D02*
X76864745Y-44401486D01*
X76864745Y-44401486D02*
X76864745Y-44401486D01*
G36*
X76970265Y-44409965D02*
G01*
X77008255Y-44427745D01*
X77041386Y-44453806D01*
X77041386Y-44427745D01*
X77042211Y-44417849D01*
X77049893Y-44407358D01*
X77070667Y-44402725D01*
X77110544Y-44401683D01*
X77179703Y-44401683D01*
X77179703Y-45017822D01*
X77041386Y-45017822D01*
X77041386Y-44817226D01*
X77041369Y-44805710D01*
X77040189Y-44724758D01*
X77037294Y-44658817D01*
X77032888Y-44611258D01*
X77027181Y-44585452D01*
X77021940Y-44575710D01*
X76989676Y-44545156D01*
X76945730Y-44531631D01*
X76897743Y-44537941D01*
X76885973Y-44542217D01*
X76860898Y-44549776D01*
X76843762Y-44547428D01*
X76826518Y-44532064D01*
X76801124Y-44500571D01*
X76759936Y-44448568D01*
X76788886Y-44425125D01*
X76816405Y-44411015D01*
X76864745Y-44401486D01*
X76919230Y-44401174D01*
X76970265Y-44409965D01*
G37*
X76970265Y-44409965D02*
X77008255Y-44427745D01*
X77041386Y-44453806D01*
X77041386Y-44427745D01*
X77042211Y-44417849D01*
X77049893Y-44407358D01*
X77070667Y-44402725D01*
X77110544Y-44401683D01*
X77179703Y-44401683D01*
X77179703Y-45017822D01*
X77041386Y-45017822D01*
X77041386Y-44817226D01*
X77041369Y-44805710D01*
X77040189Y-44724758D01*
X77037294Y-44658817D01*
X77032888Y-44611258D01*
X77027181Y-44585452D01*
X77021940Y-44575710D01*
X76989676Y-44545156D01*
X76945730Y-44531631D01*
X76897743Y-44537941D01*
X76885973Y-44542217D01*
X76860898Y-44549776D01*
X76843762Y-44547428D01*
X76826518Y-44532064D01*
X76801124Y-44500571D01*
X76759936Y-44448568D01*
X76788886Y-44425125D01*
X76816405Y-44411015D01*
X76864745Y-44401486D01*
X76919230Y-44401174D01*
X76970265Y-44409965D01*
X78701188Y-45017822D02*
X78770346Y-45017822D01*
X78770346Y-45017822D02*
X78810488Y-45016645D01*
X78810488Y-45016645D02*
X78831394Y-45011772D01*
X78831394Y-45011772D02*
X78838922Y-45001186D01*
X78838922Y-45001186D02*
X78839505Y-44994029D01*
X78839505Y-44994029D02*
X78840774Y-44979676D01*
X78840774Y-44979676D02*
X78848779Y-44976923D01*
X78848779Y-44976923D02*
X78869815Y-44985771D01*
X78869815Y-44985771D02*
X78886173Y-44994029D01*
X78886173Y-44994029D02*
X78948977Y-45013597D01*
X78948977Y-45013597D02*
X79017248Y-45014729D01*
X79017248Y-45014729D02*
X79072752Y-45000135D01*
X79072752Y-45000135D02*
X79124438Y-44964877D01*
X79124438Y-44964877D02*
X79163838Y-44912835D01*
X79163838Y-44912835D02*
X79185413Y-44851450D01*
X79185413Y-44851450D02*
X79185962Y-44848018D01*
X79185962Y-44848018D02*
X79189167Y-44810571D01*
X79189167Y-44810571D02*
X79190761Y-44756813D01*
X79190761Y-44756813D02*
X79190633Y-44716155D01*
X79190633Y-44716155D02*
X79053279Y-44716155D01*
X79053279Y-44716155D02*
X79050097Y-44770194D01*
X79050097Y-44770194D02*
X79042859Y-44814735D01*
X79042859Y-44814735D02*
X79033060Y-44839888D01*
X79033060Y-44839888D02*
X78995989Y-44874260D01*
X78995989Y-44874260D02*
X78951974Y-44886582D01*
X78951974Y-44886582D02*
X78906584Y-44876618D01*
X78906584Y-44876618D02*
X78867797Y-44846895D01*
X78867797Y-44846895D02*
X78853108Y-44826905D01*
X78853108Y-44826905D02*
X78844519Y-44803050D01*
X78844519Y-44803050D02*
X78840496Y-44768230D01*
X78840496Y-44768230D02*
X78839505Y-44715930D01*
X78839505Y-44715930D02*
X78841278Y-44664139D01*
X78841278Y-44664139D02*
X78845963Y-44618634D01*
X78845963Y-44618634D02*
X78852603Y-44588181D01*
X78852603Y-44588181D02*
X78853710Y-44585452D01*
X78853710Y-44585452D02*
X78880491Y-44553000D01*
X78880491Y-44553000D02*
X78919579Y-44535183D01*
X78919579Y-44535183D02*
X78963315Y-44532306D01*
X78963315Y-44532306D02*
X79004038Y-44544674D01*
X79004038Y-44544674D02*
X79034087Y-44572593D01*
X79034087Y-44572593D02*
X79037204Y-44578148D01*
X79037204Y-44578148D02*
X79046961Y-44612022D01*
X79046961Y-44612022D02*
X79052277Y-44660728D01*
X79052277Y-44660728D02*
X79053279Y-44716155D01*
X79053279Y-44716155D02*
X79190633Y-44716155D01*
X79190633Y-44716155D02*
X79190568Y-44695540D01*
X79190568Y-44695540D02*
X79189664Y-44662563D01*
X79189664Y-44662563D02*
X79183514Y-44580981D01*
X79183514Y-44580981D02*
X79170733Y-44519730D01*
X79170733Y-44519730D02*
X79149471Y-44474449D01*
X79149471Y-44474449D02*
X79117878Y-44440779D01*
X79117878Y-44440779D02*
X79087207Y-44421014D01*
X79087207Y-44421014D02*
X79044354Y-44407120D01*
X79044354Y-44407120D02*
X78991056Y-44402354D01*
X78991056Y-44402354D02*
X78936480Y-44406236D01*
X78936480Y-44406236D02*
X78889792Y-44418282D01*
X78889792Y-44418282D02*
X78865124Y-44432693D01*
X78865124Y-44432693D02*
X78839505Y-44455878D01*
X78839505Y-44455878D02*
X78839505Y-44162773D01*
X78839505Y-44162773D02*
X78701188Y-44162773D01*
X78701188Y-44162773D02*
X78701188Y-45017822D01*
X78701188Y-45017822D02*
X78701188Y-45017822D01*
G36*
X79189167Y-44810571D02*
G01*
X79185962Y-44848018D01*
X79185413Y-44851450D01*
X79163838Y-44912835D01*
X79124438Y-44964877D01*
X79072752Y-45000135D01*
X79017248Y-45014729D01*
X78948977Y-45013597D01*
X78886173Y-44994029D01*
X78869815Y-44985771D01*
X78848779Y-44976923D01*
X78840774Y-44979676D01*
X78839505Y-44994029D01*
X78838922Y-45001186D01*
X78831394Y-45011772D01*
X78810488Y-45016645D01*
X78770346Y-45017822D01*
X78701188Y-45017822D01*
X78701188Y-44715930D01*
X78839505Y-44715930D01*
X78840496Y-44768230D01*
X78844519Y-44803050D01*
X78853108Y-44826905D01*
X78867797Y-44846895D01*
X78906584Y-44876618D01*
X78951974Y-44886582D01*
X78995989Y-44874260D01*
X79033060Y-44839888D01*
X79042859Y-44814735D01*
X79050097Y-44770194D01*
X79053279Y-44716155D01*
X79052277Y-44660728D01*
X79046961Y-44612022D01*
X79037204Y-44578148D01*
X79034087Y-44572593D01*
X79004038Y-44544674D01*
X78963315Y-44532306D01*
X78919579Y-44535183D01*
X78880491Y-44553000D01*
X78853710Y-44585452D01*
X78852603Y-44588181D01*
X78845963Y-44618634D01*
X78841278Y-44664139D01*
X78839505Y-44715930D01*
X78701188Y-44715930D01*
X78701188Y-44162773D01*
X78839505Y-44162773D01*
X78839505Y-44455878D01*
X78865124Y-44432693D01*
X78889792Y-44418282D01*
X78936480Y-44406236D01*
X78991056Y-44402354D01*
X79044354Y-44407120D01*
X79087207Y-44421014D01*
X79117878Y-44440779D01*
X79149471Y-44474449D01*
X79170733Y-44519730D01*
X79183514Y-44580981D01*
X79189664Y-44662563D01*
X79190568Y-44695540D01*
X79190633Y-44716155D01*
X79190761Y-44756813D01*
X79189167Y-44810571D01*
G37*
X79189167Y-44810571D02*
X79185962Y-44848018D01*
X79185413Y-44851450D01*
X79163838Y-44912835D01*
X79124438Y-44964877D01*
X79072752Y-45000135D01*
X79017248Y-45014729D01*
X78948977Y-45013597D01*
X78886173Y-44994029D01*
X78869815Y-44985771D01*
X78848779Y-44976923D01*
X78840774Y-44979676D01*
X78839505Y-44994029D01*
X78838922Y-45001186D01*
X78831394Y-45011772D01*
X78810488Y-45016645D01*
X78770346Y-45017822D01*
X78701188Y-45017822D01*
X78701188Y-44715930D01*
X78839505Y-44715930D01*
X78840496Y-44768230D01*
X78844519Y-44803050D01*
X78853108Y-44826905D01*
X78867797Y-44846895D01*
X78906584Y-44876618D01*
X78951974Y-44886582D01*
X78995989Y-44874260D01*
X79033060Y-44839888D01*
X79042859Y-44814735D01*
X79050097Y-44770194D01*
X79053279Y-44716155D01*
X79052277Y-44660728D01*
X79046961Y-44612022D01*
X79037204Y-44578148D01*
X79034087Y-44572593D01*
X79004038Y-44544674D01*
X78963315Y-44532306D01*
X78919579Y-44535183D01*
X78880491Y-44553000D01*
X78853710Y-44585452D01*
X78852603Y-44588181D01*
X78845963Y-44618634D01*
X78841278Y-44664139D01*
X78839505Y-44715930D01*
X78701188Y-44715930D01*
X78701188Y-44162773D01*
X78839505Y-44162773D01*
X78839505Y-44455878D01*
X78865124Y-44432693D01*
X78889792Y-44418282D01*
X78936480Y-44406236D01*
X78991056Y-44402354D01*
X79044354Y-44407120D01*
X79087207Y-44421014D01*
X79117878Y-44440779D01*
X79149471Y-44474449D01*
X79170733Y-44519730D01*
X79183514Y-44580981D01*
X79189664Y-44662563D01*
X79190568Y-44695540D01*
X79190633Y-44716155D01*
X79190761Y-44756813D01*
X79189167Y-44810571D01*
X75822102Y-43456457D02*
X75789904Y-43464279D01*
X75789904Y-43464279D02*
X75728175Y-43492921D01*
X75728175Y-43492921D02*
X75675390Y-43536667D01*
X75675390Y-43536667D02*
X75638859Y-43589117D01*
X75638859Y-43589117D02*
X75633840Y-43600893D01*
X75633840Y-43600893D02*
X75626955Y-43631740D01*
X75626955Y-43631740D02*
X75622136Y-43677371D01*
X75622136Y-43677371D02*
X75620495Y-43723492D01*
X75620495Y-43723492D02*
X75620495Y-43810693D01*
X75620495Y-43810693D02*
X75802822Y-43810693D01*
X75802822Y-43810693D02*
X75878021Y-43810978D01*
X75878021Y-43810978D02*
X75930997Y-43812704D01*
X75930997Y-43812704D02*
X75964675Y-43817181D01*
X75964675Y-43817181D02*
X75981980Y-43825720D01*
X75981980Y-43825720D02*
X75985837Y-43839630D01*
X75985837Y-43839630D02*
X75979171Y-43860222D01*
X75979171Y-43860222D02*
X75967230Y-43884315D01*
X75967230Y-43884315D02*
X75933920Y-43924525D01*
X75933920Y-43924525D02*
X75887632Y-43944558D01*
X75887632Y-43944558D02*
X75831056Y-43943905D01*
X75831056Y-43943905D02*
X75766969Y-43922101D01*
X75766969Y-43922101D02*
X75711583Y-43895193D01*
X75711583Y-43895193D02*
X75665625Y-43931532D01*
X75665625Y-43931532D02*
X75619667Y-43967872D01*
X75619667Y-43967872D02*
X75662904Y-44007819D01*
X75662904Y-44007819D02*
X75720626Y-44045563D01*
X75720626Y-44045563D02*
X75791614Y-44068320D01*
X75791614Y-44068320D02*
X75867971Y-44074688D01*
X75867971Y-44074688D02*
X75941801Y-44063268D01*
X75941801Y-44063268D02*
X75953713Y-44059393D01*
X75953713Y-44059393D02*
X76018601Y-44025506D01*
X76018601Y-44025506D02*
X76066870Y-43974986D01*
X76066870Y-43974986D02*
X76099535Y-43906325D01*
X76099535Y-43906325D02*
X76117615Y-43818014D01*
X76117615Y-43818014D02*
X76117825Y-43816121D01*
X76117825Y-43816121D02*
X76119444Y-43719878D01*
X76119444Y-43719878D02*
X76112900Y-43685542D01*
X76112900Y-43685542D02*
X75985148Y-43685542D01*
X75985148Y-43685542D02*
X75973416Y-43690822D01*
X75973416Y-43690822D02*
X75941562Y-43694867D01*
X75941562Y-43694867D02*
X75894603Y-43697176D01*
X75894603Y-43697176D02*
X75864846Y-43697525D01*
X75864846Y-43697525D02*
X75809352Y-43697306D01*
X75809352Y-43697306D02*
X75774654Y-43695916D01*
X75774654Y-43695916D02*
X75756399Y-43692251D01*
X75756399Y-43692251D02*
X75750234Y-43685210D01*
X75750234Y-43685210D02*
X75751805Y-43673690D01*
X75751805Y-43673690D02*
X75753122Y-43669233D01*
X75753122Y-43669233D02*
X75775618Y-43627355D01*
X75775618Y-43627355D02*
X75810997Y-43593604D01*
X75810997Y-43593604D02*
X75842220Y-43578773D01*
X75842220Y-43578773D02*
X75883699Y-43579668D01*
X75883699Y-43579668D02*
X75925731Y-43598164D01*
X75925731Y-43598164D02*
X75960988Y-43628786D01*
X75960988Y-43628786D02*
X75982146Y-43666062D01*
X75982146Y-43666062D02*
X75985148Y-43685542D01*
X75985148Y-43685542D02*
X76112900Y-43685542D01*
X76112900Y-43685542D02*
X76103310Y-43635229D01*
X76103310Y-43635229D02*
X76071302Y-43564191D01*
X76071302Y-43564191D02*
X76025299Y-43508779D01*
X76025299Y-43508779D02*
X75967179Y-43471009D01*
X75967179Y-43471009D02*
X75898820Y-43452896D01*
X75898820Y-43452896D02*
X75822102Y-43456457D01*
X75822102Y-43456457D02*
X75822102Y-43456457D01*
G36*
X76117825Y-43816121D02*
G01*
X76117615Y-43818014D01*
X76099535Y-43906325D01*
X76066870Y-43974986D01*
X76018601Y-44025506D01*
X75953713Y-44059393D01*
X75941801Y-44063268D01*
X75867971Y-44074688D01*
X75791614Y-44068320D01*
X75720626Y-44045563D01*
X75662904Y-44007819D01*
X75619667Y-43967872D01*
X75665625Y-43931532D01*
X75711583Y-43895193D01*
X75766969Y-43922101D01*
X75831056Y-43943905D01*
X75887632Y-43944558D01*
X75933920Y-43924525D01*
X75967230Y-43884315D01*
X75979171Y-43860222D01*
X75985837Y-43839630D01*
X75981980Y-43825720D01*
X75964675Y-43817181D01*
X75930997Y-43812704D01*
X75878021Y-43810978D01*
X75802822Y-43810693D01*
X75620495Y-43810693D01*
X75620495Y-43723492D01*
X75621857Y-43685210D01*
X75750234Y-43685210D01*
X75756399Y-43692251D01*
X75774654Y-43695916D01*
X75809352Y-43697306D01*
X75864846Y-43697525D01*
X75894603Y-43697176D01*
X75941562Y-43694867D01*
X75973416Y-43690822D01*
X75985148Y-43685542D01*
X75982146Y-43666062D01*
X75960988Y-43628786D01*
X75925731Y-43598164D01*
X75883699Y-43579668D01*
X75842220Y-43578773D01*
X75810997Y-43593604D01*
X75775618Y-43627355D01*
X75753122Y-43669233D01*
X75751805Y-43673690D01*
X75750234Y-43685210D01*
X75621857Y-43685210D01*
X75622136Y-43677371D01*
X75626955Y-43631740D01*
X75633840Y-43600893D01*
X75638859Y-43589117D01*
X75675390Y-43536667D01*
X75728175Y-43492921D01*
X75789904Y-43464279D01*
X75822102Y-43456457D01*
X75898820Y-43452896D01*
X75967179Y-43471009D01*
X76025299Y-43508779D01*
X76071302Y-43564191D01*
X76103310Y-43635229D01*
X76112900Y-43685542D01*
X76119444Y-43719878D01*
X76117825Y-43816121D01*
G37*
X76117825Y-43816121D02*
X76117615Y-43818014D01*
X76099535Y-43906325D01*
X76066870Y-43974986D01*
X76018601Y-44025506D01*
X75953713Y-44059393D01*
X75941801Y-44063268D01*
X75867971Y-44074688D01*
X75791614Y-44068320D01*
X75720626Y-44045563D01*
X75662904Y-44007819D01*
X75619667Y-43967872D01*
X75665625Y-43931532D01*
X75711583Y-43895193D01*
X75766969Y-43922101D01*
X75831056Y-43943905D01*
X75887632Y-43944558D01*
X75933920Y-43924525D01*
X75967230Y-43884315D01*
X75979171Y-43860222D01*
X75985837Y-43839630D01*
X75981980Y-43825720D01*
X75964675Y-43817181D01*
X75930997Y-43812704D01*
X75878021Y-43810978D01*
X75802822Y-43810693D01*
X75620495Y-43810693D01*
X75620495Y-43723492D01*
X75621857Y-43685210D01*
X75750234Y-43685210D01*
X75756399Y-43692251D01*
X75774654Y-43695916D01*
X75809352Y-43697306D01*
X75864846Y-43697525D01*
X75894603Y-43697176D01*
X75941562Y-43694867D01*
X75973416Y-43690822D01*
X75985148Y-43685542D01*
X75982146Y-43666062D01*
X75960988Y-43628786D01*
X75925731Y-43598164D01*
X75883699Y-43579668D01*
X75842220Y-43578773D01*
X75810997Y-43593604D01*
X75775618Y-43627355D01*
X75753122Y-43669233D01*
X75751805Y-43673690D01*
X75750234Y-43685210D01*
X75621857Y-43685210D01*
X75622136Y-43677371D01*
X75626955Y-43631740D01*
X75633840Y-43600893D01*
X75638859Y-43589117D01*
X75675390Y-43536667D01*
X75728175Y-43492921D01*
X75789904Y-43464279D01*
X75822102Y-43456457D01*
X75898820Y-43452896D01*
X75967179Y-43471009D01*
X76025299Y-43508779D01*
X76071302Y-43564191D01*
X76103310Y-43635229D01*
X76112900Y-43685542D01*
X76119444Y-43719878D01*
X76117825Y-43816121D01*
X78485983Y-43456452D02*
X78438366Y-43465482D01*
X78438366Y-43465482D02*
X78388966Y-43484370D01*
X78388966Y-43484370D02*
X78383688Y-43486777D01*
X78383688Y-43486777D02*
X78346226Y-43506476D01*
X78346226Y-43506476D02*
X78320283Y-43524781D01*
X78320283Y-43524781D02*
X78311897Y-43536508D01*
X78311897Y-43536508D02*
X78319883Y-43555632D01*
X78319883Y-43555632D02*
X78339280Y-43583850D01*
X78339280Y-43583850D02*
X78347890Y-43594384D01*
X78347890Y-43594384D02*
X78383372Y-43635847D01*
X78383372Y-43635847D02*
X78429115Y-43608858D01*
X78429115Y-43608858D02*
X78472650Y-43590878D01*
X78472650Y-43590878D02*
X78522950Y-43581267D01*
X78522950Y-43581267D02*
X78571188Y-43580660D01*
X78571188Y-43580660D02*
X78608533Y-43589691D01*
X78608533Y-43589691D02*
X78617495Y-43595327D01*
X78617495Y-43595327D02*
X78634563Y-43621171D01*
X78634563Y-43621171D02*
X78636637Y-43650941D01*
X78636637Y-43650941D02*
X78623866Y-43674197D01*
X78623866Y-43674197D02*
X78616312Y-43678708D01*
X78616312Y-43678708D02*
X78593675Y-43684309D01*
X78593675Y-43684309D02*
X78553885Y-43690892D01*
X78553885Y-43690892D02*
X78504834Y-43697183D01*
X78504834Y-43697183D02*
X78495785Y-43698170D01*
X78495785Y-43698170D02*
X78417004Y-43711798D01*
X78417004Y-43711798D02*
X78359864Y-43734946D01*
X78359864Y-43734946D02*
X78321970Y-43769752D01*
X78321970Y-43769752D02*
X78300921Y-43818354D01*
X78300921Y-43818354D02*
X78294365Y-43877718D01*
X78294365Y-43877718D02*
X78303423Y-43945198D01*
X78303423Y-43945198D02*
X78332836Y-43998188D01*
X78332836Y-43998188D02*
X78382722Y-44036783D01*
X78382722Y-44036783D02*
X78453200Y-44061081D01*
X78453200Y-44061081D02*
X78531435Y-44070667D01*
X78531435Y-44070667D02*
X78595234Y-44070552D01*
X78595234Y-44070552D02*
X78646984Y-44061845D01*
X78646984Y-44061845D02*
X78682327Y-44049825D01*
X78682327Y-44049825D02*
X78726983Y-44028880D01*
X78726983Y-44028880D02*
X78768253Y-44004574D01*
X78768253Y-44004574D02*
X78782921Y-43993876D01*
X78782921Y-43993876D02*
X78820643Y-43963084D01*
X78820643Y-43963084D02*
X78775148Y-43917049D01*
X78775148Y-43917049D02*
X78729653Y-43871013D01*
X78729653Y-43871013D02*
X78677928Y-43905243D01*
X78677928Y-43905243D02*
X78626048Y-43930952D01*
X78626048Y-43930952D02*
X78570649Y-43944399D01*
X78570649Y-43944399D02*
X78517395Y-43945818D01*
X78517395Y-43945818D02*
X78471951Y-43935443D01*
X78471951Y-43935443D02*
X78439984Y-43913507D01*
X78439984Y-43913507D02*
X78429662Y-43894998D01*
X78429662Y-43894998D02*
X78431211Y-43865314D01*
X78431211Y-43865314D02*
X78456860Y-43842615D01*
X78456860Y-43842615D02*
X78506540Y-43826940D01*
X78506540Y-43826940D02*
X78560969Y-43819695D01*
X78560969Y-43819695D02*
X78644736Y-43805873D01*
X78644736Y-43805873D02*
X78706967Y-43779796D01*
X78706967Y-43779796D02*
X78748493Y-43740699D01*
X78748493Y-43740699D02*
X78770147Y-43687820D01*
X78770147Y-43687820D02*
X78773147Y-43625126D01*
X78773147Y-43625126D02*
X78758329Y-43559642D01*
X78758329Y-43559642D02*
X78724546Y-43510144D01*
X78724546Y-43510144D02*
X78671495Y-43476408D01*
X78671495Y-43476408D02*
X78598874Y-43458207D01*
X78598874Y-43458207D02*
X78545072Y-43454639D01*
X78545072Y-43454639D02*
X78485983Y-43456452D01*
X78485983Y-43456452D02*
X78485983Y-43456452D01*
G36*
X78598874Y-43458207D02*
G01*
X78671495Y-43476408D01*
X78724546Y-43510144D01*
X78758329Y-43559642D01*
X78773147Y-43625126D01*
X78770147Y-43687820D01*
X78748493Y-43740699D01*
X78706967Y-43779796D01*
X78644736Y-43805873D01*
X78560969Y-43819695D01*
X78506540Y-43826940D01*
X78456860Y-43842615D01*
X78431211Y-43865314D01*
X78429662Y-43894998D01*
X78439984Y-43913507D01*
X78471951Y-43935443D01*
X78517395Y-43945818D01*
X78570649Y-43944399D01*
X78626048Y-43930952D01*
X78677928Y-43905243D01*
X78729653Y-43871013D01*
X78775148Y-43917049D01*
X78820643Y-43963084D01*
X78782921Y-43993876D01*
X78768253Y-44004574D01*
X78726983Y-44028880D01*
X78682327Y-44049825D01*
X78646984Y-44061845D01*
X78595234Y-44070552D01*
X78531435Y-44070667D01*
X78453200Y-44061081D01*
X78382722Y-44036783D01*
X78332836Y-43998188D01*
X78303423Y-43945198D01*
X78294365Y-43877718D01*
X78300921Y-43818354D01*
X78321970Y-43769752D01*
X78359864Y-43734946D01*
X78417004Y-43711798D01*
X78495785Y-43698170D01*
X78504834Y-43697183D01*
X78553885Y-43690892D01*
X78593675Y-43684309D01*
X78616312Y-43678708D01*
X78623866Y-43674197D01*
X78636637Y-43650941D01*
X78634563Y-43621171D01*
X78617495Y-43595327D01*
X78608533Y-43589691D01*
X78571188Y-43580660D01*
X78522950Y-43581267D01*
X78472650Y-43590878D01*
X78429115Y-43608858D01*
X78383372Y-43635847D01*
X78347890Y-43594384D01*
X78339280Y-43583850D01*
X78319883Y-43555632D01*
X78311897Y-43536508D01*
X78320283Y-43524781D01*
X78346226Y-43506476D01*
X78383688Y-43486777D01*
X78388966Y-43484370D01*
X78438366Y-43465482D01*
X78485983Y-43456452D01*
X78545072Y-43454639D01*
X78598874Y-43458207D01*
G37*
X78598874Y-43458207D02*
X78671495Y-43476408D01*
X78724546Y-43510144D01*
X78758329Y-43559642D01*
X78773147Y-43625126D01*
X78770147Y-43687820D01*
X78748493Y-43740699D01*
X78706967Y-43779796D01*
X78644736Y-43805873D01*
X78560969Y-43819695D01*
X78506540Y-43826940D01*
X78456860Y-43842615D01*
X78431211Y-43865314D01*
X78429662Y-43894998D01*
X78439984Y-43913507D01*
X78471951Y-43935443D01*
X78517395Y-43945818D01*
X78570649Y-43944399D01*
X78626048Y-43930952D01*
X78677928Y-43905243D01*
X78729653Y-43871013D01*
X78775148Y-43917049D01*
X78820643Y-43963084D01*
X78782921Y-43993876D01*
X78768253Y-44004574D01*
X78726983Y-44028880D01*
X78682327Y-44049825D01*
X78646984Y-44061845D01*
X78595234Y-44070552D01*
X78531435Y-44070667D01*
X78453200Y-44061081D01*
X78382722Y-44036783D01*
X78332836Y-43998188D01*
X78303423Y-43945198D01*
X78294365Y-43877718D01*
X78300921Y-43818354D01*
X78321970Y-43769752D01*
X78359864Y-43734946D01*
X78417004Y-43711798D01*
X78495785Y-43698170D01*
X78504834Y-43697183D01*
X78553885Y-43690892D01*
X78593675Y-43684309D01*
X78616312Y-43678708D01*
X78623866Y-43674197D01*
X78636637Y-43650941D01*
X78634563Y-43621171D01*
X78617495Y-43595327D01*
X78608533Y-43589691D01*
X78571188Y-43580660D01*
X78522950Y-43581267D01*
X78472650Y-43590878D01*
X78429115Y-43608858D01*
X78383372Y-43635847D01*
X78347890Y-43594384D01*
X78339280Y-43583850D01*
X78319883Y-43555632D01*
X78311897Y-43536508D01*
X78320283Y-43524781D01*
X78346226Y-43506476D01*
X78383688Y-43486777D01*
X78388966Y-43484370D01*
X78438366Y-43465482D01*
X78485983Y-43456452D01*
X78545072Y-43454639D01*
X78598874Y-43458207D01*
X77461589Y-44405417D02*
X77408589Y-44418290D01*
X77408589Y-44418290D02*
X77393269Y-44425110D01*
X77393269Y-44425110D02*
X77363572Y-44442974D01*
X77363572Y-44442974D02*
X77340780Y-44463093D01*
X77340780Y-44463093D02*
X77323917Y-44488962D01*
X77323917Y-44488962D02*
X77312002Y-44524073D01*
X77312002Y-44524073D02*
X77304058Y-44571920D01*
X77304058Y-44571920D02*
X77299106Y-44635996D01*
X77299106Y-44635996D02*
X77296169Y-44719794D01*
X77296169Y-44719794D02*
X77295053Y-44775768D01*
X77295053Y-44775768D02*
X77290948Y-45017822D01*
X77290948Y-45017822D02*
X77361068Y-45017822D01*
X77361068Y-45017822D02*
X77403607Y-45016038D01*
X77403607Y-45016038D02*
X77425524Y-45009942D01*
X77425524Y-45009942D02*
X77431188Y-44999706D01*
X77431188Y-44999706D02*
X77434179Y-44988637D01*
X77434179Y-44988637D02*
X77447549Y-44990754D01*
X77447549Y-44990754D02*
X77465767Y-44999629D01*
X77465767Y-44999629D02*
X77511376Y-45013233D01*
X77511376Y-45013233D02*
X77569993Y-45016899D01*
X77569993Y-45016899D02*
X77631646Y-45010903D01*
X77631646Y-45010903D02*
X77686362Y-44995521D01*
X77686362Y-44995521D02*
X77691270Y-44993386D01*
X77691270Y-44993386D02*
X77741277Y-44958255D01*
X77741277Y-44958255D02*
X77774244Y-44909419D01*
X77774244Y-44909419D02*
X77789413Y-44852333D01*
X77789413Y-44852333D02*
X77788254Y-44831824D01*
X77788254Y-44831824D02*
X77664492Y-44831824D01*
X77664492Y-44831824D02*
X77653587Y-44859425D01*
X77653587Y-44859425D02*
X77621255Y-44879204D01*
X77621255Y-44879204D02*
X77569090Y-44889819D01*
X77569090Y-44889819D02*
X77541213Y-44891228D01*
X77541213Y-44891228D02*
X77494753Y-44887620D01*
X77494753Y-44887620D02*
X77463871Y-44873597D01*
X77463871Y-44873597D02*
X77456336Y-44866931D01*
X77456336Y-44866931D02*
X77435924Y-44830666D01*
X77435924Y-44830666D02*
X77431188Y-44797773D01*
X77431188Y-44797773D02*
X77431188Y-44753763D01*
X77431188Y-44753763D02*
X77492487Y-44753763D01*
X77492487Y-44753763D02*
X77563744Y-44757395D01*
X77563744Y-44757395D02*
X77613724Y-44768818D01*
X77613724Y-44768818D02*
X77645304Y-44788824D01*
X77645304Y-44788824D02*
X77652374Y-44797743D01*
X77652374Y-44797743D02*
X77664492Y-44831824D01*
X77664492Y-44831824D02*
X77788254Y-44831824D01*
X77788254Y-44831824D02*
X77786029Y-44792456D01*
X77786029Y-44792456D02*
X77763337Y-44735244D01*
X77763337Y-44735244D02*
X77732376Y-44696580D01*
X77732376Y-44696580D02*
X77713624Y-44679864D01*
X77713624Y-44679864D02*
X77695267Y-44668878D01*
X77695267Y-44668878D02*
X77671381Y-44662180D01*
X77671381Y-44662180D02*
X77636043Y-44658326D01*
X77636043Y-44658326D02*
X77583331Y-44655873D01*
X77583331Y-44655873D02*
X77562423Y-44655168D01*
X77562423Y-44655168D02*
X77431188Y-44650879D01*
X77431188Y-44650879D02*
X77431380Y-44611158D01*
X77431380Y-44611158D02*
X77436463Y-44569405D01*
X77436463Y-44569405D02*
X77454838Y-44544158D01*
X77454838Y-44544158D02*
X77491961Y-44528030D01*
X77491961Y-44528030D02*
X77492957Y-44527742D01*
X77492957Y-44527742D02*
X77545590Y-44521400D01*
X77545590Y-44521400D02*
X77597094Y-44529684D01*
X77597094Y-44529684D02*
X77635370Y-44549827D01*
X77635370Y-44549827D02*
X77650728Y-44559773D01*
X77650728Y-44559773D02*
X77667270Y-44558397D01*
X77667270Y-44558397D02*
X77692725Y-44543987D01*
X77692725Y-44543987D02*
X77707672Y-44533817D01*
X77707672Y-44533817D02*
X77736909Y-44512088D01*
X77736909Y-44512088D02*
X77755020Y-44495800D01*
X77755020Y-44495800D02*
X77757926Y-44491137D01*
X77757926Y-44491137D02*
X77745960Y-44467005D01*
X77745960Y-44467005D02*
X77710604Y-44438185D01*
X77710604Y-44438185D02*
X77695247Y-44428461D01*
X77695247Y-44428461D02*
X77651099Y-44411714D01*
X77651099Y-44411714D02*
X77591602Y-44402227D01*
X77591602Y-44402227D02*
X77525513Y-44400095D01*
X77525513Y-44400095D02*
X77461589Y-44405417D01*
X77461589Y-44405417D02*
X77461589Y-44405417D01*
G36*
X77774244Y-44909419D02*
G01*
X77741277Y-44958255D01*
X77691270Y-44993386D01*
X77686362Y-44995521D01*
X77631646Y-45010903D01*
X77569993Y-45016899D01*
X77511376Y-45013233D01*
X77465767Y-44999629D01*
X77447549Y-44990754D01*
X77434179Y-44988637D01*
X77431188Y-44999706D01*
X77425524Y-45009942D01*
X77403607Y-45016038D01*
X77361068Y-45017822D01*
X77290948Y-45017822D01*
X77294680Y-44797773D01*
X77431188Y-44797773D01*
X77435924Y-44830666D01*
X77456336Y-44866931D01*
X77463871Y-44873597D01*
X77494753Y-44887620D01*
X77541213Y-44891228D01*
X77569090Y-44889819D01*
X77621255Y-44879204D01*
X77653587Y-44859425D01*
X77664492Y-44831824D01*
X77652374Y-44797743D01*
X77645304Y-44788824D01*
X77613724Y-44768818D01*
X77563744Y-44757395D01*
X77492487Y-44753763D01*
X77431188Y-44753763D01*
X77431188Y-44797773D01*
X77294680Y-44797773D01*
X77295053Y-44775768D01*
X77296169Y-44719794D01*
X77299106Y-44635996D01*
X77304058Y-44571920D01*
X77312002Y-44524073D01*
X77323917Y-44488962D01*
X77340780Y-44463093D01*
X77363572Y-44442974D01*
X77393269Y-44425110D01*
X77408589Y-44418290D01*
X77461589Y-44405417D01*
X77525513Y-44400095D01*
X77591602Y-44402227D01*
X77651099Y-44411714D01*
X77695247Y-44428461D01*
X77710604Y-44438185D01*
X77745960Y-44467005D01*
X77757926Y-44491137D01*
X77755020Y-44495800D01*
X77736909Y-44512088D01*
X77707672Y-44533817D01*
X77692725Y-44543987D01*
X77667270Y-44558397D01*
X77650728Y-44559773D01*
X77635370Y-44549827D01*
X77597094Y-44529684D01*
X77545590Y-44521400D01*
X77492957Y-44527742D01*
X77491961Y-44528030D01*
X77454838Y-44544158D01*
X77436463Y-44569405D01*
X77431380Y-44611158D01*
X77431188Y-44650879D01*
X77562423Y-44655168D01*
X77583331Y-44655873D01*
X77636043Y-44658326D01*
X77671381Y-44662180D01*
X77695267Y-44668878D01*
X77713624Y-44679864D01*
X77732376Y-44696580D01*
X77763337Y-44735244D01*
X77786029Y-44792456D01*
X77788254Y-44831824D01*
X77789413Y-44852333D01*
X77774244Y-44909419D01*
G37*
X77774244Y-44909419D02*
X77741277Y-44958255D01*
X77691270Y-44993386D01*
X77686362Y-44995521D01*
X77631646Y-45010903D01*
X77569993Y-45016899D01*
X77511376Y-45013233D01*
X77465767Y-44999629D01*
X77447549Y-44990754D01*
X77434179Y-44988637D01*
X77431188Y-44999706D01*
X77425524Y-45009942D01*
X77403607Y-45016038D01*
X77361068Y-45017822D01*
X77290948Y-45017822D01*
X77294680Y-44797773D01*
X77431188Y-44797773D01*
X77435924Y-44830666D01*
X77456336Y-44866931D01*
X77463871Y-44873597D01*
X77494753Y-44887620D01*
X77541213Y-44891228D01*
X77569090Y-44889819D01*
X77621255Y-44879204D01*
X77653587Y-44859425D01*
X77664492Y-44831824D01*
X77652374Y-44797743D01*
X77645304Y-44788824D01*
X77613724Y-44768818D01*
X77563744Y-44757395D01*
X77492487Y-44753763D01*
X77431188Y-44753763D01*
X77431188Y-44797773D01*
X77294680Y-44797773D01*
X77295053Y-44775768D01*
X77296169Y-44719794D01*
X77299106Y-44635996D01*
X77304058Y-44571920D01*
X77312002Y-44524073D01*
X77323917Y-44488962D01*
X77340780Y-44463093D01*
X77363572Y-44442974D01*
X77393269Y-44425110D01*
X77408589Y-44418290D01*
X77461589Y-44405417D01*
X77525513Y-44400095D01*
X77591602Y-44402227D01*
X77651099Y-44411714D01*
X77695247Y-44428461D01*
X77710604Y-44438185D01*
X77745960Y-44467005D01*
X77757926Y-44491137D01*
X77755020Y-44495800D01*
X77736909Y-44512088D01*
X77707672Y-44533817D01*
X77692725Y-44543987D01*
X77667270Y-44558397D01*
X77650728Y-44559773D01*
X77635370Y-44549827D01*
X77597094Y-44529684D01*
X77545590Y-44521400D01*
X77492957Y-44527742D01*
X77491961Y-44528030D01*
X77454838Y-44544158D01*
X77436463Y-44569405D01*
X77431380Y-44611158D01*
X77431188Y-44650879D01*
X77562423Y-44655168D01*
X77583331Y-44655873D01*
X77636043Y-44658326D01*
X77671381Y-44662180D01*
X77695267Y-44668878D01*
X77713624Y-44679864D01*
X77732376Y-44696580D01*
X77763337Y-44735244D01*
X77786029Y-44792456D01*
X77788254Y-44831824D01*
X77789413Y-44852333D01*
X77774244Y-44909419D01*
X78123036Y-39290018D02*
X78066188Y-39591570D01*
X78066188Y-39591570D02*
X77646662Y-39764512D01*
X77646662Y-39764512D02*
X77395016Y-39593395D01*
X77395016Y-39593395D02*
X77324542Y-39545750D01*
X77324542Y-39545750D02*
X77260837Y-39503210D01*
X77260837Y-39503210D02*
X77206874Y-39467715D01*
X77206874Y-39467715D02*
X77165627Y-39441210D01*
X77165627Y-39441210D02*
X77140066Y-39425636D01*
X77140066Y-39425636D02*
X77133105Y-39422278D01*
X77133105Y-39422278D02*
X77120565Y-39430914D01*
X77120565Y-39430914D02*
X77093769Y-39454792D01*
X77093769Y-39454792D02*
X77055720Y-39490859D01*
X77055720Y-39490859D02*
X77009421Y-39536067D01*
X77009421Y-39536067D02*
X76957877Y-39587364D01*
X76957877Y-39587364D02*
X76904091Y-39641701D01*
X76904091Y-39641701D02*
X76851065Y-39696028D01*
X76851065Y-39696028D02*
X76801805Y-39747295D01*
X76801805Y-39747295D02*
X76759313Y-39792451D01*
X76759313Y-39792451D02*
X76726593Y-39828446D01*
X76726593Y-39828446D02*
X76706649Y-39852230D01*
X76706649Y-39852230D02*
X76701881Y-39860190D01*
X76701881Y-39860190D02*
X76708743Y-39874865D01*
X76708743Y-39874865D02*
X76727980Y-39907014D01*
X76727980Y-39907014D02*
X76757570Y-39953492D01*
X76757570Y-39953492D02*
X76795490Y-40011156D01*
X76795490Y-40011156D02*
X76839718Y-40076860D01*
X76839718Y-40076860D02*
X76865346Y-40114336D01*
X76865346Y-40114336D02*
X76912059Y-40182768D01*
X76912059Y-40182768D02*
X76953568Y-40244520D01*
X76953568Y-40244520D02*
X76987860Y-40296519D01*
X76987860Y-40296519D02*
X77012920Y-40335692D01*
X77012920Y-40335692D02*
X77026736Y-40358965D01*
X77026736Y-40358965D02*
X77028812Y-40363855D01*
X77028812Y-40363855D02*
X77024105Y-40377755D01*
X77024105Y-40377755D02*
X77011277Y-40410150D01*
X77011277Y-40410150D02*
X76992262Y-40456485D01*
X76992262Y-40456485D02*
X76968997Y-40512206D01*
X76968997Y-40512206D02*
X76943416Y-40572758D01*
X76943416Y-40572758D02*
X76917455Y-40633586D01*
X76917455Y-40633586D02*
X76893050Y-40690136D01*
X76893050Y-40690136D02*
X76872137Y-40737852D01*
X76872137Y-40737852D02*
X76856651Y-40772181D01*
X76856651Y-40772181D02*
X76848528Y-40788568D01*
X76848528Y-40788568D02*
X76848048Y-40789212D01*
X76848048Y-40789212D02*
X76835293Y-40792341D01*
X76835293Y-40792341D02*
X76801323Y-40799321D01*
X76801323Y-40799321D02*
X76749660Y-40809467D01*
X76749660Y-40809467D02*
X76683824Y-40822092D01*
X76683824Y-40822092D02*
X76607336Y-40836509D01*
X76607336Y-40836509D02*
X76562710Y-40844823D01*
X76562710Y-40844823D02*
X76480979Y-40860384D01*
X76480979Y-40860384D02*
X76407157Y-40875192D01*
X76407157Y-40875192D02*
X76344979Y-40888436D01*
X76344979Y-40888436D02*
X76298178Y-40899305D01*
X76298178Y-40899305D02*
X76270491Y-40906989D01*
X76270491Y-40906989D02*
X76264926Y-40909427D01*
X76264926Y-40909427D02*
X76259474Y-40925930D01*
X76259474Y-40925930D02*
X76255076Y-40963200D01*
X76255076Y-40963200D02*
X76251728Y-41016880D01*
X76251728Y-41016880D02*
X76249426Y-41082612D01*
X76249426Y-41082612D02*
X76248168Y-41156037D01*
X76248168Y-41156037D02*
X76247952Y-41232796D01*
X76247952Y-41232796D02*
X76248773Y-41308532D01*
X76248773Y-41308532D02*
X76250629Y-41378886D01*
X76250629Y-41378886D02*
X76253518Y-41439500D01*
X76253518Y-41439500D02*
X76257435Y-41486016D01*
X76257435Y-41486016D02*
X76262378Y-41514075D01*
X76262378Y-41514075D02*
X76265343Y-41519916D01*
X76265343Y-41519916D02*
X76283066Y-41526917D01*
X76283066Y-41526917D02*
X76320619Y-41536927D01*
X76320619Y-41536927D02*
X76373036Y-41548769D01*
X76373036Y-41548769D02*
X76435348Y-41561267D01*
X76435348Y-41561267D02*
X76457100Y-41565310D01*
X76457100Y-41565310D02*
X76561976Y-41584520D01*
X76561976Y-41584520D02*
X76644820Y-41599991D01*
X76644820Y-41599991D02*
X76708370Y-41612337D01*
X76708370Y-41612337D02*
X76755363Y-41622173D01*
X76755363Y-41622173D02*
X76788537Y-41630114D01*
X76788537Y-41630114D02*
X76810629Y-41636776D01*
X76810629Y-41636776D02*
X76824376Y-41642773D01*
X76824376Y-41642773D02*
X76832516Y-41648719D01*
X76832516Y-41648719D02*
X76833655Y-41649894D01*
X76833655Y-41649894D02*
X76845023Y-41668826D01*
X76845023Y-41668826D02*
X76862365Y-41705669D01*
X76862365Y-41705669D02*
X76883950Y-41755913D01*
X76883950Y-41755913D02*
X76908046Y-41815046D01*
X76908046Y-41815046D02*
X76932921Y-41878556D01*
X76932921Y-41878556D02*
X76956843Y-41941932D01*
X76956843Y-41941932D02*
X76978081Y-42000662D01*
X76978081Y-42000662D02*
X76994903Y-42050235D01*
X76994903Y-42050235D02*
X77005578Y-42086139D01*
X77005578Y-42086139D02*
X77008373Y-42103862D01*
X77008373Y-42103862D02*
X77008140Y-42104483D01*
X77008140Y-42104483D02*
X76998669Y-42118970D01*
X76998669Y-42118970D02*
X76977182Y-42150844D01*
X76977182Y-42150844D02*
X76945937Y-42196789D01*
X76945937Y-42196789D02*
X76907193Y-42253485D01*
X76907193Y-42253485D02*
X76863207Y-42317617D01*
X76863207Y-42317617D02*
X76850681Y-42335842D01*
X76850681Y-42335842D02*
X76806016Y-42401914D01*
X76806016Y-42401914D02*
X76766712Y-42462200D01*
X76766712Y-42462200D02*
X76734912Y-42513235D01*
X76734912Y-42513235D02*
X76712755Y-42551560D01*
X76712755Y-42551560D02*
X76702383Y-42573711D01*
X76702383Y-42573711D02*
X76701881Y-42576432D01*
X76701881Y-42576432D02*
X76710595Y-42590736D01*
X76710595Y-42590736D02*
X76734675Y-42619072D01*
X76734675Y-42619072D02*
X76771024Y-42658396D01*
X76771024Y-42658396D02*
X76816547Y-42705661D01*
X76816547Y-42705661D02*
X76868148Y-42757823D01*
X76868148Y-42757823D02*
X76922733Y-42811835D01*
X76922733Y-42811835D02*
X76977206Y-42864653D01*
X76977206Y-42864653D02*
X77028471Y-42913231D01*
X77028471Y-42913231D02*
X77073433Y-42954523D01*
X77073433Y-42954523D02*
X77108996Y-42985485D01*
X77108996Y-42985485D02*
X77132065Y-43003070D01*
X77132065Y-43003070D02*
X77138446Y-43005941D01*
X77138446Y-43005941D02*
X77153301Y-42999178D01*
X77153301Y-42999178D02*
X77183714Y-42980939D01*
X77183714Y-42980939D02*
X77224732Y-42954297D01*
X77224732Y-42954297D02*
X77256291Y-42932852D01*
X77256291Y-42932852D02*
X77313475Y-42893503D01*
X77313475Y-42893503D02*
X77381194Y-42847171D01*
X77381194Y-42847171D02*
X77449120Y-42800913D01*
X77449120Y-42800913D02*
X77485639Y-42776155D01*
X77485639Y-42776155D02*
X77609248Y-42692547D01*
X77609248Y-42692547D02*
X77713009Y-42748650D01*
X77713009Y-42748650D02*
X77760280Y-42773228D01*
X77760280Y-42773228D02*
X77800477Y-42792331D01*
X77800477Y-42792331D02*
X77827674Y-42803227D01*
X77827674Y-42803227D02*
X77834598Y-42804743D01*
X77834598Y-42804743D02*
X77842923Y-42793549D01*
X77842923Y-42793549D02*
X77859346Y-42761917D01*
X77859346Y-42761917D02*
X77882643Y-42712765D01*
X77882643Y-42712765D02*
X77911586Y-42649010D01*
X77911586Y-42649010D02*
X77944950Y-42573571D01*
X77944950Y-42573571D02*
X77981509Y-42489364D01*
X77981509Y-42489364D02*
X78020036Y-42399308D01*
X78020036Y-42399308D02*
X78059306Y-42306321D01*
X78059306Y-42306321D02*
X78098092Y-42213320D01*
X78098092Y-42213320D02*
X78135170Y-42123223D01*
X78135170Y-42123223D02*
X78169311Y-42038948D01*
X78169311Y-42038948D02*
X78199292Y-41963413D01*
X78199292Y-41963413D02*
X78223884Y-41899534D01*
X78223884Y-41899534D02*
X78241864Y-41850231D01*
X78241864Y-41850231D02*
X78252003Y-41818421D01*
X78252003Y-41818421D02*
X78253634Y-41807496D01*
X78253634Y-41807496D02*
X78240709Y-41793561D01*
X78240709Y-41793561D02*
X78212411Y-41770940D01*
X78212411Y-41770940D02*
X78174654Y-41744333D01*
X78174654Y-41744333D02*
X78171485Y-41742228D01*
X78171485Y-41742228D02*
X78073900Y-41664114D01*
X78073900Y-41664114D02*
X77995214Y-41572982D01*
X77995214Y-41572982D02*
X77936109Y-41471745D01*
X77936109Y-41471745D02*
X77897268Y-41363318D01*
X77897268Y-41363318D02*
X77879372Y-41250614D01*
X77879372Y-41250614D02*
X77883103Y-41136548D01*
X77883103Y-41136548D02*
X77909143Y-41024034D01*
X77909143Y-41024034D02*
X77958175Y-40915985D01*
X77958175Y-40915985D02*
X77972600Y-40892345D01*
X77972600Y-40892345D02*
X78047631Y-40796887D01*
X78047631Y-40796887D02*
X78136270Y-40720232D01*
X78136270Y-40720232D02*
X78235451Y-40662780D01*
X78235451Y-40662780D02*
X78342105Y-40624929D01*
X78342105Y-40624929D02*
X78453164Y-40607078D01*
X78453164Y-40607078D02*
X78565561Y-40609625D01*
X78565561Y-40609625D02*
X78676227Y-40632970D01*
X78676227Y-40632970D02*
X78782094Y-40677510D01*
X78782094Y-40677510D02*
X78880095Y-40743645D01*
X78880095Y-40743645D02*
X78910410Y-40770487D01*
X78910410Y-40770487D02*
X78987562Y-40854512D01*
X78987562Y-40854512D02*
X79043782Y-40942966D01*
X79043782Y-40942966D02*
X79082347Y-41042115D01*
X79082347Y-41042115D02*
X79103826Y-41140303D01*
X79103826Y-41140303D02*
X79109128Y-41250697D01*
X79109128Y-41250697D02*
X79091448Y-41361640D01*
X79091448Y-41361640D02*
X79052581Y-41469381D01*
X79052581Y-41469381D02*
X78994323Y-41570169D01*
X78994323Y-41570169D02*
X78918469Y-41660256D01*
X78918469Y-41660256D02*
X78826817Y-41735892D01*
X78826817Y-41735892D02*
X78814772Y-41743864D01*
X78814772Y-41743864D02*
X78776611Y-41769974D01*
X78776611Y-41769974D02*
X78747601Y-41792595D01*
X78747601Y-41792595D02*
X78733732Y-41807039D01*
X78733732Y-41807039D02*
X78733531Y-41807496D01*
X78733531Y-41807496D02*
X78736508Y-41823121D01*
X78736508Y-41823121D02*
X78748311Y-41858582D01*
X78748311Y-41858582D02*
X78767714Y-41910962D01*
X78767714Y-41910962D02*
X78793488Y-41977345D01*
X78793488Y-41977345D02*
X78824409Y-42054814D01*
X78824409Y-42054814D02*
X78859249Y-42140450D01*
X78859249Y-42140450D02*
X78896783Y-42231337D01*
X78896783Y-42231337D02*
X78935783Y-42324559D01*
X78935783Y-42324559D02*
X78975023Y-42417197D01*
X78975023Y-42417197D02*
X79013276Y-42506335D01*
X79013276Y-42506335D02*
X79049317Y-42589055D01*
X79049317Y-42589055D02*
X79081917Y-42662441D01*
X79081917Y-42662441D02*
X79109852Y-42723575D01*
X79109852Y-42723575D02*
X79131895Y-42769541D01*
X79131895Y-42769541D02*
X79146818Y-42797421D01*
X79146818Y-42797421D02*
X79152828Y-42804743D01*
X79152828Y-42804743D02*
X79171191Y-42799041D01*
X79171191Y-42799041D02*
X79205552Y-42783749D01*
X79205552Y-42783749D02*
X79249984Y-42761599D01*
X79249984Y-42761599D02*
X79274417Y-42748650D01*
X79274417Y-42748650D02*
X79378178Y-42692547D01*
X79378178Y-42692547D02*
X79501787Y-42776155D01*
X79501787Y-42776155D02*
X79564886Y-42818987D01*
X79564886Y-42818987D02*
X79633970Y-42866122D01*
X79633970Y-42866122D02*
X79698707Y-42910503D01*
X79698707Y-42910503D02*
X79731134Y-42932852D01*
X79731134Y-42932852D02*
X79776741Y-42963477D01*
X79776741Y-42963477D02*
X79815360Y-42987747D01*
X79815360Y-42987747D02*
X79841952Y-43002587D01*
X79841952Y-43002587D02*
X79850590Y-43005724D01*
X79850590Y-43005724D02*
X79863161Y-42997261D01*
X79863161Y-42997261D02*
X79890984Y-42973636D01*
X79890984Y-42973636D02*
X79931361Y-42937302D01*
X79931361Y-42937302D02*
X79981595Y-42890711D01*
X79981595Y-42890711D02*
X80038988Y-42836317D01*
X80038988Y-42836317D02*
X80075286Y-42801392D01*
X80075286Y-42801392D02*
X80138790Y-42738996D01*
X80138790Y-42738996D02*
X80193673Y-42683188D01*
X80193673Y-42683188D02*
X80237714Y-42636354D01*
X80237714Y-42636354D02*
X80268695Y-42600882D01*
X80268695Y-42600882D02*
X80284398Y-42579161D01*
X80284398Y-42579161D02*
X80285905Y-42574752D01*
X80285905Y-42574752D02*
X80278914Y-42557985D01*
X80278914Y-42557985D02*
X80259594Y-42524082D01*
X80259594Y-42524082D02*
X80230091Y-42476476D01*
X80230091Y-42476476D02*
X80192545Y-42418599D01*
X80192545Y-42418599D02*
X80149100Y-42353884D01*
X80149100Y-42353884D02*
X80136745Y-42335842D01*
X80136745Y-42335842D02*
X80091727Y-42270267D01*
X80091727Y-42270267D02*
X80051340Y-42211228D01*
X80051340Y-42211228D02*
X80017840Y-42162042D01*
X80017840Y-42162042D02*
X79993486Y-42126028D01*
X79993486Y-42126028D02*
X79980536Y-42106502D01*
X79980536Y-42106502D02*
X79979285Y-42104483D01*
X79979285Y-42104483D02*
X79981156Y-42088922D01*
X79981156Y-42088922D02*
X79991087Y-42054709D01*
X79991087Y-42054709D02*
X80007347Y-42006355D01*
X80007347Y-42006355D02*
X80028205Y-41948371D01*
X80028205Y-41948371D02*
X80051927Y-41885270D01*
X80051927Y-41885270D02*
X80076784Y-41821563D01*
X80076784Y-41821563D02*
X80101042Y-41761761D01*
X80101042Y-41761761D02*
X80122971Y-41710376D01*
X80122971Y-41710376D02*
X80140838Y-41671919D01*
X80140838Y-41671919D02*
X80152913Y-41650902D01*
X80152913Y-41650902D02*
X80153771Y-41649894D01*
X80153771Y-41649894D02*
X80161154Y-41643888D01*
X80161154Y-41643888D02*
X80173625Y-41637948D01*
X80173625Y-41637948D02*
X80193920Y-41631460D01*
X80193920Y-41631460D02*
X80224778Y-41623809D01*
X80224778Y-41623809D02*
X80268934Y-41614380D01*
X80268934Y-41614380D02*
X80329126Y-41602559D01*
X80329126Y-41602559D02*
X80408093Y-41587729D01*
X80408093Y-41587729D02*
X80508570Y-41569277D01*
X80508570Y-41569277D02*
X80530325Y-41565310D01*
X80530325Y-41565310D02*
X80594802Y-41552853D01*
X80594802Y-41552853D02*
X80651011Y-41540666D01*
X80651011Y-41540666D02*
X80693987Y-41529926D01*
X80693987Y-41529926D02*
X80718760Y-41521809D01*
X80718760Y-41521809D02*
X80722082Y-41519916D01*
X80722082Y-41519916D02*
X80727556Y-41503138D01*
X80727556Y-41503138D02*
X80732006Y-41465645D01*
X80732006Y-41465645D02*
X80735428Y-41411794D01*
X80735428Y-41411794D02*
X80737819Y-41345944D01*
X80737819Y-41345944D02*
X80739177Y-41272453D01*
X80739177Y-41272453D02*
X80739499Y-41195680D01*
X80739499Y-41195680D02*
X80738781Y-41119983D01*
X80738781Y-41119983D02*
X80737021Y-41049720D01*
X80737021Y-41049720D02*
X80734216Y-40989250D01*
X80734216Y-40989250D02*
X80730362Y-40942930D01*
X80730362Y-40942930D02*
X80725457Y-40915119D01*
X80725457Y-40915119D02*
X80722500Y-40909427D01*
X80722500Y-40909427D02*
X80706037Y-40903686D01*
X80706037Y-40903686D02*
X80668551Y-40894345D01*
X80668551Y-40894345D02*
X80613775Y-40882215D01*
X80613775Y-40882215D02*
X80545445Y-40868107D01*
X80545445Y-40868107D02*
X80467294Y-40852830D01*
X80467294Y-40852830D02*
X80424716Y-40844823D01*
X80424716Y-40844823D02*
X80343929Y-40829721D01*
X80343929Y-40829721D02*
X80271887Y-40816040D01*
X80271887Y-40816040D02*
X80212111Y-40804467D01*
X80212111Y-40804467D02*
X80168121Y-40795687D01*
X80168121Y-40795687D02*
X80143439Y-40790387D01*
X80143439Y-40790387D02*
X80139377Y-40789212D01*
X80139377Y-40789212D02*
X80132511Y-40775965D01*
X80132511Y-40775965D02*
X80117998Y-40744057D01*
X80117998Y-40744057D02*
X80097771Y-40698047D01*
X80097771Y-40698047D02*
X80073766Y-40642492D01*
X80073766Y-40642492D02*
X80047918Y-40581953D01*
X80047918Y-40581953D02*
X80022160Y-40520986D01*
X80022160Y-40520986D02*
X79998427Y-40464151D01*
X79998427Y-40464151D02*
X79978654Y-40416006D01*
X79978654Y-40416006D02*
X79964776Y-40381110D01*
X79964776Y-40381110D02*
X79958726Y-40364021D01*
X79958726Y-40364021D02*
X79958614Y-40363274D01*
X79958614Y-40363274D02*
X79965472Y-40349793D01*
X79965472Y-40349793D02*
X79984698Y-40318770D01*
X79984698Y-40318770D02*
X80014272Y-40273289D01*
X80014272Y-40273289D02*
X80052173Y-40216432D01*
X80052173Y-40216432D02*
X80096380Y-40151283D01*
X80096380Y-40151283D02*
X80122079Y-40113862D01*
X80122079Y-40113862D02*
X80168907Y-40045247D01*
X80168907Y-40045247D02*
X80210499Y-39982952D01*
X80210499Y-39982952D02*
X80244825Y-39930129D01*
X80244825Y-39930129D02*
X80269857Y-39889927D01*
X80269857Y-39889927D02*
X80283565Y-39865500D01*
X80283565Y-39865500D02*
X80285544Y-39860024D01*
X80285544Y-39860024D02*
X80277034Y-39847278D01*
X80277034Y-39847278D02*
X80253507Y-39820063D01*
X80253507Y-39820063D02*
X80217968Y-39781428D01*
X80217968Y-39781428D02*
X80173423Y-39734423D01*
X80173423Y-39734423D02*
X80122877Y-39682095D01*
X80122877Y-39682095D02*
X80069336Y-39627495D01*
X80069336Y-39627495D02*
X80015805Y-39573670D01*
X80015805Y-39573670D02*
X79965289Y-39523670D01*
X79965289Y-39523670D02*
X79920794Y-39480543D01*
X79920794Y-39480543D02*
X79885325Y-39447339D01*
X79885325Y-39447339D02*
X79861887Y-39427106D01*
X79861887Y-39427106D02*
X79854046Y-39422278D01*
X79854046Y-39422278D02*
X79841280Y-39429067D01*
X79841280Y-39429067D02*
X79810744Y-39448142D01*
X79810744Y-39448142D02*
X79765410Y-39477561D01*
X79765410Y-39477561D02*
X79708244Y-39515381D01*
X79708244Y-39515381D02*
X79642216Y-39559661D01*
X79642216Y-39559661D02*
X79592410Y-39593395D01*
X79592410Y-39593395D02*
X79340764Y-39764512D01*
X79340764Y-39764512D02*
X79131001Y-39678041D01*
X79131001Y-39678041D02*
X78921237Y-39591570D01*
X78921237Y-39591570D02*
X78864389Y-39290018D01*
X78864389Y-39290018D02*
X78807540Y-38988466D01*
X78807540Y-38988466D02*
X78179885Y-38988466D01*
X78179885Y-38988466D02*
X78123036Y-39290018D01*
X78123036Y-39290018D02*
X78123036Y-39290018D01*
G36*
X78864389Y-39290018D02*
G01*
X78921237Y-39591570D01*
X79131001Y-39678041D01*
X79340764Y-39764512D01*
X79592410Y-39593395D01*
X79642216Y-39559661D01*
X79708244Y-39515381D01*
X79765410Y-39477561D01*
X79810744Y-39448142D01*
X79841280Y-39429067D01*
X79854046Y-39422278D01*
X79861887Y-39427106D01*
X79885325Y-39447339D01*
X79920794Y-39480543D01*
X79965289Y-39523670D01*
X80015805Y-39573670D01*
X80069336Y-39627495D01*
X80122877Y-39682095D01*
X80173423Y-39734423D01*
X80217968Y-39781428D01*
X80253507Y-39820063D01*
X80277034Y-39847278D01*
X80285544Y-39860024D01*
X80283565Y-39865500D01*
X80269857Y-39889927D01*
X80244825Y-39930129D01*
X80210499Y-39982952D01*
X80168907Y-40045247D01*
X80122079Y-40113862D01*
X80096380Y-40151283D01*
X80052173Y-40216432D01*
X80014272Y-40273289D01*
X79984698Y-40318770D01*
X79965472Y-40349793D01*
X79958614Y-40363274D01*
X79958726Y-40364021D01*
X79964776Y-40381110D01*
X79978654Y-40416006D01*
X79998427Y-40464151D01*
X80022160Y-40520986D01*
X80047918Y-40581953D01*
X80073766Y-40642492D01*
X80097771Y-40698047D01*
X80117998Y-40744057D01*
X80132511Y-40775965D01*
X80139377Y-40789212D01*
X80143439Y-40790387D01*
X80168121Y-40795687D01*
X80212111Y-40804467D01*
X80271887Y-40816040D01*
X80343929Y-40829721D01*
X80424716Y-40844823D01*
X80467294Y-40852830D01*
X80545445Y-40868107D01*
X80613775Y-40882215D01*
X80668551Y-40894345D01*
X80706037Y-40903686D01*
X80722500Y-40909427D01*
X80725457Y-40915119D01*
X80730362Y-40942930D01*
X80734216Y-40989250D01*
X80737021Y-41049720D01*
X80738781Y-41119983D01*
X80739499Y-41195680D01*
X80739177Y-41272453D01*
X80737819Y-41345944D01*
X80735428Y-41411794D01*
X80732006Y-41465645D01*
X80727556Y-41503138D01*
X80722082Y-41519916D01*
X80718760Y-41521809D01*
X80693987Y-41529926D01*
X80651011Y-41540666D01*
X80594802Y-41552853D01*
X80530325Y-41565310D01*
X80508570Y-41569277D01*
X80408093Y-41587729D01*
X80329126Y-41602559D01*
X80268934Y-41614380D01*
X80224778Y-41623809D01*
X80193920Y-41631460D01*
X80173625Y-41637948D01*
X80161154Y-41643888D01*
X80153771Y-41649894D01*
X80152913Y-41650902D01*
X80140838Y-41671919D01*
X80122971Y-41710376D01*
X80101042Y-41761761D01*
X80076784Y-41821563D01*
X80051927Y-41885270D01*
X80028205Y-41948371D01*
X80007347Y-42006355D01*
X79991087Y-42054709D01*
X79981156Y-42088922D01*
X79979285Y-42104483D01*
X79980536Y-42106502D01*
X79993486Y-42126028D01*
X80017840Y-42162042D01*
X80051340Y-42211228D01*
X80091727Y-42270267D01*
X80136745Y-42335842D01*
X80149100Y-42353884D01*
X80192545Y-42418599D01*
X80230091Y-42476476D01*
X80259594Y-42524082D01*
X80278914Y-42557985D01*
X80285905Y-42574752D01*
X80284398Y-42579161D01*
X80268695Y-42600882D01*
X80237714Y-42636354D01*
X80193673Y-42683188D01*
X80138790Y-42738996D01*
X80075286Y-42801392D01*
X80038988Y-42836317D01*
X79981595Y-42890711D01*
X79931361Y-42937302D01*
X79890984Y-42973636D01*
X79863161Y-42997261D01*
X79850590Y-43005724D01*
X79841952Y-43002587D01*
X79815360Y-42987747D01*
X79776741Y-42963477D01*
X79731134Y-42932852D01*
X79698707Y-42910503D01*
X79633970Y-42866122D01*
X79564886Y-42818987D01*
X79501787Y-42776155D01*
X79378178Y-42692547D01*
X79274417Y-42748650D01*
X79249984Y-42761599D01*
X79205552Y-42783749D01*
X79171191Y-42799041D01*
X79152828Y-42804743D01*
X79146818Y-42797421D01*
X79131895Y-42769541D01*
X79109852Y-42723575D01*
X79081917Y-42662441D01*
X79049317Y-42589055D01*
X79013276Y-42506335D01*
X78975023Y-42417197D01*
X78935783Y-42324559D01*
X78896783Y-42231337D01*
X78859249Y-42140450D01*
X78824409Y-42054814D01*
X78793488Y-41977345D01*
X78767714Y-41910962D01*
X78748311Y-41858582D01*
X78736508Y-41823121D01*
X78733531Y-41807496D01*
X78733732Y-41807039D01*
X78747601Y-41792595D01*
X78776611Y-41769974D01*
X78814772Y-41743864D01*
X78826817Y-41735892D01*
X78918469Y-41660256D01*
X78994323Y-41570169D01*
X79052581Y-41469381D01*
X79091448Y-41361640D01*
X79109128Y-41250697D01*
X79103826Y-41140303D01*
X79082347Y-41042115D01*
X79043782Y-40942966D01*
X78987562Y-40854512D01*
X78910410Y-40770487D01*
X78880095Y-40743645D01*
X78782094Y-40677510D01*
X78676227Y-40632970D01*
X78565561Y-40609625D01*
X78453164Y-40607078D01*
X78342105Y-40624929D01*
X78235451Y-40662780D01*
X78136270Y-40720232D01*
X78047631Y-40796887D01*
X77972600Y-40892345D01*
X77958175Y-40915985D01*
X77909143Y-41024034D01*
X77883103Y-41136548D01*
X77879372Y-41250614D01*
X77897268Y-41363318D01*
X77936109Y-41471745D01*
X77995214Y-41572982D01*
X78073900Y-41664114D01*
X78171485Y-41742228D01*
X78174654Y-41744333D01*
X78212411Y-41770940D01*
X78240709Y-41793561D01*
X78253634Y-41807496D01*
X78252003Y-41818421D01*
X78241864Y-41850231D01*
X78223884Y-41899534D01*
X78199292Y-41963413D01*
X78169311Y-42038948D01*
X78135170Y-42123223D01*
X78098092Y-42213320D01*
X78059306Y-42306321D01*
X78020036Y-42399308D01*
X77981509Y-42489364D01*
X77944950Y-42573571D01*
X77911586Y-42649010D01*
X77882643Y-42712765D01*
X77859346Y-42761917D01*
X77842923Y-42793549D01*
X77834598Y-42804743D01*
X77827674Y-42803227D01*
X77800477Y-42792331D01*
X77760280Y-42773228D01*
X77713009Y-42748650D01*
X77609248Y-42692547D01*
X77485639Y-42776155D01*
X77449120Y-42800913D01*
X77381194Y-42847171D01*
X77313475Y-42893503D01*
X77256291Y-42932852D01*
X77224732Y-42954297D01*
X77183714Y-42980939D01*
X77153301Y-42999178D01*
X77138446Y-43005941D01*
X77132065Y-43003070D01*
X77108996Y-42985485D01*
X77073433Y-42954523D01*
X77028471Y-42913231D01*
X76977206Y-42864653D01*
X76922733Y-42811835D01*
X76868148Y-42757823D01*
X76816547Y-42705661D01*
X76771024Y-42658396D01*
X76734675Y-42619072D01*
X76710595Y-42590736D01*
X76701881Y-42576432D01*
X76702383Y-42573711D01*
X76712755Y-42551560D01*
X76734912Y-42513235D01*
X76766712Y-42462200D01*
X76806016Y-42401914D01*
X76850681Y-42335842D01*
X76863207Y-42317617D01*
X76907193Y-42253485D01*
X76945937Y-42196789D01*
X76977182Y-42150844D01*
X76998669Y-42118970D01*
X77008140Y-42104483D01*
X77008373Y-42103862D01*
X77005578Y-42086139D01*
X76994903Y-42050235D01*
X76978081Y-42000662D01*
X76956843Y-41941932D01*
X76932921Y-41878556D01*
X76908046Y-41815046D01*
X76883950Y-41755913D01*
X76862365Y-41705669D01*
X76845023Y-41668826D01*
X76833655Y-41649894D01*
X76832516Y-41648719D01*
X76824376Y-41642773D01*
X76810629Y-41636776D01*
X76788537Y-41630114D01*
X76755363Y-41622173D01*
X76708370Y-41612337D01*
X76644820Y-41599991D01*
X76561976Y-41584520D01*
X76457100Y-41565310D01*
X76435348Y-41561267D01*
X76373036Y-41548769D01*
X76320619Y-41536927D01*
X76283066Y-41526917D01*
X76265343Y-41519916D01*
X76262378Y-41514075D01*
X76257435Y-41486016D01*
X76253518Y-41439500D01*
X76250629Y-41378886D01*
X76248773Y-41308532D01*
X76247952Y-41232796D01*
X76248168Y-41156037D01*
X76249426Y-41082612D01*
X76251728Y-41016880D01*
X76255076Y-40963200D01*
X76259474Y-40925930D01*
X76264926Y-40909427D01*
X76270491Y-40906989D01*
X76298178Y-40899305D01*
X76344979Y-40888436D01*
X76407157Y-40875192D01*
X76480979Y-40860384D01*
X76562710Y-40844823D01*
X76607336Y-40836509D01*
X76683824Y-40822092D01*
X76749660Y-40809467D01*
X76801323Y-40799321D01*
X76835293Y-40792341D01*
X76848048Y-40789212D01*
X76848528Y-40788568D01*
X76856651Y-40772181D01*
X76872137Y-40737852D01*
X76893050Y-40690136D01*
X76917455Y-40633586D01*
X76943416Y-40572758D01*
X76968997Y-40512206D01*
X76992262Y-40456485D01*
X77011277Y-40410150D01*
X77024105Y-40377755D01*
X77028812Y-40363855D01*
X77026736Y-40358965D01*
X77012920Y-40335692D01*
X76987860Y-40296519D01*
X76953568Y-40244520D01*
X76912059Y-40182768D01*
X76865346Y-40114336D01*
X76839718Y-40076860D01*
X76795490Y-40011156D01*
X76757570Y-39953492D01*
X76727980Y-39907014D01*
X76708743Y-39874865D01*
X76701881Y-39860190D01*
X76706649Y-39852230D01*
X76726593Y-39828446D01*
X76759313Y-39792451D01*
X76801805Y-39747295D01*
X76851065Y-39696028D01*
X76904091Y-39641701D01*
X76957877Y-39587364D01*
X77009421Y-39536067D01*
X77055720Y-39490859D01*
X77093769Y-39454792D01*
X77120565Y-39430914D01*
X77133105Y-39422278D01*
X77140066Y-39425636D01*
X77165627Y-39441210D01*
X77206874Y-39467715D01*
X77260837Y-39503210D01*
X77324542Y-39545750D01*
X77395016Y-39593395D01*
X77646662Y-39764512D01*
X78066188Y-39591570D01*
X78123036Y-39290018D01*
X78179885Y-38988466D01*
X78807540Y-38988466D01*
X78864389Y-39290018D01*
G37*
X78864389Y-39290018D02*
X78921237Y-39591570D01*
X79131001Y-39678041D01*
X79340764Y-39764512D01*
X79592410Y-39593395D01*
X79642216Y-39559661D01*
X79708244Y-39515381D01*
X79765410Y-39477561D01*
X79810744Y-39448142D01*
X79841280Y-39429067D01*
X79854046Y-39422278D01*
X79861887Y-39427106D01*
X79885325Y-39447339D01*
X79920794Y-39480543D01*
X79965289Y-39523670D01*
X80015805Y-39573670D01*
X80069336Y-39627495D01*
X80122877Y-39682095D01*
X80173423Y-39734423D01*
X80217968Y-39781428D01*
X80253507Y-39820063D01*
X80277034Y-39847278D01*
X80285544Y-39860024D01*
X80283565Y-39865500D01*
X80269857Y-39889927D01*
X80244825Y-39930129D01*
X80210499Y-39982952D01*
X80168907Y-40045247D01*
X80122079Y-40113862D01*
X80096380Y-40151283D01*
X80052173Y-40216432D01*
X80014272Y-40273289D01*
X79984698Y-40318770D01*
X79965472Y-40349793D01*
X79958614Y-40363274D01*
X79958726Y-40364021D01*
X79964776Y-40381110D01*
X79978654Y-40416006D01*
X79998427Y-40464151D01*
X80022160Y-40520986D01*
X80047918Y-40581953D01*
X80073766Y-40642492D01*
X80097771Y-40698047D01*
X80117998Y-40744057D01*
X80132511Y-40775965D01*
X80139377Y-40789212D01*
X80143439Y-40790387D01*
X80168121Y-40795687D01*
X80212111Y-40804467D01*
X80271887Y-40816040D01*
X80343929Y-40829721D01*
X80424716Y-40844823D01*
X80467294Y-40852830D01*
X80545445Y-40868107D01*
X80613775Y-40882215D01*
X80668551Y-40894345D01*
X80706037Y-40903686D01*
X80722500Y-40909427D01*
X80725457Y-40915119D01*
X80730362Y-40942930D01*
X80734216Y-40989250D01*
X80737021Y-41049720D01*
X80738781Y-41119983D01*
X80739499Y-41195680D01*
X80739177Y-41272453D01*
X80737819Y-41345944D01*
X80735428Y-41411794D01*
X80732006Y-41465645D01*
X80727556Y-41503138D01*
X80722082Y-41519916D01*
X80718760Y-41521809D01*
X80693987Y-41529926D01*
X80651011Y-41540666D01*
X80594802Y-41552853D01*
X80530325Y-41565310D01*
X80508570Y-41569277D01*
X80408093Y-41587729D01*
X80329126Y-41602559D01*
X80268934Y-41614380D01*
X80224778Y-41623809D01*
X80193920Y-41631460D01*
X80173625Y-41637948D01*
X80161154Y-41643888D01*
X80153771Y-41649894D01*
X80152913Y-41650902D01*
X80140838Y-41671919D01*
X80122971Y-41710376D01*
X80101042Y-41761761D01*
X80076784Y-41821563D01*
X80051927Y-41885270D01*
X80028205Y-41948371D01*
X80007347Y-42006355D01*
X79991087Y-42054709D01*
X79981156Y-42088922D01*
X79979285Y-42104483D01*
X79980536Y-42106502D01*
X79993486Y-42126028D01*
X80017840Y-42162042D01*
X80051340Y-42211228D01*
X80091727Y-42270267D01*
X80136745Y-42335842D01*
X80149100Y-42353884D01*
X80192545Y-42418599D01*
X80230091Y-42476476D01*
X80259594Y-42524082D01*
X80278914Y-42557985D01*
X80285905Y-42574752D01*
X80284398Y-42579161D01*
X80268695Y-42600882D01*
X80237714Y-42636354D01*
X80193673Y-42683188D01*
X80138790Y-42738996D01*
X80075286Y-42801392D01*
X80038988Y-42836317D01*
X79981595Y-42890711D01*
X79931361Y-42937302D01*
X79890984Y-42973636D01*
X79863161Y-42997261D01*
X79850590Y-43005724D01*
X79841952Y-43002587D01*
X79815360Y-42987747D01*
X79776741Y-42963477D01*
X79731134Y-42932852D01*
X79698707Y-42910503D01*
X79633970Y-42866122D01*
X79564886Y-42818987D01*
X79501787Y-42776155D01*
X79378178Y-42692547D01*
X79274417Y-42748650D01*
X79249984Y-42761599D01*
X79205552Y-42783749D01*
X79171191Y-42799041D01*
X79152828Y-42804743D01*
X79146818Y-42797421D01*
X79131895Y-42769541D01*
X79109852Y-42723575D01*
X79081917Y-42662441D01*
X79049317Y-42589055D01*
X79013276Y-42506335D01*
X78975023Y-42417197D01*
X78935783Y-42324559D01*
X78896783Y-42231337D01*
X78859249Y-42140450D01*
X78824409Y-42054814D01*
X78793488Y-41977345D01*
X78767714Y-41910962D01*
X78748311Y-41858582D01*
X78736508Y-41823121D01*
X78733531Y-41807496D01*
X78733732Y-41807039D01*
X78747601Y-41792595D01*
X78776611Y-41769974D01*
X78814772Y-41743864D01*
X78826817Y-41735892D01*
X78918469Y-41660256D01*
X78994323Y-41570169D01*
X79052581Y-41469381D01*
X79091448Y-41361640D01*
X79109128Y-41250697D01*
X79103826Y-41140303D01*
X79082347Y-41042115D01*
X79043782Y-40942966D01*
X78987562Y-40854512D01*
X78910410Y-40770487D01*
X78880095Y-40743645D01*
X78782094Y-40677510D01*
X78676227Y-40632970D01*
X78565561Y-40609625D01*
X78453164Y-40607078D01*
X78342105Y-40624929D01*
X78235451Y-40662780D01*
X78136270Y-40720232D01*
X78047631Y-40796887D01*
X77972600Y-40892345D01*
X77958175Y-40915985D01*
X77909143Y-41024034D01*
X77883103Y-41136548D01*
X77879372Y-41250614D01*
X77897268Y-41363318D01*
X77936109Y-41471745D01*
X77995214Y-41572982D01*
X78073900Y-41664114D01*
X78171485Y-41742228D01*
X78174654Y-41744333D01*
X78212411Y-41770940D01*
X78240709Y-41793561D01*
X78253634Y-41807496D01*
X78252003Y-41818421D01*
X78241864Y-41850231D01*
X78223884Y-41899534D01*
X78199292Y-41963413D01*
X78169311Y-42038948D01*
X78135170Y-42123223D01*
X78098092Y-42213320D01*
X78059306Y-42306321D01*
X78020036Y-42399308D01*
X77981509Y-42489364D01*
X77944950Y-42573571D01*
X77911586Y-42649010D01*
X77882643Y-42712765D01*
X77859346Y-42761917D01*
X77842923Y-42793549D01*
X77834598Y-42804743D01*
X77827674Y-42803227D01*
X77800477Y-42792331D01*
X77760280Y-42773228D01*
X77713009Y-42748650D01*
X77609248Y-42692547D01*
X77485639Y-42776155D01*
X77449120Y-42800913D01*
X77381194Y-42847171D01*
X77313475Y-42893503D01*
X77256291Y-42932852D01*
X77224732Y-42954297D01*
X77183714Y-42980939D01*
X77153301Y-42999178D01*
X77138446Y-43005941D01*
X77132065Y-43003070D01*
X77108996Y-42985485D01*
X77073433Y-42954523D01*
X77028471Y-42913231D01*
X76977206Y-42864653D01*
X76922733Y-42811835D01*
X76868148Y-42757823D01*
X76816547Y-42705661D01*
X76771024Y-42658396D01*
X76734675Y-42619072D01*
X76710595Y-42590736D01*
X76701881Y-42576432D01*
X76702383Y-42573711D01*
X76712755Y-42551560D01*
X76734912Y-42513235D01*
X76766712Y-42462200D01*
X76806016Y-42401914D01*
X76850681Y-42335842D01*
X76863207Y-42317617D01*
X76907193Y-42253485D01*
X76945937Y-42196789D01*
X76977182Y-42150844D01*
X76998669Y-42118970D01*
X77008140Y-42104483D01*
X77008373Y-42103862D01*
X77005578Y-42086139D01*
X76994903Y-42050235D01*
X76978081Y-42000662D01*
X76956843Y-41941932D01*
X76932921Y-41878556D01*
X76908046Y-41815046D01*
X76883950Y-41755913D01*
X76862365Y-41705669D01*
X76845023Y-41668826D01*
X76833655Y-41649894D01*
X76832516Y-41648719D01*
X76824376Y-41642773D01*
X76810629Y-41636776D01*
X76788537Y-41630114D01*
X76755363Y-41622173D01*
X76708370Y-41612337D01*
X76644820Y-41599991D01*
X76561976Y-41584520D01*
X76457100Y-41565310D01*
X76435348Y-41561267D01*
X76373036Y-41548769D01*
X76320619Y-41536927D01*
X76283066Y-41526917D01*
X76265343Y-41519916D01*
X76262378Y-41514075D01*
X76257435Y-41486016D01*
X76253518Y-41439500D01*
X76250629Y-41378886D01*
X76248773Y-41308532D01*
X76247952Y-41232796D01*
X76248168Y-41156037D01*
X76249426Y-41082612D01*
X76251728Y-41016880D01*
X76255076Y-40963200D01*
X76259474Y-40925930D01*
X76264926Y-40909427D01*
X76270491Y-40906989D01*
X76298178Y-40899305D01*
X76344979Y-40888436D01*
X76407157Y-40875192D01*
X76480979Y-40860384D01*
X76562710Y-40844823D01*
X76607336Y-40836509D01*
X76683824Y-40822092D01*
X76749660Y-40809467D01*
X76801323Y-40799321D01*
X76835293Y-40792341D01*
X76848048Y-40789212D01*
X76848528Y-40788568D01*
X76856651Y-40772181D01*
X76872137Y-40737852D01*
X76893050Y-40690136D01*
X76917455Y-40633586D01*
X76943416Y-40572758D01*
X76968997Y-40512206D01*
X76992262Y-40456485D01*
X77011277Y-40410150D01*
X77024105Y-40377755D01*
X77028812Y-40363855D01*
X77026736Y-40358965D01*
X77012920Y-40335692D01*
X76987860Y-40296519D01*
X76953568Y-40244520D01*
X76912059Y-40182768D01*
X76865346Y-40114336D01*
X76839718Y-40076860D01*
X76795490Y-40011156D01*
X76757570Y-39953492D01*
X76727980Y-39907014D01*
X76708743Y-39874865D01*
X76701881Y-39860190D01*
X76706649Y-39852230D01*
X76726593Y-39828446D01*
X76759313Y-39792451D01*
X76801805Y-39747295D01*
X76851065Y-39696028D01*
X76904091Y-39641701D01*
X76957877Y-39587364D01*
X77009421Y-39536067D01*
X77055720Y-39490859D01*
X77093769Y-39454792D01*
X77120565Y-39430914D01*
X77133105Y-39422278D01*
X77140066Y-39425636D01*
X77165627Y-39441210D01*
X77206874Y-39467715D01*
X77260837Y-39503210D01*
X77324542Y-39545750D01*
X77395016Y-39593395D01*
X77646662Y-39764512D01*
X78066188Y-39591570D01*
X78123036Y-39290018D01*
X78179885Y-38988466D01*
X78807540Y-38988466D01*
X78864389Y-39290018D01*
X76467419Y-44404970D02*
X76407315Y-44420597D01*
X76407315Y-44420597D02*
X76356979Y-44452848D01*
X76356979Y-44452848D02*
X76332607Y-44476940D01*
X76332607Y-44476940D02*
X76292655Y-44533895D01*
X76292655Y-44533895D02*
X76269758Y-44599965D01*
X76269758Y-44599965D02*
X76261892Y-44681182D01*
X76261892Y-44681182D02*
X76261852Y-44687748D01*
X76261852Y-44687748D02*
X76261782Y-44753763D01*
X76261782Y-44753763D02*
X76641736Y-44753763D01*
X76641736Y-44753763D02*
X76633637Y-44788342D01*
X76633637Y-44788342D02*
X76619013Y-44819659D01*
X76619013Y-44819659D02*
X76593419Y-44852291D01*
X76593419Y-44852291D02*
X76588065Y-44857500D01*
X76588065Y-44857500D02*
X76542057Y-44885694D01*
X76542057Y-44885694D02*
X76489590Y-44890475D01*
X76489590Y-44890475D02*
X76429197Y-44871926D01*
X76429197Y-44871926D02*
X76418960Y-44866931D01*
X76418960Y-44866931D02*
X76387561Y-44851745D01*
X76387561Y-44851745D02*
X76366530Y-44843094D01*
X76366530Y-44843094D02*
X76362861Y-44842293D01*
X76362861Y-44842293D02*
X76350052Y-44850063D01*
X76350052Y-44850063D02*
X76325622Y-44869072D01*
X76325622Y-44869072D02*
X76313221Y-44879460D01*
X76313221Y-44879460D02*
X76287524Y-44903321D01*
X76287524Y-44903321D02*
X76279085Y-44919077D01*
X76279085Y-44919077D02*
X76284942Y-44933571D01*
X76284942Y-44933571D02*
X76288072Y-44937534D01*
X76288072Y-44937534D02*
X76309275Y-44954879D01*
X76309275Y-44954879D02*
X76344262Y-44975959D01*
X76344262Y-44975959D02*
X76368663Y-44988265D01*
X76368663Y-44988265D02*
X76437928Y-45009946D01*
X76437928Y-45009946D02*
X76514612Y-45016971D01*
X76514612Y-45016971D02*
X76587235Y-45008647D01*
X76587235Y-45008647D02*
X76607574Y-45002686D01*
X76607574Y-45002686D02*
X76670524Y-44968952D01*
X76670524Y-44968952D02*
X76717185Y-44917045D01*
X76717185Y-44917045D02*
X76747827Y-44846459D01*
X76747827Y-44846459D02*
X76762718Y-44756692D01*
X76762718Y-44756692D02*
X76764353Y-44709753D01*
X76764353Y-44709753D02*
X76759579Y-44641413D01*
X76759579Y-44641413D02*
X76639010Y-44641413D01*
X76639010Y-44641413D02*
X76627348Y-44646465D01*
X76627348Y-44646465D02*
X76596002Y-44650429D01*
X76596002Y-44650429D02*
X76550429Y-44652768D01*
X76550429Y-44652768D02*
X76519554Y-44653169D01*
X76519554Y-44653169D02*
X76464019Y-44652783D01*
X76464019Y-44652783D02*
X76428967Y-44650975D01*
X76428967Y-44650975D02*
X76409738Y-44646773D01*
X76409738Y-44646773D02*
X76401670Y-44639203D01*
X76401670Y-44639203D02*
X76400099Y-44628218D01*
X76400099Y-44628218D02*
X76410879Y-44594381D01*
X76410879Y-44594381D02*
X76438020Y-44560940D01*
X76438020Y-44560940D02*
X76473723Y-44535272D01*
X76473723Y-44535272D02*
X76509440Y-44524772D01*
X76509440Y-44524772D02*
X76557952Y-44534086D01*
X76557952Y-44534086D02*
X76599947Y-44561013D01*
X76599947Y-44561013D02*
X76629064Y-44599827D01*
X76629064Y-44599827D02*
X76639010Y-44641413D01*
X76639010Y-44641413D02*
X76759579Y-44641413D01*
X76759579Y-44641413D02*
X76757401Y-44610236D01*
X76757401Y-44610236D02*
X76735945Y-44530949D01*
X76735945Y-44530949D02*
X76699530Y-44471263D01*
X76699530Y-44471263D02*
X76647703Y-44430549D01*
X76647703Y-44430549D02*
X76580010Y-44408179D01*
X76580010Y-44408179D02*
X76543338Y-44403871D01*
X76543338Y-44403871D02*
X76467419Y-44404970D01*
X76467419Y-44404970D02*
X76467419Y-44404970D01*
G36*
X76762718Y-44756692D02*
G01*
X76747827Y-44846459D01*
X76717185Y-44917045D01*
X76670524Y-44968952D01*
X76607574Y-45002686D01*
X76587235Y-45008647D01*
X76514612Y-45016971D01*
X76437928Y-45009946D01*
X76368663Y-44988265D01*
X76344262Y-44975959D01*
X76309275Y-44954879D01*
X76288072Y-44937534D01*
X76284942Y-44933571D01*
X76279085Y-44919077D01*
X76287524Y-44903321D01*
X76313221Y-44879460D01*
X76325622Y-44869072D01*
X76350052Y-44850063D01*
X76362861Y-44842293D01*
X76366530Y-44843094D01*
X76387561Y-44851745D01*
X76418960Y-44866931D01*
X76429197Y-44871926D01*
X76489590Y-44890475D01*
X76542057Y-44885694D01*
X76588065Y-44857500D01*
X76593419Y-44852291D01*
X76619013Y-44819659D01*
X76633637Y-44788342D01*
X76641736Y-44753763D01*
X76261782Y-44753763D01*
X76261852Y-44687748D01*
X76261892Y-44681182D01*
X76267022Y-44628218D01*
X76400099Y-44628218D01*
X76401670Y-44639203D01*
X76409738Y-44646773D01*
X76428967Y-44650975D01*
X76464019Y-44652783D01*
X76519554Y-44653169D01*
X76550429Y-44652768D01*
X76596002Y-44650429D01*
X76627348Y-44646465D01*
X76639010Y-44641413D01*
X76629064Y-44599827D01*
X76599947Y-44561013D01*
X76557952Y-44534086D01*
X76509440Y-44524772D01*
X76473723Y-44535272D01*
X76438020Y-44560940D01*
X76410879Y-44594381D01*
X76400099Y-44628218D01*
X76267022Y-44628218D01*
X76269758Y-44599965D01*
X76292655Y-44533895D01*
X76332607Y-44476940D01*
X76356979Y-44452848D01*
X76407315Y-44420597D01*
X76467419Y-44404970D01*
X76543338Y-44403871D01*
X76580010Y-44408179D01*
X76647703Y-44430549D01*
X76699530Y-44471263D01*
X76735945Y-44530949D01*
X76757401Y-44610236D01*
X76759579Y-44641413D01*
X76764353Y-44709753D01*
X76762718Y-44756692D01*
G37*
X76762718Y-44756692D02*
X76747827Y-44846459D01*
X76717185Y-44917045D01*
X76670524Y-44968952D01*
X76607574Y-45002686D01*
X76587235Y-45008647D01*
X76514612Y-45016971D01*
X76437928Y-45009946D01*
X76368663Y-44988265D01*
X76344262Y-44975959D01*
X76309275Y-44954879D01*
X76288072Y-44937534D01*
X76284942Y-44933571D01*
X76279085Y-44919077D01*
X76287524Y-44903321D01*
X76313221Y-44879460D01*
X76325622Y-44869072D01*
X76350052Y-44850063D01*
X76362861Y-44842293D01*
X76366530Y-44843094D01*
X76387561Y-44851745D01*
X76418960Y-44866931D01*
X76429197Y-44871926D01*
X76489590Y-44890475D01*
X76542057Y-44885694D01*
X76588065Y-44857500D01*
X76593419Y-44852291D01*
X76619013Y-44819659D01*
X76633637Y-44788342D01*
X76641736Y-44753763D01*
X76261782Y-44753763D01*
X76261852Y-44687748D01*
X76261892Y-44681182D01*
X76267022Y-44628218D01*
X76400099Y-44628218D01*
X76401670Y-44639203D01*
X76409738Y-44646773D01*
X76428967Y-44650975D01*
X76464019Y-44652783D01*
X76519554Y-44653169D01*
X76550429Y-44652768D01*
X76596002Y-44650429D01*
X76627348Y-44646465D01*
X76639010Y-44641413D01*
X76629064Y-44599827D01*
X76599947Y-44561013D01*
X76557952Y-44534086D01*
X76509440Y-44524772D01*
X76473723Y-44535272D01*
X76438020Y-44560940D01*
X76410879Y-44594381D01*
X76400099Y-44628218D01*
X76267022Y-44628218D01*
X76269758Y-44599965D01*
X76292655Y-44533895D01*
X76332607Y-44476940D01*
X76356979Y-44452848D01*
X76407315Y-44420597D01*
X76467419Y-44404970D01*
X76543338Y-44403871D01*
X76580010Y-44408179D01*
X76647703Y-44430549D01*
X76699530Y-44471263D01*
X76735945Y-44530949D01*
X76757401Y-44610236D01*
X76759579Y-44641413D01*
X76764353Y-44709753D01*
X76762718Y-44756692D01*
X76282774Y-43463880D02*
X76209920Y-43494830D01*
X76209920Y-43494830D02*
X76186973Y-43509895D01*
X76186973Y-43509895D02*
X76157646Y-43533048D01*
X76157646Y-43533048D02*
X76139236Y-43551253D01*
X76139236Y-43551253D02*
X76136039Y-43557183D01*
X76136039Y-43557183D02*
X76145065Y-43570340D01*
X76145065Y-43570340D02*
X76168163Y-43592667D01*
X76168163Y-43592667D02*
X76186656Y-43608250D01*
X76186656Y-43608250D02*
X76237272Y-43648926D01*
X76237272Y-43648926D02*
X76277240Y-43615295D01*
X76277240Y-43615295D02*
X76308126Y-43593584D01*
X76308126Y-43593584D02*
X76338241Y-43586090D01*
X76338241Y-43586090D02*
X76372708Y-43587920D01*
X76372708Y-43587920D02*
X76427439Y-43601528D01*
X76427439Y-43601528D02*
X76465114Y-43629772D01*
X76465114Y-43629772D02*
X76488009Y-43675433D01*
X76488009Y-43675433D02*
X76498403Y-43741289D01*
X76498403Y-43741289D02*
X76498405Y-43741331D01*
X76498405Y-43741331D02*
X76497506Y-43814939D01*
X76497506Y-43814939D02*
X76483537Y-43868946D01*
X76483537Y-43868946D02*
X76455672Y-43905716D01*
X76455672Y-43905716D02*
X76436675Y-43918168D01*
X76436675Y-43918168D02*
X76386224Y-43933673D01*
X76386224Y-43933673D02*
X76332337Y-43933683D01*
X76332337Y-43933683D02*
X76285454Y-43918638D01*
X76285454Y-43918638D02*
X76274356Y-43911287D01*
X76274356Y-43911287D02*
X76246524Y-43892511D01*
X76246524Y-43892511D02*
X76224764Y-43889434D01*
X76224764Y-43889434D02*
X76201296Y-43903409D01*
X76201296Y-43903409D02*
X76175351Y-43928510D01*
X76175351Y-43928510D02*
X76134284Y-43970880D01*
X76134284Y-43970880D02*
X76179879Y-44008464D01*
X76179879Y-44008464D02*
X76250326Y-44050882D01*
X76250326Y-44050882D02*
X76329767Y-44071785D01*
X76329767Y-44071785D02*
X76412785Y-44070272D01*
X76412785Y-44070272D02*
X76467306Y-44056411D01*
X76467306Y-44056411D02*
X76531030Y-44022135D01*
X76531030Y-44022135D02*
X76581995Y-43968212D01*
X76581995Y-43968212D02*
X76605149Y-43930149D01*
X76605149Y-43930149D02*
X76623901Y-43875536D01*
X76623901Y-43875536D02*
X76633285Y-43806369D01*
X76633285Y-43806369D02*
X76633357Y-43731407D01*
X76633357Y-43731407D02*
X76624176Y-43659409D01*
X76624176Y-43659409D02*
X76605801Y-43599137D01*
X76605801Y-43599137D02*
X76602907Y-43592958D01*
X76602907Y-43592958D02*
X76560048Y-43532351D01*
X76560048Y-43532351D02*
X76502021Y-43488224D01*
X76502021Y-43488224D02*
X76433409Y-43461493D01*
X76433409Y-43461493D02*
X76358799Y-43453073D01*
X76358799Y-43453073D02*
X76282774Y-43463880D01*
X76282774Y-43463880D02*
X76282774Y-43463880D01*
G36*
X76433409Y-43461493D02*
G01*
X76502021Y-43488224D01*
X76560048Y-43532351D01*
X76602907Y-43592958D01*
X76605801Y-43599137D01*
X76624176Y-43659409D01*
X76633357Y-43731407D01*
X76633285Y-43806369D01*
X76623901Y-43875536D01*
X76605149Y-43930149D01*
X76581995Y-43968212D01*
X76531030Y-44022135D01*
X76467306Y-44056411D01*
X76412785Y-44070272D01*
X76329767Y-44071785D01*
X76250326Y-44050882D01*
X76179879Y-44008464D01*
X76134284Y-43970880D01*
X76175351Y-43928510D01*
X76201296Y-43903409D01*
X76224764Y-43889434D01*
X76246524Y-43892511D01*
X76274356Y-43911287D01*
X76285454Y-43918638D01*
X76332337Y-43933683D01*
X76386224Y-43933673D01*
X76436675Y-43918168D01*
X76455672Y-43905716D01*
X76483537Y-43868946D01*
X76497506Y-43814939D01*
X76498405Y-43741331D01*
X76498403Y-43741289D01*
X76488009Y-43675433D01*
X76465114Y-43629772D01*
X76427439Y-43601528D01*
X76372708Y-43587920D01*
X76338241Y-43586090D01*
X76308126Y-43593584D01*
X76277240Y-43615295D01*
X76237272Y-43648926D01*
X76186656Y-43608250D01*
X76168163Y-43592667D01*
X76145065Y-43570340D01*
X76136039Y-43557183D01*
X76139236Y-43551253D01*
X76157646Y-43533048D01*
X76186973Y-43509895D01*
X76209920Y-43494830D01*
X76282774Y-43463880D01*
X76358799Y-43453073D01*
X76433409Y-43461493D01*
G37*
X76433409Y-43461493D02*
X76502021Y-43488224D01*
X76560048Y-43532351D01*
X76602907Y-43592958D01*
X76605801Y-43599137D01*
X76624176Y-43659409D01*
X76633357Y-43731407D01*
X76633285Y-43806369D01*
X76623901Y-43875536D01*
X76605149Y-43930149D01*
X76581995Y-43968212D01*
X76531030Y-44022135D01*
X76467306Y-44056411D01*
X76412785Y-44070272D01*
X76329767Y-44071785D01*
X76250326Y-44050882D01*
X76179879Y-44008464D01*
X76134284Y-43970880D01*
X76175351Y-43928510D01*
X76201296Y-43903409D01*
X76224764Y-43889434D01*
X76246524Y-43892511D01*
X76274356Y-43911287D01*
X76285454Y-43918638D01*
X76332337Y-43933683D01*
X76386224Y-43933673D01*
X76436675Y-43918168D01*
X76455672Y-43905716D01*
X76483537Y-43868946D01*
X76497506Y-43814939D01*
X76498405Y-43741331D01*
X76498403Y-43741289D01*
X76488009Y-43675433D01*
X76465114Y-43629772D01*
X76427439Y-43601528D01*
X76372708Y-43587920D01*
X76338241Y-43586090D01*
X76308126Y-43593584D01*
X76277240Y-43615295D01*
X76237272Y-43648926D01*
X76186656Y-43608250D01*
X76168163Y-43592667D01*
X76145065Y-43570340D01*
X76136039Y-43557183D01*
X76139236Y-43551253D01*
X76157646Y-43533048D01*
X76186973Y-43509895D01*
X76209920Y-43494830D01*
X76282774Y-43463880D01*
X76358799Y-43453073D01*
X76433409Y-43461493D01*
X80408759Y-43469184D02*
X80382247Y-43482282D01*
X80382247Y-43482282D02*
X80349553Y-43505106D01*
X80349553Y-43505106D02*
X80325725Y-43529996D01*
X80325725Y-43529996D02*
X80309406Y-43561249D01*
X80309406Y-43561249D02*
X80299240Y-43603166D01*
X80299240Y-43603166D02*
X80293872Y-43660044D01*
X80293872Y-43660044D02*
X80291944Y-43736184D01*
X80291944Y-43736184D02*
X80291831Y-43768917D01*
X80291831Y-43768917D02*
X80292161Y-43840656D01*
X80292161Y-43840656D02*
X80293527Y-43891927D01*
X80293527Y-43891927D02*
X80296500Y-43927404D01*
X80296500Y-43927404D02*
X80301649Y-43951763D01*
X80301649Y-43951763D02*
X80309543Y-43969680D01*
X80309543Y-43969680D02*
X80317757Y-43981902D01*
X80317757Y-43981902D02*
X80370187Y-44033905D01*
X80370187Y-44033905D02*
X80431930Y-44065184D01*
X80431930Y-44065184D02*
X80498536Y-44074592D01*
X80498536Y-44074592D02*
X80565558Y-44060980D01*
X80565558Y-44060980D02*
X80586792Y-44051354D01*
X80586792Y-44051354D02*
X80637624Y-44024859D01*
X80637624Y-44024859D02*
X80637624Y-44440052D01*
X80637624Y-44440052D02*
X80600525Y-44420868D01*
X80600525Y-44420868D02*
X80551643Y-44406025D01*
X80551643Y-44406025D02*
X80491561Y-44402222D01*
X80491561Y-44402222D02*
X80431564Y-44409243D01*
X80431564Y-44409243D02*
X80386256Y-44425013D01*
X80386256Y-44425013D02*
X80348675Y-44455047D01*
X80348675Y-44455047D02*
X80316564Y-44498024D01*
X80316564Y-44498024D02*
X80314150Y-44502436D01*
X80314150Y-44502436D02*
X80303967Y-44523221D01*
X80303967Y-44523221D02*
X80296530Y-44544170D01*
X80296530Y-44544170D02*
X80291411Y-44569548D01*
X80291411Y-44569548D02*
X80288181Y-44603618D01*
X80288181Y-44603618D02*
X80286413Y-44650641D01*
X80286413Y-44650641D02*
X80285677Y-44714882D01*
X80285677Y-44714882D02*
X80285544Y-44787176D01*
X80285544Y-44787176D02*
X80285544Y-45017822D01*
X80285544Y-45017822D02*
X80423861Y-45017822D01*
X80423861Y-45017822D02*
X80423861Y-44592533D01*
X80423861Y-44592533D02*
X80462549Y-44559979D01*
X80462549Y-44559979D02*
X80502738Y-44533940D01*
X80502738Y-44533940D02*
X80540797Y-44529205D01*
X80540797Y-44529205D02*
X80579066Y-44541389D01*
X80579066Y-44541389D02*
X80599462Y-44553320D01*
X80599462Y-44553320D02*
X80614642Y-44570313D01*
X80614642Y-44570313D02*
X80625438Y-44595995D01*
X80625438Y-44595995D02*
X80632683Y-44633991D01*
X80632683Y-44633991D02*
X80637208Y-44687926D01*
X80637208Y-44687926D02*
X80639844Y-44761425D01*
X80639844Y-44761425D02*
X80640772Y-44810347D01*
X80640772Y-44810347D02*
X80643911Y-45011535D01*
X80643911Y-45011535D02*
X80709926Y-45015336D01*
X80709926Y-45015336D02*
X80775940Y-45019136D01*
X80775940Y-45019136D02*
X80775940Y-43770650D01*
X80775940Y-43770650D02*
X80637624Y-43770650D01*
X80637624Y-43770650D02*
X80634097Y-43840254D01*
X80634097Y-43840254D02*
X80622215Y-43888569D01*
X80622215Y-43888569D02*
X80600020Y-43918631D01*
X80600020Y-43918631D02*
X80565559Y-43933471D01*
X80565559Y-43933471D02*
X80530742Y-43936436D01*
X80530742Y-43936436D02*
X80491329Y-43933028D01*
X80491329Y-43933028D02*
X80465171Y-43919617D01*
X80465171Y-43919617D02*
X80448814Y-43901896D01*
X80448814Y-43901896D02*
X80435937Y-43882835D01*
X80435937Y-43882835D02*
X80428272Y-43861601D01*
X80428272Y-43861601D02*
X80424861Y-43831849D01*
X80424861Y-43831849D02*
X80424749Y-43787236D01*
X80424749Y-43787236D02*
X80425897Y-43749880D01*
X80425897Y-43749880D02*
X80428532Y-43693604D01*
X80428532Y-43693604D02*
X80432456Y-43656658D01*
X80432456Y-43656658D02*
X80439063Y-43633223D01*
X80439063Y-43633223D02*
X80449749Y-43617480D01*
X80449749Y-43617480D02*
X80459833Y-43608380D01*
X80459833Y-43608380D02*
X80501970Y-43588537D01*
X80501970Y-43588537D02*
X80551840Y-43585332D01*
X80551840Y-43585332D02*
X80580476Y-43592168D01*
X80580476Y-43592168D02*
X80608828Y-43616464D01*
X80608828Y-43616464D02*
X80627609Y-43663728D01*
X80627609Y-43663728D02*
X80636712Y-43733624D01*
X80636712Y-43733624D02*
X80637624Y-43770650D01*
X80637624Y-43770650D02*
X80775940Y-43770650D01*
X80775940Y-43770650D02*
X80775940Y-43458614D01*
X80775940Y-43458614D02*
X80706782Y-43458614D01*
X80706782Y-43458614D02*
X80665260Y-43460256D01*
X80665260Y-43460256D02*
X80643838Y-43466087D01*
X80643838Y-43466087D02*
X80637626Y-43477461D01*
X80637626Y-43477461D02*
X80637624Y-43477798D01*
X80637624Y-43477798D02*
X80634742Y-43488938D01*
X80634742Y-43488938D02*
X80622030Y-43487673D01*
X80622030Y-43487673D02*
X80596757Y-43475433D01*
X80596757Y-43475433D02*
X80537869Y-43456707D01*
X80537869Y-43456707D02*
X80471615Y-43454739D01*
X80471615Y-43454739D02*
X80408759Y-43469184D01*
X80408759Y-43469184D02*
X80408759Y-43469184D01*
G36*
X80709926Y-45015336D02*
G01*
X80643911Y-45011535D01*
X80640772Y-44810347D01*
X80639844Y-44761425D01*
X80637208Y-44687926D01*
X80632683Y-44633991D01*
X80625438Y-44595995D01*
X80614642Y-44570313D01*
X80599462Y-44553320D01*
X80579066Y-44541389D01*
X80540797Y-44529205D01*
X80502738Y-44533940D01*
X80462549Y-44559979D01*
X80423861Y-44592533D01*
X80423861Y-45017822D01*
X80285544Y-45017822D01*
X80285544Y-44787176D01*
X80285677Y-44714882D01*
X80286413Y-44650641D01*
X80288181Y-44603618D01*
X80291411Y-44569548D01*
X80296530Y-44544170D01*
X80303967Y-44523221D01*
X80314150Y-44502436D01*
X80316564Y-44498024D01*
X80348675Y-44455047D01*
X80386256Y-44425013D01*
X80431564Y-44409243D01*
X80491561Y-44402222D01*
X80551643Y-44406025D01*
X80600525Y-44420868D01*
X80637624Y-44440052D01*
X80637624Y-44024859D01*
X80586792Y-44051354D01*
X80565558Y-44060980D01*
X80498536Y-44074592D01*
X80431930Y-44065184D01*
X80370187Y-44033905D01*
X80317757Y-43981902D01*
X80309543Y-43969680D01*
X80301649Y-43951763D01*
X80296500Y-43927404D01*
X80293527Y-43891927D01*
X80292161Y-43840656D01*
X80291915Y-43787236D01*
X80424749Y-43787236D01*
X80424861Y-43831849D01*
X80428272Y-43861601D01*
X80435937Y-43882835D01*
X80448814Y-43901896D01*
X80465171Y-43919617D01*
X80491329Y-43933028D01*
X80530742Y-43936436D01*
X80565559Y-43933471D01*
X80600020Y-43918631D01*
X80622215Y-43888569D01*
X80634097Y-43840254D01*
X80637624Y-43770650D01*
X80636712Y-43733624D01*
X80627609Y-43663728D01*
X80608828Y-43616464D01*
X80580476Y-43592168D01*
X80551840Y-43585332D01*
X80501970Y-43588537D01*
X80459833Y-43608380D01*
X80449749Y-43617480D01*
X80439063Y-43633223D01*
X80432456Y-43656658D01*
X80428532Y-43693604D01*
X80425897Y-43749880D01*
X80424749Y-43787236D01*
X80291915Y-43787236D01*
X80291831Y-43768917D01*
X80291944Y-43736184D01*
X80293872Y-43660044D01*
X80299240Y-43603166D01*
X80309406Y-43561249D01*
X80325725Y-43529996D01*
X80349553Y-43505106D01*
X80382247Y-43482282D01*
X80408759Y-43469184D01*
X80471615Y-43454739D01*
X80537869Y-43456707D01*
X80596757Y-43475433D01*
X80622030Y-43487673D01*
X80634742Y-43488938D01*
X80637624Y-43477798D01*
X80637626Y-43477461D01*
X80643838Y-43466087D01*
X80665260Y-43460256D01*
X80706782Y-43458614D01*
X80775940Y-43458614D01*
X80775940Y-45019136D01*
X80709926Y-45015336D01*
G37*
X80709926Y-45015336D02*
X80643911Y-45011535D01*
X80640772Y-44810347D01*
X80639844Y-44761425D01*
X80637208Y-44687926D01*
X80632683Y-44633991D01*
X80625438Y-44595995D01*
X80614642Y-44570313D01*
X80599462Y-44553320D01*
X80579066Y-44541389D01*
X80540797Y-44529205D01*
X80502738Y-44533940D01*
X80462549Y-44559979D01*
X80423861Y-44592533D01*
X80423861Y-45017822D01*
X80285544Y-45017822D01*
X80285544Y-44787176D01*
X80285677Y-44714882D01*
X80286413Y-44650641D01*
X80288181Y-44603618D01*
X80291411Y-44569548D01*
X80296530Y-44544170D01*
X80303967Y-44523221D01*
X80314150Y-44502436D01*
X80316564Y-44498024D01*
X80348675Y-44455047D01*
X80386256Y-44425013D01*
X80431564Y-44409243D01*
X80491561Y-44402222D01*
X80551643Y-44406025D01*
X80600525Y-44420868D01*
X80637624Y-44440052D01*
X80637624Y-44024859D01*
X80586792Y-44051354D01*
X80565558Y-44060980D01*
X80498536Y-44074592D01*
X80431930Y-44065184D01*
X80370187Y-44033905D01*
X80317757Y-43981902D01*
X80309543Y-43969680D01*
X80301649Y-43951763D01*
X80296500Y-43927404D01*
X80293527Y-43891927D01*
X80292161Y-43840656D01*
X80291915Y-43787236D01*
X80424749Y-43787236D01*
X80424861Y-43831849D01*
X80428272Y-43861601D01*
X80435937Y-43882835D01*
X80448814Y-43901896D01*
X80465171Y-43919617D01*
X80491329Y-43933028D01*
X80530742Y-43936436D01*
X80565559Y-43933471D01*
X80600020Y-43918631D01*
X80622215Y-43888569D01*
X80634097Y-43840254D01*
X80637624Y-43770650D01*
X80636712Y-43733624D01*
X80627609Y-43663728D01*
X80608828Y-43616464D01*
X80580476Y-43592168D01*
X80551840Y-43585332D01*
X80501970Y-43588537D01*
X80459833Y-43608380D01*
X80449749Y-43617480D01*
X80439063Y-43633223D01*
X80432456Y-43656658D01*
X80428532Y-43693604D01*
X80425897Y-43749880D01*
X80424749Y-43787236D01*
X80291915Y-43787236D01*
X80291831Y-43768917D01*
X80291944Y-43736184D01*
X80293872Y-43660044D01*
X80299240Y-43603166D01*
X80309406Y-43561249D01*
X80325725Y-43529996D01*
X80349553Y-43505106D01*
X80382247Y-43482282D01*
X80408759Y-43469184D01*
X80471615Y-43454739D01*
X80537869Y-43456707D01*
X80596757Y-43475433D01*
X80622030Y-43487673D01*
X80634742Y-43488938D01*
X80637624Y-43477798D01*
X80637626Y-43477461D01*
X80643838Y-43466087D01*
X80665260Y-43460256D01*
X80706782Y-43458614D01*
X80775940Y-43458614D01*
X80775940Y-45019136D01*
X80709926Y-45015336D01*
X79493356Y-44403020D02*
X79474539Y-44408660D01*
X79474539Y-44408660D02*
X79468473Y-44421053D01*
X79468473Y-44421053D02*
X79468218Y-44426647D01*
X79468218Y-44426647D02*
X79467129Y-44442230D01*
X79467129Y-44442230D02*
X79459632Y-44444676D01*
X79459632Y-44444676D02*
X79439381Y-44433993D01*
X79439381Y-44433993D02*
X79427351Y-44426694D01*
X79427351Y-44426694D02*
X79389400Y-44411063D01*
X79389400Y-44411063D02*
X79344072Y-44403334D01*
X79344072Y-44403334D02*
X79296544Y-44402740D01*
X79296544Y-44402740D02*
X79251995Y-44408513D01*
X79251995Y-44408513D02*
X79215602Y-44419884D01*
X79215602Y-44419884D02*
X79192543Y-44436088D01*
X79192543Y-44436088D02*
X79187996Y-44456355D01*
X79187996Y-44456355D02*
X79190291Y-44461843D01*
X79190291Y-44461843D02*
X79207020Y-44484626D01*
X79207020Y-44484626D02*
X79232963Y-44512647D01*
X79232963Y-44512647D02*
X79237655Y-44517177D01*
X79237655Y-44517177D02*
X79262383Y-44538005D01*
X79262383Y-44538005D02*
X79283718Y-44544735D01*
X79283718Y-44544735D02*
X79313555Y-44540038D01*
X79313555Y-44540038D02*
X79325508Y-44536917D01*
X79325508Y-44536917D02*
X79362705Y-44529421D01*
X79362705Y-44529421D02*
X79388859Y-44532792D01*
X79388859Y-44532792D02*
X79410946Y-44544681D01*
X79410946Y-44544681D02*
X79431178Y-44560635D01*
X79431178Y-44560635D02*
X79446079Y-44580700D01*
X79446079Y-44580700D02*
X79456434Y-44608702D01*
X79456434Y-44608702D02*
X79463029Y-44648467D01*
X79463029Y-44648467D02*
X79466649Y-44703823D01*
X79466649Y-44703823D02*
X79468078Y-44778594D01*
X79468078Y-44778594D02*
X79468218Y-44823740D01*
X79468218Y-44823740D02*
X79468218Y-45017822D01*
X79468218Y-45017822D02*
X79593960Y-45017822D01*
X79593960Y-45017822D02*
X79593960Y-44401683D01*
X79593960Y-44401683D02*
X79531089Y-44401683D01*
X79531089Y-44401683D02*
X79493356Y-44403020D01*
X79493356Y-44403020D02*
X79493356Y-44403020D01*
G36*
X79593960Y-45017822D02*
G01*
X79468218Y-45017822D01*
X79468218Y-44823740D01*
X79468078Y-44778594D01*
X79466649Y-44703823D01*
X79463029Y-44648467D01*
X79456434Y-44608702D01*
X79446079Y-44580700D01*
X79431178Y-44560635D01*
X79410946Y-44544681D01*
X79388859Y-44532792D01*
X79362705Y-44529421D01*
X79325508Y-44536917D01*
X79313555Y-44540038D01*
X79283718Y-44544735D01*
X79262383Y-44538005D01*
X79237655Y-44517177D01*
X79232963Y-44512647D01*
X79207020Y-44484626D01*
X79190291Y-44461843D01*
X79187996Y-44456355D01*
X79192543Y-44436088D01*
X79215602Y-44419884D01*
X79251995Y-44408513D01*
X79296544Y-44402740D01*
X79344072Y-44403334D01*
X79389400Y-44411063D01*
X79427351Y-44426694D01*
X79439381Y-44433993D01*
X79459632Y-44444676D01*
X79467129Y-44442230D01*
X79468218Y-44426647D01*
X79468473Y-44421053D01*
X79474539Y-44408660D01*
X79493356Y-44403020D01*
X79531089Y-44401683D01*
X79593960Y-44401683D01*
X79593960Y-45017822D01*
G37*
X79593960Y-45017822D02*
X79468218Y-45017822D01*
X79468218Y-44823740D01*
X79468078Y-44778594D01*
X79466649Y-44703823D01*
X79463029Y-44648467D01*
X79456434Y-44608702D01*
X79446079Y-44580700D01*
X79431178Y-44560635D01*
X79410946Y-44544681D01*
X79388859Y-44532792D01*
X79362705Y-44529421D01*
X79325508Y-44536917D01*
X79313555Y-44540038D01*
X79283718Y-44544735D01*
X79262383Y-44538005D01*
X79237655Y-44517177D01*
X79232963Y-44512647D01*
X79207020Y-44484626D01*
X79190291Y-44461843D01*
X79187996Y-44456355D01*
X79192543Y-44436088D01*
X79215602Y-44419884D01*
X79251995Y-44408513D01*
X79296544Y-44402740D01*
X79344072Y-44403334D01*
X79389400Y-44411063D01*
X79427351Y-44426694D01*
X79439381Y-44433993D01*
X79459632Y-44444676D01*
X79467129Y-44442230D01*
X79468218Y-44426647D01*
X79468473Y-44421053D01*
X79474539Y-44408660D01*
X79493356Y-44403020D01*
X79531089Y-44401683D01*
X79593960Y-44401683D01*
X79593960Y-45017822D01*
X77889238Y-43466055D02*
X77825637Y-43500692D01*
X77825637Y-43500692D02*
X77775877Y-43555372D01*
X77775877Y-43555372D02*
X77752432Y-43599842D01*
X77752432Y-43599842D02*
X77742366Y-43639121D01*
X77742366Y-43639121D02*
X77735844Y-43695116D01*
X77735844Y-43695116D02*
X77733049Y-43759621D01*
X77733049Y-43759621D02*
X77734164Y-43824429D01*
X77734164Y-43824429D02*
X77739374Y-43881334D01*
X77739374Y-43881334D02*
X77745459Y-43911727D01*
X77745459Y-43911727D02*
X77765986Y-43953306D01*
X77765986Y-43953306D02*
X77801537Y-43997468D01*
X77801537Y-43997468D02*
X77844381Y-44036087D01*
X77844381Y-44036087D02*
X77886789Y-44061034D01*
X77886789Y-44061034D02*
X77887823Y-44061430D01*
X77887823Y-44061430D02*
X77940447Y-44072331D01*
X77940447Y-44072331D02*
X78002812Y-44072601D01*
X78002812Y-44072601D02*
X78062076Y-44062676D01*
X78062076Y-44062676D02*
X78084960Y-44054722D01*
X78084960Y-44054722D02*
X78143898Y-44021300D01*
X78143898Y-44021300D02*
X78186110Y-43977511D01*
X78186110Y-43977511D02*
X78213844Y-43919538D01*
X78213844Y-43919538D02*
X78229349Y-43843565D01*
X78229349Y-43843565D02*
X78232857Y-43803771D01*
X78232857Y-43803771D02*
X78232410Y-43753766D01*
X78232410Y-43753766D02*
X78097624Y-43753766D01*
X78097624Y-43753766D02*
X78093083Y-43826732D01*
X78093083Y-43826732D02*
X78080014Y-43882334D01*
X78080014Y-43882334D02*
X78059244Y-43917861D01*
X78059244Y-43917861D02*
X78044448Y-43928020D01*
X78044448Y-43928020D02*
X78006536Y-43935104D01*
X78006536Y-43935104D02*
X77961473Y-43933007D01*
X77961473Y-43933007D02*
X77922513Y-43922812D01*
X77922513Y-43922812D02*
X77912296Y-43917204D01*
X77912296Y-43917204D02*
X77885341Y-43884538D01*
X77885341Y-43884538D02*
X77867549Y-43834545D01*
X77867549Y-43834545D02*
X77859976Y-43773705D01*
X77859976Y-43773705D02*
X77863675Y-43708497D01*
X77863675Y-43708497D02*
X77871943Y-43669253D01*
X77871943Y-43669253D02*
X77895680Y-43623805D01*
X77895680Y-43623805D02*
X77933151Y-43595396D01*
X77933151Y-43595396D02*
X77978280Y-43585573D01*
X77978280Y-43585573D02*
X78024989Y-43595887D01*
X78024989Y-43595887D02*
X78060868Y-43621112D01*
X78060868Y-43621112D02*
X78079723Y-43641925D01*
X78079723Y-43641925D02*
X78090728Y-43662439D01*
X78090728Y-43662439D02*
X78095974Y-43690203D01*
X78095974Y-43690203D02*
X78097551Y-43732762D01*
X78097551Y-43732762D02*
X78097624Y-43753766D01*
X78097624Y-43753766D02*
X78232410Y-43753766D01*
X78232410Y-43753766D02*
X78231906Y-43697580D01*
X78231906Y-43697580D02*
X78214612Y-43610501D01*
X78214612Y-43610501D02*
X78180971Y-43542530D01*
X78180971Y-43542530D02*
X78130982Y-43493664D01*
X78130982Y-43493664D02*
X78064644Y-43463899D01*
X78064644Y-43463899D02*
X78050399Y-43460448D01*
X78050399Y-43460448D02*
X77964790Y-43452345D01*
X77964790Y-43452345D02*
X77889238Y-43466055D01*
X77889238Y-43466055D02*
X77889238Y-43466055D01*
G36*
X78229349Y-43843565D02*
G01*
X78213844Y-43919538D01*
X78186110Y-43977511D01*
X78143898Y-44021300D01*
X78084960Y-44054722D01*
X78062076Y-44062676D01*
X78002812Y-44072601D01*
X77940447Y-44072331D01*
X77887823Y-44061430D01*
X77886789Y-44061034D01*
X77844381Y-44036087D01*
X77801537Y-43997468D01*
X77765986Y-43953306D01*
X77745459Y-43911727D01*
X77739374Y-43881334D01*
X77734164Y-43824429D01*
X77733291Y-43773705D01*
X77859976Y-43773705D01*
X77867549Y-43834545D01*
X77885341Y-43884538D01*
X77912296Y-43917204D01*
X77922513Y-43922812D01*
X77961473Y-43933007D01*
X78006536Y-43935104D01*
X78044448Y-43928020D01*
X78059244Y-43917861D01*
X78080014Y-43882334D01*
X78093083Y-43826732D01*
X78097624Y-43753766D01*
X78097551Y-43732762D01*
X78095974Y-43690203D01*
X78090728Y-43662439D01*
X78079723Y-43641925D01*
X78060868Y-43621112D01*
X78024989Y-43595887D01*
X77978280Y-43585573D01*
X77933151Y-43595396D01*
X77895680Y-43623805D01*
X77871943Y-43669253D01*
X77863675Y-43708497D01*
X77859976Y-43773705D01*
X77733291Y-43773705D01*
X77733049Y-43759621D01*
X77735844Y-43695116D01*
X77742366Y-43639121D01*
X77752432Y-43599842D01*
X77775877Y-43555372D01*
X77825637Y-43500692D01*
X77889238Y-43466055D01*
X77964790Y-43452345D01*
X78050399Y-43460448D01*
X78064644Y-43463899D01*
X78130982Y-43493664D01*
X78180971Y-43542530D01*
X78214612Y-43610501D01*
X78231906Y-43697580D01*
X78232410Y-43753766D01*
X78232857Y-43803771D01*
X78229349Y-43843565D01*
G37*
X78229349Y-43843565D02*
X78213844Y-43919538D01*
X78186110Y-43977511D01*
X78143898Y-44021300D01*
X78084960Y-44054722D01*
X78062076Y-44062676D01*
X78002812Y-44072601D01*
X77940447Y-44072331D01*
X77887823Y-44061430D01*
X77886789Y-44061034D01*
X77844381Y-44036087D01*
X77801537Y-43997468D01*
X77765986Y-43953306D01*
X77745459Y-43911727D01*
X77739374Y-43881334D01*
X77734164Y-43824429D01*
X77733291Y-43773705D01*
X77859976Y-43773705D01*
X77867549Y-43834545D01*
X77885341Y-43884538D01*
X77912296Y-43917204D01*
X77922513Y-43922812D01*
X77961473Y-43933007D01*
X78006536Y-43935104D01*
X78044448Y-43928020D01*
X78059244Y-43917861D01*
X78080014Y-43882334D01*
X78093083Y-43826732D01*
X78097624Y-43753766D01*
X78097551Y-43732762D01*
X78095974Y-43690203D01*
X78090728Y-43662439D01*
X78079723Y-43641925D01*
X78060868Y-43621112D01*
X78024989Y-43595887D01*
X77978280Y-43585573D01*
X77933151Y-43595396D01*
X77895680Y-43623805D01*
X77871943Y-43669253D01*
X77863675Y-43708497D01*
X77859976Y-43773705D01*
X77733291Y-43773705D01*
X77733049Y-43759621D01*
X77735844Y-43695116D01*
X77742366Y-43639121D01*
X77752432Y-43599842D01*
X77775877Y-43555372D01*
X77825637Y-43500692D01*
X77889238Y-43466055D01*
X77964790Y-43452345D01*
X78050399Y-43460448D01*
X78064644Y-43463899D01*
X78130982Y-43493664D01*
X78180971Y-43542530D01*
X78214612Y-43610501D01*
X78231906Y-43697580D01*
X78232410Y-43753766D01*
X78232857Y-43803771D01*
X78229349Y-43843565D01*
X81038261Y-43465148D02*
X80972479Y-43494231D01*
X80972479Y-43494231D02*
X80922540Y-43542793D01*
X80922540Y-43542793D02*
X80888374Y-43610908D01*
X80888374Y-43610908D02*
X80869907Y-43698651D01*
X80869907Y-43698651D02*
X80868583Y-43712351D01*
X80868583Y-43712351D02*
X80867546Y-43808939D01*
X80867546Y-43808939D02*
X80880993Y-43893602D01*
X80880993Y-43893602D02*
X80908108Y-43962221D01*
X80908108Y-43962221D02*
X80922627Y-43984294D01*
X80922627Y-43984294D02*
X80973201Y-44031011D01*
X80973201Y-44031011D02*
X81037609Y-44061268D01*
X81037609Y-44061268D02*
X81109666Y-44073824D01*
X81109666Y-44073824D02*
X81183185Y-44067439D01*
X81183185Y-44067439D02*
X81239072Y-44047772D01*
X81239072Y-44047772D02*
X81287132Y-44014629D01*
X81287132Y-44014629D02*
X81326412Y-43971175D01*
X81326412Y-43971175D02*
X81327092Y-43970158D01*
X81327092Y-43970158D02*
X81343044Y-43943338D01*
X81343044Y-43943338D02*
X81353410Y-43916368D01*
X81353410Y-43916368D02*
X81359688Y-43882332D01*
X81359688Y-43882332D02*
X81363373Y-43834310D01*
X81363373Y-43834310D02*
X81364997Y-43794931D01*
X81364997Y-43794931D02*
X81365672Y-43759219D01*
X81365672Y-43759219D02*
X81239955Y-43759219D01*
X81239955Y-43759219D02*
X81238726Y-43794770D01*
X81238726Y-43794770D02*
X81234266Y-43842094D01*
X81234266Y-43842094D02*
X81226397Y-43872465D01*
X81226397Y-43872465D02*
X81212207Y-43894072D01*
X81212207Y-43894072D02*
X81198917Y-43906694D01*
X81198917Y-43906694D02*
X81151802Y-43933122D01*
X81151802Y-43933122D02*
X81102505Y-43936653D01*
X81102505Y-43936653D02*
X81056593Y-43917639D01*
X81056593Y-43917639D02*
X81033638Y-43896331D01*
X81033638Y-43896331D02*
X81017096Y-43874859D01*
X81017096Y-43874859D02*
X81007421Y-43854313D01*
X81007421Y-43854313D02*
X81003174Y-43827574D01*
X81003174Y-43827574D02*
X81002920Y-43787523D01*
X81002920Y-43787523D02*
X81004228Y-43750638D01*
X81004228Y-43750638D02*
X81007043Y-43697947D01*
X81007043Y-43697947D02*
X81011505Y-43663772D01*
X81011505Y-43663772D02*
X81019548Y-43641480D01*
X81019548Y-43641480D02*
X81033103Y-43624442D01*
X81033103Y-43624442D02*
X81043845Y-43614703D01*
X81043845Y-43614703D02*
X81088777Y-43589123D01*
X81088777Y-43589123D02*
X81137249Y-43587847D01*
X81137249Y-43587847D02*
X81177894Y-43602999D01*
X81177894Y-43602999D02*
X81212567Y-43634642D01*
X81212567Y-43634642D02*
X81233224Y-43686620D01*
X81233224Y-43686620D02*
X81239955Y-43759219D01*
X81239955Y-43759219D02*
X81365672Y-43759219D01*
X81365672Y-43759219D02*
X81366479Y-43716621D01*
X81366479Y-43716621D02*
X81363948Y-43658056D01*
X81363948Y-43658056D02*
X81356362Y-43614007D01*
X81356362Y-43614007D02*
X81342681Y-43579248D01*
X81342681Y-43579248D02*
X81321865Y-43548551D01*
X81321865Y-43548551D02*
X81314147Y-43539436D01*
X81314147Y-43539436D02*
X81265889Y-43494021D01*
X81265889Y-43494021D02*
X81214128Y-43467493D01*
X81214128Y-43467493D02*
X81150828Y-43456379D01*
X81150828Y-43456379D02*
X81119961Y-43455471D01*
X81119961Y-43455471D02*
X81038261Y-43465148D01*
X81038261Y-43465148D02*
X81038261Y-43465148D01*
G36*
X81363373Y-43834310D02*
G01*
X81359688Y-43882332D01*
X81353410Y-43916368D01*
X81343044Y-43943338D01*
X81327092Y-43970158D01*
X81326412Y-43971175D01*
X81287132Y-44014629D01*
X81239072Y-44047772D01*
X81183185Y-44067439D01*
X81109666Y-44073824D01*
X81037609Y-44061268D01*
X80973201Y-44031011D01*
X80922627Y-43984294D01*
X80908108Y-43962221D01*
X80880993Y-43893602D01*
X80867546Y-43808939D01*
X80867776Y-43787523D01*
X81002920Y-43787523D01*
X81003174Y-43827574D01*
X81007421Y-43854313D01*
X81017096Y-43874859D01*
X81033638Y-43896331D01*
X81056593Y-43917639D01*
X81102505Y-43936653D01*
X81151802Y-43933122D01*
X81198917Y-43906694D01*
X81212207Y-43894072D01*
X81226397Y-43872465D01*
X81234266Y-43842094D01*
X81238726Y-43794770D01*
X81239955Y-43759219D01*
X81233224Y-43686620D01*
X81212567Y-43634642D01*
X81177894Y-43602999D01*
X81137249Y-43587847D01*
X81088777Y-43589123D01*
X81043845Y-43614703D01*
X81033103Y-43624442D01*
X81019548Y-43641480D01*
X81011505Y-43663772D01*
X81007043Y-43697947D01*
X81004228Y-43750638D01*
X81002920Y-43787523D01*
X80867776Y-43787523D01*
X80868583Y-43712351D01*
X80869907Y-43698651D01*
X80888374Y-43610908D01*
X80922540Y-43542793D01*
X80972479Y-43494231D01*
X81038261Y-43465148D01*
X81119961Y-43455471D01*
X81150828Y-43456379D01*
X81214128Y-43467493D01*
X81265889Y-43494021D01*
X81314147Y-43539436D01*
X81321865Y-43548551D01*
X81342681Y-43579248D01*
X81356362Y-43614007D01*
X81363948Y-43658056D01*
X81366479Y-43716621D01*
X81365672Y-43759219D01*
X81364997Y-43794931D01*
X81363373Y-43834310D01*
G37*
X81363373Y-43834310D02*
X81359688Y-43882332D01*
X81353410Y-43916368D01*
X81343044Y-43943338D01*
X81327092Y-43970158D01*
X81326412Y-43971175D01*
X81287132Y-44014629D01*
X81239072Y-44047772D01*
X81183185Y-44067439D01*
X81109666Y-44073824D01*
X81037609Y-44061268D01*
X80973201Y-44031011D01*
X80922627Y-43984294D01*
X80908108Y-43962221D01*
X80880993Y-43893602D01*
X80867546Y-43808939D01*
X80867776Y-43787523D01*
X81002920Y-43787523D01*
X81003174Y-43827574D01*
X81007421Y-43854313D01*
X81017096Y-43874859D01*
X81033638Y-43896331D01*
X81056593Y-43917639D01*
X81102505Y-43936653D01*
X81151802Y-43933122D01*
X81198917Y-43906694D01*
X81212207Y-43894072D01*
X81226397Y-43872465D01*
X81234266Y-43842094D01*
X81238726Y-43794770D01*
X81239955Y-43759219D01*
X81233224Y-43686620D01*
X81212567Y-43634642D01*
X81177894Y-43602999D01*
X81137249Y-43587847D01*
X81088777Y-43589123D01*
X81043845Y-43614703D01*
X81033103Y-43624442D01*
X81019548Y-43641480D01*
X81011505Y-43663772D01*
X81007043Y-43697947D01*
X81004228Y-43750638D01*
X81002920Y-43787523D01*
X80867776Y-43787523D01*
X80868583Y-43712351D01*
X80869907Y-43698651D01*
X80888374Y-43610908D01*
X80922540Y-43542793D01*
X80972479Y-43494231D01*
X81038261Y-43465148D01*
X81119961Y-43455471D01*
X81150828Y-43456379D01*
X81214128Y-43467493D01*
X81265889Y-43494021D01*
X81314147Y-43539436D01*
X81321865Y-43548551D01*
X81342681Y-43579248D01*
X81356362Y-43614007D01*
X81363948Y-43658056D01*
X81366479Y-43716621D01*
X81365672Y-43759219D01*
X81364997Y-43794931D01*
X81363373Y-43834310D01*
D14*
%TO.C,P1*%
X71660000Y-28870000D02*
X23340000Y-28870000D01*
X74260000Y-31470000D02*
X71660000Y-31470000D01*
X74260000Y-28870000D02*
X72930000Y-28870000D01*
X74260000Y-30200000D02*
X74260000Y-28870000D01*
X74260000Y-34070000D02*
X23340000Y-34070000D01*
X71660000Y-31470000D02*
X71660000Y-28870000D01*
X23340000Y-34070000D02*
X23340000Y-28870000D01*
X74260000Y-34070000D02*
X74260000Y-31470000D01*
%TO.C,R1*%
X76265000Y-36727064D02*
X76265000Y-36272936D01*
X77735000Y-36727064D02*
X77735000Y-36272936D01*
%TO.C,R4*%
X78515000Y-36727064D02*
X78515000Y-36272936D01*
X79985000Y-36727064D02*
X79985000Y-36272936D01*
%TD*%
M02*
